<svg xmlns="http://www.w3.org/2000/svg" width="781.297" height="1082.262" viewBox="0 0 781.297 1082.262" fill="none">
  <path d="M 402.426 106.872 C 475.62 78.725 545.671 -31.038 614.212 8.49 C 685.832 49.792 642.104 179.426 670.644 261.553 C 688.558 313.1 749.348 345.306 750.393 400.357 C 751.498 458.643 671.184 495.584 676.186 553.631 C 682.969 632.358 782.432 679.858 781.287 758.916 C 780.302 826.959 712.953 871.189 670.853 921.796 C 621.969 980.559 585.407 1087.721 512.477 1082.046 C 427.764 1075.453 392.49 956.321 329.126 895.204 C 293.022 860.38 253.858 832.102 217.529 797.553 C 183.835 765.51 153.601 731.732 121.54 697.788 C 80.573 654.416 -9.673 629.074 0.846 568.149 C 13.435 495.237 160.41 513.478 166.125 439.565 C 174.245 334.534 3.622 263.082 32.223 162.318 C 53.64 86.868 176.234 159.936 248.572 149.102 C 301.563 141.165 352.025 126.255 402.426 106.872 Z" fill="currentColor" fill-rule="evenodd"></path>
</svg>