<svg xmlns="http://www.w3.org/2000/svg" width="64" height="64" viewBox="0 0 64 64" fill="none">
  <path d="M 55.13 0 L 8.87 0 C 3.981 0 0 3.981 0 8.87 L 0 55.13 C 0 60.019 3.981 64 8.87 64 L 55.13 64 C 60.019 64 64 60.019 64 55.13 L 64 8.87 C 64 3.981 60.019 0 55.13 0 Z M 62.443 55.13 C 62.443 59.16 59.168 62.435 55.13 62.435 L 8.87 62.435 C 4.84 62.435 1.557 59.16 1.557 55.122 L 1.557 8.87 C 1.565 4.84 4.84 1.565 8.87 1.565 L 55.13 1.565 C 59.16 1.565 62.443 4.84 62.443 8.878 L 62.443 55.139 L 62.443 55.13 Z" fill="currentColor" fill-rule="nonzero"></path>
</svg>