<svg xmlns="http://www.w3.org/2000/svg" width="28" height="30.130" viewBox="0 0 28 30.130" fill="none">
  <path d="M 20.717 11.03 C 21.087 12.066 22.382 14.069 23.55 15.866 L 23.539 15.86 C 25.733 19.237 28 22.736 28 24.834 L 26.943 24.834 C 26.943 23.048 24.565 19.38 22.652 16.436 C 21.161 14.137 20.125 12.51 19.729 11.405 C 19.2 11.548 18.609 11.622 17.958 11.622 C 14.365 11.622 14.238 4.508 14.238 3.694 L 15.295 3.694 C 15.3 5.475 15.802 10.565 17.958 10.565 C 19.327 10.565 20.363 10.205 20.881 9.555 C 21.277 9.059 21.378 8.371 21.182 7.51 C 20.094 2.743 17.06 1.052 14.793 1.052 L 10.348 1.052 C 7.441 1.052 7.394 3.086 7.394 3.171 C 7.394 3.446 7.182 3.668 6.913 3.694 L 4.202 3.943 C 4.154 4.677 3.884 5.274 3.388 5.697 C 2.711 6.268 1.781 6.384 1.147 6.384 L 1.105 6.384 C 1.263 7.346 1.908 8.726 4.286 8.99 C 8.847 9.492 10.042 9.751 10.042 12.684 L 10.042 13.213 L 8.985 13.213 L 8.985 12.684 C 8.985 10.813 8.985 10.57 4.17 10.036 C 1.094 9.698 0 7.632 0 5.814 C 0 4.598 0.56 3.504 0.587 3.456 C 0.671 3.298 0.83 3.192 1.009 3.176 L 6.411 2.685 C 6.606 1.797 7.373 0 10.353 0 L 14.798 0 C 17.451 0 20.992 1.908 22.218 7.283 C 22.493 8.472 22.324 9.46 21.716 10.221 C 21.457 10.544 21.119 10.813 20.717 11.03 Z M 1.094 5.327 C 1.596 5.333 2.283 5.253 2.711 4.889 L 2.711 4.883 C 2.949 4.683 3.092 4.402 3.145 4.038 L 1.411 4.196 C 1.305 4.45 1.163 4.862 1.094 5.327 Z M 8.456 4.228 L 8.456 3.171 C 8.456 2.88 8.694 2.643 8.985 2.643 C 9.275 2.643 9.513 2.88 9.513 3.171 L 9.513 4.228 C 9.513 4.519 9.275 4.757 8.985 4.757 C 8.694 4.757 8.456 4.519 8.456 4.228 Z M 8.456 18.498 L 8.456 19.555 C 8.456 19.845 8.694 20.083 8.985 20.083 C 9.275 20.083 9.513 19.845 9.513 19.555 L 9.513 18.498 C 9.513 18.207 9.275 17.969 8.985 17.969 C 8.694 17.969 8.456 18.207 8.456 18.498 Z M 11.558 11.342 L 12.161 11.431 L 12.177 11.437 C 12.277 11.453 14.782 11.86 16.859 15.607 C 18.545 18.651 19.555 24.079 19.555 30.13 L 18.498 30.13 C 18.498 24.248 17.536 19.01 15.934 16.114 C 14.724 13.931 13.382 13.043 12.626 12.695 L 12.626 15.95 L 10.364 15.95 C 10.269 15.955 7.431 16.13 7.431 19.031 L 7.431 19.56 L 5.216 19.56 C 5.068 19.607 4.725 19.967 4.725 21.103 C 4.725 22.186 5.581 23.788 7.41 23.788 C 8.472 23.788 9.772 23.909 10.438 24.834 C 10.919 25.5 10.956 26.451 10.554 27.656 C 10.295 28.439 10.031 28.972 9.833 29.372 C 9.822 29.396 9.81 29.42 9.798 29.443 C 9.64 29.76 9.524 29.992 9.524 30.13 L 8.467 30.13 C 8.467 29.739 8.636 29.401 8.852 28.967 L 8.868 28.936 C 9.061 28.545 9.303 28.054 9.55 27.318 C 9.835 26.451 9.846 25.823 9.576 25.447 C 9.185 24.903 8.149 24.84 7.404 24.84 C 5.095 24.84 3.663 22.895 3.663 21.098 C 3.663 18.609 5.074 18.498 5.132 18.498 L 6.39 18.498 C 6.664 15.781 9.037 14.946 10.332 14.888 L 11.558 14.888 L 11.558 11.342 Z" fill="currentColor" fill-rule="evenodd"></path>
  <path d="M 23.55 15.866 L 23.461 16.044 L 24.119 16.374 L 23.718 15.757 L 23.55 15.866 Z M 20.717 11.03 L 20.622 10.854 L 20.471 10.935 L 20.529 11.097 L 20.717 11.03 Z M 23.539 15.86 L 23.629 15.681 L 22.971 15.353 L 23.372 15.969 L 23.539 15.86 Z M 28 24.834 L 28 25.034 L 28.2 25.034 L 28.2 24.834 L 28 24.834 Z M 26.943 24.834 L 26.743 24.834 L 26.743 25.034 L 26.943 25.034 L 26.943 24.834 Z M 22.652 16.436 L 22.484 16.545 L 22.484 16.545 L 22.652 16.436 Z M 19.729 11.405 L 19.917 11.338 L 19.855 11.164 L 19.677 11.212 L 19.729 11.405 Z M 14.238 3.694 L 14.238 3.494 L 14.038 3.494 L 14.038 3.694 L 14.238 3.694 Z M 15.295 3.694 L 15.495 3.694 L 15.494 3.494 L 15.295 3.494 L 15.295 3.694 Z M 20.881 9.555 L 20.725 9.431 L 20.725 9.431 L 20.881 9.555 Z M 21.182 7.51 L 21.377 7.466 L 21.377 7.465 L 21.182 7.51 Z M 6.913 3.694 L 6.931 3.893 L 6.932 3.893 L 6.913 3.694 Z M 4.202 3.943 L 4.183 3.743 L 4.013 3.759 L 4.002 3.93 L 4.202 3.943 Z M 3.388 5.697 L 3.517 5.85 L 3.517 5.85 L 3.388 5.697 Z M 1.105 6.384 L 1.105 6.184 L 0.869 6.184 L 0.907 6.417 L 1.105 6.384 Z M 4.286 8.99 L 4.264 9.189 L 4.264 9.189 L 4.286 8.99 Z M 10.042 13.213 L 10.042 13.413 L 10.242 13.413 L 10.242 13.213 L 10.042 13.213 Z M 8.985 13.213 L 8.785 13.213 L 8.785 13.413 L 8.985 13.413 L 8.985 13.213 Z M 4.17 10.036 L 4.192 9.837 L 4.192 9.837 L 4.17 10.036 Z M 0.587 3.456 L 0.761 3.554 L 0.763 3.551 L 0.587 3.456 Z M 1.009 3.176 L 1.027 3.376 L 1.028 3.375 L 1.009 3.176 Z M 6.411 2.685 L 6.429 2.884 L 6.575 2.871 L 6.606 2.728 L 6.411 2.685 Z M 22.218 7.283 L 22.023 7.327 L 22.023 7.328 L 22.218 7.283 Z M 21.716 10.221 L 21.872 10.346 L 21.872 10.346 L 21.716 10.221 Z M 2.711 4.889 L 2.841 5.041 L 2.911 4.981 L 2.911 4.889 L 2.711 4.889 Z M 1.094 5.327 L 0.896 5.298 L 0.863 5.525 L 1.092 5.527 L 1.094 5.327 Z M 2.711 4.883 L 2.582 4.731 L 2.511 4.79 L 2.511 4.883 L 2.711 4.883 Z M 3.145 4.038 L 3.343 4.066 L 3.379 3.815 L 3.126 3.839 L 3.145 4.038 Z M 1.411 4.196 L 1.393 3.997 L 1.273 4.008 L 1.226 4.119 L 1.411 4.196 Z M 12.161 11.431 L 12.224 11.242 L 12.208 11.236 L 12.19 11.234 L 12.161 11.431 Z M 11.558 11.342 L 11.588 11.144 L 11.358 11.11 L 11.358 11.342 L 11.558 11.342 Z M 12.177 11.437 L 12.113 11.627 L 12.129 11.632 L 12.145 11.634 L 12.177 11.437 Z M 16.859 15.607 L 17.034 15.51 L 17.034 15.51 L 16.859 15.607 Z M 19.555 30.13 L 19.555 30.33 L 19.755 30.33 L 19.755 30.13 L 19.555 30.13 Z M 18.498 30.13 L 18.298 30.13 L 18.298 30.33 L 18.498 30.33 L 18.498 30.13 Z M 15.934 16.114 L 16.109 16.017 L 16.109 16.017 L 15.934 16.114 Z M 12.626 12.695 L 12.71 12.513 L 12.426 12.382 L 12.426 12.695 L 12.626 12.695 Z M 12.626 15.95 L 12.626 16.15 L 12.826 16.15 L 12.826 15.95 L 12.626 15.95 Z M 10.364 15.95 L 10.364 15.75 L 10.353 15.75 L 10.364 15.95 Z M 7.431 19.56 L 7.431 19.76 L 7.631 19.76 L 7.631 19.56 L 7.431 19.56 Z M 5.216 19.56 L 5.216 19.36 L 5.185 19.36 L 5.155 19.369 L 5.216 19.56 Z M 10.438 24.834 L 10.276 24.951 L 10.276 24.951 L 10.438 24.834 Z M 10.554 27.656 L 10.364 27.593 L 10.364 27.594 L 10.554 27.656 Z M 9.833 29.372 L 10.013 29.461 L 10.013 29.461 L 9.833 29.372 Z M 9.798 29.443 L 9.977 29.532 L 9.978 29.531 L 9.798 29.443 Z M 9.524 30.13 L 9.524 30.33 L 9.724 30.33 L 9.724 30.13 L 9.524 30.13 Z M 8.467 30.13 L 8.267 30.13 L 8.267 30.33 L 8.467 30.33 L 8.467 30.13 Z M 8.852 28.967 L 9.031 29.057 L 9.032 29.056 L 8.852 28.967 Z M 8.868 28.936 L 8.688 28.847 L 8.688 28.847 L 8.868 28.936 Z M 9.55 27.318 L 9.74 27.382 L 9.74 27.381 L 9.55 27.318 Z M 9.576 25.447 L 9.739 25.331 L 9.739 25.331 L 9.576 25.447 Z M 6.39 18.498 L 6.39 18.698 L 6.57 18.698 L 6.589 18.518 L 6.39 18.498 Z M 10.332 14.888 L 10.332 14.688 L 10.323 14.688 L 10.332 14.888 Z M 11.558 14.888 L 11.558 15.088 L 11.758 15.088 L 11.758 14.888 L 11.558 14.888 Z M 23.718 15.757 C 23.133 14.858 22.52 13.911 22.006 13.059 C 21.489 12.203 21.083 11.459 20.906 10.963 L 20.529 11.097 C 20.721 11.636 21.148 12.412 21.663 13.266 C 22.181 14.124 22.799 15.077 23.382 15.975 L 23.718 15.757 Z M 23.45 16.039 L 23.461 16.044 L 23.639 15.687 L 23.629 15.681 L 23.45 16.039 Z M 28.2 24.834 C 28.2 23.73 27.609 22.29 26.768 20.732 C 25.923 19.164 24.803 17.438 23.707 15.751 L 23.372 15.969 C 24.469 17.66 25.58 19.371 26.416 20.922 C 27.258 22.482 27.8 23.841 27.8 24.834 L 28.2 24.834 Z M 26.943 25.034 L 28 25.034 L 28 24.634 L 26.943 24.634 L 26.943 25.034 Z M 22.484 16.545 C 23.441 18.019 24.51 19.665 25.34 21.166 C 25.754 21.916 26.107 22.626 26.355 23.256 C 26.605 23.89 26.743 24.426 26.743 24.834 L 27.143 24.834 C 27.143 24.35 26.983 23.757 26.728 23.109 C 26.47 22.457 26.109 21.731 25.69 20.973 C 24.852 19.457 23.775 17.798 22.819 16.327 L 22.484 16.545 Z M 19.541 11.473 C 19.947 12.605 21 14.256 22.484 16.545 L 22.819 16.328 C 21.323 14.019 20.304 12.415 19.917 11.338 L 19.541 11.473 Z M 17.958 11.822 C 18.624 11.822 19.233 11.746 19.781 11.598 L 19.677 11.212 C 19.168 11.349 18.594 11.422 17.958 11.422 L 17.958 11.822 Z M 14.038 3.694 C 14.038 4.106 14.069 6.108 14.557 8.013 C 14.8 8.964 15.161 9.908 15.702 10.619 C 16.247 11.335 16.982 11.822 17.958 11.822 L 17.958 11.422 C 17.138 11.422 16.51 11.02 16.02 10.376 C 15.526 9.727 15.182 8.842 14.944 7.914 C 14.47 6.058 14.438 4.096 14.438 3.694 L 14.038 3.694 Z M 15.295 3.494 L 14.238 3.494 L 14.238 3.894 L 15.295 3.894 L 15.295 3.494 Z M 17.958 10.365 C 17.51 10.365 17.128 10.104 16.798 9.628 C 16.467 9.15 16.209 8.484 16.013 7.746 C 15.623 6.272 15.497 4.573 15.495 3.694 L 15.095 3.695 C 15.098 4.597 15.225 6.332 15.627 7.849 C 15.827 8.605 16.099 9.323 16.469 9.856 C 16.839 10.39 17.328 10.765 17.958 10.765 L 17.958 10.365 Z M 20.725 9.431 C 20.263 10.01 19.305 10.365 17.958 10.365 L 17.958 10.765 C 19.35 10.765 20.463 10.401 21.038 9.68 L 20.725 9.431 Z M 20.987 7.554 C 21.175 8.381 21.07 8.998 20.725 9.431 L 21.037 9.68 C 21.485 9.119 21.581 8.362 21.377 7.466 L 20.987 7.554 Z M 14.793 1.252 C 16.953 1.252 19.916 2.865 20.987 7.555 L 21.377 7.465 C 20.271 2.621 17.167 0.852 14.793 0.852 L 14.793 1.252 Z M 10.348 1.252 L 14.793 1.252 L 14.793 0.852 L 10.348 0.852 L 10.348 1.252 Z M 7.594 3.171 C 7.594 3.149 7.603 2.668 7.943 2.197 C 8.274 1.738 8.947 1.252 10.348 1.252 L 10.348 0.852 C 8.842 0.852 8.038 1.382 7.619 1.963 C 7.208 2.53 7.194 3.109 7.194 3.171 L 7.594 3.171 Z M 6.932 3.893 C 7.3 3.857 7.594 3.553 7.594 3.171 L 7.194 3.171 C 7.194 3.339 7.065 3.478 6.893 3.495 L 6.932 3.893 Z M 4.22 4.142 L 6.931 3.893 L 6.895 3.495 L 4.183 3.743 L 4.22 4.142 Z M 3.517 5.85 C 4.062 5.386 4.351 4.734 4.401 3.956 L 4.002 3.93 C 3.957 4.62 3.707 5.163 3.258 5.545 L 3.517 5.85 Z M 1.147 6.584 C 1.795 6.584 2.785 6.467 3.517 5.85 L 3.259 5.544 C 2.637 6.069 1.767 6.184 1.147 6.184 L 1.147 6.584 Z M 1.105 6.584 L 1.147 6.584 L 1.147 6.184 L 1.105 6.184 L 1.105 6.584 Z M 4.308 8.791 C 3.157 8.663 2.448 8.269 2.007 7.81 C 1.565 7.35 1.377 6.806 1.302 6.352 L 0.907 6.417 C 0.991 6.924 1.204 7.552 1.719 8.087 C 2.235 8.625 3.037 9.052 4.264 9.189 L 4.308 8.791 Z M 10.242 12.684 C 10.242 11.941 10.166 11.344 9.969 10.864 C 9.767 10.376 9.444 10.019 8.973 9.751 C 8.51 9.488 7.907 9.312 7.146 9.17 C 6.384 9.027 5.447 8.916 4.308 8.791 L 4.264 9.189 C 5.406 9.314 6.328 9.424 7.073 9.563 C 7.819 9.702 8.37 9.869 8.775 10.099 C 9.173 10.325 9.433 10.615 9.599 11.016 C 9.767 11.425 9.842 11.961 9.842 12.684 L 10.242 12.684 Z M 10.242 13.213 L 10.242 12.684 L 9.842 12.684 L 9.842 13.213 L 10.242 13.213 Z M 8.985 13.413 L 10.042 13.413 L 10.042 13.013 L 8.985 13.013 L 8.985 13.413 Z M 8.785 12.684 L 8.785 13.213 L 9.185 13.213 L 9.185 12.684 L 8.785 12.684 Z M 4.148 10.235 C 5.351 10.368 6.248 10.483 6.916 10.609 C 7.589 10.735 8.011 10.869 8.28 11.03 C 8.534 11.183 8.653 11.361 8.716 11.606 C 8.783 11.87 8.785 12.207 8.785 12.684 L 9.185 12.684 C 9.185 12.226 9.186 11.831 9.103 11.507 C 9.015 11.163 8.833 10.896 8.486 10.687 C 8.153 10.487 7.672 10.343 6.99 10.215 C 6.305 10.087 5.396 9.971 4.192 9.837 L 4.148 10.235 Z M -0.2 5.814 C -0.2 6.761 0.085 7.78 0.778 8.608 C 1.474 9.439 2.566 10.061 4.148 10.235 L 4.192 9.837 C 2.698 9.673 1.705 9.093 1.085 8.351 C 0.462 7.607 0.2 6.684 0.2 5.814 L -0.2 5.814 Z M 0.412 3.359 C 0.379 3.418 -0.2 4.548 -0.2 5.814 L 0.2 5.814 C 0.2 5.235 0.334 4.68 0.473 4.26 C 0.543 4.051 0.613 3.878 0.667 3.754 C 0.694 3.692 0.717 3.643 0.734 3.609 C 0.742 3.591 0.749 3.578 0.754 3.568 C 0.759 3.558 0.762 3.553 0.761 3.554 L 0.412 3.359 Z M 0.992 2.977 C 0.744 2.999 0.526 3.144 0.41 3.362 L 0.763 3.551 C 0.816 3.451 0.915 3.385 1.027 3.376 L 0.992 2.977 Z M 6.393 2.486 L 0.991 2.977 L 1.028 3.375 L 6.429 2.884 L 6.393 2.486 Z M 10.353 -0.2 C 8.82 -0.2 7.831 0.264 7.2 0.865 C 6.573 1.461 6.318 2.174 6.215 2.642 L 6.606 2.728 C 6.699 2.307 6.925 1.678 7.475 1.154 C 8.022 0.635 8.906 0.2 10.353 0.2 L 10.353 -0.2 Z M 14.798 -0.2 L 10.353 -0.2 L 10.353 0.2 L 14.798 0.2 L 14.798 -0.2 Z M 22.413 7.238 C 21.168 1.781 17.553 -0.2 14.798 -0.2 L 14.798 0.2 C 17.35 0.2 20.816 2.035 22.023 7.327 L 22.413 7.238 Z M 21.872 10.346 C 22.528 9.525 22.698 8.47 22.413 7.238 L 22.023 7.328 C 22.288 8.474 22.12 9.395 21.56 10.096 L 21.872 10.346 Z M 20.812 11.206 C 21.233 10.979 21.594 10.693 21.872 10.346 L 21.56 10.096 C 21.321 10.394 21.004 10.648 20.622 10.854 L 20.812 11.206 Z M 2.582 4.736 C 2.401 4.89 2.157 4.991 1.886 5.052 C 1.618 5.112 1.337 5.13 1.096 5.127 L 1.092 5.527 C 1.353 5.53 1.667 5.511 1.974 5.442 C 2.28 5.373 2.593 5.252 2.841 5.041 L 2.582 4.736 Z M 2.511 4.883 L 2.511 4.889 L 2.911 4.889 L 2.911 4.883 L 2.511 4.883 Z M 2.947 4.009 C 2.899 4.335 2.776 4.567 2.582 4.731 L 2.84 5.036 C 3.122 4.798 3.284 4.47 3.343 4.066 L 2.947 4.009 Z M 1.429 4.395 L 3.163 4.237 L 3.126 3.839 L 1.393 3.997 L 1.429 4.395 Z M 1.292 5.357 C 1.357 4.912 1.494 4.517 1.596 4.273 L 1.226 4.119 C 1.117 4.383 0.968 4.812 0.896 5.298 L 1.292 5.357 Z M 8.256 3.171 L 8.256 4.228 L 8.656 4.228 L 8.656 3.171 L 8.256 3.171 Z M 8.985 2.443 C 8.583 2.443 8.256 2.77 8.256 3.171 L 8.656 3.171 C 8.656 2.991 8.804 2.843 8.985 2.843 L 8.985 2.443 Z M 9.713 3.171 C 9.713 2.77 9.386 2.443 8.985 2.443 L 8.985 2.843 C 9.165 2.843 9.313 2.991 9.313 3.171 L 9.713 3.171 Z M 9.713 4.228 L 9.713 3.171 L 9.313 3.171 L 9.313 4.228 L 9.713 4.228 Z M 8.985 4.957 C 9.386 4.957 9.713 4.629 9.713 4.228 L 9.313 4.228 C 9.313 4.408 9.165 4.557 8.985 4.557 L 8.985 4.957 Z M 8.256 4.228 C 8.256 4.629 8.583 4.957 8.985 4.957 L 8.985 4.557 C 8.804 4.557 8.656 4.408 8.656 4.228 L 8.256 4.228 Z M 8.656 19.555 L 8.656 18.498 L 8.256 18.498 L 8.256 19.555 L 8.656 19.555 Z M 8.985 19.883 C 8.804 19.883 8.656 19.735 8.656 19.555 L 8.256 19.555 C 8.256 19.956 8.583 20.283 8.985 20.283 L 8.985 19.883 Z M 9.313 19.555 C 9.313 19.735 9.165 19.883 8.985 19.883 L 8.985 20.283 C 9.386 20.283 9.713 19.956 9.713 19.555 L 9.313 19.555 Z M 9.313 18.498 L 9.313 19.555 L 9.713 19.555 L 9.713 18.498 L 9.313 18.498 Z M 8.985 18.169 C 9.165 18.169 9.313 18.317 9.313 18.498 L 9.713 18.498 C 9.713 18.096 9.386 17.769 8.985 17.769 L 8.985 18.169 Z M 8.656 18.498 C 8.656 18.317 8.804 18.169 8.985 18.169 L 8.985 17.769 C 8.583 17.769 8.256 18.096 8.256 18.498 L 8.656 18.498 Z M 12.19 11.234 L 11.588 11.144 L 11.529 11.539 L 12.131 11.629 L 12.19 11.234 Z M 12.24 11.247 L 12.224 11.242 L 12.098 11.621 L 12.113 11.627 L 12.24 11.247 Z M 17.034 15.51 C 14.921 11.698 12.356 11.263 12.208 11.239 L 12.145 11.634 C 12.198 11.643 14.643 12.021 16.684 15.704 L 17.034 15.51 Z M 19.755 30.13 C 19.755 24.066 18.744 18.598 17.034 15.51 L 16.684 15.704 C 18.346 18.704 19.355 24.091 19.355 30.13 L 19.755 30.13 Z M 18.498 30.33 L 19.555 30.33 L 19.555 29.93 L 18.498 29.93 L 18.498 30.33 Z M 15.759 16.211 C 17.336 19.063 18.298 24.259 18.298 30.13 L 18.698 30.13 C 18.698 24.236 17.735 18.958 16.109 16.017 L 15.759 16.211 Z M 12.542 12.876 C 13.26 13.207 14.57 14.066 15.759 16.211 L 16.109 16.017 C 14.878 13.797 13.504 12.879 12.71 12.513 L 12.542 12.876 Z M 12.826 15.95 L 12.826 12.695 L 12.426 12.695 L 12.426 15.95 L 12.826 15.95 Z M 10.364 16.15 L 12.626 16.15 L 12.626 15.75 L 10.364 15.75 L 10.364 16.15 Z M 7.631 19.031 C 7.631 17.663 8.292 16.956 8.96 16.579 C 9.641 16.194 10.338 16.152 10.375 16.15 L 10.353 15.75 C 10.295 15.754 9.525 15.801 8.763 16.23 C 7.988 16.668 7.231 17.498 7.231 19.031 L 7.631 19.031 Z M 7.631 19.56 L 7.631 19.031 L 7.231 19.031 L 7.231 19.56 L 7.631 19.56 Z M 5.216 19.76 L 7.431 19.76 L 7.431 19.36 L 5.216 19.36 L 5.216 19.76 Z M 4.925 21.103 C 4.925 20.554 5.008 20.209 5.098 20.004 C 5.192 19.789 5.282 19.749 5.278 19.75 L 5.155 19.369 C 5.002 19.418 4.847 19.581 4.732 19.843 C 4.613 20.113 4.525 20.516 4.525 21.103 L 4.925 21.103 Z M 7.41 23.588 C 6.561 23.588 5.944 23.219 5.536 22.724 C 5.123 22.224 4.925 21.598 4.925 21.103 L 4.525 21.103 C 4.525 21.691 4.755 22.408 5.227 22.979 C 5.704 23.556 6.43 23.988 7.41 23.988 L 7.41 23.588 Z M 10.6 24.717 C 10.232 24.205 9.693 23.925 9.124 23.771 C 8.558 23.618 7.946 23.588 7.41 23.588 L 7.41 23.988 C 7.936 23.988 8.505 24.018 9.02 24.157 C 9.534 24.296 9.978 24.538 10.276 24.951 L 10.6 24.717 Z M 10.744 27.72 C 11.154 26.489 11.136 25.459 10.6 24.717 L 10.276 24.951 C 10.702 25.541 10.757 26.414 10.364 27.593 L 10.744 27.72 Z M 10.013 29.461 C 10.211 29.059 10.48 28.516 10.744 27.719 L 10.364 27.594 C 10.11 28.362 9.851 28.886 9.654 29.283 L 10.013 29.461 Z M 9.978 29.531 C 9.989 29.508 10.001 29.485 10.013 29.461 L 9.654 29.283 C 9.642 29.307 9.631 29.331 9.619 29.354 L 9.978 29.531 Z M 9.724 30.13 C 9.724 30.106 9.737 30.047 9.786 29.932 C 9.832 29.824 9.897 29.693 9.977 29.532 L 9.62 29.353 C 9.541 29.51 9.469 29.654 9.417 29.775 C 9.368 29.891 9.324 30.017 9.324 30.13 L 9.724 30.13 Z M 8.467 30.33 L 9.524 30.33 L 9.524 29.93 L 8.467 29.93 L 8.467 30.33 Z M 8.674 28.878 C 8.462 29.301 8.267 29.683 8.267 30.13 L 8.667 30.13 C 8.667 29.795 8.81 29.5 9.031 29.057 L 8.674 28.878 Z M 8.688 28.847 L 8.673 28.879 L 9.032 29.056 L 9.047 29.024 L 8.688 28.847 Z M 9.36 27.255 C 9.118 27.977 8.881 28.458 8.688 28.847 L 9.047 29.024 C 9.241 28.631 9.488 28.131 9.74 27.382 L 9.36 27.255 Z M 9.414 25.564 C 9.516 25.706 9.576 25.911 9.571 26.196 C 9.567 26.481 9.499 26.833 9.36 27.256 L 9.74 27.381 C 9.886 26.936 9.966 26.541 9.971 26.201 C 9.976 25.861 9.906 25.564 9.739 25.331 L 9.414 25.564 Z M 7.404 25.04 C 7.774 25.04 8.202 25.056 8.582 25.135 C 8.969 25.216 9.263 25.354 9.414 25.564 L 9.739 25.331 C 9.498 24.996 9.079 24.83 8.664 24.744 C 8.242 24.655 7.78 24.64 7.404 24.64 L 7.404 25.04 Z M 3.463 21.098 C 3.463 22.987 4.967 25.04 7.404 25.04 L 7.404 24.64 C 5.223 24.64 3.863 22.802 3.863 21.098 L 3.463 21.098 Z M 5.132 18.298 C 5.064 18.298 4.643 18.337 4.238 18.719 C 3.827 19.105 3.463 19.815 3.463 21.098 L 3.863 21.098 C 3.863 19.892 4.203 19.301 4.512 19.01 C 4.827 18.713 5.142 18.698 5.132 18.698 L 5.132 18.298 Z M 6.39 18.298 L 5.132 18.298 L 5.132 18.698 L 6.39 18.698 L 6.39 18.298 Z M 10.323 14.688 C 9.645 14.719 8.689 14.951 7.863 15.532 C 7.031 16.118 6.334 17.056 6.191 18.477 L 6.589 18.518 C 6.72 17.222 7.347 16.385 8.093 15.859 C 8.847 15.329 9.725 15.115 10.341 15.088 L 10.323 14.688 Z M 11.558 14.688 L 10.332 14.688 L 10.332 15.088 L 11.558 15.088 L 11.558 14.688 Z M 11.358 11.342 L 11.358 14.888 L 11.758 14.888 L 11.758 11.342 L 11.358 11.342 Z" fill="currentColor" fill-rule="nonzero"></path>
</svg>