<svg xmlns="http://www.w3.org/2000/svg" width="26" height="24.735" viewBox="0 0 26 24.735" fill="none">
  <path d="M 1.095 18.515 C 1.564 18.722 3.964 19.145 8.288 19.362 L 8.289 19.362 C 8.493 19.372 8.649 19.546 8.639 19.749 C 8.629 19.947 8.466 20.1 8.271 20.1 L 8.252 20.1 C 6.183 19.996 4.252 19.827 2.813 19.622 C 2.138 19.526 1.605 19.428 1.226 19.329 L 1.221 19.327 C 1.132 19.304 1.031 19.278 0.931 19.243 C 0.677 20.558 0.675 21.892 0.927 23.216 C 0.965 23.417 0.834 23.61 0.633 23.648 C 0.61 23.653 0.586 23.655 0.564 23.655 C 0.39 23.655 0.235 23.532 0.201 23.355 C -0.1 21.771 -0.063 20.174 0.312 18.609 C 1.047 15.541 2.381 13.81 3.557 12.283 L 3.558 12.282 L 3.558 12.282 C 4.722 10.772 5.641 9.58 5.722 7.51 C 5.735 7.196 5.722 6.889 5.686 6.587 C 5.684 6.578 5.683 6.569 5.682 6.561 L 5.682 6.561 L 5.682 6.558 C 5.515 5.24 4.881 4.038 3.789 2.976 C 3.147 2.352 2.49 1.925 2.085 1.691 C 1.718 1.591 1.468 1.439 1.468 1.142 L 1.468 1.134 L 1.468 1.128 C 1.48 0.704 2.014 0.582 2.659 0.477 C 3.235 0.383 4.054 0.299 5.096 0.227 C 7.222 0.081 10.047 0 13.051 0 C 16.054 0 18.879 0.081 21.005 0.227 C 22.046 0.299 22.866 0.383 23.442 0.477 C 24.093 0.583 24.633 0.706 24.633 1.142 C 24.633 1.481 24.307 1.631 23.856 1.731 C 22.936 2.275 20.932 3.706 20.409 6.074 C 20.371 6.246 20.218 6.364 20.049 6.364 C 20.022 6.364 19.995 6.361 19.969 6.355 C 19.769 6.311 19.644 6.114 19.687 5.915 C 20.09 4.093 21.232 2.79 22.242 1.956 C 21.874 1.992 21.46 2.025 21.005 2.056 C 18.878 2.203 16.054 2.284 13.05 2.284 C 10.046 2.284 7.221 2.203 5.095 2.056 C 4.59 2.022 4.138 1.984 3.741 1.944 C 3.919 2.091 4.101 2.252 4.284 2.428 C 5.416 3.522 6.121 4.799 6.366 6.175 C 7.375 6.239 8.52 6.286 9.774 6.317 C 9.978 6.322 10.139 6.491 10.134 6.696 C 10.129 6.897 9.965 7.056 9.765 7.056 L 9.756 7.056 C 8.547 7.026 7.439 6.981 6.453 6.921 C 6.465 7.125 6.467 7.331 6.459 7.538 C 6.368 9.843 5.337 11.181 4.143 12.73 L 4.142 12.732 C 3.802 13.173 3.449 13.632 3.102 14.137 C 3.492 14.302 4.666 14.569 7.236 14.756 C 7.439 14.771 7.592 14.948 7.577 15.151 C 7.563 15.345 7.401 15.494 7.209 15.494 C 7.2 15.494 7.191 15.493 7.182 15.493 C 5.79 15.391 4.628 15.254 3.821 15.094 C 3.354 15.001 2.966 14.899 2.695 14.758 C 2.074 15.759 1.499 16.952 1.095 18.515 Z M 22.882 1.142 C 21.204 0.934 17.773 0.739 13.051 0.739 C 8.328 0.739 4.897 0.934 3.22 1.142 C 4.898 1.351 8.328 1.546 13.051 1.546 C 17.773 1.546 21.204 1.351 22.882 1.142 Z M 11.701 11.986 C 9.88 11.956 8.091 11.865 6.528 11.722 C 6.325 11.704 6.145 11.852 6.127 12.056 C 6.108 12.259 6.258 12.439 6.461 12.457 C 8.041 12.602 9.849 12.694 11.688 12.725 L 11.694 12.725 C 11.895 12.725 12.06 12.564 12.064 12.362 C 12.067 12.158 11.904 11.99 11.701 11.986 Z M 13.245 14.945 L 13.244 14.945 L 13 14.945 C 12.795 14.945 12.63 15.11 12.63 15.314 C 12.63 15.518 12.795 15.684 13 15.684 L 13.246 15.684 C 13.45 15.684 13.615 15.517 13.614 15.313 C 13.614 15.11 13.449 14.945 13.245 14.945 Z M 11.132 15.297 C 11.127 15.498 10.963 15.658 10.763 15.658 L 10.754 15.658 C 10.173 15.644 9.6 15.624 9.049 15.6 C 8.846 15.591 8.688 15.419 8.697 15.215 C 8.706 15.011 8.879 14.853 9.082 14.863 C 9.627 14.887 10.196 14.906 10.771 14.92 C 10.975 14.924 11.136 15.094 11.132 15.297 Z M 10.908 19.456 L 10.634 19.449 C 10.431 19.445 10.261 19.605 10.256 19.809 C 10.251 20.013 10.412 20.182 10.616 20.187 L 10.892 20.194 L 10.9 20.194 C 11.1 20.194 11.264 20.034 11.269 19.833 C 11.274 19.629 11.112 19.46 10.908 19.456 Z M 7.342 20.922 C 6.102 20.846 4.96 20.75 3.945 20.634 C 3.743 20.611 3.56 20.756 3.536 20.959 C 3.513 21.162 3.659 21.345 3.861 21.368 C 4.888 21.485 6.044 21.583 7.296 21.66 C 7.304 21.66 7.311 21.66 7.318 21.66 C 7.512 21.66 7.674 21.509 7.687 21.314 C 7.699 21.11 7.544 20.935 7.341 20.923 L 7.342 20.922 Z M 25.706 23.27 L 25.985 24.266 L 25.986 24.266 C 26.041 24.462 25.927 24.667 25.73 24.722 C 25.697 24.731 25.663 24.735 25.631 24.735 C 25.469 24.735 25.321 24.629 25.275 24.466 L 24.996 23.47 C 24.71 22.447 24.564 21.389 24.564 20.326 L 24.564 16.016 C 24.564 15.669 24.418 15.335 24.165 15.1 L 21.126 12.279 C 20.91 12.141 20.644 12.09 20.392 12.141 L 19.532 12.312 C 19.404 12.338 19.277 12.294 19.193 12.206 C 19.203 12.241 19.214 12.275 19.23 12.308 L 20.068 14.079 C 20.155 14.263 20.077 14.483 19.892 14.57 C 19.841 14.594 19.787 14.606 19.734 14.606 C 19.596 14.606 19.464 14.528 19.4 14.394 L 18.563 12.623 C 18.409 12.298 18.391 11.932 18.512 11.593 C 18.633 11.255 18.879 10.984 19.204 10.83 C 19.507 10.686 19.637 10.323 19.494 10.019 L 19.308 9.627 L 14.535 11.885 L 14.72 12.277 C 14.79 12.424 14.912 12.535 15.065 12.59 C 15.218 12.645 15.384 12.637 15.531 12.567 C 16.202 12.25 17.007 12.537 17.324 13.209 L 17.453 13.48 C 17.94 13.472 18.416 13.713 18.694 14.16 L 20.834 17.6 L 21.169 17.24 C 21.478 16.909 21.509 16.402 21.243 16.035 L 20.494 15.004 C 20.374 14.838 20.411 14.607 20.576 14.488 C 20.741 14.368 20.972 14.404 21.092 14.569 L 21.841 15.601 C 22.314 16.253 22.259 17.154 21.709 17.744 L 21.238 18.249 L 21.459 18.604 C 21.566 18.777 21.513 19.004 21.34 19.112 C 21.167 19.22 20.939 19.167 20.832 18.994 L 18.067 14.55 C 17.905 14.29 17.606 14.174 17.324 14.237 L 17.309 14.24 C 17.245 14.257 17.181 14.282 17.121 14.317 C 16.812 14.498 16.691 14.881 16.839 15.207 L 18.727 19.373 C 18.727 19.375 18.729 19.378 18.729 19.378 L 19.031 20.044 C 19.114 20.23 19.032 20.448 18.846 20.533 C 18.797 20.555 18.746 20.566 18.694 20.566 C 18.554 20.566 18.42 20.485 18.358 20.349 L 18.343 20.315 C 18.147 20.845 18.235 21.452 18.612 21.916 L 19.384 22.866 C 19.727 23.289 19.916 23.822 19.916 24.366 C 19.916 24.57 19.751 24.735 19.547 24.735 C 19.343 24.735 19.178 24.57 19.178 24.366 C 19.178 23.99 19.047 23.623 18.811 23.332 L 18.039 22.382 C 17.346 21.53 17.327 20.345 17.962 19.477 L 16.75 16.802 C 16.504 16.896 16.244 16.944 15.983 16.944 C 15.69 16.944 15.397 16.885 15.121 16.765 L 14.724 16.593 C 14.63 16.552 14.556 16.473 14.523 16.376 C 14.488 16.279 14.496 16.172 14.545 16.081 L 16.087 13.177 C 16.006 13.18 15.924 13.198 15.846 13.235 C 15.521 13.389 15.155 13.407 14.816 13.286 C 14.478 13.165 14.207 12.919 14.053 12.594 L 13.709 11.868 C 13.705 11.858 13.701 11.849 13.698 11.839 C 13.696 11.837 13.695 11.834 13.693 11.832 C 13.691 11.828 13.689 11.825 13.687 11.821 L 10.975 6.087 C 10.887 5.903 10.966 5.682 11.151 5.595 L 16.591 3.021 C 16.775 2.934 16.996 3.012 17.083 3.197 L 19.795 8.931 C 19.799 8.939 19.802 8.947 19.805 8.955 C 19.809 8.963 19.813 8.97 19.817 8.978 L 20.161 9.704 C 20.315 10.029 20.333 10.395 20.211 10.734 C 20.09 11.072 19.845 11.343 19.519 11.497 C 19.467 11.522 19.42 11.553 19.378 11.59 C 19.381 11.589 19.386 11.588 19.386 11.588 L 20.245 11.416 C 20.699 11.325 21.179 11.422 21.562 11.682 C 21.577 11.693 21.592 11.704 21.605 11.717 L 24.666 14.558 C 25.07 14.933 25.302 15.464 25.302 16.015 L 25.302 20.326 C 25.302 21.321 25.438 22.312 25.706 23.27 Z M 16.733 13.688 L 16.695 13.607 L 16.605 13.775 C 16.646 13.744 16.689 13.715 16.733 13.688 Z M 15.384 16.074 L 15.414 16.087 L 15.414 16.088 C 15.744 16.23 16.111 16.242 16.444 16.128 L 16.165 15.512 C 16.067 15.295 16.027 15.066 16.039 14.842 L 15.384 16.074 Z M 11.799 6.104 L 14.218 11.218 L 14.218 11.218 L 18.991 8.96 L 16.572 3.847 L 15.289 4.454 L 16.894 7.849 C 16.982 8.033 16.903 8.254 16.719 8.341 C 16.668 8.364 16.614 8.376 16.561 8.376 C 16.423 8.376 16.29 8.298 16.227 8.164 L 14.621 4.77 L 13.938 5.093 L 14.796 6.907 C 14.883 7.091 14.805 7.311 14.62 7.398 C 14.569 7.422 14.515 7.434 14.462 7.434 C 14.324 7.434 14.192 7.356 14.129 7.222 L 13.271 5.408 L 11.799 6.104 Z" fill="currentColor" fill-rule="evenodd"></path>
  <path d="M 8.288 19.362 L 8.351 19.172 L 8.325 19.163 L 8.298 19.162 L 8.288 19.362 Z M 1.095 18.515 L 0.902 18.465 L 0.859 18.629 L 1.015 18.698 L 1.095 18.515 Z M 8.289 19.362 L 8.226 19.552 L 8.252 19.561 L 8.279 19.562 L 8.289 19.362 Z M 8.639 19.749 L 8.839 19.759 L 8.839 19.759 L 8.639 19.749 Z M 8.252 20.1 L 8.242 20.3 L 8.252 20.3 L 8.252 20.1 Z M 2.813 19.622 L 2.785 19.82 L 2.785 19.82 L 2.813 19.622 Z M 1.226 19.329 L 1.175 19.522 L 1.176 19.522 L 1.226 19.329 Z M 1.221 19.327 L 1.17 19.521 L 1.17 19.521 L 1.221 19.327 Z M 0.931 19.243 L 0.996 19.054 L 0.779 18.98 L 0.735 19.205 L 0.931 19.243 Z M 0.927 23.216 L 1.124 23.179 L 1.124 23.179 L 0.927 23.216 Z M 0.633 23.648 L 0.669 23.845 L 0.671 23.845 L 0.633 23.648 Z M 0.201 23.355 L 0.005 23.392 L 0.005 23.392 L 0.201 23.355 Z M 0.312 18.609 L 0.507 18.655 L 0.507 18.655 L 0.312 18.609 Z M 3.557 12.283 L 3.399 12.16 L 3.399 12.161 L 3.557 12.283 Z M 3.558 12.282 L 3.716 12.404 L 3.718 12.402 L 3.558 12.282 Z M 3.558 12.282 L 3.4 12.16 L 3.398 12.162 L 3.558 12.282 Z M 5.722 7.51 L 5.522 7.502 L 5.522 7.502 L 5.722 7.51 Z M 5.686 6.587 L 5.884 6.563 L 5.883 6.554 L 5.686 6.587 Z M 5.682 6.561 L 5.881 6.539 L 5.881 6.537 L 5.682 6.561 Z M 5.682 6.561 L 5.483 6.583 L 5.484 6.584 L 5.682 6.561 Z M 5.682 6.558 L 5.881 6.536 L 5.88 6.533 L 5.682 6.558 Z M 3.789 2.976 L 3.928 2.833 L 3.928 2.833 L 3.789 2.976 Z M 2.085 1.691 L 2.184 1.518 L 2.162 1.505 L 2.137 1.498 L 2.085 1.691 Z M 1.468 1.128 L 1.268 1.123 L 1.268 1.128 L 1.468 1.128 Z M 2.659 0.477 L 2.691 0.674 L 2.691 0.674 L 2.659 0.477 Z M 5.096 0.227 L 5.11 0.427 L 5.11 0.427 L 5.096 0.227 Z M 21.005 0.227 L 20.991 0.427 L 20.991 0.427 L 21.005 0.227 Z M 23.442 0.477 L 23.41 0.674 L 23.41 0.674 L 23.442 0.477 Z M 23.856 1.731 L 23.812 1.536 L 23.781 1.542 L 23.754 1.559 L 23.856 1.731 Z M 20.409 6.074 L 20.214 6.031 L 20.214 6.031 L 20.409 6.074 Z M 19.969 6.355 L 19.926 6.55 L 19.926 6.55 L 19.969 6.355 Z M 19.687 5.915 L 19.492 5.872 L 19.492 5.872 L 19.687 5.915 Z M 22.242 1.956 L 22.37 2.11 L 22.874 1.693 L 22.223 1.757 L 22.242 1.956 Z M 21.005 2.056 L 20.991 1.857 L 20.991 1.857 L 21.005 2.056 Z M 5.095 2.056 L 5.109 1.857 L 5.108 1.857 L 5.095 2.056 Z M 3.741 1.944 L 3.761 1.745 L 3.103 1.679 L 3.614 2.098 L 3.741 1.944 Z M 4.284 2.428 L 4.423 2.285 L 4.423 2.284 L 4.284 2.428 Z M 6.366 6.175 L 6.169 6.211 L 6.197 6.365 L 6.354 6.375 L 6.366 6.175 Z M 9.774 6.317 L 9.769 6.517 L 9.769 6.517 L 9.774 6.317 Z M 10.134 6.696 L 9.934 6.69 L 9.934 6.691 L 10.134 6.696 Z M 9.756 7.056 L 9.751 7.256 L 9.756 7.256 L 9.756 7.056 Z M 6.453 6.921 L 6.465 6.721 L 6.241 6.708 L 6.254 6.932 L 6.453 6.921 Z M 6.459 7.538 L 6.659 7.546 L 6.659 7.546 L 6.459 7.538 Z M 4.143 12.73 L 4.302 12.853 L 4.302 12.852 L 4.143 12.73 Z M 4.142 12.732 L 3.984 12.61 L 3.984 12.61 L 4.142 12.732 Z M 3.102 14.137 L 2.937 14.023 L 2.798 14.225 L 3.024 14.321 L 3.102 14.137 Z M 7.236 14.756 L 7.25 14.557 L 7.25 14.557 L 7.236 14.756 Z M 7.577 15.151 L 7.377 15.137 L 7.377 15.137 L 7.577 15.151 Z M 7.182 15.493 L 7.168 15.692 L 7.171 15.692 L 7.182 15.493 Z M 3.821 15.094 L 3.782 15.29 L 3.782 15.29 L 3.821 15.094 Z M 2.695 14.758 L 2.787 14.581 L 2.623 14.495 L 2.525 14.653 L 2.695 14.758 Z M 22.882 1.142 L 22.906 1.341 L 22.906 0.944 L 22.882 1.142 Z M 3.22 1.142 L 3.195 0.944 L 3.195 1.341 L 3.22 1.142 Z M 6.528 11.722 L 6.546 11.522 L 6.546 11.522 L 6.528 11.722 Z M 11.701 11.986 L 11.704 11.786 L 11.704 11.786 L 11.701 11.986 Z M 6.127 12.056 L 5.928 12.037 L 5.928 12.037 L 6.127 12.056 Z M 6.461 12.457 L 6.479 12.258 L 6.479 12.258 L 6.461 12.457 Z M 11.688 12.725 L 11.685 12.925 L 11.688 12.925 L 11.688 12.725 Z M 12.064 12.362 L 12.264 12.366 L 12.264 12.365 L 12.064 12.362 Z M 13.614 15.313 L 13.414 15.313 L 13.414 15.314 L 13.614 15.313 Z M 11.132 15.297 L 11.331 15.302 L 11.331 15.302 L 11.132 15.297 Z M 10.754 15.658 L 10.749 15.858 L 10.754 15.858 L 10.754 15.658 Z M 9.049 15.6 L 9.058 15.4 L 9.058 15.4 L 9.049 15.6 Z M 9.082 14.863 L 9.072 15.062 L 9.073 15.062 L 9.082 14.863 Z M 10.771 14.92 L 10.766 15.12 L 10.767 15.12 L 10.771 14.92 Z M 10.634 19.449 L 10.639 19.249 L 10.638 19.249 L 10.634 19.449 Z M 10.908 19.456 L 10.904 19.655 L 10.904 19.655 L 10.908 19.456 Z M 10.256 19.809 L 10.456 19.814 L 10.456 19.814 L 10.256 19.809 Z M 10.616 20.187 L 10.611 20.387 L 10.611 20.387 L 10.616 20.187 Z M 10.892 20.194 L 10.887 20.394 L 10.892 20.394 L 10.892 20.194 Z M 11.269 19.833 L 11.469 19.837 L 11.469 19.837 L 11.269 19.833 Z M 3.945 20.634 L 3.968 20.435 L 3.967 20.435 L 3.945 20.634 Z M 7.342 20.922 L 7.431 21.101 L 8.096 20.768 L 7.354 20.722 L 7.342 20.922 Z M 3.861 21.368 L 3.839 21.567 L 3.839 21.567 L 3.861 21.368 Z M 7.296 21.66 L 7.283 21.86 L 7.296 21.86 L 7.296 21.66 Z M 7.687 21.314 L 7.487 21.301 L 7.487 21.301 L 7.687 21.314 Z M 7.341 20.923 L 7.251 20.744 L 6.584 21.078 L 7.329 21.122 L 7.341 20.923 Z M 25.985 24.266 L 25.793 24.32 L 25.817 24.405 L 25.896 24.445 L 25.985 24.266 Z M 25.706 23.27 L 25.514 23.324 L 25.514 23.324 L 25.706 23.27 Z M 25.986 24.266 L 26.179 24.212 L 26.155 24.127 L 26.076 24.087 L 25.986 24.266 Z M 25.73 24.722 L 25.677 24.529 L 25.675 24.529 L 25.73 24.722 Z M 25.275 24.466 L 25.083 24.52 L 25.083 24.52 L 25.275 24.466 Z M 24.996 23.47 L 24.803 23.524 L 24.803 23.524 L 24.996 23.47 Z M 24.165 15.1 L 24.301 14.953 L 24.301 14.953 L 24.165 15.1 Z M 21.126 12.279 L 21.263 12.133 L 21.249 12.121 L 21.234 12.111 L 21.126 12.279 Z M 20.392 12.141 L 20.431 12.337 L 20.431 12.337 L 20.392 12.141 Z M 19.532 12.312 L 19.492 12.116 L 19.492 12.116 L 19.532 12.312 Z M 19.193 12.206 L 19.337 12.068 L 19 12.26 L 19.193 12.206 Z M 19.23 12.308 L 19.411 12.222 L 19.41 12.221 L 19.23 12.308 Z M 20.068 14.079 L 19.887 14.164 L 19.887 14.165 L 20.068 14.079 Z M 19.892 14.57 L 19.976 14.752 L 19.977 14.751 L 19.892 14.57 Z M 19.4 14.394 L 19.22 14.48 L 19.22 14.48 L 19.4 14.394 Z M 18.563 12.623 L 18.743 12.538 L 18.743 12.538 L 18.563 12.623 Z M 18.512 11.593 L 18.7 11.661 L 18.7 11.661 L 18.512 11.593 Z M 19.204 10.83 L 19.29 11.01 L 19.29 11.01 L 19.204 10.83 Z M 19.494 10.019 L 19.675 9.934 L 19.675 9.934 L 19.494 10.019 Z M 19.308 9.627 L 19.489 9.541 L 19.403 9.36 L 19.222 9.446 L 19.308 9.627 Z M 14.535 11.885 L 14.449 11.704 L 14.268 11.789 L 14.354 11.97 L 14.535 11.885 Z M 14.72 12.277 L 14.54 12.363 L 14.54 12.363 L 14.72 12.277 Z M 15.065 12.59 L 14.998 12.778 L 14.998 12.778 L 15.065 12.59 Z M 15.531 12.567 L 15.445 12.386 L 15.445 12.387 L 15.531 12.567 Z M 17.324 13.209 L 17.144 13.294 L 17.144 13.294 L 17.324 13.209 Z M 17.453 13.48 L 17.272 13.566 L 17.328 13.683 L 17.457 13.68 L 17.453 13.48 Z M 18.694 14.16 L 18.524 14.266 L 18.524 14.266 L 18.694 14.16 Z M 20.834 17.6 L 20.664 17.705 L 20.802 17.927 L 20.98 17.736 L 20.834 17.6 Z M 21.169 17.24 L 21.023 17.104 L 21.023 17.104 L 21.169 17.24 Z M 21.243 16.035 L 21.081 16.153 L 21.081 16.153 L 21.243 16.035 Z M 20.494 15.004 L 20.332 15.121 L 20.332 15.121 L 20.494 15.004 Z M 21.092 14.569 L 20.93 14.687 L 20.93 14.687 L 21.092 14.569 Z M 21.841 15.601 L 22.003 15.484 L 22.003 15.484 L 21.841 15.601 Z M 21.709 17.744 L 21.563 17.607 L 21.563 17.607 L 21.709 17.744 Z M 21.238 18.249 L 21.092 18.113 L 20.988 18.225 L 21.068 18.355 L 21.238 18.249 Z M 21.459 18.604 L 21.629 18.498 L 21.629 18.498 L 21.459 18.604 Z M 21.34 19.112 L 21.235 18.942 L 21.234 18.942 L 21.34 19.112 Z M 20.832 18.994 L 21.001 18.888 L 21.001 18.888 L 20.832 18.994 Z M 18.067 14.55 L 18.237 14.445 L 18.236 14.445 L 18.067 14.55 Z M 17.324 14.237 L 17.366 14.433 L 17.368 14.432 L 17.324 14.237 Z M 17.309 14.24 L 17.267 14.044 L 17.26 14.046 L 17.309 14.24 Z M 17.121 14.317 L 17.02 14.144 L 17.02 14.145 L 17.121 14.317 Z M 16.839 15.207 L 16.656 15.289 L 16.656 15.289 L 16.839 15.207 Z M 18.727 19.373 L 18.916 19.31 L 18.913 19.3 L 18.909 19.291 L 18.727 19.373 Z M 18.729 19.378 L 18.911 19.295 L 18.908 19.289 L 18.729 19.378 Z M 19.031 20.044 L 19.213 19.962 L 19.213 19.962 L 19.031 20.044 Z M 18.846 20.533 L 18.764 20.351 L 18.762 20.351 L 18.846 20.533 Z M 18.358 20.349 L 18.176 20.432 L 18.176 20.432 L 18.358 20.349 Z M 18.343 20.315 L 18.525 20.233 L 18.324 19.789 L 18.155 20.246 L 18.343 20.315 Z M 18.612 21.916 L 18.767 21.79 L 18.767 21.79 L 18.612 21.916 Z M 19.384 22.866 L 19.229 22.992 L 19.229 22.992 L 19.384 22.866 Z M 18.811 23.332 L 18.655 23.458 L 18.655 23.458 L 18.811 23.332 Z M 18.039 22.382 L 18.194 22.256 L 18.194 22.256 L 18.039 22.382 Z M 17.962 19.477 L 18.124 19.595 L 18.193 19.501 L 18.144 19.395 L 17.962 19.477 Z M 16.75 16.802 L 16.933 16.72 L 16.855 16.549 L 16.68 16.615 L 16.75 16.802 Z M 15.121 16.765 L 15.2 16.582 L 15.2 16.582 L 15.121 16.765 Z M 14.724 16.593 L 14.644 16.776 L 14.645 16.777 L 14.724 16.593 Z M 14.523 16.376 L 14.712 16.311 L 14.711 16.31 L 14.523 16.376 Z M 14.545 16.081 L 14.721 16.175 L 14.721 16.175 L 14.545 16.081 Z M 16.087 13.177 L 16.264 13.271 L 16.426 12.966 L 16.081 12.977 L 16.087 13.177 Z M 15.846 13.235 L 15.761 13.054 L 15.761 13.054 L 15.846 13.235 Z M 14.816 13.286 L 14.884 13.098 L 14.884 13.097 L 14.816 13.286 Z M 14.053 12.594 L 13.872 12.679 L 13.872 12.679 L 14.053 12.594 Z M 13.709 11.868 L 13.526 11.949 L 13.528 11.953 L 13.709 11.868 Z M 13.698 11.839 L 13.884 11.767 L 13.879 11.755 L 13.873 11.744 L 13.698 11.839 Z M 13.693 11.832 L 13.522 11.935 L 13.522 11.935 L 13.693 11.832 Z M 13.687 11.821 L 13.506 11.906 L 13.508 11.91 L 13.687 11.821 Z M 10.975 6.087 L 11.156 6.001 L 11.155 6.001 L 10.975 6.087 Z M 11.151 5.595 L 11.236 5.776 L 11.236 5.776 L 11.151 5.595 Z M 16.591 3.021 L 16.677 3.202 L 16.677 3.202 L 16.591 3.021 Z M 17.083 3.197 L 16.902 3.282 L 16.902 3.282 L 17.083 3.197 Z M 19.795 8.931 L 19.976 8.846 L 19.976 8.845 L 19.795 8.931 Z M 19.805 8.955 L 19.619 9.029 L 19.624 9.042 L 19.631 9.054 L 19.805 8.955 Z M 19.817 8.978 L 19.636 9.062 L 19.636 9.063 L 19.817 8.978 Z M 20.161 9.704 L 19.98 9.789 L 19.98 9.789 L 20.161 9.704 Z M 20.211 10.734 L 20.023 10.666 L 20.023 10.666 L 20.211 10.734 Z M 19.519 11.497 L 19.604 11.678 L 19.605 11.678 L 19.519 11.497 Z M 19.378 11.59 L 19.246 11.439 L 19.452 11.775 L 19.378 11.59 Z M 19.386 11.588 L 19.346 11.391 L 19.342 11.392 L 19.386 11.588 Z M 20.245 11.416 L 20.206 11.22 L 20.206 11.22 L 20.245 11.416 Z M 21.562 11.682 L 21.675 11.517 L 21.674 11.517 L 21.562 11.682 Z M 21.605 11.717 L 21.742 11.57 L 21.741 11.57 L 21.605 11.717 Z M 24.666 14.558 L 24.53 14.704 L 24.53 14.704 L 24.666 14.558 Z M 16.695 13.607 L 16.875 13.521 L 16.705 13.162 L 16.518 13.513 L 16.695 13.607 Z M 16.733 13.688 L 16.837 13.859 L 16.991 13.766 L 16.914 13.603 L 16.733 13.688 Z M 16.605 13.775 L 16.429 13.681 L 16.726 13.935 L 16.605 13.775 Z M 15.414 16.087 L 15.593 15.997 L 15.56 15.932 L 15.492 15.903 L 15.414 16.087 Z M 15.384 16.074 L 15.207 15.98 L 15.105 16.172 L 15.305 16.258 L 15.384 16.074 Z M 15.414 16.088 L 15.235 16.177 L 15.268 16.242 L 15.335 16.271 L 15.414 16.088 Z M 16.444 16.128 L 16.509 16.318 L 16.718 16.247 L 16.627 16.046 L 16.444 16.128 Z M 16.165 15.512 L 16.348 15.43 L 16.348 15.429 L 16.165 15.512 Z M 16.039 14.842 L 16.238 14.853 L 15.862 14.748 L 16.039 14.842 Z M 14.218 11.218 L 14.36 11.359 L 14.459 11.26 L 14.399 11.132 L 14.218 11.218 Z M 11.799 6.104 L 11.714 5.923 L 11.533 6.009 L 11.619 6.19 L 11.799 6.104 Z M 14.218 11.218 L 14.076 11.077 L 14.303 11.399 L 14.218 11.218 Z M 18.991 8.96 L 19.076 9.141 L 19.257 9.056 L 19.172 8.875 L 18.991 8.96 Z M 16.572 3.847 L 16.753 3.761 L 16.667 3.581 L 16.487 3.666 L 16.572 3.847 Z M 15.289 4.454 L 15.203 4.273 L 15.022 4.359 L 15.108 4.54 L 15.289 4.454 Z M 16.894 7.849 L 16.714 7.934 L 16.714 7.935 L 16.894 7.849 Z M 16.719 8.341 L 16.803 8.522 L 16.804 8.521 L 16.719 8.341 Z M 16.227 8.164 L 16.046 8.25 L 16.046 8.25 L 16.227 8.164 Z M 14.621 4.77 L 14.802 4.684 L 14.717 4.503 L 14.536 4.589 L 14.621 4.77 Z M 13.938 5.093 L 13.853 4.912 L 13.672 4.998 L 13.757 5.178 L 13.938 5.093 Z M 14.796 6.907 L 14.615 6.992 L 14.615 6.993 L 14.796 6.907 Z M 14.62 7.398 L 14.704 7.58 L 14.705 7.579 L 14.62 7.398 Z M 14.129 7.222 L 13.948 7.308 L 13.948 7.308 L 14.129 7.222 Z M 13.271 5.408 L 13.452 5.323 L 13.366 5.142 L 13.185 5.228 L 13.271 5.408 Z M 8.298 19.162 C 6.14 19.054 4.465 18.894 3.272 18.736 C 2.676 18.657 2.201 18.579 1.848 18.508 C 1.489 18.436 1.271 18.374 1.176 18.332 L 1.015 18.698 C 1.154 18.759 1.411 18.828 1.769 18.9 C 2.133 18.973 2.617 19.053 3.219 19.133 C 4.425 19.292 6.111 19.453 8.278 19.561 L 8.298 19.162 Z M 8.352 19.172 L 8.351 19.172 L 8.224 19.551 L 8.226 19.552 L 8.352 19.172 Z M 8.839 19.759 C 8.855 19.446 8.613 19.178 8.299 19.162 L 8.279 19.562 C 8.372 19.566 8.444 19.646 8.44 19.74 L 8.839 19.759 Z M 8.271 20.3 C 8.572 20.3 8.824 20.064 8.839 19.759 L 8.44 19.739 C 8.435 19.83 8.36 19.9 8.271 19.9 L 8.271 20.3 Z M 8.252 20.3 L 8.271 20.3 L 8.271 19.9 L 8.252 19.9 L 8.252 20.3 Z M 2.785 19.82 C 4.232 20.026 6.169 20.196 8.242 20.3 L 8.262 19.9 C 6.197 19.797 4.272 19.628 2.841 19.424 L 2.785 19.82 Z M 1.176 19.522 C 1.565 19.624 2.107 19.724 2.785 19.82 L 2.841 19.424 C 2.169 19.329 1.644 19.231 1.277 19.135 L 1.176 19.522 Z M 1.17 19.521 L 1.175 19.522 L 1.277 19.135 L 1.272 19.134 L 1.17 19.521 Z M 0.867 19.433 C 0.974 19.469 1.082 19.498 1.17 19.521 L 1.272 19.134 C 1.182 19.11 1.088 19.086 0.996 19.054 L 0.867 19.433 Z M 1.124 23.179 C 0.876 21.879 0.878 20.571 1.128 19.281 L 0.735 19.205 C 0.476 20.545 0.474 21.904 0.731 23.254 L 1.124 23.179 Z M 0.671 23.845 C 0.98 23.786 1.182 23.488 1.124 23.179 L 0.731 23.254 C 0.748 23.346 0.688 23.435 0.596 23.452 L 0.671 23.845 Z M 0.564 23.855 C 0.598 23.855 0.634 23.852 0.669 23.845 L 0.598 23.452 C 0.586 23.454 0.574 23.455 0.564 23.455 L 0.564 23.855 Z M 0.005 23.392 C 0.057 23.665 0.295 23.855 0.564 23.855 L 0.564 23.455 C 0.484 23.455 0.413 23.398 0.398 23.317 L 0.005 23.392 Z M 0.118 18.562 C -0.264 20.155 -0.302 21.781 0.005 23.392 L 0.398 23.317 C 0.102 21.761 0.138 20.193 0.507 18.655 L 0.118 18.562 Z M 3.399 12.161 C 2.219 13.692 0.863 15.451 0.118 18.562 L 0.507 18.655 C 1.231 15.63 2.542 13.927 3.716 12.405 L 3.399 12.161 Z M 3.4 12.16 L 3.399 12.16 L 3.716 12.405 L 3.716 12.404 L 3.4 12.16 Z M 3.398 12.162 L 3.398 12.162 L 3.718 12.402 L 3.718 12.402 L 3.398 12.162 Z M 5.522 7.502 C 5.444 9.502 4.565 10.648 3.4 12.16 L 3.716 12.404 C 4.879 10.896 5.838 9.658 5.922 7.518 L 5.522 7.502 Z M 5.487 6.611 C 5.522 6.902 5.534 7.199 5.522 7.502 L 5.922 7.518 C 5.935 7.194 5.922 6.875 5.884 6.563 L 5.487 6.611 Z M 5.483 6.583 C 5.484 6.59 5.486 6.605 5.488 6.62 L 5.883 6.554 C 5.883 6.552 5.882 6.548 5.881 6.539 L 5.483 6.583 Z M 5.484 6.584 L 5.484 6.584 L 5.881 6.537 L 5.881 6.537 L 5.484 6.584 Z M 5.483 6.58 L 5.483 6.583 L 5.881 6.539 L 5.881 6.536 L 5.483 6.58 Z M 3.649 3.119 C 4.714 4.155 5.323 5.316 5.484 6.583 L 5.88 6.533 C 5.707 5.163 5.048 3.922 3.928 2.833 L 3.649 3.119 Z M 1.985 1.865 C 2.381 2.093 3.023 2.51 3.649 3.119 L 3.928 2.833 C 3.271 2.193 2.6 1.757 2.184 1.518 L 1.985 1.865 Z M 1.268 1.142 C 1.268 1.358 1.364 1.525 1.513 1.646 C 1.654 1.76 1.84 1.832 2.032 1.884 L 2.137 1.498 C 1.963 1.451 1.841 1.397 1.765 1.335 C 1.698 1.281 1.668 1.223 1.668 1.142 L 1.268 1.142 Z M 1.268 1.134 L 1.268 1.142 L 1.668 1.142 L 1.668 1.134 L 1.268 1.134 Z M 1.268 1.128 L 1.268 1.134 L 1.668 1.134 L 1.668 1.128 L 1.268 1.128 Z M 2.626 0.28 C 2.308 0.331 1.987 0.391 1.744 0.5 C 1.495 0.612 1.277 0.801 1.268 1.123 L 1.668 1.134 C 1.671 1.031 1.726 0.947 1.908 0.865 C 2.096 0.781 2.365 0.727 2.691 0.674 L 2.626 0.28 Z M 5.082 0.028 C 4.039 0.1 3.212 0.184 2.626 0.28 L 2.691 0.674 C 3.258 0.582 4.07 0.498 5.11 0.427 L 5.082 0.028 Z M 13.051 -0.2 C 10.045 -0.2 7.215 -0.119 5.082 0.028 L 5.11 0.427 C 7.23 0.281 10.05 0.2 13.051 0.2 L 13.051 -0.2 Z M 21.018 0.028 C 18.887 -0.119 16.057 -0.2 13.051 -0.2 L 13.051 0.2 C 16.051 0.2 18.871 0.281 20.991 0.427 L 21.018 0.028 Z M 23.474 0.28 C 22.889 0.184 22.062 0.1 21.018 0.028 L 20.991 0.427 C 22.03 0.498 22.843 0.582 23.41 0.674 L 23.474 0.28 Z M 24.833 1.142 C 24.833 0.988 24.784 0.853 24.694 0.743 C 24.607 0.636 24.489 0.561 24.365 0.504 C 24.12 0.392 23.796 0.332 23.474 0.28 L 23.41 0.674 C 23.739 0.728 24.011 0.782 24.199 0.868 C 24.291 0.91 24.349 0.953 24.384 0.996 C 24.415 1.034 24.433 1.079 24.433 1.142 L 24.833 1.142 Z M 23.899 1.926 C 24.129 1.875 24.354 1.807 24.525 1.693 C 24.706 1.571 24.833 1.392 24.833 1.142 L 24.433 1.142 C 24.433 1.232 24.397 1.297 24.302 1.36 C 24.197 1.431 24.033 1.487 23.812 1.536 L 23.899 1.926 Z M 20.604 6.117 C 21.109 3.834 23.048 2.441 23.957 1.903 L 23.754 1.559 C 22.824 2.109 20.756 3.578 20.214 6.031 L 20.604 6.117 Z M 20.049 6.564 C 20.31 6.564 20.546 6.383 20.604 6.117 L 20.214 6.031 C 20.196 6.109 20.126 6.164 20.049 6.164 L 20.049 6.564 Z M 19.926 6.55 C 19.965 6.559 20.006 6.564 20.049 6.564 L 20.049 6.164 C 20.038 6.164 20.026 6.163 20.011 6.159 L 19.926 6.55 Z M 19.492 5.872 C 19.425 6.178 19.618 6.483 19.926 6.55 L 20.011 6.16 C 19.92 6.14 19.863 6.049 19.883 5.958 L 19.492 5.872 Z M 22.115 1.801 C 21.085 2.652 19.908 3.99 19.492 5.872 L 19.883 5.958 C 20.272 4.195 21.379 2.928 22.37 2.11 L 22.115 1.801 Z M 21.018 2.256 C 21.475 2.225 21.891 2.191 22.262 2.155 L 22.223 1.757 C 21.856 1.792 21.445 1.826 20.991 1.857 L 21.018 2.256 Z M 13.05 2.484 C 16.056 2.484 18.886 2.403 21.018 2.256 L 20.991 1.857 C 18.87 2.003 16.051 2.084 13.05 2.084 L 13.05 2.484 Z M 5.081 2.256 C 7.213 2.403 10.043 2.484 13.05 2.484 L 13.05 2.084 C 10.049 2.084 7.229 2.003 5.109 1.857 L 5.081 2.256 Z M 3.721 2.143 C 4.121 2.183 4.575 2.222 5.081 2.256 L 5.108 1.857 C 4.606 1.823 4.156 1.785 3.761 1.745 L 3.721 2.143 Z M 4.423 2.284 C 4.236 2.104 4.05 1.939 3.868 1.79 L 3.614 2.098 C 3.788 2.242 3.967 2.4 4.145 2.572 L 4.423 2.284 Z M 6.563 6.14 C 6.31 4.718 5.581 3.404 4.423 2.285 L 4.145 2.572 C 5.25 3.64 5.932 4.88 6.169 6.211 L 6.563 6.14 Z M 9.779 6.117 C 8.527 6.086 7.385 6.039 6.379 5.976 L 6.354 6.375 C 7.366 6.439 8.513 6.486 9.769 6.517 L 9.779 6.117 Z M 10.334 6.701 C 10.342 6.386 10.093 6.125 9.778 6.117 L 9.769 6.517 C 9.863 6.52 9.936 6.597 9.934 6.69 L 10.334 6.701 Z M 9.765 7.256 C 10.073 7.256 10.327 7.01 10.334 6.7 L 9.934 6.691 C 9.932 6.783 9.857 6.856 9.765 6.856 L 9.765 7.256 Z M 9.756 7.256 L 9.765 7.256 L 9.765 6.856 L 9.756 6.856 L 9.756 7.256 Z M 6.441 7.121 C 7.429 7.18 8.54 7.226 9.751 7.256 L 9.761 6.856 C 8.554 6.826 7.448 6.781 6.465 6.721 L 6.441 7.121 Z M 6.659 7.546 C 6.667 7.332 6.665 7.12 6.653 6.91 L 6.254 6.932 C 6.265 7.13 6.267 7.33 6.259 7.531 L 6.659 7.546 Z M 4.302 12.852 C 5.495 11.304 6.565 9.92 6.659 7.546 L 6.259 7.53 C 6.171 9.765 5.179 11.059 3.985 12.608 L 4.302 12.852 Z M 4.3 12.854 L 4.302 12.853 L 3.985 12.608 L 3.984 12.61 L 4.3 12.854 Z M 3.267 14.25 C 3.61 13.75 3.96 13.295 4.3 12.854 L 3.984 12.61 C 3.644 13.05 3.288 13.513 2.937 14.023 L 3.267 14.25 Z M 7.25 14.557 C 4.68 14.37 3.536 14.103 3.18 13.953 L 3.024 14.321 C 3.448 14.5 4.653 14.769 7.221 14.956 L 7.25 14.557 Z M 7.776 15.166 C 7.799 14.852 7.563 14.579 7.25 14.557 L 7.221 14.956 C 7.314 14.962 7.384 15.043 7.377 15.137 L 7.776 15.166 Z M 7.209 15.694 C 7.505 15.694 7.755 15.465 7.776 15.165 L 7.377 15.137 C 7.371 15.225 7.297 15.294 7.209 15.294 L 7.209 15.694 Z M 7.171 15.692 C 7.179 15.693 7.193 15.694 7.209 15.694 L 7.209 15.294 C 7.207 15.294 7.204 15.293 7.194 15.293 L 7.171 15.692 Z M 3.782 15.29 C 4.601 15.452 5.772 15.59 7.168 15.692 L 7.197 15.293 C 5.808 15.192 4.655 15.055 3.86 14.898 L 3.782 15.29 Z M 2.603 14.936 C 2.902 15.091 3.315 15.197 3.782 15.29 L 3.86 14.898 C 3.394 14.805 3.031 14.707 2.787 14.581 L 2.603 14.936 Z M 1.289 18.565 C 1.687 17.024 2.253 15.85 2.865 14.864 L 2.525 14.653 C 1.894 15.668 1.311 16.88 0.902 18.465 L 1.289 18.565 Z M 13.051 0.939 C 17.77 0.939 21.191 1.134 22.857 1.341 L 22.906 0.944 C 21.216 0.734 17.776 0.539 13.051 0.539 L 13.051 0.939 Z M 3.245 1.341 C 4.91 1.134 8.331 0.939 13.051 0.939 L 13.051 0.539 C 8.325 0.539 4.885 0.734 3.195 0.944 L 3.245 1.341 Z M 13.051 1.346 C 8.331 1.346 4.911 1.151 3.245 0.944 L 3.195 1.341 C 4.885 1.55 8.325 1.746 13.051 1.746 L 13.051 1.346 Z M 22.857 0.944 C 21.191 1.151 17.77 1.346 13.051 1.346 L 13.051 1.746 C 17.777 1.746 21.217 1.55 22.906 1.341 L 22.857 0.944 Z M 6.51 11.921 C 8.079 12.064 9.872 12.156 11.697 12.186 L 11.704 11.786 C 9.887 11.756 8.104 11.665 6.546 11.522 L 6.51 11.921 Z M 6.326 12.074 C 6.334 11.982 6.416 11.913 6.511 11.921 L 6.546 11.522 C 6.234 11.495 5.956 11.723 5.928 12.037 L 6.326 12.074 Z M 6.479 12.258 C 6.386 12.249 6.317 12.167 6.326 12.074 L 5.928 12.037 C 5.899 12.35 6.129 12.628 6.443 12.656 L 6.479 12.258 Z M 11.691 12.525 C 9.857 12.495 8.054 12.402 6.479 12.258 L 6.442 12.656 C 8.029 12.801 9.842 12.894 11.685 12.925 L 11.691 12.525 Z M 11.694 12.525 L 11.688 12.525 L 11.688 12.925 L 11.694 12.925 L 11.694 12.525 Z M 11.864 12.358 C 11.862 12.451 11.786 12.525 11.694 12.525 L 11.694 12.925 C 12.005 12.925 12.258 12.676 12.264 12.366 L 11.864 12.358 Z M 11.697 12.186 C 11.791 12.188 11.865 12.265 11.864 12.359 L 12.264 12.365 C 12.269 12.051 12.018 11.792 11.704 11.786 L 11.697 12.186 Z M 13.244 15.145 L 13.245 15.145 L 13.245 14.745 L 13.244 14.745 L 13.244 15.145 Z M 13 15.145 L 13.244 15.145 L 13.244 14.745 L 13 14.745 L 13 15.145 Z M 12.83 15.314 C 12.83 15.221 12.906 15.145 13 15.145 L 13 14.745 C 12.685 14.745 12.43 15 12.43 15.314 L 12.83 15.314 Z M 13 15.484 C 12.906 15.484 12.83 15.408 12.83 15.314 L 12.43 15.314 C 12.43 15.629 12.685 15.884 13 15.884 L 13 15.484 Z M 13.246 15.484 L 13 15.484 L 13 15.884 L 13.246 15.884 L 13.246 15.484 Z M 13.414 15.314 C 13.414 15.408 13.339 15.484 13.246 15.484 L 13.246 15.884 C 13.562 15.884 13.815 15.627 13.814 15.313 L 13.414 15.314 Z M 13.245 15.145 C 13.339 15.145 13.414 15.221 13.414 15.313 L 13.814 15.313 C 13.814 14.998 13.558 14.745 13.245 14.745 L 13.245 15.145 Z M 10.763 15.858 C 11.071 15.858 11.324 15.611 11.331 15.302 L 10.932 15.293 C 10.929 15.384 10.854 15.458 10.763 15.458 L 10.763 15.858 Z M 10.754 15.858 L 10.763 15.858 L 10.763 15.458 L 10.754 15.458 L 10.754 15.858 Z M 9.04 15.8 C 9.592 15.824 10.167 15.844 10.749 15.858 L 10.759 15.458 C 10.179 15.444 9.607 15.425 9.058 15.4 L 9.04 15.8 Z M 8.497 15.206 C 8.483 15.52 8.726 15.786 9.04 15.8 L 9.058 15.4 C 8.965 15.396 8.893 15.317 8.897 15.224 L 8.497 15.206 Z M 9.092 14.663 C 8.778 14.647 8.511 14.893 8.497 15.206 L 8.897 15.224 C 8.901 15.13 8.981 15.058 9.072 15.062 L 9.092 14.663 Z M 10.776 14.72 C 10.202 14.706 9.635 14.687 9.091 14.663 L 9.073 15.062 C 9.62 15.087 10.19 15.106 10.766 15.12 L 10.776 14.72 Z M 11.331 15.302 C 11.339 14.988 11.09 14.727 10.776 14.72 L 10.767 15.12 C 10.86 15.122 10.934 15.199 10.932 15.293 L 11.331 15.302 Z M 10.629 19.649 L 10.904 19.655 L 10.913 19.256 L 10.639 19.249 L 10.629 19.649 Z M 10.456 19.814 C 10.458 19.722 10.536 19.647 10.63 19.649 L 10.638 19.249 C 10.327 19.243 10.063 19.489 10.056 19.804 L 10.456 19.814 Z M 10.62 19.987 C 10.527 19.985 10.453 19.908 10.456 19.814 L 10.056 19.804 C 10.048 20.119 10.297 20.38 10.611 20.387 L 10.62 19.987 Z M 10.896 19.994 L 10.62 19.987 L 10.611 20.387 L 10.887 20.394 L 10.896 19.994 Z M 10.9 19.994 L 10.892 19.994 L 10.892 20.394 L 10.9 20.394 L 10.9 19.994 Z M 11.069 19.828 C 11.067 19.92 10.992 19.994 10.9 19.994 L 10.9 20.394 C 11.208 20.394 11.462 20.147 11.469 19.837 L 11.069 19.828 Z M 10.904 19.655 C 10.997 19.657 11.071 19.735 11.069 19.828 L 11.469 19.837 C 11.477 19.523 11.227 19.262 10.913 19.256 L 10.904 19.655 Z M 3.923 20.833 C 4.941 20.949 6.087 21.046 7.329 21.122 L 7.354 20.722 C 6.117 20.647 4.978 20.55 3.968 20.435 L 3.923 20.833 Z M 3.735 20.982 C 3.746 20.889 3.829 20.822 3.923 20.833 L 3.967 20.435 C 3.656 20.4 3.373 20.624 3.338 20.936 L 3.735 20.982 Z M 3.884 21.169 C 3.791 21.159 3.724 21.075 3.735 20.982 L 3.338 20.936 C 3.302 21.249 3.526 21.531 3.839 21.567 L 3.884 21.169 Z M 7.308 21.46 C 6.059 21.384 4.906 21.286 3.884 21.169 L 3.839 21.567 C 4.869 21.684 6.029 21.783 7.283 21.859 L 7.308 21.46 Z M 7.318 21.46 C 7.319 21.46 7.319 21.46 7.314 21.46 C 7.311 21.46 7.304 21.46 7.296 21.46 L 7.296 21.86 C 7.296 21.86 7.296 21.86 7.3 21.86 C 7.303 21.86 7.311 21.86 7.318 21.86 L 7.318 21.46 Z M 7.487 21.301 C 7.481 21.391 7.407 21.46 7.318 21.46 L 7.318 21.86 C 7.617 21.86 7.868 21.628 7.886 21.326 L 7.487 21.301 Z M 7.329 21.122 C 7.422 21.128 7.493 21.208 7.487 21.301 L 7.886 21.326 C 7.906 21.012 7.666 20.742 7.352 20.723 L 7.329 21.122 Z M 7.252 20.743 L 7.251 20.744 L 7.43 21.101 L 7.431 21.101 L 7.252 20.743 Z M 26.178 24.212 L 25.899 23.216 L 25.514 23.324 L 25.793 24.32 L 26.178 24.212 Z M 26.076 24.087 L 26.075 24.087 L 25.896 24.445 L 25.897 24.445 L 26.076 24.087 Z M 25.784 24.914 C 26.087 24.829 26.263 24.515 26.179 24.212 L 25.794 24.32 C 25.819 24.41 25.766 24.504 25.677 24.529 L 25.784 24.914 Z M 25.631 24.935 C 25.68 24.935 25.733 24.929 25.785 24.914 L 25.675 24.529 C 25.662 24.533 25.646 24.535 25.631 24.535 L 25.631 24.935 Z M 25.083 24.52 C 25.153 24.771 25.382 24.935 25.631 24.935 L 25.631 24.535 C 25.557 24.535 25.489 24.486 25.468 24.411 L 25.083 24.52 Z M 24.803 23.524 L 25.083 24.52 L 25.468 24.412 L 25.189 23.416 L 24.803 23.524 Z M 24.364 20.326 C 24.364 21.407 24.512 22.483 24.803 23.524 L 25.189 23.416 C 24.907 22.41 24.764 21.371 24.764 20.326 L 24.364 20.326 Z M 24.364 16.016 L 24.364 20.326 L 24.764 20.326 L 24.764 16.016 L 24.364 16.016 Z M 24.028 15.246 C 24.242 15.444 24.364 15.725 24.364 16.016 L 24.764 16.016 C 24.764 15.614 24.595 15.227 24.301 14.953 L 24.028 15.246 Z M 20.99 12.426 L 24.029 15.246 L 24.301 14.953 L 21.263 12.133 L 20.99 12.426 Z M 20.431 12.337 C 20.632 12.296 20.846 12.337 21.018 12.448 L 21.234 12.111 C 20.975 11.944 20.655 11.884 20.352 11.944 L 20.431 12.337 Z M 19.571 12.509 L 20.431 12.337 L 20.352 11.944 L 19.492 12.116 L 19.571 12.509 Z M 19.049 12.345 C 19.179 12.48 19.373 12.549 19.571 12.509 L 19.492 12.116 C 19.434 12.128 19.376 12.108 19.337 12.068 L 19.049 12.345 Z M 19.41 12.221 C 19.401 12.202 19.393 12.18 19.386 12.153 L 19 12.26 C 19.012 12.301 19.027 12.348 19.05 12.395 L 19.41 12.221 Z M 20.248 13.993 L 19.411 12.222 L 19.049 12.393 L 19.887 14.164 L 20.248 13.993 Z M 19.977 14.751 C 20.262 14.617 20.383 14.277 20.248 13.993 L 19.887 14.165 C 19.927 14.249 19.891 14.35 19.807 14.389 L 19.977 14.751 Z M 19.734 14.806 C 19.816 14.806 19.899 14.788 19.976 14.752 L 19.808 14.389 C 19.783 14.401 19.758 14.406 19.734 14.406 L 19.734 14.806 Z M 19.22 14.48 C 19.317 14.686 19.521 14.806 19.734 14.806 L 19.734 14.406 C 19.671 14.406 19.61 14.37 19.581 14.308 L 19.22 14.48 Z M 18.382 12.709 L 19.22 14.48 L 19.581 14.309 L 18.743 12.538 L 18.382 12.709 Z M 18.324 11.526 C 18.184 11.915 18.205 12.335 18.382 12.709 L 18.743 12.538 C 18.612 12.26 18.597 11.95 18.7 11.661 L 18.324 11.526 Z M 19.119 10.649 C 18.745 10.825 18.462 11.137 18.324 11.526 L 18.7 11.661 C 18.803 11.372 19.012 11.142 19.29 11.01 L 19.119 10.649 Z M 19.313 10.105 C 19.409 10.308 19.322 10.553 19.118 10.649 L 19.29 11.01 C 19.692 10.82 19.865 10.337 19.675 9.934 L 19.313 10.105 Z M 19.127 9.712 L 19.313 10.105 L 19.675 9.934 L 19.489 9.541 L 19.127 9.712 Z M 14.62 12.065 L 19.394 9.808 L 19.222 9.446 L 14.449 11.704 L 14.62 12.065 Z M 14.901 12.192 L 14.716 11.799 L 14.354 11.97 L 14.54 12.363 L 14.901 12.192 Z M 15.133 12.402 C 15.03 12.365 14.948 12.291 14.901 12.192 L 14.54 12.363 C 14.632 12.558 14.795 12.706 14.998 12.778 L 15.133 12.402 Z M 15.445 12.387 C 15.346 12.433 15.236 12.439 15.133 12.402 L 14.998 12.778 C 15.201 12.851 15.421 12.84 15.616 12.748 L 15.445 12.387 Z M 17.505 13.123 C 17.14 12.352 16.217 12.022 15.445 12.386 L 15.616 12.748 C 16.188 12.478 16.873 12.723 17.144 13.294 L 17.505 13.123 Z M 17.634 13.395 L 17.505 13.123 L 17.144 13.294 L 17.272 13.566 L 17.634 13.395 Z M 18.864 14.054 C 18.548 13.546 18.005 13.27 17.449 13.281 L 17.457 13.68 C 17.875 13.673 18.284 13.88 18.524 14.266 L 18.864 14.054 Z M 21.004 17.494 L 18.864 14.054 L 18.524 14.266 L 20.664 17.705 L 21.004 17.494 Z M 21.023 17.104 L 20.688 17.463 L 20.98 17.736 L 21.315 17.377 L 21.023 17.104 Z M 21.081 16.153 C 21.291 16.442 21.267 16.843 21.023 17.104 L 21.315 17.377 C 21.69 16.975 21.728 16.362 21.405 15.918 L 21.081 16.153 Z M 20.332 15.121 L 21.081 16.153 L 21.405 15.918 L 20.656 14.886 L 20.332 15.121 Z M 20.458 14.326 C 20.203 14.511 20.148 14.867 20.332 15.121 L 20.656 14.886 C 20.601 14.81 20.618 14.704 20.693 14.649 L 20.458 14.326 Z M 21.254 14.452 C 21.069 14.197 20.713 14.141 20.458 14.326 L 20.693 14.649 C 20.769 14.594 20.875 14.611 20.93 14.687 L 21.254 14.452 Z M 22.003 15.484 L 21.254 14.452 L 20.93 14.687 L 21.679 15.719 L 22.003 15.484 Z M 21.856 17.88 C 22.471 17.221 22.532 16.213 22.003 15.484 L 21.679 15.719 C 22.096 16.293 22.048 17.088 21.563 17.607 L 21.856 17.88 Z M 21.385 18.385 L 21.856 17.88 L 21.563 17.607 L 21.092 18.113 L 21.385 18.385 Z M 21.629 18.498 L 21.408 18.143 L 21.068 18.355 L 21.289 18.709 L 21.629 18.498 Z M 21.446 19.282 C 21.712 19.116 21.795 18.765 21.629 18.498 L 21.289 18.709 C 21.338 18.788 21.314 18.893 21.235 18.942 L 21.446 19.282 Z M 20.662 19.1 C 20.828 19.366 21.179 19.449 21.446 19.282 L 21.234 18.942 C 21.155 18.992 21.051 18.968 21.001 18.888 L 20.662 19.1 Z M 17.897 14.656 L 20.662 19.1 L 21.001 18.888 L 18.237 14.445 L 17.897 14.656 Z M 17.368 14.432 C 17.568 14.387 17.781 14.47 17.897 14.656 L 18.236 14.445 C 18.029 14.111 17.643 13.96 17.28 14.042 L 17.368 14.432 Z M 17.351 14.436 L 17.366 14.433 L 17.282 14.041 L 17.267 14.045 L 17.351 14.436 Z M 17.221 14.49 C 17.266 14.464 17.312 14.446 17.358 14.434 L 17.26 14.046 C 17.178 14.067 17.097 14.099 17.02 14.144 L 17.221 14.49 Z M 17.021 15.124 C 16.915 14.891 17.002 14.619 17.222 14.49 L 17.02 14.145 C 16.623 14.377 16.466 14.87 16.656 15.289 L 17.021 15.124 Z M 18.909 19.291 L 17.021 15.124 L 16.656 15.289 L 18.544 19.456 L 18.909 19.291 Z M 18.729 19.378 C 18.908 19.289 18.908 19.289 18.908 19.289 C 18.908 19.289 18.908 19.289 18.908 19.289 C 18.908 19.289 18.908 19.289 18.908 19.289 C 18.908 19.289 18.908 19.289 18.908 19.289 C 18.908 19.289 18.908 19.289 18.908 19.289 C 18.908 19.289 18.908 19.289 18.908 19.289 C 18.908 19.289 18.908 19.289 18.908 19.289 C 18.908 19.289 18.908 19.29 18.908 19.29 C 18.908 19.29 18.909 19.291 18.909 19.292 C 18.909 19.292 18.91 19.294 18.911 19.296 C 18.912 19.297 18.914 19.302 18.916 19.31 L 18.537 19.437 C 18.541 19.45 18.547 19.46 18.547 19.461 C 18.548 19.463 18.548 19.464 18.549 19.465 C 18.549 19.466 18.549 19.466 18.549 19.466 C 18.549 19.467 18.55 19.467 18.55 19.467 C 18.55 19.467 18.55 19.467 18.55 19.467 C 18.55 19.467 18.55 19.467 18.55 19.467 C 18.55 19.467 18.55 19.467 18.55 19.467 C 18.55 19.467 18.55 19.467 18.55 19.467 C 18.55 19.467 18.55 19.467 18.55 19.467 C 18.55 19.467 18.55 19.467 18.729 19.378 Z M 19.213 19.962 L 18.911 19.295 L 18.547 19.46 L 18.848 20.127 L 19.213 19.962 Z M 18.929 20.715 C 19.215 20.585 19.342 20.248 19.213 19.962 L 18.848 20.127 C 18.887 20.212 18.849 20.312 18.764 20.351 L 18.929 20.715 Z M 18.694 20.766 C 18.773 20.766 18.854 20.75 18.93 20.714 L 18.762 20.351 C 18.741 20.361 18.718 20.366 18.694 20.366 L 18.694 20.766 Z M 18.176 20.432 C 18.271 20.642 18.479 20.766 18.694 20.766 L 18.694 20.366 C 18.63 20.366 18.568 20.329 18.54 20.267 L 18.176 20.432 Z M 18.16 20.398 L 18.176 20.432 L 18.54 20.267 L 18.525 20.233 L 18.16 20.398 Z M 18.767 21.79 C 18.436 21.381 18.359 20.849 18.53 20.385 L 18.155 20.246 C 17.936 20.841 18.034 21.522 18.457 22.042 L 18.767 21.79 Z M 19.539 22.74 L 18.767 21.79 L 18.457 22.042 L 19.229 22.992 L 19.539 22.74 Z M 20.116 24.366 C 20.116 23.776 19.912 23.198 19.539 22.74 L 19.229 22.992 C 19.543 23.379 19.716 23.867 19.716 24.366 L 20.116 24.366 Z M 19.547 24.935 C 19.862 24.935 20.116 24.681 20.116 24.366 L 19.716 24.366 C 19.716 24.46 19.641 24.535 19.547 24.535 L 19.547 24.935 Z M 18.978 24.366 C 18.978 24.681 19.232 24.935 19.547 24.935 L 19.547 24.535 C 19.453 24.535 19.378 24.46 19.378 24.366 L 18.978 24.366 Z M 18.655 23.458 C 18.863 23.714 18.978 24.036 18.978 24.366 L 19.378 24.366 C 19.378 23.944 19.232 23.533 18.966 23.206 L 18.655 23.458 Z M 17.883 22.508 L 18.655 23.458 L 18.966 23.206 L 18.194 22.256 L 17.883 22.508 Z M 17.801 19.359 C 17.112 20.3 17.133 21.585 17.884 22.508 L 18.194 22.256 C 17.559 21.475 17.541 20.39 18.124 19.595 L 17.801 19.359 Z M 16.568 16.885 L 17.78 19.56 L 18.144 19.395 L 16.933 16.72 L 16.568 16.885 Z M 15.983 17.144 C 16.269 17.144 16.553 17.091 16.821 16.989 L 16.68 16.615 C 16.456 16.7 16.219 16.744 15.983 16.744 L 15.983 17.144 Z M 15.041 16.948 C 15.343 17.079 15.663 17.144 15.983 17.144 L 15.983 16.744 C 15.717 16.744 15.451 16.69 15.2 16.582 L 15.041 16.948 Z M 14.645 16.777 L 15.041 16.949 L 15.2 16.582 L 14.804 16.41 L 14.645 16.777 Z M 14.334 16.442 C 14.386 16.592 14.499 16.713 14.644 16.776 L 14.804 16.41 C 14.76 16.391 14.727 16.354 14.712 16.311 L 14.334 16.442 Z M 14.368 15.986 C 14.293 16.127 14.281 16.293 14.334 16.443 L 14.711 16.31 C 14.695 16.265 14.699 16.216 14.721 16.175 L 14.368 15.986 Z M 15.911 13.083 L 14.368 15.987 L 14.721 16.175 L 16.264 13.271 L 15.911 13.083 Z M 15.932 13.416 C 15.984 13.391 16.039 13.379 16.094 13.377 L 16.081 12.977 C 15.973 12.981 15.865 13.005 15.761 13.054 L 15.932 13.416 Z M 14.749 13.474 C 15.138 13.613 15.558 13.593 15.932 13.416 L 15.761 13.054 C 15.483 13.186 15.173 13.201 14.884 13.098 L 14.749 13.474 Z M 13.872 12.679 C 14.048 13.053 14.36 13.335 14.749 13.474 L 14.884 13.097 C 14.595 12.995 14.365 12.786 14.233 12.508 L 13.872 12.679 Z M 13.528 11.953 L 13.872 12.679 L 14.233 12.508 L 13.89 11.782 L 13.528 11.953 Z M 13.511 11.912 C 13.515 11.921 13.52 11.934 13.526 11.949 L 13.892 11.787 C 13.89 11.782 13.888 11.777 13.884 11.767 L 13.511 11.912 Z M 13.522 11.935 L 13.522 11.935 L 13.873 11.744 C 13.87 11.737 13.866 11.731 13.865 11.729 L 13.522 11.935 Z M 13.508 11.91 C 13.514 11.922 13.52 11.932 13.522 11.935 L 13.865 11.729 C 13.864 11.727 13.863 11.727 13.863 11.727 C 13.864 11.727 13.865 11.729 13.866 11.731 L 13.508 11.91 Z M 10.794 6.172 L 13.506 11.906 L 13.868 11.735 L 11.156 6.001 L 10.794 6.172 Z M 11.065 5.414 C 10.781 5.549 10.659 5.888 10.794 6.173 L 11.155 6.001 C 11.116 5.917 11.152 5.816 11.236 5.776 L 11.065 5.414 Z M 16.506 2.84 L 11.065 5.414 L 11.236 5.776 L 16.677 3.202 L 16.506 2.84 Z M 17.264 3.112 C 17.129 2.827 16.789 2.706 16.505 2.841 L 16.677 3.202 C 16.761 3.162 16.862 3.198 16.902 3.282 L 17.264 3.112 Z M 19.976 8.845 L 17.264 3.111 L 16.902 3.282 L 19.614 9.016 L 19.976 8.845 Z M 19.991 8.881 C 19.99 8.879 19.983 8.861 19.976 8.846 L 19.614 9.015 C 19.613 9.015 19.614 9.015 19.615 9.018 C 19.615 9.019 19.616 9.02 19.617 9.023 C 19.617 9.024 19.618 9.027 19.619 9.029 L 19.991 8.881 Z M 19.998 8.893 C 19.991 8.877 19.982 8.862 19.979 8.856 L 19.631 9.054 C 19.634 9.058 19.635 9.06 19.636 9.062 C 19.636 9.063 19.636 9.063 19.636 9.062 L 19.998 8.893 Z M 20.341 9.618 L 19.998 8.892 L 19.636 9.063 L 19.98 9.789 L 20.341 9.618 Z M 20.399 10.801 C 20.539 10.412 20.518 9.992 20.341 9.618 L 19.98 9.789 C 20.111 10.067 20.126 10.377 20.023 10.666 L 20.399 10.801 Z M 19.605 11.678 C 19.978 11.502 20.261 11.19 20.4 10.801 L 20.023 10.666 C 19.92 10.955 19.711 11.185 19.433 11.317 L 19.605 11.678 Z M 19.51 11.74 C 19.539 11.715 19.57 11.694 19.604 11.678 L 19.434 11.316 C 19.365 11.349 19.302 11.39 19.246 11.439 L 19.51 11.74 Z M 19.386 11.588 C 19.342 11.392 19.342 11.392 19.342 11.392 C 19.342 11.392 19.342 11.392 19.342 11.392 C 19.342 11.392 19.342 11.392 19.342 11.392 C 19.342 11.392 19.342 11.392 19.342 11.392 C 19.342 11.392 19.342 11.392 19.342 11.392 C 19.342 11.392 19.342 11.393 19.341 11.393 C 19.341 11.393 19.341 11.393 19.341 11.393 C 19.34 11.393 19.339 11.393 19.339 11.393 C 19.337 11.394 19.335 11.394 19.332 11.395 C 19.33 11.395 19.318 11.399 19.304 11.404 L 19.452 11.775 C 19.446 11.778 19.44 11.78 19.438 11.78 C 19.436 11.781 19.434 11.782 19.433 11.782 C 19.432 11.782 19.432 11.782 19.431 11.782 C 19.431 11.782 19.43 11.783 19.43 11.783 C 19.43 11.783 19.43 11.783 19.43 11.783 C 19.429 11.783 19.429 11.783 19.429 11.783 C 19.429 11.783 19.429 11.783 19.429 11.783 C 19.429 11.783 19.429 11.783 19.429 11.783 C 19.429 11.783 19.429 11.783 19.429 11.783 C 19.429 11.783 19.429 11.783 19.429 11.783 C 19.429 11.783 19.429 11.783 19.386 11.588 Z M 20.206 11.22 L 19.346 11.392 L 19.425 11.784 L 20.285 11.612 L 20.206 11.22 Z M 21.674 11.517 C 21.247 11.226 20.713 11.118 20.206 11.22 L 20.285 11.612 C 20.686 11.532 21.111 11.618 21.449 11.848 L 21.674 11.517 Z M 21.741 11.57 C 21.72 11.55 21.697 11.533 21.675 11.517 L 21.448 11.847 C 21.457 11.853 21.464 11.858 21.47 11.864 L 21.741 11.57 Z M 24.802 14.411 L 21.742 11.57 L 21.469 11.863 L 24.53 14.704 L 24.802 14.411 Z M 25.502 16.015 C 25.502 15.408 25.247 14.824 24.802 14.411 L 24.53 14.704 C 24.893 15.042 25.102 15.52 25.102 16.015 L 25.502 16.015 Z M 25.502 20.326 L 25.502 16.015 L 25.102 16.015 L 25.102 20.326 L 25.502 20.326 Z M 25.899 23.216 C 25.635 22.275 25.502 21.303 25.502 20.326 L 25.102 20.326 C 25.102 21.34 25.24 22.348 25.514 23.324 L 25.899 23.216 Z M 16.514 13.693 L 16.552 13.774 L 16.914 13.603 L 16.875 13.521 L 16.514 13.693 Z M 16.782 13.869 L 16.871 13.701 L 16.518 13.513 L 16.429 13.681 L 16.782 13.869 Z M 16.629 13.517 C 16.579 13.548 16.531 13.581 16.485 13.615 L 16.726 13.935 C 16.761 13.908 16.798 13.883 16.837 13.859 L 16.629 13.517 Z M 15.492 15.903 L 15.463 15.89 L 15.305 16.258 L 15.335 16.27 L 15.492 15.903 Z M 15.593 15.998 L 15.593 15.997 L 15.235 16.176 L 15.235 16.177 L 15.593 15.998 Z M 16.38 15.939 C 16.093 16.037 15.777 16.027 15.493 15.904 L 15.335 16.271 C 15.711 16.434 16.129 16.447 16.509 16.318 L 16.38 15.939 Z M 15.983 15.595 L 16.262 16.211 L 16.627 16.046 L 16.348 15.43 L 15.983 15.595 Z M 15.839 14.831 C 15.825 15.086 15.871 15.347 15.983 15.595 L 16.348 15.429 C 16.262 15.242 16.228 15.045 16.238 14.853 L 15.839 14.831 Z M 15.561 16.168 L 16.215 14.936 L 15.862 14.748 L 15.207 15.98 L 15.561 16.168 Z M 14.399 11.132 L 11.98 6.019 L 11.619 6.19 L 14.037 11.303 L 14.399 11.132 Z M 14.359 11.36 L 14.36 11.359 L 14.077 11.076 L 14.076 11.077 L 14.359 11.36 Z M 18.905 8.78 L 14.132 11.038 L 14.303 11.399 L 19.076 9.141 L 18.905 8.78 Z M 16.391 3.932 L 18.81 9.046 L 19.172 8.875 L 16.753 3.761 L 16.391 3.932 Z M 15.374 4.635 L 16.658 4.028 L 16.487 3.666 L 15.203 4.273 L 15.374 4.635 Z M 17.075 7.763 L 15.469 4.369 L 15.108 4.54 L 16.714 7.934 L 17.075 7.763 Z M 16.804 8.521 C 17.089 8.387 17.21 8.047 17.075 7.763 L 16.714 7.935 C 16.754 8.019 16.718 8.12 16.634 8.16 L 16.804 8.521 Z M 16.561 8.576 C 16.643 8.576 16.726 8.558 16.803 8.522 L 16.635 8.159 C 16.61 8.171 16.584 8.176 16.561 8.176 L 16.561 8.576 Z M 16.046 8.25 C 16.144 8.456 16.348 8.576 16.561 8.576 L 16.561 8.176 C 16.497 8.176 16.437 8.14 16.408 8.079 L 16.046 8.25 Z M 14.44 4.855 L 16.046 8.25 L 16.408 8.079 L 14.802 4.684 L 14.44 4.855 Z M 14.024 5.274 L 14.707 4.95 L 14.536 4.589 L 13.853 4.912 L 14.024 5.274 Z M 14.977 6.821 L 14.119 5.007 L 13.757 5.178 L 14.615 6.992 L 14.977 6.821 Z M 14.705 7.579 C 14.99 7.445 15.112 7.105 14.976 6.821 L 14.615 6.993 C 14.655 7.077 14.619 7.178 14.535 7.217 L 14.705 7.579 Z M 14.462 7.634 C 14.545 7.634 14.627 7.616 14.704 7.58 L 14.536 7.217 C 14.511 7.229 14.486 7.234 14.462 7.234 L 14.462 7.634 Z M 13.948 7.308 C 14.045 7.513 14.25 7.634 14.462 7.634 L 14.462 7.234 C 14.399 7.234 14.338 7.198 14.309 7.136 L 13.948 7.308 Z M 13.09 5.494 L 13.948 7.308 L 14.309 7.137 L 13.452 5.323 L 13.09 5.494 Z M 11.885 6.285 L 13.356 5.589 L 13.185 5.228 L 11.714 5.923 L 11.885 6.285 Z" fill="currentColor" fill-rule="nonzero"></path>
</svg>