<svg xmlns="http://www.w3.org/2000/svg" width="31.001" height="22.389" viewBox="0 0 31.001 22.389" fill="none">
  <path d="M 18.567 3.609 C 20.159 6.074 21.259 8.894 21.293 11.841 C 21.294 11.854 21.294 11.867 21.294 11.881 C 21.268 15.143 19.787 18.167 17.211 20.22 C 17.154 20.265 17.095 20.313 17.035 20.362 L 17.016 20.377 C 17.839 20.215 18.652 19.996 19.442 19.729 C 22.754 18.607 25.441 16.448 26.65 13.147 C 27.251 11.505 27.592 9.665 27.523 7.902 C 25.587 8.083 23.627 8.68 21.893 9.505 C 21.476 9.704 21.11 9.091 21.529 8.892 C 23.486 7.961 25.683 7.313 27.862 7.165 C 28.068 7.15 28.209 7.339 28.223 7.52 C 28.283 8.331 28.224 9.163 28.126 9.969 C 27.736 13.215 26.387 16.335 23.684 18.353 C 21.411 20.049 18.55 20.948 15.742 21.292 L 15.742 21.29 C 15.668 21.299 15.606 21.289 15.555 21.264 C 15.523 21.266 15.49 21.265 15.457 21.262 C 15.405 21.29 15.341 21.302 15.263 21.293 C 13.915 21.127 12.583 20.831 11.299 20.39 C 7.938 19.234 5.189 17.089 3.835 13.787 C 3.045 11.858 2.627 9.608 2.782 7.521 C 2.796 7.34 2.939 7.152 3.143 7.166 C 5.322 7.314 7.518 7.962 9.476 8.893 C 9.895 9.092 9.528 9.704 9.112 9.506 C 7.379 8.681 5.419 8.085 3.484 7.903 C 3.467 8.493 3.507 9.088 3.567 9.672 C 3.884 12.814 5.184 15.921 7.825 17.844 C 9.619 19.15 11.797 19.967 14.003 20.386 C 12.267 19.061 10.912 17.254 10.229 15.194 C 9.091 11.76 9.956 8.053 11.641 4.947 C 12.586 3.203 13.797 1.483 15.246 0.101 C 15.388 -0.034 15.614 -0.034 15.756 0.101 C 16.836 1.132 17.762 2.365 18.567 3.609 Z M 20.572 11.881 C 20.572 11.889 20.572 11.898 20.573 11.906 C 20.536 15.336 18.639 18.875 15.502 20.536 C 13.504 19.472 11.862 17.476 11.074 15.421 C 9.458 11.202 11.123 6.637 13.632 3.124 C 14.198 2.333 14.812 1.55 15.502 0.853 C 16.397 1.756 17.176 2.795 17.867 3.849 C 19.441 6.251 20.549 8.993 20.572 11.881 Z M 27.561 20.485 C 24.852 22.399 21.666 22.798 18.46 22.005 L 18.457 22.009 C 18.008 21.896 18.199 21.212 18.65 21.323 C 20.35 21.743 22.139 21.889 23.854 21.458 C 25.114 21.141 26.277 20.541 27.321 19.784 C 28.359 19.031 29.356 18.095 30.117 17.05 C 29.272 16.613 28.359 16.294 27.448 16.031 C 27.003 15.902 27.194 15.217 27.641 15.346 C 28.73 15.661 29.834 16.058 30.822 16.62 C 30.984 16.712 31.058 16.946 30.951 17.105 C 30.071 18.42 28.853 19.571 27.561 20.485 Z M 7.235 21.477 C 8.923 21.882 10.681 21.733 12.352 21.32 L 12.349 21.318 C 12.801 21.206 12.991 21.891 12.542 22.003 C 9.335 22.795 6.15 22.397 3.44 20.482 C 2.149 19.569 0.93 18.418 0.05 17.103 C -0.057 16.943 0.018 16.71 0.18 16.618 C 1.167 16.056 2.27 15.658 3.361 15.344 C 3.808 15.215 3.998 15.901 3.553 16.029 C 2.644 16.292 1.73 16.612 0.885 17.048 C 1.645 18.093 2.644 19.029 3.682 19.782 C 4.749 20.556 5.942 21.167 7.235 21.477 Z" fill="currentColor" fill-rule="evenodd"></path>
  <path d="M 21.293 11.841 L 20.793 11.847 C 20.793 11.86 20.794 11.873 20.795 11.886 L 21.293 11.841 Z M 18.567 3.609 L 18.987 3.338 L 18.987 3.338 L 18.567 3.609 Z M 21.294 11.881 L 21.794 11.885 L 21.794 11.885 L 21.294 11.881 Z M 17.211 20.22 L 16.9 19.829 L 16.9 19.829 L 17.211 20.22 Z M 17.035 20.362 L 17.349 20.751 L 17.349 20.751 L 17.035 20.362 Z M 17.016 20.377 L 16.701 19.989 C 16.523 20.133 16.466 20.381 16.563 20.589 C 16.66 20.797 16.887 20.912 17.112 20.868 L 17.016 20.377 Z M 19.442 19.729 L 19.603 20.202 L 19.603 20.202 L 19.442 19.729 Z M 26.65 13.147 L 26.18 12.975 L 26.18 12.975 L 26.65 13.147 Z M 27.523 7.902 L 28.022 7.882 C 28.017 7.745 27.955 7.616 27.852 7.526 C 27.749 7.435 27.613 7.391 27.476 7.404 L 27.523 7.902 Z M 21.893 9.505 L 21.678 9.053 L 21.678 9.053 L 21.893 9.505 Z M 21.529 8.892 L 21.743 9.344 L 21.744 9.344 L 21.529 8.892 Z M 27.862 7.165 L 27.896 7.663 L 27.896 7.663 L 27.862 7.165 Z M 28.223 7.52 L 27.724 7.556 L 27.724 7.556 L 28.223 7.52 Z M 28.126 9.969 L 27.63 9.909 L 27.63 9.909 L 28.126 9.969 Z M 23.684 18.353 L 23.385 17.952 L 23.385 17.952 L 23.684 18.353 Z M 15.742 21.292 L 15.242 21.292 C 15.242 21.435 15.303 21.571 15.41 21.666 C 15.518 21.761 15.66 21.805 15.803 21.788 L 15.742 21.292 Z M 15.742 21.29 L 16.242 21.29 C 16.242 21.147 16.18 21.011 16.073 20.916 C 15.966 20.821 15.823 20.777 15.681 20.794 L 15.742 21.29 Z M 15.555 21.264 L 15.777 20.816 C 15.698 20.777 15.611 20.759 15.523 20.765 L 15.555 21.264 Z M 15.457 21.262 L 15.506 20.765 C 15.407 20.755 15.308 20.774 15.22 20.822 L 15.457 21.262 Z M 15.263 21.293 L 15.202 21.789 L 15.203 21.789 L 15.263 21.293 Z M 11.299 20.39 L 11.462 19.917 L 11.462 19.917 L 11.299 20.39 Z M 3.835 13.787 L 3.372 13.976 L 3.372 13.976 L 3.835 13.787 Z M 2.782 7.521 L 3.281 7.558 L 3.281 7.557 L 2.782 7.521 Z M 3.143 7.166 L 3.109 7.665 L 3.109 7.665 L 3.143 7.166 Z M 9.476 8.893 L 9.261 9.345 L 9.262 9.345 L 9.476 8.893 Z M 9.112 9.506 L 8.897 9.958 L 8.897 9.958 L 9.112 9.506 Z M 3.484 7.903 L 3.531 7.406 C 3.394 7.393 3.257 7.437 3.153 7.529 C 3.05 7.62 2.989 7.751 2.985 7.889 L 3.484 7.903 Z M 3.567 9.672 L 4.064 9.621 L 4.064 9.621 L 3.567 9.672 Z M 7.825 17.844 L 7.531 18.248 L 7.531 18.248 L 7.825 17.844 Z M 14.003 20.386 L 13.909 20.877 C 14.137 20.92 14.365 20.801 14.459 20.589 C 14.554 20.378 14.49 20.129 14.306 19.988 L 14.003 20.386 Z M 10.229 15.194 L 9.754 15.351 L 9.754 15.351 L 10.229 15.194 Z M 11.641 4.947 L 12.08 5.186 L 12.08 5.186 L 11.641 4.947 Z M 15.246 0.101 L 14.902 -0.261 L 14.901 -0.261 L 15.246 0.101 Z M 15.756 0.101 L 16.101 -0.261 L 16.101 -0.261 L 15.756 0.101 Z M 20.573 11.906 L 21.073 11.911 C 21.073 11.898 21.072 11.885 21.071 11.872 L 20.573 11.906 Z M 20.572 11.881 L 20.072 11.885 L 20.072 11.885 L 20.572 11.881 Z M 15.502 20.536 L 15.267 20.978 C 15.414 21.056 15.589 21.056 15.736 20.978 L 15.502 20.536 Z M 11.074 15.421 L 10.608 15.6 L 10.608 15.6 L 11.074 15.421 Z M 13.632 3.124 L 14.039 3.415 L 14.039 3.415 L 13.632 3.124 Z M 15.502 0.853 L 15.856 0.501 C 15.762 0.406 15.635 0.353 15.501 0.353 C 15.368 0.353 15.24 0.407 15.146 0.502 L 15.502 0.853 Z M 17.867 3.849 L 17.449 4.123 L 17.449 4.123 L 17.867 3.849 Z M 18.46 22.005 L 18.58 21.52 C 18.376 21.469 18.163 21.551 18.046 21.725 L 18.46 22.005 Z M 27.561 20.485 L 27.85 20.893 L 27.85 20.893 L 27.561 20.485 Z M 18.457 22.009 L 18.336 22.494 C 18.54 22.544 18.754 22.463 18.871 22.289 L 18.457 22.009 Z M 18.65 21.323 L 18.77 20.838 L 18.77 20.838 L 18.65 21.323 Z M 23.854 21.458 L 23.975 21.943 L 23.976 21.943 L 23.854 21.458 Z M 27.321 19.784 L 27.614 20.189 L 27.614 20.189 L 27.321 19.784 Z M 30.117 17.05 L 30.521 17.344 C 30.607 17.226 30.637 17.077 30.604 16.935 C 30.57 16.793 30.476 16.673 30.347 16.606 L 30.117 17.05 Z M 27.448 16.031 L 27.309 16.511 L 27.31 16.512 L 27.448 16.031 Z M 27.641 15.346 L 27.502 15.826 L 27.502 15.827 L 27.641 15.346 Z M 30.822 16.62 L 30.574 17.055 L 30.577 17.056 L 30.822 16.62 Z M 30.951 17.105 L 30.536 16.827 L 30.536 16.827 L 30.951 17.105 Z M 12.352 21.32 L 12.472 21.805 C 12.647 21.762 12.786 21.627 12.834 21.452 C 12.882 21.277 12.831 21.09 12.702 20.963 L 12.352 21.32 Z M 7.235 21.477 L 7.118 21.963 L 7.118 21.963 L 7.235 21.477 Z M 12.349 21.318 L 12.23 20.832 C 12.054 20.875 11.915 21.01 11.867 21.185 C 11.819 21.36 11.869 21.547 11.999 21.674 L 12.349 21.318 Z M 12.542 22.003 L 12.662 22.488 L 12.662 22.488 L 12.542 22.003 Z M 3.44 20.482 L 3.152 20.89 L 3.152 20.891 L 3.44 20.482 Z M 0.05 17.103 L 0.465 16.825 L 0.465 16.825 L 0.05 17.103 Z M 0.18 16.618 L 0.427 17.053 L 0.427 17.053 L 0.18 16.618 Z M 3.361 15.344 L 3.222 14.863 L 3.222 14.863 L 3.361 15.344 Z M 3.553 16.029 L 3.415 15.548 L 3.414 15.549 L 3.553 16.029 Z M 0.885 17.048 L 0.656 16.604 C 0.527 16.671 0.433 16.791 0.399 16.933 C 0.365 17.075 0.395 17.224 0.481 17.342 L 0.885 17.048 Z M 3.682 19.782 L 3.388 20.186 L 3.388 20.187 L 3.682 19.782 Z M 21.793 11.835 C 21.758 8.767 20.614 5.857 18.987 3.338 L 18.147 3.881 C 19.704 6.292 20.761 9.02 20.793 11.847 L 21.793 11.835 Z M 21.794 11.885 C 21.795 11.855 21.793 11.826 21.791 11.796 L 20.795 11.886 C 20.794 11.882 20.794 11.879 20.794 11.877 L 21.794 11.885 Z M 17.523 20.611 C 20.216 18.465 21.767 15.299 21.794 11.885 L 20.794 11.877 C 20.769 14.986 19.359 17.869 16.9 19.829 L 17.523 20.611 Z M 17.349 20.751 C 17.41 20.702 17.467 20.655 17.523 20.61 L 16.9 19.829 C 16.84 19.876 16.78 19.925 16.72 19.973 L 17.349 20.751 Z M 17.33 20.766 L 17.349 20.751 L 16.72 19.973 L 16.701 19.989 L 17.33 20.766 Z M 19.282 19.255 C 18.511 19.516 17.72 19.729 16.919 19.887 L 17.112 20.868 C 17.958 20.701 18.792 20.476 19.603 20.202 L 19.282 19.255 Z M 26.18 12.975 C 25.036 16.101 22.487 18.17 19.282 19.255 L 19.603 20.202 C 23.022 19.044 25.847 16.794 27.119 13.319 L 26.18 12.975 Z M 27.023 7.922 C 27.09 9.611 26.762 11.385 26.18 12.975 L 27.119 13.319 C 27.739 11.625 28.095 9.72 28.022 7.882 L 27.023 7.922 Z M 22.108 9.956 C 23.798 9.153 25.701 8.575 27.569 8.4 L 27.476 7.404 C 25.474 7.592 23.457 8.207 21.678 9.053 L 22.108 9.956 Z M 21.314 8.44 C 21.083 8.55 20.916 8.746 20.862 8.992 C 20.812 9.222 20.871 9.44 20.968 9.603 C 21.16 9.925 21.615 10.191 22.108 9.956 L 21.678 9.053 C 21.699 9.044 21.74 9.039 21.778 9.053 C 21.807 9.064 21.82 9.08 21.827 9.092 C 21.833 9.102 21.853 9.142 21.839 9.207 C 21.831 9.241 21.816 9.274 21.793 9.302 C 21.77 9.329 21.75 9.341 21.743 9.344 L 21.314 8.44 Z M 27.828 6.666 C 25.576 6.819 23.318 7.487 21.314 8.441 L 21.744 9.344 C 23.654 8.435 25.79 7.806 27.896 7.663 L 27.828 6.666 Z M 28.721 7.483 C 28.696 7.136 28.405 6.626 27.827 6.666 L 27.896 7.663 C 27.866 7.666 27.833 7.66 27.804 7.647 C 27.776 7.635 27.758 7.62 27.748 7.609 C 27.731 7.591 27.725 7.575 27.724 7.556 L 28.721 7.483 Z M 28.623 10.029 C 28.722 9.209 28.785 8.341 28.721 7.483 L 27.724 7.556 C 27.781 8.322 27.726 9.117 27.63 9.909 L 28.623 10.029 Z M 23.983 18.753 C 26.828 16.631 28.221 13.366 28.623 10.028 L 27.63 9.909 C 27.25 13.065 25.947 16.04 23.385 17.952 L 23.983 18.753 Z M 15.803 21.788 C 18.668 21.438 21.62 20.517 23.983 18.753 L 23.385 17.952 C 21.202 19.581 18.432 20.459 15.681 20.795 L 15.803 21.788 Z M 15.242 21.29 L 15.242 21.292 L 16.242 21.292 L 16.242 21.29 L 15.242 21.29 Z M 15.334 21.712 C 15.483 21.786 15.646 21.806 15.803 21.787 L 15.681 20.794 C 15.689 20.793 15.728 20.791 15.777 20.816 L 15.334 21.712 Z M 15.407 21.76 C 15.465 21.765 15.526 21.767 15.588 21.763 L 15.523 20.765 C 15.519 20.765 15.514 20.765 15.506 20.765 L 15.407 21.76 Z M 15.203 21.789 C 15.368 21.809 15.539 21.785 15.693 21.702 L 15.22 20.822 C 15.272 20.794 15.313 20.795 15.323 20.796 L 15.203 21.789 Z M 11.137 20.863 C 12.456 21.316 13.822 21.619 15.202 21.789 L 15.324 20.796 C 14.008 20.635 12.71 20.346 11.462 19.917 L 11.137 20.863 Z M 3.372 13.976 C 4.794 17.443 7.674 19.672 11.137 20.863 L 11.462 19.917 C 8.202 18.796 5.584 16.735 4.297 13.597 L 3.372 13.976 Z M 2.284 7.484 C 2.122 9.657 2.556 11.985 3.372 13.976 L 4.297 13.597 C 3.533 11.732 3.132 9.559 3.281 7.558 L 2.284 7.484 Z M 3.178 6.667 C 2.9 6.648 2.673 6.77 2.525 6.93 C 2.383 7.083 2.298 7.283 2.284 7.484 L 3.281 7.557 C 3.28 7.577 3.274 7.593 3.258 7.61 C 3.248 7.621 3.23 7.636 3.202 7.648 C 3.173 7.661 3.14 7.667 3.109 7.665 L 3.178 6.667 Z M 9.691 8.442 C 7.686 7.488 5.429 6.82 3.177 6.667 L 3.109 7.665 C 5.215 7.808 7.35 8.436 9.261 9.345 L 9.691 8.442 Z M 8.897 9.958 C 9.391 10.192 9.845 9.925 10.036 9.605 C 10.134 9.441 10.193 9.224 10.143 8.994 C 10.089 8.747 9.922 8.551 9.691 8.442 L 9.262 9.345 C 9.256 9.342 9.235 9.33 9.212 9.303 C 9.189 9.275 9.173 9.242 9.166 9.207 C 9.152 9.142 9.172 9.102 9.178 9.092 C 9.185 9.08 9.198 9.065 9.226 9.054 C 9.264 9.04 9.305 9.044 9.326 9.054 L 8.897 9.958 Z M 3.438 8.401 C 5.305 8.576 7.208 9.154 8.897 9.958 L 9.327 9.055 C 7.549 8.209 5.533 7.593 3.531 7.406 L 3.438 8.401 Z M 4.064 9.621 C 4.006 9.048 3.968 8.477 3.984 7.918 L 2.985 7.889 C 2.967 8.509 3.009 9.129 3.069 9.722 L 4.064 9.621 Z M 8.119 17.44 C 5.628 15.626 4.372 12.672 4.064 9.621 L 3.069 9.722 C 3.396 12.957 4.74 16.216 7.531 18.248 L 8.119 17.44 Z M 14.096 19.894 C 11.945 19.487 9.84 18.692 8.119 17.44 L 7.531 18.248 C 9.398 19.608 11.65 20.448 13.909 20.877 L 14.096 19.894 Z M 9.754 15.351 C 10.472 17.515 11.891 19.403 13.699 20.783 L 14.306 19.988 C 12.643 18.719 11.353 16.993 10.704 15.036 L 9.754 15.351 Z M 11.201 4.709 C 9.478 7.885 8.558 11.74 9.754 15.351 L 10.704 15.036 C 9.625 11.78 10.434 8.221 12.08 5.186 L 11.201 4.709 Z M 14.901 -0.261 C 13.405 1.166 12.165 2.932 11.201 4.709 L 12.08 5.186 C 13.008 3.475 14.189 1.8 15.591 0.463 L 14.901 -0.261 Z M 16.101 -0.261 C 15.766 -0.58 15.237 -0.58 14.902 -0.261 L 15.591 0.464 C 15.54 0.512 15.463 0.512 15.412 0.464 L 16.101 -0.261 Z M 18.987 3.338 C 18.17 2.075 17.22 0.807 16.101 -0.261 L 15.411 0.463 C 16.452 1.456 17.354 2.654 18.147 3.881 L 18.987 3.338 Z M 21.071 11.872 C 21.072 11.874 21.072 11.875 21.072 11.877 L 20.072 11.885 C 20.072 11.903 20.072 11.922 20.074 11.94 L 21.071 11.872 Z M 15.736 20.978 C 19.054 19.221 21.034 15.503 21.073 11.911 L 20.073 11.901 C 20.038 15.169 18.225 18.528 15.268 20.094 L 15.736 20.978 Z M 10.608 15.6 C 11.434 17.756 13.152 19.851 15.267 20.978 L 15.737 20.095 C 13.856 19.093 12.291 17.197 11.541 15.242 L 10.608 15.6 Z M 13.226 2.833 C 10.676 6.402 8.903 11.15 10.608 15.6 L 11.541 15.242 C 10.013 11.253 11.569 6.872 14.039 3.415 L 13.226 2.833 Z M 15.146 0.502 C 14.431 1.225 13.799 2.031 13.226 2.834 L 14.039 3.415 C 14.596 2.635 15.194 1.876 15.857 1.205 L 15.146 0.502 Z M 18.285 3.576 C 17.584 2.504 16.784 1.436 15.856 0.501 L 15.147 1.205 C 16.011 2.076 16.769 3.085 17.449 4.123 L 18.285 3.576 Z M 21.072 11.877 C 21.048 8.863 19.893 6.029 18.285 3.575 L 17.449 4.123 C 18.989 6.474 20.05 9.122 20.072 11.885 L 21.072 11.877 Z M 18.34 22.49 C 21.664 23.312 25.004 22.904 27.85 20.893 L 27.273 20.076 C 24.7 21.894 21.668 22.283 18.58 21.52 L 18.34 22.49 Z M 18.871 22.289 L 18.874 22.285 L 18.046 21.725 L 18.043 21.728 L 18.871 22.289 Z M 18.77 20.838 C 18.522 20.777 18.28 20.823 18.086 20.954 C 17.902 21.078 17.786 21.262 17.734 21.447 C 17.682 21.632 17.685 21.854 17.785 22.058 C 17.892 22.276 18.088 22.432 18.336 22.494 L 18.579 21.523 C 18.585 21.525 18.605 21.532 18.628 21.55 C 18.652 21.569 18.671 21.593 18.683 21.619 C 18.707 21.667 18.701 21.703 18.697 21.717 C 18.693 21.732 18.681 21.758 18.646 21.782 C 18.627 21.795 18.604 21.805 18.579 21.809 C 18.554 21.813 18.537 21.811 18.53 21.809 L 18.77 20.838 Z M 23.732 20.973 C 22.122 21.378 20.421 21.246 18.77 20.838 L 18.53 21.809 C 20.279 22.241 22.155 22.4 23.975 21.943 L 23.732 20.973 Z M 27.027 19.379 C 26.024 20.107 24.918 20.675 23.732 20.973 L 23.976 21.943 C 25.31 21.608 26.53 20.975 27.614 20.189 L 27.027 19.379 Z M 29.713 16.756 C 28.989 17.75 28.032 18.65 27.027 19.379 L 27.614 20.189 C 28.686 19.412 29.724 18.44 30.521 17.344 L 29.713 16.756 Z M 27.31 16.512 C 28.204 16.769 29.083 17.078 29.888 17.494 L 30.347 16.606 C 29.462 16.148 28.514 15.818 27.587 15.551 L 27.31 16.512 Z M 27.779 14.866 C 27.534 14.795 27.287 14.831 27.087 14.962 C 26.897 15.085 26.781 15.272 26.729 15.457 C 26.677 15.643 26.68 15.861 26.775 16.064 C 26.876 16.278 27.064 16.44 27.309 16.511 L 27.587 15.551 C 27.594 15.553 27.612 15.56 27.633 15.577 C 27.654 15.595 27.67 15.617 27.68 15.639 C 27.7 15.681 27.696 15.713 27.692 15.727 C 27.688 15.741 27.675 15.772 27.633 15.799 C 27.611 15.814 27.584 15.824 27.556 15.828 C 27.528 15.832 27.508 15.828 27.502 15.826 L 27.779 14.866 Z M 31.069 16.186 C 30.033 15.596 28.887 15.186 27.779 14.866 L 27.502 15.827 C 28.573 16.136 29.635 16.52 30.574 17.055 L 31.069 16.186 Z M 31.367 17.384 C 31.517 17.16 31.526 16.905 31.468 16.701 C 31.411 16.499 31.276 16.302 31.066 16.184 L 30.577 17.056 C 30.53 17.03 30.513 16.996 30.507 16.974 C 30.5 16.95 30.493 16.891 30.536 16.827 L 31.367 17.384 Z M 27.85 20.893 C 29.179 19.953 30.445 18.76 31.367 17.384 L 30.536 16.827 C 29.697 18.08 28.527 19.189 27.273 20.076 L 27.85 20.893 Z M 12.232 20.835 C 10.609 21.236 8.937 21.371 7.351 20.991 L 7.118 21.963 C 8.909 22.393 10.753 22.23 12.472 21.805 L 12.232 20.835 Z M 11.999 21.674 L 12.001 21.676 L 12.702 20.963 L 12.7 20.961 L 11.999 21.674 Z M 12.662 22.488 C 12.91 22.427 13.107 22.271 13.214 22.053 C 13.314 21.849 13.317 21.627 13.265 21.442 C 13.213 21.256 13.097 21.072 12.914 20.948 C 12.72 20.817 12.477 20.771 12.23 20.832 L 12.469 21.803 C 12.462 21.805 12.445 21.807 12.42 21.803 C 12.395 21.799 12.372 21.789 12.353 21.776 C 12.318 21.752 12.306 21.726 12.302 21.711 C 12.298 21.697 12.292 21.661 12.316 21.613 C 12.329 21.587 12.348 21.563 12.371 21.544 C 12.395 21.525 12.415 21.519 12.422 21.517 L 12.662 22.488 Z M 3.152 20.891 C 5.998 22.902 9.338 23.31 12.662 22.488 L 12.422 21.517 C 9.333 22.281 6.302 21.892 3.729 20.074 L 3.152 20.891 Z M -0.365 17.381 C 0.556 18.758 1.823 19.951 3.152 20.89 L 3.729 20.074 C 2.475 19.187 1.304 18.077 0.465 16.825 L -0.365 17.381 Z M -0.067 16.183 C -0.274 16.301 -0.409 16.496 -0.467 16.698 C -0.525 16.903 -0.515 17.158 -0.365 17.381 L 0.465 16.825 C 0.508 16.888 0.502 16.947 0.495 16.972 C 0.488 16.995 0.472 17.027 0.427 17.053 L -0.067 16.183 Z M 3.222 14.863 C 2.113 15.183 0.968 15.594 -0.067 16.184 L 0.427 17.053 C 1.366 16.518 2.427 16.134 3.499 15.824 L 3.222 14.863 Z M 3.691 16.509 C 3.937 16.439 4.125 16.277 4.226 16.063 C 4.322 15.86 4.325 15.641 4.273 15.456 C 4.222 15.27 4.105 15.084 3.916 14.96 C 3.715 14.829 3.468 14.793 3.222 14.863 L 3.499 15.824 C 3.493 15.826 3.474 15.83 3.446 15.826 C 3.418 15.822 3.391 15.812 3.369 15.797 C 3.327 15.77 3.314 15.738 3.31 15.724 C 3.306 15.71 3.302 15.679 3.321 15.637 C 3.332 15.614 3.348 15.593 3.369 15.575 C 3.39 15.557 3.408 15.55 3.415 15.548 L 3.691 16.509 Z M 1.115 17.492 C 1.919 17.077 2.799 16.768 3.692 16.509 L 3.414 15.549 C 2.489 15.817 1.541 16.147 0.656 16.604 L 1.115 17.492 Z M 3.976 19.377 C 2.971 18.648 2.013 17.748 1.29 16.754 L 0.481 17.342 C 1.278 18.438 2.317 19.409 3.388 20.186 L 3.976 19.377 Z M 7.351 20.991 C 6.135 20.7 5.001 20.121 3.976 19.377 L 3.388 20.187 C 4.496 20.99 5.748 21.635 7.118 21.963 L 7.351 20.991 Z" fill="currentColor" fill-rule="nonzero"></path>
</svg>