<svg xmlns="http://www.w3.org/2000/svg" width="27" height="26" viewBox="0 0 27 26" fill="none">
  <path d="M 24.635 2.405 C 23.107 0.854 21.076 0 18.915 0 C 16.895 0 14.988 0.746 13.5 2.11 C 12.012 0.746 10.105 0 8.086 0 C 5.925 0 3.893 0.854 2.365 2.405 C -0.788 5.606 -0.788 10.815 2.365 14.015 L 3.336 15.001 L 3.336 25.563 C 3.336 25.804 3.529 26 3.767 26 L 23.233 26 C 23.471 26 23.664 25.804 23.664 25.563 L 23.664 15.001 L 24.635 14.015 C 27.788 10.815 27.789 5.606 24.635 2.405 Z M 22.802 25.125 L 4.198 25.125 L 4.198 22.806 L 22.803 22.806 L 22.802 25.125 Z M 24.026 13.397 L 22.929 14.51 C 22.848 14.592 22.803 14.704 22.803 14.819 L 22.803 21.931 L 4.198 21.931 L 4.198 14.819 C 4.198 14.703 4.153 14.592 4.072 14.51 L 2.975 13.397 C 0.157 10.537 0.157 5.883 2.975 3.023 C 4.34 1.638 6.155 0.875 8.085 0.875 C 9.872 0.875 11.558 1.529 12.882 2.723 L 10.757 4.879 C 10.589 5.05 10.589 5.327 10.757 5.498 C 10.842 5.583 10.952 5.626 11.062 5.626 C 11.172 5.626 11.283 5.583 11.367 5.498 L 13.785 3.044 C 13.788 3.04 13.791 3.037 13.794 3.033 C 13.798 3.03 13.801 3.027 13.805 3.023 C 15.169 1.638 16.985 0.875 18.915 0.875 C 20.845 0.875 22.66 1.638 24.025 3.023 C 26.843 5.883 26.844 10.537 24.026 13.397 Z M 21.94 14.819 C 21.94 15.061 21.748 15.257 21.51 15.257 L 5.491 15.257 C 5.253 15.257 5.06 15.061 5.06 14.819 C 5.06 14.578 5.254 14.382 5.491 14.382 L 8.027 14.382 L 6.452 10.554 C 6.36 10.331 6.464 10.075 6.684 9.982 C 6.903 9.889 7.156 9.994 7.247 10.217 L 8.961 14.382 L 13.069 14.382 L 13.069 10.386 C 13.069 10.144 13.262 9.948 13.5 9.948 C 13.738 9.948 13.931 10.144 13.931 10.386 L 13.931 14.382 L 18.039 14.382 L 19.752 10.217 C 19.844 9.994 20.097 9.888 20.316 9.982 C 20.536 10.075 20.639 10.331 20.548 10.554 L 18.972 14.382 L 21.509 14.382 C 21.747 14.382 21.94 14.578 21.94 14.819 Z" fill="currentColor" fill-rule="nonzero"></path>
  <path d="M 24.635 2.405 L 24.92 2.124 L 24.92 2.124 L 24.635 2.405 Z M 13.5 2.11 L 13.23 2.405 L 13.5 2.653 L 13.771 2.405 L 13.5 2.11 Z M 2.365 2.405 L 2.081 2.124 L 2.081 2.124 L 2.365 2.405 Z M 2.365 14.015 L 2.65 13.735 L 2.65 13.735 L 2.365 14.015 Z M 3.336 15.001 L 3.736 15.001 L 3.736 14.837 L 3.621 14.72 L 3.336 15.001 Z M 23.664 15.001 L 23.379 14.72 L 23.264 14.837 L 23.264 15.001 L 23.664 15.001 Z M 22.802 25.125 L 22.802 25.525 L 23.202 25.525 L 23.202 25.125 L 22.802 25.125 Z M 4.198 25.125 L 3.798 25.125 L 3.798 25.525 L 4.198 25.525 L 4.198 25.125 Z M 4.198 22.806 L 4.198 22.406 L 3.798 22.406 L 3.798 22.806 L 4.198 22.806 Z M 22.803 22.806 L 23.203 22.806 L 23.203 22.406 L 22.803 22.406 L 22.803 22.806 Z M 24.026 13.397 L 24.311 13.678 L 24.311 13.678 L 24.026 13.397 Z M 22.929 14.51 L 23.213 14.791 L 23.214 14.791 L 22.929 14.51 Z M 22.803 21.931 L 22.803 22.331 L 23.203 22.331 L 23.203 21.931 L 22.803 21.931 Z M 4.198 21.931 L 3.798 21.931 L 3.798 22.331 L 4.198 22.331 L 4.198 21.931 Z M 4.072 14.51 L 4.357 14.229 L 4.357 14.229 L 4.072 14.51 Z M 2.975 13.397 L 2.69 13.678 L 2.69 13.678 L 2.975 13.397 Z M 2.975 3.023 L 2.69 2.742 L 2.69 2.742 L 2.975 3.023 Z M 12.882 2.723 L 13.167 3.004 L 13.46 2.707 L 13.15 2.427 L 12.882 2.723 Z M 10.757 4.879 L 11.042 5.16 L 11.042 5.16 L 10.757 4.879 Z M 10.757 5.498 L 11.042 5.217 L 11.042 5.217 L 10.757 5.498 Z M 11.367 5.498 L 11.652 5.779 L 11.652 5.779 L 11.367 5.498 Z M 13.785 3.044 L 13.5 2.763 L 13.5 2.763 L 13.785 3.044 Z M 13.794 3.033 L 13.509 2.752 L 13.503 2.759 L 13.496 2.766 L 13.794 3.033 Z M 13.805 3.023 L 14.09 3.304 L 14.09 3.304 L 13.805 3.023 Z M 8.027 14.382 L 8.027 14.782 L 8.624 14.782 L 8.397 14.23 L 8.027 14.382 Z M 6.452 10.554 L 6.082 10.706 L 6.082 10.706 L 6.452 10.554 Z M 6.684 9.982 L 6.528 9.613 L 6.527 9.613 L 6.684 9.982 Z M 7.247 10.217 L 7.617 10.065 L 7.617 10.064 L 7.247 10.217 Z M 8.961 14.382 L 8.592 14.534 L 8.693 14.782 L 8.961 14.782 L 8.961 14.382 Z M 13.069 14.382 L 13.069 14.782 L 13.469 14.782 L 13.469 14.382 L 13.069 14.382 Z M 13.931 14.382 L 13.531 14.382 L 13.531 14.782 L 13.931 14.782 L 13.931 14.382 Z M 18.039 14.382 L 18.039 14.782 L 18.307 14.782 L 18.409 14.534 L 18.039 14.382 Z M 19.752 10.217 L 20.122 10.369 L 20.122 10.369 L 19.752 10.217 Z M 20.316 9.982 L 20.16 10.35 L 20.16 10.35 L 20.316 9.982 Z M 20.548 10.554 L 20.178 10.402 L 20.178 10.402 L 20.548 10.554 Z M 18.972 14.382 L 18.603 14.23 L 18.375 14.782 L 18.972 14.782 L 18.972 14.382 Z M 24.92 2.124 C 23.318 0.498 21.184 -0.4 18.915 -0.4 L 18.915 0.4 C 20.968 0.4 22.897 1.211 24.35 2.686 L 24.92 2.124 Z M 18.915 -0.4 C 16.795 -0.4 14.792 0.384 13.23 1.816 L 13.771 2.405 C 15.185 1.109 16.996 0.4 18.915 0.4 L 18.915 -0.4 Z M 13.771 1.816 C 12.209 0.384 10.206 -0.4 8.086 -0.4 L 8.086 0.4 C 10.005 0.4 11.815 1.109 13.23 2.405 L 13.771 1.816 Z M 8.086 -0.4 C 5.817 -0.4 3.683 0.498 2.081 2.124 L 2.65 2.686 C 4.104 1.211 6.033 0.4 8.086 0.4 L 8.086 -0.4 Z M 2.081 2.124 C -1.227 5.481 -1.227 10.94 2.081 14.296 L 2.65 13.735 C -0.35 10.69 -0.35 5.731 2.65 2.685 L 2.081 2.124 Z M 2.08 14.296 L 3.051 15.282 L 3.621 14.72 L 2.65 13.735 L 2.08 14.296 Z M 2.936 15.001 L 2.936 25.563 L 3.736 25.563 L 3.736 15.001 L 2.936 15.001 Z M 2.936 25.563 C 2.936 26.02 3.303 26.4 3.767 26.4 L 3.767 25.6 C 3.756 25.6 3.736 25.589 3.736 25.563 L 2.936 25.563 Z M 3.767 26.4 L 23.233 26.4 L 23.233 25.6 L 3.767 25.6 L 3.767 26.4 Z M 23.233 26.4 C 23.698 26.4 24.064 26.019 24.064 25.563 L 23.264 25.563 C 23.264 25.589 23.244 25.6 23.233 25.6 L 23.233 26.4 Z M 24.064 25.563 L 24.064 15.001 L 23.264 15.001 L 23.264 25.563 L 24.064 25.563 Z M 23.949 15.282 L 24.92 14.296 L 24.35 13.735 L 23.379 14.72 L 23.949 15.282 Z M 24.92 14.296 C 28.227 10.94 28.227 5.481 24.92 2.124 L 24.35 2.685 C 27.351 5.731 27.35 10.689 24.35 13.735 L 24.92 14.296 Z M 22.802 24.725 L 4.198 24.725 L 4.198 25.525 L 22.802 25.525 L 22.802 24.725 Z M 4.598 25.125 L 4.598 22.806 L 3.798 22.806 L 3.798 25.125 L 4.598 25.125 Z M 4.198 23.206 L 22.803 23.206 L 22.803 22.406 L 4.198 22.406 L 4.198 23.206 Z M 22.403 22.806 L 22.402 25.125 L 23.202 25.125 L 23.203 22.806 L 22.403 22.806 Z M 23.741 13.116 L 22.644 14.229 L 23.214 14.791 L 24.311 13.678 L 23.741 13.116 Z M 22.645 14.229 C 22.488 14.387 22.403 14.6 22.403 14.819 L 23.203 14.819 C 23.203 14.807 23.208 14.797 23.213 14.791 L 22.645 14.229 Z M 22.403 14.819 L 22.403 21.931 L 23.203 21.931 L 23.203 14.819 L 22.403 14.819 Z M 22.803 21.531 L 4.198 21.531 L 4.198 22.331 L 22.803 22.331 L 22.803 21.531 Z M 4.598 21.931 L 4.598 14.819 L 3.798 14.819 L 3.798 21.931 L 4.598 21.931 Z M 4.598 14.819 C 4.598 14.599 4.512 14.387 4.357 14.229 L 3.787 14.791 C 3.794 14.797 3.798 14.808 3.798 14.819 L 4.598 14.819 Z M 4.357 14.229 L 3.26 13.116 L 2.69 13.678 L 3.787 14.791 L 4.357 14.229 Z M 3.26 13.116 C 0.596 10.412 0.596 6.008 3.26 3.304 L 2.69 2.742 C -0.281 5.758 -0.281 10.662 2.69 13.678 L 3.26 13.116 Z M 3.26 3.304 C 4.551 1.994 6.263 1.275 8.085 1.275 L 8.085 0.475 C 6.047 0.475 4.13 1.281 2.69 2.742 L 3.26 3.304 Z M 8.085 1.275 C 9.772 1.275 11.363 1.891 12.614 3.02 L 13.15 2.427 C 11.753 1.166 9.971 0.475 8.085 0.475 L 8.085 1.275 Z M 12.597 2.443 L 10.472 4.599 L 11.042 5.16 L 13.167 3.004 L 12.597 2.443 Z M 10.473 4.598 C 10.151 4.925 10.151 5.452 10.473 5.779 L 11.042 5.217 C 11.035 5.21 11.031 5.201 11.031 5.189 C 11.031 5.177 11.035 5.167 11.042 5.16 L 10.473 4.598 Z M 10.472 5.779 C 10.634 5.943 10.848 6.026 11.062 6.026 L 11.062 5.226 C 11.058 5.226 11.055 5.225 11.052 5.224 C 11.05 5.223 11.046 5.221 11.042 5.217 L 10.472 5.779 Z M 11.062 6.026 C 11.276 6.026 11.49 5.943 11.652 5.779 L 11.082 5.217 C 11.078 5.221 11.075 5.223 11.072 5.224 C 11.069 5.225 11.066 5.226 11.062 5.226 L 11.062 6.026 Z M 11.652 5.779 L 14.07 3.325 L 13.5 2.763 L 11.082 5.217 L 11.652 5.779 Z M 14.07 3.325 C 14.079 3.315 14.087 3.306 14.09 3.302 C 14.091 3.301 14.092 3.3 14.092 3.3 C 14.093 3.299 14.093 3.299 14.093 3.299 C 14.094 3.298 14.093 3.299 14.092 3.3 L 13.496 2.766 C 13.494 2.769 13.491 2.772 13.49 2.773 C 13.49 2.773 13.49 2.774 13.49 2.774 C 13.489 2.774 13.489 2.774 13.489 2.774 C 13.489 2.775 13.489 2.775 13.489 2.774 C 13.489 2.774 13.493 2.769 13.5 2.763 L 14.07 3.325 Z M 14.079 3.314 C 14.076 3.317 14.073 3.32 14.072 3.321 C 14.07 3.322 14.07 3.323 14.071 3.322 C 14.071 3.322 14.074 3.319 14.077 3.316 C 14.08 3.313 14.084 3.309 14.09 3.304 L 13.52 2.742 C 13.523 2.739 13.526 2.736 13.527 2.735 C 13.528 2.734 13.529 2.733 13.528 2.734 C 13.528 2.735 13.525 2.737 13.522 2.74 C 13.519 2.743 13.514 2.747 13.509 2.752 L 14.079 3.314 Z M 14.09 3.304 C 15.38 1.994 17.093 1.275 18.915 1.275 L 18.915 0.475 C 16.877 0.475 14.959 1.281 13.52 2.742 L 14.09 3.304 Z M 18.915 1.275 C 20.737 1.275 22.45 1.994 23.74 3.304 L 24.31 2.742 C 22.871 1.282 20.953 0.475 18.915 0.475 L 18.915 1.275 Z M 23.74 3.304 C 26.405 6.008 26.405 10.412 23.741 13.116 L 24.311 13.678 C 27.282 10.662 27.281 5.758 24.31 2.742 L 23.74 3.304 Z M 21.54 14.819 C 21.54 14.846 21.521 14.857 21.51 14.857 L 21.51 15.657 C 21.974 15.657 22.34 15.277 22.34 14.819 L 21.54 14.819 Z M 21.51 14.857 L 5.491 14.857 L 5.491 15.657 L 21.51 15.657 L 21.51 14.857 Z M 5.491 14.857 C 5.48 14.857 5.46 14.846 5.46 14.819 L 4.66 14.819 C 4.66 15.276 5.027 15.657 5.491 15.657 L 5.491 14.857 Z M 5.46 14.819 C 5.46 14.793 5.48 14.782 5.491 14.782 L 5.491 13.982 C 5.027 13.982 4.66 14.362 4.66 14.819 L 5.46 14.819 Z M 5.491 14.782 L 8.027 14.782 L 8.027 13.982 L 5.491 13.982 L 5.491 14.782 Z M 8.397 14.23 L 6.822 10.402 L 6.082 10.706 L 7.657 14.534 L 8.397 14.23 Z M 6.822 10.402 C 6.818 10.391 6.818 10.38 6.822 10.369 C 6.826 10.358 6.833 10.353 6.84 10.35 L 6.527 9.613 C 6.103 9.794 5.909 10.284 6.082 10.706 L 6.822 10.402 Z M 6.839 10.35 C 6.851 10.345 6.869 10.349 6.878 10.369 L 7.617 10.064 C 7.442 9.639 6.956 9.432 6.528 9.613 L 6.839 10.35 Z M 6.878 10.369 L 8.592 14.534 L 9.331 14.23 L 7.617 10.065 L 6.878 10.369 Z M 8.961 14.782 L 13.069 14.782 L 13.069 13.982 L 8.961 13.982 L 8.961 14.782 Z M 13.469 14.382 L 13.469 10.386 L 12.669 10.386 L 12.669 14.382 L 13.469 14.382 Z M 13.469 10.386 C 13.469 10.359 13.488 10.348 13.5 10.348 L 13.5 9.548 C 13.036 9.548 12.669 9.928 12.669 10.386 L 13.469 10.386 Z M 13.5 10.348 C 13.511 10.348 13.531 10.359 13.531 10.386 L 14.331 10.386 C 14.331 9.929 13.964 9.548 13.5 9.548 L 13.5 10.348 Z M 13.531 10.386 L 13.531 14.382 L 14.331 14.382 L 14.331 10.386 L 13.531 10.386 Z M 13.931 14.782 L 18.039 14.782 L 18.039 13.982 L 13.931 13.982 L 13.931 14.782 Z M 18.409 14.534 L 20.122 10.369 L 19.383 10.065 L 17.669 14.23 L 18.409 14.534 Z M 20.122 10.369 C 20.131 10.348 20.149 10.345 20.16 10.35 L 20.472 9.613 C 20.044 9.432 19.557 9.639 19.383 10.065 L 20.122 10.369 Z M 20.16 10.35 C 20.167 10.353 20.174 10.359 20.178 10.369 C 20.182 10.38 20.182 10.391 20.178 10.402 L 20.918 10.706 C 21.091 10.284 20.897 9.793 20.472 9.613 L 20.16 10.35 Z M 20.178 10.402 L 18.603 14.23 L 19.342 14.534 L 20.918 10.706 L 20.178 10.402 Z M 18.972 14.782 L 21.509 14.782 L 21.509 13.982 L 18.972 13.982 L 18.972 14.782 Z M 21.509 14.782 C 21.521 14.782 21.54 14.794 21.54 14.819 L 22.34 14.819 C 22.34 14.361 21.972 13.982 21.509 13.982 L 21.509 14.782 Z" fill="currentColor" fill-rule="nonzero"></path>
</svg>