<svg xmlns="http://www.w3.org/2000/svg" width="25.998" height="26.011" viewBox="0 0 25.998 26.011" fill="none">
  <path d="M 18.496 13.284 C 18.376 13.165 18.21 13.096 18.044 13.096 C 18.022 13.096 18.001 13.096 17.975 13.096 L 16.944 13.139 L 19.126 10.956 C 21.006 11.417 22.984 10.875 24.37 9.489 C 25.943 7.92 26.425 5.571 25.602 3.495 C 25.521 3.294 25.346 3.149 25.137 3.102 C 24.928 3.06 24.707 3.124 24.557 3.277 L 21.961 5.874 C 21.701 5.874 21.488 5.874 21.228 5.874 L 20.124 4.769 L 20.124 4.036 L 22.716 1.444 C 22.869 1.29 22.933 1.073 22.891 0.864 C 22.848 0.655 22.699 0.48 22.503 0.399 C 20.431 -0.428 18.078 0.054 16.509 1.627 C 15.128 3.009 14.582 4.987 15.042 6.871 L 12.165 9.749 L 6.406 3.989 L 6.478 2.646 C 6.491 2.412 6.376 2.19 6.175 2.066 L 2.995 0.113 C 2.744 -0.04 2.415 -0.002 2.207 0.207 L 0.19 2.228 C -0.019 2.437 -0.057 2.765 0.096 3.017 L 2.057 6.202 C 2.173 6.39 2.381 6.505 2.603 6.505 C 2.616 6.505 2.624 6.505 2.637 6.505 L 3.98 6.432 L 9.739 12.192 L 6.875 15.058 C 4.986 14.597 3.008 15.143 1.627 16.524 C 0.054 18.102 -0.428 20.451 0.399 22.519 C 0.48 22.72 0.655 22.865 0.864 22.907 C 1.073 22.95 1.294 22.886 1.444 22.732 L 4.035 20.14 C 4.295 20.14 4.509 20.14 4.769 20.14 L 5.873 21.244 L 5.873 21.436 C 5.873 21.615 5.873 21.782 5.873 21.973 L 3.277 24.57 C 3.123 24.723 3.059 24.941 3.102 25.15 C 3.144 25.359 3.294 25.534 3.49 25.615 C 4.159 25.883 4.858 26.011 5.553 26.011 C 6.998 26.011 8.418 25.448 9.484 24.387 C 10.865 23.005 11.41 21.027 10.95 19.142 L 13.12 16.972 L 13.073 18.038 C 13.064 18.217 13.133 18.392 13.261 18.52 L 20.15 25.41 C 20.55 25.811 21.075 26.011 21.599 26.011 C 22.123 26.011 22.648 25.811 23.048 25.41 L 25.38 23.078 C 25.768 22.69 25.981 22.174 25.981 21.628 C 25.981 21.082 25.768 20.566 25.38 20.178 L 18.491 13.288 L 18.496 13.284 Z M 16.215 7.519 C 16.385 7.349 16.445 7.102 16.373 6.871 C 15.882 5.332 16.283 3.674 17.417 2.539 C 18.376 1.576 19.723 1.145 21.036 1.329 L 19.037 3.328 C 18.918 3.448 18.849 3.61 18.849 3.78 L 18.849 5.042 C 18.849 5.213 18.918 5.375 19.037 5.494 L 20.516 6.974 C 20.636 7.093 20.819 7.153 20.972 7.161 C 21.458 7.161 21.735 7.161 22.217 7.161 C 22.396 7.149 22.554 7.097 22.673 6.974 L 24.673 4.974 C 24.856 6.287 24.421 7.63 23.462 8.59 C 22.324 9.728 20.665 10.129 19.131 9.634 C 18.905 9.562 18.653 9.621 18.483 9.792 L 16.735 11.54 C 16.735 11.54 16.709 11.506 16.697 11.489 L 15.72 10.513 C 15.482 10.274 15.055 10.274 14.817 10.513 L 13.866 11.463 L 13.069 10.666 L 16.211 7.524 L 16.215 7.519 Z M 1.448 2.774 L 2.752 1.469 L 5.182 2.966 L 5.114 4.215 C 5.114 4.215 5.114 4.232 5.114 4.241 C 5.114 4.249 5.114 4.258 5.114 4.266 C 5.114 4.343 5.131 4.416 5.157 4.484 C 5.157 4.492 5.165 4.497 5.165 4.505 C 5.195 4.578 5.238 4.641 5.293 4.697 C 5.293 4.697 5.293 4.701 5.297 4.705 L 12.958 12.367 L 12.335 12.99 L 11.086 11.741 L 4.675 5.328 C 4.675 5.328 4.666 5.328 4.662 5.319 C 4.607 5.264 4.543 5.221 4.47 5.192 C 4.466 5.192 4.457 5.187 4.453 5.183 C 4.385 5.157 4.313 5.14 4.236 5.14 C 4.227 5.14 4.219 5.14 4.21 5.14 C 4.202 5.14 4.193 5.14 4.185 5.14 L 2.936 5.209 L 1.439 2.778 L 1.448 2.774 Z M 9.628 19.142 C 10.119 20.682 9.718 22.34 8.584 23.474 C 7.616 24.438 6.269 24.868 4.961 24.685 L 6.964 22.681 C 7.088 22.562 7.152 22.396 7.152 22.225 C 7.152 21.909 7.152 21.688 7.152 21.436 L 7.152 20.976 C 7.152 20.805 7.083 20.643 6.964 20.524 L 5.481 19.04 C 5.361 18.921 5.208 18.852 5.024 18.852 C 4.538 18.852 4.266 18.852 3.78 18.852 C 3.596 18.865 3.443 18.921 3.324 19.04 L 1.324 21.04 C 1.141 19.731 1.571 18.388 2.535 17.424 C 3.669 16.29 5.331 15.889 6.87 16.379 C 7.096 16.452 7.348 16.392 7.518 16.222 L 10.647 13.092 L 11.445 13.889 L 10.498 14.836 C 10.247 15.088 10.247 15.493 10.498 15.74 L 11.474 16.716 C 11.474 16.716 11.508 16.746 11.526 16.759 L 9.79 18.494 C 9.62 18.665 9.56 18.912 9.633 19.142 L 9.628 19.142 Z M 24.481 22.17 L 22.149 24.502 C 21.846 24.804 21.356 24.804 21.058 24.502 L 14.369 17.812 L 14.437 16.217 C 14.446 16.038 14.377 15.864 14.25 15.74 C 14.122 15.612 13.951 15.544 13.772 15.552 L 12.178 15.621 L 11.854 15.296 L 15.277 11.873 L 15.601 12.197 L 15.533 13.796 C 15.524 13.975 15.592 14.15 15.72 14.273 C 15.844 14.401 16.023 14.469 16.198 14.461 L 17.796 14.393 L 24.485 21.082 C 24.63 21.227 24.711 21.423 24.711 21.628 C 24.711 21.833 24.63 22.029 24.485 22.174 L 24.481 22.17 Z" fill="currentColor" fill-rule="nonzero"></path>
</svg>