<svg xmlns="http://www.w3.org/2000/svg" width="29.092" height="30.016" viewBox="0 0 29.092 30.016" fill="none">
  <path d="M 16.813 10.542 C 17.565 10.329 18.377 10.54 18.93 11.093 C 19.482 11.646 19.692 12.456 19.478 13.207 L 15.438 27.419 C 15.191 28.288 14.449 28.901 13.548 28.979 C 12.646 29.055 11.81 28.578 11.418 27.763 L 9.858 24.517 L 4.959 29.416 C 4.56 29.816 4.034 30.016 3.509 30.016 C 2.984 30.016 2.459 29.816 2.059 29.416 L 0.602 27.959 C 0.214 27.573 0 27.057 0 26.509 C 0 25.961 0.214 25.445 0.602 25.058 L 5.5 20.16 L 2.255 18.601 C 1.44 18.21 0.962 17.374 1.039 16.473 C 1.116 15.572 1.729 14.829 2.599 14.582 L 16.813 10.542 Z M 17.371 12.506 L 3.157 16.546 C 3.142 16.55 3.123 16.556 3.107 16.57 C 3.094 16.58 3.077 16.601 3.073 16.648 C 3.069 16.694 3.082 16.718 3.093 16.731 C 3.106 16.746 3.124 16.755 3.139 16.762 L 7.683 18.945 C 7.981 19.088 8.191 19.367 8.247 19.693 C 8.303 20.019 8.197 20.352 7.963 20.586 L 2.045 26.503 C 2.043 26.505 2.042 26.506 2.042 26.506 C 2.042 26.506 2.041 26.508 2.041 26.51 C 2.041 26.511 2.042 26.512 2.042 26.513 C 2.042 26.513 2.043 26.515 2.044 26.516 L 3.501 27.973 C 3.505 27.977 3.513 27.977 3.516 27.974 L 9.434 22.057 C 9.668 21.823 10.001 21.717 10.327 21.773 C 10.653 21.828 10.932 22.038 11.075 22.336 L 13.259 26.88 L 13.29 26.924 C 13.304 26.935 13.328 26.948 13.373 26.945 C 13.419 26.94 13.44 26.924 13.451 26.911 C 13.464 26.896 13.47 26.877 13.475 26.862 L 17.515 12.65 L 17.52 12.61 C 17.52 12.599 17.518 12.589 17.516 12.581 C 17.51 12.564 17.499 12.549 17.486 12.536 C 17.474 12.524 17.458 12.512 17.44 12.506 C 17.432 12.503 17.422 12.502 17.411 12.501 L 17.371 12.506 Z M 24.559 16.95 C 24.754 16.422 25.341 16.151 25.87 16.347 L 28.426 17.293 C 28.954 17.489 29.224 18.075 29.028 18.604 C 28.876 19.015 28.485 19.271 28.07 19.271 C 27.953 19.271 27.833 19.249 27.717 19.206 L 25.161 18.261 C 24.633 18.065 24.363 17.479 24.559 16.95 Z M 27.253 7.067 C 27.765 6.831 28.371 7.056 28.606 7.568 C 28.842 8.08 28.617 8.686 28.105 8.921 L 25.624 10.062 C 25.486 10.125 25.341 10.155 25.198 10.155 C 24.812 10.155 24.443 9.935 24.27 9.562 C 24.035 9.05 24.259 8.443 24.771 8.207 L 27.253 7.067 Z M 9.465 0.487 C 9.977 0.253 10.583 0.476 10.818 0.988 L 11.781 3.083 C 12.016 3.595 11.792 4.201 11.28 4.437 C 11.142 4.5 10.997 4.529 10.854 4.529 C 10.469 4.529 10.099 4.309 9.927 3.936 L 8.964 1.841 C 8.728 1.329 8.953 0.723 9.465 0.487 Z M 19.19 0.666 C 19.386 0.138 19.973 -0.132 20.502 0.064 C 21.03 0.259 21.3 0.847 21.104 1.375 L 20.262 3.653 C 20.109 4.064 19.719 4.318 19.305 4.319 C 19.187 4.319 19.067 4.298 18.95 4.255 C 18.422 4.059 18.152 3.472 18.348 2.944 L 19.19 0.666 Z" fill="currentColor" fill-rule="nonzero"></path>
</svg>