<svg xmlns="http://www.w3.org/2000/svg" width="48" height="48" viewBox="14.265 3.541 19.47 19.702" fill="none"><g transform="translate(14.265 3.541)"><path d="M 9.044 5.868 L 9.194 5.868 L 9.194 4.975 L 9.044 4.975 L 8.894 4.975 L 8.894 5.868 L 9.044 5.868 Z M 1.056 14.101 L 1.056 13.801 C 0.966 13.801 0.881 13.841 0.824 13.91 L 1.056 14.101 Z M 6.815 18.662 L 7.115 18.662 C 7.115 18.533 7.033 18.418 6.911 18.377 C 6.788 18.336 6.654 18.378 6.576 18.481 L 6.815 18.662 Z M 6.493 19.092 L 6.252 18.913 C 6.178 19.013 6.173 19.148 6.24 19.253 C 6.306 19.358 6.431 19.411 6.553 19.386 L 6.493 19.092 Z M 10.003 18.297 L 10.216 18.086 C 10.129 17.997 9.996 17.972 9.882 18.022 C 9.768 18.073 9.697 18.188 9.703 18.313 L 10.003 18.297 Z M 14.239 13.97 L 13.999 13.79 C 13.921 13.893 13.919 14.035 13.993 14.142 C 14.067 14.248 14.201 14.295 14.325 14.257 L 14.239 13.97 Z M 13.644 8.991 L 13.547 8.707 C 13.443 8.743 13.366 8.833 13.348 8.942 C 13.33 9.051 13.373 9.161 13.46 9.229 L 13.644 8.991 Z M 14.201 9.421 L 14.019 9.659 C 14.113 9.732 14.241 9.741 14.346 9.684 C 14.45 9.627 14.511 9.513 14.5 9.395 L 14.201 9.421 Z M 5.084 4.594 L 5.345 4.447 L 5.345 4.446 L 5.084 4.594 Z M 4.755 5.401 L 4.863 5.681 L 4.868 5.679 L 4.755 5.401 Z M 3.452 5.478 L 3.479 5.777 L 3.481 5.777 L 3.452 5.478 Z M 1.319 10.611 L 1.551 10.801 C 1.611 10.728 1.633 10.631 1.61 10.539 C 1.587 10.447 1.522 10.371 1.435 10.335 L 1.319 10.611 Z M 0.697 9.981 L 0.465 9.791 C 0.405 9.864 0.383 9.961 0.406 10.053 C 0.429 10.145 0.493 10.221 0.581 10.258 L 0.697 9.981 Z M 5.265 6.146 L 5.368 6.428 L 5.369 6.428 L 5.265 6.146 Z M 5.415 6.112 L 5.303 5.834 L 5.3 5.835 L 5.415 6.112 Z M 5.599 5.992 L 5.413 5.756 L 5.41 5.759 L 5.599 5.992 Z M 13.877 9.851 L 13.973 10.136 C 14.085 10.098 14.164 9.998 14.176 9.881 C 14.187 9.764 14.129 9.65 14.027 9.591 L 13.877 9.851 Z M 13.336 9.539 L 13.486 9.279 C 13.384 9.22 13.256 9.226 13.161 9.295 C 13.065 9.364 13.018 9.482 13.041 9.598 L 13.336 9.539 Z M 14.003 13.113 L 14.243 13.293 C 14.32 13.189 14.323 13.047 14.249 12.941 C 14.175 12.835 14.041 12.788 13.917 12.825 L 14.003 13.113 Z M 10.883 18.298 L 10.67 18.509 C 10.757 18.598 10.891 18.623 11.005 18.573 C 11.119 18.522 11.19 18.407 11.183 18.282 L 10.883 18.298 Z M 6.262 18.233 L 6.321 18.527 L 6.322 18.527 L 6.262 18.233 Z M 5.939 18.663 L 5.639 18.663 C 5.639 18.785 5.712 18.895 5.825 18.941 C 5.938 18.987 6.067 18.961 6.152 18.874 L 5.939 18.663 Z M 6.379 18.217 L 6.593 18.428 C 6.681 18.338 6.704 18.203 6.65 18.089 C 6.597 17.975 6.478 17.907 6.352 17.918 L 6.379 18.217 Z M 1.682 14.733 L 1.45 14.542 C 1.345 14.67 1.363 14.859 1.491 14.964 C 1.619 15.069 1.808 15.051 1.913 14.923 L 1.682 14.733 Z M 1.059 14.101 L 1.059 14.401 C 1.148 14.401 1.233 14.361 1.29 14.292 L 1.059 14.101 Z M 1.056 14.101 L 0.824 13.91 C 0.678 14.087 0.637 14.278 0.633 14.449 C 0.629 14.594 0.657 14.774 0.665 14.869 L 0.964 14.843 L 1.263 14.818 C 1.248 14.648 1.23 14.567 1.233 14.463 C 1.235 14.384 1.25 14.337 1.287 14.292 L 1.056 14.101 Z M 0.964 14.843 L 0.665 14.869 L 0.798 16.392 L 1.097 16.366 L 1.396 16.34 L 1.263 14.818 L 0.964 14.843 Z M 1.097 16.366 L 0.798 16.392 C 0.814 16.571 0.821 16.768 0.831 16.987 C 0.841 17.202 0.853 17.434 0.879 17.663 C 0.93 18.115 1.039 18.605 1.331 18.983 L 1.568 18.8 L 1.806 18.617 C 1.617 18.373 1.523 18.019 1.475 17.596 C 1.452 17.388 1.44 17.174 1.431 16.96 C 1.421 16.75 1.413 16.535 1.396 16.34 L 1.097 16.366 Z M 1.568 18.8 L 1.331 18.983 C 1.697 19.457 2.16 19.638 2.631 19.687 C 3.079 19.734 3.566 19.662 3.966 19.626 L 3.939 19.327 L 3.912 19.028 C 3.459 19.069 3.065 19.129 2.694 19.09 C 2.346 19.054 2.049 18.932 1.806 18.617 L 1.568 18.8 Z M 3.939 19.327 L 3.966 19.626 C 4.818 19.549 5.589 19.48 6.402 19.407 L 6.375 19.108 L 6.348 18.809 C 5.536 18.882 4.765 18.951 3.912 19.028 L 3.939 19.327 Z M 6.375 19.108 L 6.402 19.407 C 6.754 19.375 7.115 19.114 7.115 18.662 L 6.815 18.662 L 6.515 18.662 C 6.515 18.708 6.5 18.736 6.478 18.757 C 6.452 18.781 6.408 18.804 6.348 18.809 L 6.375 19.108 Z M 6.815 18.662 L 6.576 18.481 C 6.468 18.625 6.359 18.769 6.252 18.913 L 6.493 19.092 L 6.733 19.271 C 6.839 19.129 6.947 18.986 7.055 18.843 L 6.815 18.662 Z M 6.493 19.092 L 6.553 19.386 C 7.079 19.277 7.452 18.895 7.636 18.451 C 7.819 18.009 7.827 17.475 7.597 17.019 L 7.329 17.154 L 7.061 17.289 C 7.204 17.572 7.205 17.922 7.081 18.222 C 6.958 18.52 6.726 18.737 6.432 18.798 L 6.493 19.092 Z M 7.329 17.154 L 7.597 17.019 C 7.506 16.84 7.402 16.688 7.306 16.555 C 7.206 16.416 7.124 16.31 7.052 16.195 C 6.922 15.986 6.846 15.779 6.896 15.456 L 6.599 15.41 L 6.303 15.364 C 6.226 15.861 6.355 16.211 6.542 16.512 C 6.629 16.651 6.733 16.787 6.82 16.907 C 6.91 17.032 6.992 17.153 7.061 17.289 L 7.329 17.154 Z M 6.599 15.41 L 6.896 15.456 C 6.978 14.924 7.401 14.493 7.919 14.394 L 7.863 14.1 L 7.807 13.805 C 7.041 13.95 6.424 14.579 6.303 15.364 L 6.599 15.41 Z M 7.863 14.1 L 7.919 14.394 C 8.442 14.295 8.914 14.496 9.209 14.921 L 9.456 14.75 L 9.703 14.579 C 9.274 13.963 8.567 13.661 7.807 13.805 L 7.863 14.1 Z M 9.456 14.75 L 9.209 14.921 C 9.365 15.147 9.449 15.419 9.44 15.69 L 9.74 15.699 L 10.04 15.709 C 10.053 15.304 9.928 14.906 9.703 14.579 L 9.456 14.75 Z M 9.74 15.699 L 9.44 15.69 C 9.435 15.868 9.387 16.004 9.313 16.151 C 9.273 16.23 9.23 16.304 9.178 16.397 C 9.129 16.487 9.074 16.588 9.024 16.702 L 9.298 16.823 L 9.573 16.944 C 9.612 16.856 9.656 16.774 9.703 16.689 C 9.748 16.607 9.802 16.514 9.849 16.421 C 9.947 16.225 10.031 16.002 10.04 15.709 L 9.74 15.699 Z M 9.298 16.823 L 9.024 16.702 C 8.561 17.747 9.3 18.992 10.43 19.043 L 10.443 18.743 L 10.456 18.443 C 9.769 18.413 9.272 17.622 9.573 16.944 L 9.298 16.823 Z M 10.443 18.743 L 10.657 18.532 L 10.216 18.086 L 10.003 18.297 L 9.789 18.508 L 10.23 18.954 L 10.443 18.743 Z M 10.003 18.297 L 9.703 18.313 C 9.713 18.494 9.789 18.677 9.912 18.813 C 10.038 18.954 10.233 19.064 10.471 19.042 L 10.443 18.743 L 10.415 18.444 C 10.407 18.445 10.387 18.445 10.358 18.412 C 10.326 18.376 10.305 18.324 10.302 18.281 L 10.003 18.297 Z M 10.443 18.743 L 10.471 19.042 C 10.82 19.01 11.169 18.979 11.519 18.947 C 11.869 18.916 12.219 18.884 12.569 18.853 L 12.542 18.554 L 12.515 18.255 C 12.165 18.287 11.815 18.318 11.466 18.35 C 11.116 18.381 10.765 18.413 10.415 18.444 L 10.443 18.743 Z M 12.542 18.554 L 12.569 18.853 C 12.921 18.821 13.351 18.803 13.738 18.698 C 14.143 18.588 14.533 18.378 14.82 17.946 L 14.57 17.78 L 14.32 17.614 C 14.134 17.894 13.885 18.037 13.581 18.119 C 13.26 18.206 12.912 18.219 12.515 18.255 L 12.542 18.554 Z M 14.57 17.78 L 14.82 17.946 C 15.073 17.565 15.139 17.151 15.139 16.76 C 15.14 16.385 15.077 15.977 15.049 15.656 L 14.75 15.682 L 14.451 15.708 C 14.484 16.091 14.54 16.418 14.539 16.759 C 14.539 17.084 14.484 17.367 14.32 17.614 L 14.57 17.78 Z M 14.75 15.682 L 15.049 15.656 C 14.987 14.951 14.923 14.227 14.86 13.514 L 14.562 13.54 L 14.263 13.566 C 14.326 14.28 14.39 15.003 14.451 15.708 L 14.75 15.682 Z M 14.562 13.54 L 14.322 13.36 L 13.999 13.79 L 14.239 13.97 L 14.479 14.15 L 14.802 13.72 L 14.562 13.54 Z M 14.239 13.97 L 14.325 14.257 C 14.652 14.159 14.849 13.868 14.861 13.552 L 14.562 13.54 L 14.262 13.528 C 14.259 13.612 14.212 13.665 14.152 13.683 L 14.239 13.97 Z M 14.562 13.54 L 14.861 13.553 C 14.865 13.481 14.883 13.492 14.859 13.51 C 14.848 13.518 14.858 13.504 14.923 13.508 C 15.055 13.515 15.229 13.584 15.333 13.633 L 15.461 13.361 L 15.589 13.09 C 15.478 13.038 15.213 12.923 14.956 12.909 C 14.826 12.902 14.653 12.917 14.505 13.026 C 14.344 13.144 14.271 13.326 14.262 13.527 L 14.562 13.54 Z M 15.461 13.361 L 15.333 13.633 C 15.577 13.748 15.857 13.897 16.19 13.963 L 16.248 13.668 L 16.307 13.374 C 16.066 13.326 15.866 13.221 15.589 13.09 L 15.461 13.361 Z M 16.248 13.668 L 16.19 13.963 C 16.781 14.081 17.406 14.004 17.951 13.729 L 17.816 13.461 L 17.681 13.194 C 17.26 13.406 16.772 13.467 16.307 13.374 L 16.248 13.668 Z M 17.816 13.461 L 17.951 13.729 C 19.038 13.18 19.632 11.955 19.431 10.756 L 19.135 10.806 L 18.839 10.855 C 18.998 11.804 18.525 12.767 17.681 13.194 L 17.816 13.461 Z M 19.135 10.806 L 19.431 10.756 C 19.23 9.555 18.314 8.67 17.164 8.479 L 17.115 8.775 L 17.066 9.071 C 17.965 9.22 18.681 9.909 18.839 10.855 L 19.135 10.806 Z M 17.115 8.775 L 17.164 8.479 C 16.589 8.383 15.985 8.475 15.464 8.75 L 15.604 9.016 L 15.744 9.281 C 16.146 9.069 16.617 8.996 17.066 9.071 L 17.115 8.775 Z M 15.604 9.016 L 15.464 8.75 C 15.357 8.806 15.212 8.917 15.091 9.005 C 14.955 9.103 14.82 9.198 14.696 9.262 C 14.634 9.294 14.584 9.314 14.544 9.324 C 14.504 9.335 14.49 9.331 14.493 9.332 C 14.54 9.342 14.507 9.383 14.48 9.243 L 14.185 9.302 L 13.891 9.361 C 13.945 9.629 14.09 9.859 14.367 9.918 C 14.592 9.967 14.816 9.875 14.971 9.795 C 15.141 9.707 15.309 9.588 15.444 9.49 C 15.595 9.38 15.687 9.311 15.744 9.281 L 15.604 9.016 Z M 14.185 9.302 L 14.48 9.243 C 14.436 9.026 14.287 8.864 14.126 8.773 C 13.966 8.682 13.753 8.637 13.547 8.707 L 13.644 8.991 L 13.74 9.275 C 13.749 9.272 13.784 9.269 13.83 9.295 C 13.875 9.321 13.889 9.351 13.891 9.361 L 14.185 9.302 Z M 13.644 8.991 L 13.46 9.229 C 13.646 9.372 13.832 9.516 14.019 9.659 L 14.201 9.421 L 14.384 9.183 C 14.198 9.04 14.013 8.897 13.827 8.754 L 13.644 8.991 Z M 14.201 9.421 L 14.5 9.395 C 14.469 9.038 14.438 8.681 14.406 8.324 C 14.375 7.967 14.344 7.61 14.312 7.253 L 14.013 7.279 L 13.714 7.306 C 13.746 7.663 13.777 8.02 13.809 8.377 C 13.84 8.734 13.871 9.09 13.903 9.447 L 14.201 9.421 Z M 14.013 7.279 L 14.312 7.253 C 14.282 6.906 14.274 6.452 14.197 6.049 C 14.117 5.629 13.954 5.2 13.578 4.865 L 13.378 5.089 L 13.179 5.313 C 13.42 5.527 13.541 5.813 13.608 6.161 C 13.677 6.526 13.678 6.893 13.714 7.306 L 14.013 7.279 Z M 13.378 5.089 L 13.578 4.865 C 13.202 4.531 12.775 4.422 12.361 4.403 C 11.965 4.385 11.539 4.449 11.193 4.48 L 11.22 4.779 L 11.247 5.078 C 11.647 5.042 11.992 4.987 12.333 5.003 C 12.658 5.018 12.937 5.098 13.179 5.313 L 13.378 5.089 Z M 11.22 4.779 L 11.193 4.48 C 10.445 4.548 9.742 4.612 9.017 4.676 L 9.044 4.975 L 9.07 5.274 C 9.796 5.209 10.499 5.146 11.247 5.078 L 11.22 4.779 Z M 9.044 4.975 L 9.017 4.676 C 8.557 4.718 8.323 5.097 8.319 5.437 C 8.317 5.608 8.37 5.79 8.497 5.934 C 8.629 6.083 8.82 6.168 9.044 6.168 L 9.044 5.868 L 9.044 5.568 C 8.978 5.568 8.956 5.547 8.947 5.537 C 8.933 5.521 8.919 5.49 8.919 5.444 C 8.92 5.398 8.936 5.356 8.96 5.327 C 8.98 5.302 9.012 5.279 9.07 5.274 L 9.044 4.975 Z M 9.044 5.868 L 9.044 6.168 C 9.269 6.168 9.459 6.079 9.589 5.928 C 9.714 5.784 9.769 5.602 9.768 5.43 C 9.768 5.089 9.536 4.697 9.057 4.676 L 9.044 4.975 L 9.03 5.275 C 9.088 5.278 9.115 5.298 9.131 5.318 C 9.152 5.343 9.168 5.383 9.168 5.432 C 9.168 5.48 9.152 5.516 9.136 5.535 C 9.125 5.549 9.102 5.568 9.044 5.568 L 9.044 5.868 Z M 9.044 4.975 L 9.057 4.676 C 8.996 4.673 8.979 4.661 8.983 4.663 C 8.985 4.664 8.989 4.668 8.993 4.673 C 8.998 4.679 8.999 4.682 8.999 4.682 C 8.994 4.667 8.988 4.6 9.033 4.454 C 9.074 4.322 9.14 4.177 9.207 4.037 C 9.265 3.917 9.344 3.765 9.375 3.671 L 9.09 3.577 L 8.806 3.482 C 8.791 3.526 8.746 3.614 8.667 3.776 C 8.598 3.918 8.515 4.099 8.459 4.278 C 8.408 4.443 8.36 4.671 8.432 4.879 C 8.472 4.994 8.547 5.097 8.662 5.17 C 8.772 5.24 8.9 5.269 9.03 5.275 L 9.044 4.975 Z M 9.09 3.577 L 9.375 3.671 C 9.548 3.152 9.568 2.572 9.422 2.04 L 9.133 2.12 L 8.844 2.199 C 8.957 2.614 8.942 3.074 8.806 3.482 L 9.09 3.577 Z M 9.133 2.12 L 9.422 2.04 C 9.167 1.111 8.42 0.348 7.492 0.095 L 7.413 0.385 L 7.334 0.674 C 8.052 0.87 8.643 1.468 8.844 2.199 L 9.133 2.12 Z M 7.413 0.385 L 7.492 0.095 C 5.414 -0.468 3.469 1.565 4.142 3.644 L 4.427 3.551 L 4.713 3.459 C 4.185 1.831 5.719 0.237 7.334 0.674 L 7.413 0.385 Z M 4.427 3.551 L 4.142 3.644 C 4.227 3.908 4.362 4.108 4.49 4.277 C 4.623 4.455 4.731 4.579 4.823 4.742 L 5.084 4.594 L 5.345 4.446 C 5.227 4.238 5.076 4.059 4.969 3.916 C 4.856 3.765 4.768 3.629 4.713 3.459 L 4.427 3.551 Z M 5.084 4.594 L 4.822 4.741 C 4.849 4.789 4.874 4.874 4.873 4.957 C 4.873 5.043 4.848 5.076 4.839 5.084 L 5.037 5.309 L 5.235 5.534 C 5.421 5.371 5.473 5.142 5.473 4.96 C 5.474 4.777 5.425 4.59 5.345 4.447 L 5.084 4.594 Z M 5.037 5.309 L 4.839 5.084 C 4.863 5.063 4.883 5.054 4.884 5.053 C 4.888 5.051 4.888 5.051 4.882 5.054 C 4.87 5.058 4.85 5.064 4.823 5.071 C 4.791 5.08 4.774 5.084 4.74 5.093 C 4.726 5.097 4.71 5.101 4.696 5.105 C 4.682 5.109 4.663 5.115 4.643 5.123 L 4.755 5.401 L 4.868 5.679 C 4.861 5.682 4.864 5.681 4.893 5.673 C 4.909 5.669 4.952 5.658 4.979 5.651 C 5.01 5.642 5.048 5.631 5.084 5.618 C 5.102 5.612 5.124 5.603 5.146 5.593 C 5.166 5.583 5.201 5.565 5.235 5.534 L 5.037 5.309 Z M 4.755 5.401 L 4.648 5.121 C 4.608 5.137 4.542 5.164 4.487 5.211 C 4.464 5.231 4.393 5.297 4.378 5.412 C 4.359 5.558 4.443 5.658 4.502 5.702 C 4.553 5.74 4.604 5.754 4.627 5.759 C 4.655 5.766 4.681 5.769 4.702 5.771 C 4.743 5.774 4.786 5.772 4.825 5.768 C 4.893 5.762 5.002 5.742 5.093 5.688 C 5.137 5.662 5.228 5.599 5.264 5.475 C 5.306 5.329 5.243 5.21 5.186 5.145 L 4.96 5.342 L 4.733 5.539 C 4.722 5.525 4.702 5.498 4.689 5.457 C 4.675 5.412 4.673 5.36 4.688 5.308 C 4.702 5.259 4.727 5.226 4.745 5.206 C 4.764 5.187 4.78 5.176 4.788 5.172 C 4.802 5.163 4.808 5.163 4.797 5.166 C 4.789 5.168 4.777 5.17 4.765 5.171 C 4.752 5.173 4.745 5.172 4.746 5.172 C 4.747 5.172 4.755 5.173 4.769 5.176 C 4.776 5.178 4.787 5.181 4.801 5.187 C 4.814 5.192 4.835 5.202 4.859 5.22 C 4.883 5.237 4.916 5.268 4.942 5.317 C 4.97 5.369 4.981 5.43 4.973 5.49 C 4.965 5.546 4.943 5.587 4.926 5.613 C 4.909 5.638 4.892 5.655 4.882 5.664 C 4.871 5.673 4.862 5.679 4.857 5.682 C 4.852 5.686 4.848 5.687 4.848 5.688 C 4.847 5.688 4.851 5.686 4.863 5.681 L 4.755 5.401 Z M 4.96 5.342 L 5.186 5.145 C 5.129 5.079 5.06 5.051 5.023 5.038 C 4.981 5.024 4.939 5.017 4.906 5.013 C 4.838 5.005 4.762 5.005 4.689 5.008 C 4.541 5.014 4.36 5.035 4.186 5.06 C 4.011 5.084 3.835 5.113 3.694 5.137 C 3.544 5.161 3.452 5.177 3.423 5.18 L 3.452 5.478 L 3.481 5.777 C 3.536 5.772 3.661 5.75 3.792 5.728 C 3.933 5.705 4.102 5.677 4.269 5.654 C 4.438 5.63 4.596 5.612 4.714 5.607 C 4.775 5.605 4.814 5.606 4.835 5.609 C 4.846 5.61 4.842 5.611 4.83 5.607 C 4.823 5.604 4.777 5.589 4.733 5.539 L 4.96 5.342 Z M 3.452 5.478 L 3.425 5.18 C 3.148 5.204 2.87 5.212 2.537 5.236 C 2.219 5.259 1.882 5.295 1.563 5.375 C 0.914 5.539 0.302 5.9 0.075 6.722 L 0.365 6.802 L 0.654 6.882 C 0.803 6.342 1.183 6.09 1.71 5.957 C 1.978 5.889 2.273 5.856 2.579 5.834 C 2.869 5.814 3.205 5.802 3.479 5.777 L 3.452 5.478 Z M 0.365 6.802 L 0.075 6.722 C -0.013 7.045 -0.01 7.386 0.016 7.699 C 0.029 7.857 0.048 8.014 0.067 8.161 C 0.086 8.31 0.104 8.448 0.115 8.579 L 0.414 8.552 L 0.713 8.526 C 0.7 8.382 0.681 8.231 0.662 8.085 C 0.644 7.938 0.626 7.793 0.614 7.65 C 0.59 7.36 0.593 7.102 0.654 6.882 L 0.365 6.802 Z M 0.414 8.552 L 0.115 8.579 C 0.141 8.87 0.166 9.16 0.192 9.45 C 0.218 9.741 0.243 10.032 0.269 10.322 L 0.568 10.296 L 0.866 10.27 C 0.841 9.979 0.815 9.688 0.79 9.398 C 0.764 9.107 0.738 8.816 0.713 8.526 L 0.414 8.552 Z M 0.568 10.296 L 0.269 10.322 C 0.294 10.609 0.487 10.854 0.719 10.972 C 0.839 11.033 0.985 11.068 1.139 11.044 C 1.298 11.019 1.441 10.936 1.551 10.801 L 1.319 10.611 L 1.087 10.421 C 1.063 10.45 1.049 10.451 1.047 10.451 C 1.04 10.452 1.021 10.452 0.991 10.437 C 0.96 10.422 0.929 10.395 0.904 10.361 C 0.88 10.327 0.869 10.295 0.866 10.27 L 0.568 10.296 Z M 1.319 10.611 L 1.435 10.335 C 1.184 10.229 0.933 10.124 0.683 10.019 L 0.568 10.296 L 0.452 10.573 C 0.701 10.677 0.951 10.782 1.202 10.888 L 1.319 10.611 Z M 0.568 10.296 L 0.269 10.322 C 0.329 11.009 0.389 11.696 0.449 12.383 C 0.51 13.07 0.57 13.757 0.63 14.444 L 0.929 14.417 L 1.228 14.391 C 1.168 13.704 1.108 13.017 1.047 12.331 C 0.987 11.644 0.926 10.957 0.866 10.27 L 0.568 10.296 Z M 0.929 14.417 L 0.63 14.444 C 0.671 14.917 1.068 15.144 1.406 15.145 C 1.577 15.146 1.763 15.091 1.905 14.959 C 2.055 14.818 2.129 14.618 2.108 14.391 L 1.81 14.417 L 1.511 14.444 C 1.516 14.504 1.498 14.517 1.496 14.52 C 1.485 14.529 1.457 14.546 1.408 14.545 C 1.36 14.545 1.314 14.529 1.283 14.504 C 1.256 14.483 1.233 14.45 1.228 14.391 L 0.929 14.417 Z M 1.81 14.417 L 2.108 14.391 C 2.048 13.704 1.988 13.017 1.928 12.331 C 1.867 11.644 1.807 10.957 1.747 10.27 L 1.448 10.296 L 1.149 10.322 C 1.209 11.009 1.27 11.696 1.33 12.383 C 1.39 13.07 1.451 13.757 1.511 14.444 L 1.81 14.417 Z M 1.448 10.296 L 1.747 10.27 C 1.721 9.983 1.528 9.738 1.297 9.62 C 1.177 9.559 1.03 9.524 0.876 9.548 C 0.718 9.573 0.575 9.657 0.465 9.791 L 0.697 9.981 L 0.929 10.171 C 0.952 10.142 0.966 10.141 0.969 10.141 C 0.976 10.14 0.995 10.14 1.025 10.155 C 1.055 10.17 1.087 10.197 1.112 10.231 C 1.136 10.265 1.147 10.297 1.149 10.322 L 1.448 10.296 Z M 0.697 9.981 L 0.581 10.258 C 0.831 10.363 1.083 10.469 1.333 10.573 L 1.448 10.296 L 1.564 10.019 C 1.315 9.915 1.064 9.81 0.813 9.704 L 0.697 9.981 Z M 1.448 10.296 L 1.747 10.27 C 1.662 9.296 1.522 8.368 1.497 7.428 L 1.197 7.436 L 0.897 7.444 C 0.923 8.405 1.069 9.4 1.149 10.322 L 1.448 10.296 Z M 1.197 7.436 L 1.497 7.428 C 1.491 7.176 1.555 7.043 1.631 6.966 C 1.713 6.883 1.856 6.817 2.097 6.795 L 2.07 6.496 L 2.043 6.198 C 1.725 6.226 1.423 6.323 1.205 6.544 C 0.981 6.771 0.888 7.082 0.897 7.444 L 1.197 7.436 Z M 2.07 6.496 L 2.097 6.795 L 3.807 6.641 L 3.78 6.342 L 3.753 6.044 L 2.043 6.198 L 2.07 6.496 Z M 3.78 6.342 L 3.807 6.641 C 3.997 6.624 4.184 6.619 4.4 6.606 C 4.606 6.594 4.827 6.574 5.041 6.527 L 4.977 6.234 L 4.913 5.941 C 4.745 5.978 4.562 5.995 4.364 6.007 C 4.174 6.018 3.953 6.026 3.753 6.044 L 3.78 6.342 Z M 4.977 6.234 L 5.041 6.527 C 5.101 6.514 5.204 6.481 5.268 6.46 C 5.302 6.449 5.335 6.438 5.35 6.433 C 5.365 6.429 5.359 6.431 5.349 6.433 C 5.347 6.434 5.344 6.435 5.339 6.436 C 5.336 6.436 5.326 6.439 5.313 6.44 C 5.307 6.441 5.292 6.443 5.273 6.443 C 5.263 6.443 5.239 6.441 5.225 6.439 C 5.204 6.435 5.15 6.416 5.119 6.4 C 5.073 6.366 4.997 6.259 4.977 6.187 C 4.974 6.123 4.999 6.022 5.018 5.987 C 5.051 5.932 5.094 5.903 5.097 5.901 C 5.118 5.885 5.137 5.876 5.138 5.875 C 5.144 5.872 5.149 5.87 5.151 5.869 C 5.156 5.867 5.159 5.866 5.16 5.865 C 5.164 5.864 5.166 5.863 5.161 5.865 L 5.265 6.146 L 5.369 6.428 C 5.372 6.427 5.379 6.424 5.385 6.422 C 5.386 6.421 5.391 6.419 5.396 6.417 C 5.398 6.416 5.403 6.414 5.409 6.411 C 5.41 6.41 5.429 6.401 5.45 6.385 C 5.454 6.383 5.496 6.354 5.53 6.299 C 5.548 6.263 5.573 6.163 5.57 6.099 C 5.55 6.027 5.475 5.92 5.429 5.886 C 5.397 5.87 5.343 5.851 5.322 5.847 C 5.308 5.845 5.284 5.843 5.274 5.843 C 5.255 5.843 5.24 5.845 5.234 5.846 C 5.221 5.847 5.211 5.85 5.208 5.85 C 5.203 5.851 5.199 5.852 5.197 5.853 C 5.184 5.856 5.166 5.862 5.164 5.863 C 5.144 5.87 5.117 5.878 5.082 5.89 C 5.009 5.914 4.938 5.936 4.913 5.941 L 4.977 6.234 Z M 5.265 6.146 L 5.162 5.864 C 5.148 5.87 5.125 5.878 5.104 5.888 C 5.098 5.891 5.086 5.898 5.071 5.907 C 5.064 5.911 5.051 5.92 5.037 5.933 C 5.026 5.942 4.995 5.97 4.969 6.016 C 4.942 6.066 4.903 6.178 4.966 6.3 C 5.02 6.401 5.109 6.435 5.135 6.444 C 5.192 6.464 5.241 6.461 5.244 6.461 C 5.28 6.46 5.315 6.451 5.317 6.451 C 5.33 6.448 5.345 6.444 5.358 6.441 C 5.386 6.434 5.418 6.425 5.445 6.417 C 5.464 6.412 5.503 6.401 5.529 6.39 L 5.415 6.112 L 5.3 5.835 C 5.311 5.831 5.309 5.832 5.279 5.841 C 5.257 5.847 5.231 5.854 5.21 5.859 C 5.2 5.862 5.192 5.864 5.188 5.865 C 5.173 5.868 5.195 5.862 5.225 5.861 C 5.226 5.861 5.274 5.858 5.33 5.877 C 5.356 5.886 5.445 5.92 5.498 6.021 C 5.562 6.143 5.523 6.254 5.495 6.305 C 5.47 6.351 5.439 6.378 5.429 6.387 C 5.414 6.399 5.402 6.407 5.396 6.412 C 5.382 6.42 5.372 6.426 5.369 6.428 C 5.357 6.433 5.352 6.434 5.368 6.428 L 5.265 6.146 Z M 5.415 6.112 L 5.526 6.391 C 5.646 6.343 5.734 6.268 5.787 6.226 L 5.599 5.992 L 5.41 5.759 C 5.346 5.811 5.325 5.825 5.303 5.834 L 5.415 6.112 Z M 5.599 5.992 L 5.784 6.228 C 6.145 5.944 6.275 5.558 6.328 5.181 L 6.031 5.139 L 5.734 5.097 C 5.691 5.398 5.602 5.608 5.413 5.756 L 5.599 5.992 Z M 6.031 5.139 L 6.328 5.181 C 6.38 4.812 6.377 4.418 6.149 4.041 L 5.892 4.196 L 5.636 4.352 C 5.76 4.557 5.778 4.787 5.734 5.097 L 6.031 5.139 Z M 5.892 4.196 L 6.149 4.041 C 6.069 3.91 5.985 3.798 5.907 3.699 C 5.827 3.596 5.762 3.516 5.7 3.429 C 5.588 3.269 5.511 3.113 5.492 2.884 L 5.193 2.908 L 4.894 2.932 C 4.924 3.298 5.055 3.555 5.21 3.774 C 5.282 3.878 5.365 3.979 5.435 4.068 C 5.507 4.162 5.574 4.251 5.636 4.352 L 5.892 4.196 Z M 5.193 2.908 L 5.492 2.884 C 5.419 1.975 6.321 1.272 7.166 1.557 L 7.262 1.273 L 7.359 0.989 C 6.098 0.563 4.786 1.601 4.894 2.932 L 5.193 2.908 Z M 7.262 1.273 L 7.166 1.557 C 7.59 1.701 7.918 2.065 8.011 2.508 L 8.304 2.447 L 8.598 2.385 C 8.461 1.731 7.981 1.2 7.359 0.989 L 7.262 1.273 Z M 8.304 2.447 L 8.011 2.508 C 8.072 2.798 8.007 3.007 7.893 3.245 C 7.784 3.473 7.586 3.791 7.513 4.176 L 7.808 4.232 L 8.103 4.287 C 8.156 4.005 8.286 3.812 8.434 3.504 C 8.576 3.207 8.697 2.857 8.598 2.385 L 8.304 2.447 Z M 7.808 4.232 L 7.513 4.176 C 7.331 5.156 8.025 6.122 9.03 6.167 L 9.044 5.868 L 9.057 5.568 C 8.448 5.54 7.981 4.941 8.103 4.287 L 7.808 4.232 Z M 9.044 5.868 L 9.07 6.167 C 9.358 6.141 9.645 6.115 9.932 6.089 C 10.22 6.063 10.507 6.037 10.794 6.011 L 10.767 5.712 L 10.741 5.413 C 10.453 5.439 10.165 5.465 9.878 5.491 C 9.591 5.517 9.304 5.543 9.017 5.569 L 9.044 5.868 Z M 10.767 5.712 L 10.794 6.011 C 10.933 5.998 11.104 5.97 11.27 5.944 C 11.442 5.916 11.621 5.889 11.795 5.873 C 11.971 5.856 12.131 5.852 12.269 5.868 C 12.408 5.883 12.501 5.917 12.558 5.957 L 12.731 5.712 L 12.904 5.467 C 12.733 5.346 12.529 5.293 12.336 5.271 C 12.141 5.249 11.934 5.257 11.739 5.275 C 11.543 5.293 11.348 5.324 11.176 5.351 C 10.998 5.379 10.854 5.403 10.741 5.413 L 10.767 5.712 Z M 12.731 5.712 L 12.558 5.957 C 12.683 6.045 12.772 6.261 12.812 6.626 C 12.831 6.795 12.838 6.973 12.842 7.147 C 12.847 7.316 12.849 7.492 12.862 7.635 L 13.161 7.608 L 13.46 7.582 C 13.449 7.463 13.447 7.315 13.442 7.132 C 13.438 6.956 13.431 6.756 13.409 6.559 C 13.368 6.192 13.265 5.721 12.904 5.467 L 12.731 5.712 Z M 13.161 7.608 L 12.862 7.635 C 12.915 8.239 12.969 8.843 13.021 9.447 L 13.32 9.421 L 13.618 9.395 C 13.566 8.791 13.513 8.186 13.46 7.582 L 13.161 7.608 Z M 13.32 9.421 L 13.021 9.447 C 13.039 9.656 13.14 9.862 13.301 10.002 C 13.471 10.148 13.713 10.223 13.973 10.136 L 13.877 9.851 L 13.782 9.567 C 13.759 9.574 13.745 9.573 13.736 9.571 C 13.725 9.569 13.71 9.562 13.693 9.547 C 13.655 9.515 13.624 9.457 13.618 9.395 L 13.32 9.421 Z M 13.877 9.851 L 14.027 9.591 C 13.937 9.539 13.846 9.487 13.756 9.435 C 13.666 9.383 13.575 9.331 13.486 9.279 L 13.336 9.539 L 13.185 9.799 C 13.276 9.851 13.366 9.903 13.457 9.955 C 13.547 10.007 13.637 10.059 13.727 10.111 L 13.877 9.851 Z M 13.336 9.539 L 13.041 9.598 C 13.147 10.127 13.522 10.506 13.964 10.693 C 14.403 10.879 14.933 10.888 15.386 10.653 L 15.247 10.387 L 15.109 10.12 C 14.833 10.264 14.491 10.265 14.198 10.14 C 13.907 10.017 13.69 9.782 13.63 9.48 L 13.336 9.539 Z M 15.247 10.387 L 15.386 10.653 C 15.563 10.561 15.713 10.455 15.844 10.358 C 15.981 10.256 16.086 10.173 16.199 10.1 C 16.405 9.969 16.606 9.893 16.921 9.943 L 16.968 9.647 L 17.015 9.351 C 16.521 9.272 16.173 9.405 15.876 9.595 C 15.739 9.683 15.604 9.788 15.486 9.876 C 15.363 9.968 15.243 10.051 15.109 10.12 L 15.247 10.387 Z M 16.968 9.647 L 16.921 9.943 C 17.44 10.025 17.868 10.451 17.966 10.982 L 18.261 10.928 L 18.556 10.873 C 18.414 10.103 17.796 9.474 17.015 9.351 L 16.968 9.647 Z M 18.261 10.928 L 17.966 10.982 C 18.065 11.519 17.863 12 17.445 12.298 L 17.62 12.542 L 17.793 12.787 C 18.403 12.352 18.697 11.637 18.556 10.873 L 18.261 10.928 Z M 17.62 12.542 L 17.445 12.298 C 17.224 12.455 16.957 12.539 16.693 12.53 L 16.683 12.83 L 16.673 13.13 C 17.076 13.143 17.471 13.016 17.793 12.787 L 17.62 12.542 Z M 16.683 12.83 L 16.693 12.53 C 16.52 12.525 16.387 12.477 16.242 12.402 C 16.165 12.362 16.091 12.319 15.999 12.266 C 15.911 12.216 15.811 12.16 15.698 12.109 L 15.574 12.382 L 15.45 12.656 C 15.537 12.695 15.618 12.739 15.702 12.787 C 15.783 12.833 15.874 12.888 15.966 12.935 C 16.16 13.035 16.382 13.121 16.673 13.13 L 16.683 12.83 Z M 15.574 12.382 L 15.698 12.109 C 14.654 11.634 13.429 12.398 13.38 13.53 L 13.68 13.543 L 13.979 13.556 C 14.01 12.846 14.795 12.357 15.45 12.656 L 15.574 12.382 Z M 13.68 13.543 L 13.92 13.723 L 14.243 13.293 L 14.003 13.113 L 13.763 12.932 L 13.44 13.362 L 13.68 13.543 Z M 14.003 13.113 L 13.917 12.825 C 13.767 12.87 13.632 12.966 13.536 13.086 C 13.439 13.207 13.364 13.376 13.381 13.569 L 13.68 13.543 L 13.979 13.516 C 13.978 13.514 13.978 13.494 14.004 13.461 C 14.031 13.428 14.066 13.407 14.088 13.4 L 14.003 13.113 Z M 13.68 13.543 L 13.381 13.569 C 13.43 14.129 13.48 14.689 13.529 15.25 L 13.828 15.223 L 14.127 15.197 C 14.077 14.636 14.028 14.076 13.979 13.516 L 13.68 13.543 Z M 13.828 15.223 L 13.529 15.25 C 13.553 15.521 13.611 15.848 13.646 16.12 C 13.683 16.412 13.702 16.675 13.67 16.9 L 13.967 16.942 L 14.264 16.984 C 14.308 16.675 14.28 16.345 14.241 16.043 C 14.199 15.723 14.15 15.457 14.127 15.197 L 13.828 15.223 Z M 13.967 16.942 L 13.67 16.9 C 13.651 17.031 13.6 17.108 13.536 17.163 C 13.464 17.224 13.357 17.272 13.209 17.306 C 13.062 17.34 12.895 17.356 12.718 17.365 C 12.554 17.374 12.356 17.379 12.203 17.392 L 12.23 17.691 L 12.256 17.99 C 12.398 17.977 12.552 17.975 12.75 17.964 C 12.936 17.954 13.145 17.937 13.344 17.891 C 13.542 17.845 13.752 17.766 13.924 17.62 C 14.104 17.467 14.225 17.256 14.264 16.984 L 13.967 16.942 Z M 12.23 17.691 L 12.203 17.392 C 11.612 17.445 11.011 17.499 10.416 17.553 L 10.443 17.852 L 10.47 18.151 C 11.065 18.097 11.665 18.043 12.256 17.99 L 12.23 17.691 Z M 10.443 17.852 L 10.23 18.063 L 10.67 18.509 L 10.883 18.298 L 11.097 18.087 L 10.657 17.641 L 10.443 17.852 Z M 10.883 18.298 L 11.183 18.282 C 11.162 17.888 10.867 17.57 10.456 17.552 L 10.443 17.852 L 10.43 18.152 C 10.515 18.155 10.578 18.211 10.584 18.314 L 10.883 18.298 Z M 10.443 17.852 L 10.456 17.552 C 10.389 17.549 10.402 17.532 10.419 17.556 C 10.426 17.566 10.412 17.553 10.415 17.486 C 10.423 17.349 10.491 17.171 10.54 17.065 L 10.267 16.941 L 9.994 16.815 C 9.943 16.928 9.83 17.195 9.816 17.453 C 9.809 17.583 9.824 17.756 9.93 17.904 C 10.046 18.067 10.229 18.143 10.43 18.152 L 10.443 17.852 Z M 10.267 16.941 L 10.54 17.065 C 10.654 16.818 10.8 16.535 10.864 16.2 L 10.57 16.143 L 10.275 16.086 C 10.228 16.332 10.123 16.535 9.994 16.815 L 10.267 16.941 Z M 10.57 16.143 L 10.864 16.2 C 10.98 15.603 10.905 14.972 10.635 14.422 L 10.366 14.554 L 10.096 14.686 C 10.307 15.115 10.367 15.612 10.275 16.086 L 10.57 16.143 Z M 10.366 14.554 L 10.635 14.422 C 10.094 13.323 8.884 12.716 7.694 12.921 L 7.745 13.217 L 7.796 13.512 C 8.725 13.352 9.674 13.827 10.096 14.686 L 10.366 14.554 Z M 7.745 13.217 L 7.694 12.921 C 6.503 13.126 5.633 14.057 5.445 15.216 L 5.741 15.264 L 6.038 15.312 C 6.186 14.394 6.869 13.672 7.796 13.512 L 7.745 13.217 Z M 5.741 15.264 L 5.445 15.216 C 5.351 15.797 5.442 16.406 5.712 16.933 L 5.979 16.796 L 6.246 16.659 C 6.036 16.25 5.963 15.77 6.038 15.312 L 5.741 15.264 Z M 5.979 16.796 L 5.712 16.933 C 5.767 17.04 5.876 17.188 5.963 17.31 C 6.06 17.447 6.153 17.585 6.217 17.711 C 6.249 17.774 6.269 17.826 6.279 17.867 C 6.29 17.908 6.286 17.925 6.287 17.924 C 6.287 17.923 6.288 17.919 6.291 17.913 C 6.295 17.908 6.297 17.905 6.297 17.906 C 6.295 17.908 6.271 17.925 6.201 17.939 L 6.262 18.233 L 6.322 18.527 C 6.453 18.5 6.577 18.452 6.677 18.37 C 6.783 18.283 6.848 18.171 6.874 18.047 C 6.921 17.823 6.832 17.599 6.753 17.441 C 6.667 17.271 6.549 17.1 6.452 16.963 C 6.345 16.811 6.276 16.717 6.246 16.659 L 5.979 16.796 Z M 6.262 18.233 L 6.203 17.939 C 6.018 17.976 5.877 18.092 5.786 18.218 C 5.696 18.343 5.639 18.502 5.639 18.663 L 5.939 18.663 L 6.239 18.663 C 6.239 18.639 6.249 18.602 6.273 18.568 C 6.297 18.535 6.318 18.528 6.321 18.527 L 6.262 18.233 Z M 5.939 18.663 L 6.152 18.874 C 6.226 18.8 6.299 18.725 6.373 18.651 C 6.446 18.577 6.519 18.502 6.593 18.428 L 6.379 18.217 L 6.166 18.006 C 6.092 18.081 6.019 18.155 5.945 18.229 C 5.872 18.304 5.799 18.378 5.725 18.453 L 5.939 18.663 Z M 6.379 18.217 L 6.352 17.918 C 5.71 17.976 5.07 18.035 4.429 18.091 L 4.455 18.39 L 4.482 18.689 C 5.124 18.632 5.765 18.574 6.406 18.516 L 6.379 18.217 Z M 4.455 18.39 L 4.429 18.091 C 4.287 18.104 4.112 18.133 3.939 18.161 C 3.761 18.189 3.575 18.218 3.393 18.236 C 3.21 18.254 3.042 18.259 2.898 18.243 C 2.752 18.228 2.655 18.193 2.596 18.152 L 2.423 18.397 L 2.25 18.642 C 2.426 18.765 2.636 18.819 2.834 18.84 C 3.035 18.861 3.249 18.853 3.451 18.833 C 3.654 18.813 3.856 18.782 4.034 18.753 C 4.217 18.724 4.366 18.699 4.482 18.689 L 4.455 18.39 Z M 2.423 18.397 L 2.596 18.152 C 2.537 18.11 2.479 18.033 2.43 17.901 C 2.381 17.77 2.349 17.606 2.33 17.42 C 2.311 17.235 2.304 17.042 2.3 16.855 C 2.296 16.674 2.294 16.487 2.281 16.339 L 1.982 16.366 L 1.683 16.392 C 1.694 16.515 1.696 16.673 1.7 16.868 C 1.704 17.057 1.711 17.271 1.733 17.482 C 1.755 17.692 1.793 17.912 1.867 18.11 C 1.941 18.308 2.058 18.506 2.25 18.642 L 2.423 18.397 Z M 1.982 16.366 L 2.281 16.339 L 2.169 15.067 L 1.87 15.094 L 1.571 15.119 L 1.683 16.392 L 1.982 16.366 Z M 1.87 15.094 L 2.169 15.067 C 2.162 14.993 2.161 14.929 2.156 14.832 C 2.151 14.745 2.143 14.642 2.12 14.54 L 1.827 14.607 L 1.534 14.673 C 1.546 14.724 1.552 14.787 1.557 14.865 C 1.561 14.934 1.564 15.036 1.571 15.119 L 1.87 15.094 Z M 1.827 14.607 L 2.12 14.54 C 2.111 14.502 2.117 14.498 2.112 14.522 C 2.111 14.528 2.108 14.541 2.102 14.557 C 2.098 14.569 2.084 14.605 2.051 14.643 C 2.031 14.665 1.896 14.803 1.705 14.716 C 1.629 14.681 1.588 14.624 1.57 14.591 C 1.551 14.557 1.543 14.527 1.539 14.509 C 1.532 14.475 1.533 14.448 1.534 14.438 C 1.535 14.425 1.537 14.416 1.538 14.412 C 1.54 14.404 1.541 14.404 1.536 14.414 C 1.528 14.433 1.504 14.476 1.45 14.542 L 1.682 14.733 L 1.913 14.923 C 1.993 14.825 2.048 14.738 2.083 14.661 C 2.1 14.623 2.114 14.584 2.123 14.546 C 2.129 14.518 2.141 14.457 2.126 14.387 C 2.122 14.367 2.114 14.334 2.093 14.298 C 2.074 14.264 2.033 14.206 1.955 14.17 C 1.868 14.13 1.78 14.138 1.714 14.165 C 1.655 14.189 1.619 14.226 1.6 14.247 C 1.564 14.288 1.547 14.33 1.539 14.35 C 1.53 14.374 1.525 14.398 1.521 14.418 C 1.508 14.494 1.513 14.581 1.534 14.673 L 1.827 14.607 Z M 1.682 14.733 L 1.913 14.923 C 2.214 14.558 2.091 14.117 1.856 13.877 C 1.736 13.755 1.567 13.661 1.373 13.652 C 1.167 13.644 0.972 13.734 0.827 13.91 L 1.059 14.101 L 1.29 14.292 C 1.327 14.247 1.346 14.252 1.348 14.252 C 1.36 14.252 1.392 14.261 1.428 14.297 C 1.463 14.333 1.485 14.379 1.489 14.421 C 1.493 14.457 1.486 14.498 1.45 14.542 L 1.682 14.733 Z M 1.059 14.101 L 1.059 13.801 L 1.056 13.801 L 1.056 14.101 L 1.056 14.401 L 1.059 14.401 L 1.059 14.101 Z" fill="currentColor" fill-rule="nonzero"></path></g><g transform="translate(14.565 3.841)"><path d="M 0.756 13.801 C 0.573 14.022 0.641 14.278 0.664 14.543 L 0.797 16.066 C 0.863 16.812 0.788 17.877 1.268 18.499 C 1.878 19.289 2.786 19.104 3.639 19.027 C 4.492 18.95 5.263 18.881 6.075 18.808 C 6.313 18.786 6.515 18.621 6.515 18.362 C 6.407 18.505 6.299 18.648 6.193 18.792 C 7.013 18.622 7.403 17.592 7.029 16.854 C 6.71 16.222 6.173 15.93 6.299 15.11 C 6.401 14.451 6.921 13.921 7.563 13.799 C 8.205 13.678 8.794 13.929 9.156 14.45 C 9.347 14.726 9.451 15.061 9.44 15.399 C 9.425 15.869 9.177 16.118 8.998 16.523 C 8.617 17.384 9.234 18.402 10.143 18.443 L 9.703 17.996 C 9.715 18.221 9.896 18.466 10.143 18.443 C 10.842 18.379 11.543 18.317 12.242 18.253 C 12.992 18.186 13.797 18.191 14.27 17.48 C 14.687 16.851 14.511 16.086 14.45 15.381 C 14.388 14.677 14.324 13.953 14.262 13.24 L 13.939 13.67 C 14.132 13.611 14.254 13.44 14.262 13.24 C 14.286 12.695 14.945 12.96 15.161 13.061 C 15.421 13.184 15.661 13.311 15.948 13.368 C 16.476 13.473 17.033 13.404 17.516 13.161 C 18.482 12.673 19.015 11.579 18.835 10.505 C 18.655 9.432 17.84 8.645 16.815 8.474 C 16.303 8.389 15.765 8.472 15.304 8.715 C 14.978 8.887 14.048 9.816 13.885 9.002 C 13.84 8.775 13.559 8.618 13.344 8.691 C 13.529 8.834 13.715 8.977 13.901 9.121 C 13.839 8.407 13.776 7.693 13.713 6.979 C 13.647 6.219 13.696 5.337 13.078 4.788 C 12.461 4.239 11.667 4.411 10.92 4.479 C 10.172 4.546 9.469 4.61 8.744 4.675 C 8.188 4.725 8.167 5.567 8.744 5.567 C 9.312 5.567 9.308 4.701 8.744 4.675 C 7.979 4.64 8.699 3.551 8.79 3.277 C 8.945 2.813 8.962 2.292 8.833 1.819 C 8.605 0.989 7.936 0.309 7.113 0.084 C 5.267 -0.416 3.527 1.397 4.127 3.251 C 4.267 3.685 4.574 3.923 4.784 4.294 C 4.89 4.484 4.932 4.837 4.737 5.009 C 4.696 5.045 4.509 5.079 4.455 5.101 C 4.159 5.214 4.789 5.19 4.66 5.041 C 4.55 4.916 3.32 5.162 3.152 5.178 C 2.051 5.277 0.44 5.139 0.065 6.502 C -0.085 7.044 0.065 7.702 0.114 8.251 C 0.165 8.833 0.217 9.414 0.268 9.996 C 0.298 10.339 0.752 10.637 1.019 10.311 C 0.768 10.205 0.517 10.1 0.268 9.996 C 0.388 11.369 0.509 12.743 0.629 14.117 C 0.678 14.685 1.56 14.69 1.51 14.117 C 1.39 12.743 1.268 11.369 1.148 9.996 C 1.117 9.652 0.664 9.355 0.397 9.681 C 0.648 9.786 0.899 9.892 1.148 9.996 C 1.065 9.048 0.923 8.086 0.897 7.136 C 0.881 6.522 1.211 6.246 1.77 6.196 L 3.48 6.042 C 3.87 6.007 4.295 6.018 4.677 5.934 C 4.762 5.915 5.024 5.824 4.965 5.846 C 4.846 5.889 5.085 5.824 5.115 5.812 C 5.185 5.784 5.24 5.739 5.299 5.692 C 5.574 5.475 5.683 5.178 5.731 4.839 C 5.779 4.499 5.768 4.187 5.592 3.896 C 5.311 3.434 4.941 3.202 4.893 2.607 C 4.802 1.488 5.91 0.617 6.962 0.973 C 7.485 1.15 7.89 1.597 8.004 2.146 C 8.164 2.908 7.633 3.265 7.508 3.931 C 7.356 4.748 7.936 5.531 8.744 5.567 C 9.319 5.516 9.892 5.463 10.467 5.412 C 10.973 5.366 11.974 5.089 12.431 5.412 C 12.917 5.754 12.814 6.786 12.861 7.308 C 12.914 7.912 12.967 8.516 13.02 9.121 C 13.044 9.391 13.284 9.65 13.577 9.551 C 13.397 9.447 13.216 9.343 13.036 9.238 C 13.202 10.07 14.219 10.465 14.947 10.086 C 15.57 9.763 15.859 9.218 16.668 9.347 C 17.318 9.449 17.841 9.977 17.961 10.627 C 18.081 11.278 17.833 11.875 17.32 12.242 C 17.047 12.435 16.717 12.54 16.383 12.53 C 15.919 12.515 15.673 12.263 15.274 12.082 C 14.424 11.695 13.42 12.321 13.38 13.242 L 13.703 12.812 C 13.531 12.864 13.362 13.048 13.38 13.242 C 13.429 13.802 13.478 14.362 13.528 14.923 C 13.575 15.454 13.743 16.107 13.667 16.642 C 13.552 17.446 12.521 17.338 11.93 17.391 C 11.338 17.443 10.738 17.497 10.143 17.552 L 10.583 17.998 C 10.57 17.749 10.391 17.562 10.143 17.552 C 9.605 17.527 9.867 16.859 9.967 16.64 C 10.088 16.377 10.214 16.133 10.27 15.842 C 10.374 15.307 10.306 14.743 10.066 14.254 C 9.584 13.275 8.505 12.734 7.445 12.916 C 6.386 13.099 5.61 13.925 5.441 14.964 C 5.357 15.483 5.439 16.028 5.679 16.496 C 5.848 16.825 6.765 17.768 5.962 17.933 C 5.774 17.971 5.639 18.178 5.639 18.363 C 5.786 18.214 5.932 18.065 6.079 17.917 C 5.437 17.975 4.797 18.033 4.155 18.09 C 3.64 18.136 2.592 18.426 2.123 18.097 C 1.619 17.741 1.73 16.606 1.682 16.066 L 1.57 14.793 C 1.556 14.636 1.562 14.459 1.527 14.306 C 1.467 14.044 1.651 14.104 1.382 14.432 C 1.742 13.994 1.123 13.36 0.759 13.801 L 0.756 13.801 Z" fill="currentColor" fill-rule="nonzero"></path></g></svg>