<svg xmlns="http://www.w3.org/2000/svg" width="28" height="28" viewBox="6 5 16 18" fill="none"><g transform="translate(6 8)"><path d="M 2.222 13.297 L 1.806 13.575 C 1.811 13.583 1.817 13.59 1.822 13.597 L 2.222 13.297 Z M 7.302 14.285 L 7.036 13.862 L 7.028 13.867 L 7.302 14.285 Z M 8.699 14.285 L 8.973 13.867 L 8.965 13.862 L 8.699 14.285 Z M 13.778 13.297 L 14.178 13.597 C 14.183 13.59 14.189 13.583 14.194 13.575 L 13.778 13.297 Z M 8.336 1.44 L 8.672 1.81 L 8.675 1.808 L 8.336 1.44 Z M 7.664 1.44 L 7.325 1.808 L 7.328 1.81 L 7.664 1.44 Z M 0 5.319 L -0.5 5.319 C -0.5 8.491 -0.041 10.813 1.806 13.575 L 2.222 13.297 L 2.638 13.019 C 0.929 10.463 0.5 8.351 0.5 5.319 L 0 5.319 Z M 2.222 13.297 L 1.822 13.597 C 2.548 14.563 3.433 15.215 4.445 15.426 C 5.463 15.639 6.529 15.389 7.576 14.703 L 7.302 14.285 L 7.028 13.867 C 6.151 14.44 5.353 14.594 4.649 14.448 C 3.94 14.299 3.247 13.828 2.622 12.997 L 2.222 13.297 Z M 7.302 14.285 L 7.568 14.708 C 7.831 14.543 8.169 14.542 8.433 14.708 L 8.699 14.285 L 8.965 13.862 C 8.375 13.492 7.625 13.491 7.036 13.862 L 7.302 14.285 Z M 8.699 14.285 L 8.425 14.703 C 9.472 15.389 10.537 15.64 11.555 15.427 C 12.567 15.215 13.452 14.563 14.178 13.597 L 13.778 13.297 L 13.378 12.997 C 12.753 13.828 12.06 14.3 11.351 14.448 C 10.648 14.595 9.849 14.441 8.973 13.867 L 8.699 14.285 Z M 13.778 13.297 L 14.194 13.575 C 16.041 10.812 16.5 8.491 16.5 5.32 L 16 5.32 L 15.5 5.32 C 15.5 8.351 15.071 10.462 13.362 13.019 L 13.778 13.297 Z M 16 5.32 L 16.5 5.32 C 16.5 3.87 15.96 2.431 15.087 1.348 C 14.215 0.266 12.972 -0.5 11.556 -0.5 L 11.556 0 L 11.556 0.5 C 12.594 0.5 13.573 1.063 14.309 1.976 C 15.045 2.888 15.5 4.109 15.5 5.32 L 16 5.32 Z M 11.556 0 L 11.556 -0.5 C 10.111 -0.5 8.852 0.284 7.997 1.072 L 8.336 1.44 L 8.675 1.808 C 9.44 1.102 10.467 0.5 11.556 0.5 L 11.556 0 Z M 8.336 1.44 L 8 1.07 L 8 1.07 L 8 1.57 L 8 2.07 C 8.248 2.07 8.488 1.977 8.672 1.81 L 8.336 1.44 Z M 8 1.57 L 8 1.07 L 8 1.07 L 7.664 1.44 L 7.328 1.81 C 7.512 1.977 7.752 2.07 8 2.07 L 8 1.57 Z M 7.664 1.44 L 8.003 1.072 C 7.149 0.285 5.889 -0.5 4.444 -0.5 L 4.444 0 L 4.444 0.5 C 5.533 0.5 6.561 1.103 7.325 1.808 L 7.664 1.44 Z M 4.444 0 L 4.444 -0.5 C 3.028 -0.5 1.785 0.267 0.913 1.349 C 0.04 2.431 -0.5 3.87 -0.5 5.319 L 0 5.319 L 0.5 5.319 C 0.5 4.109 0.955 2.889 1.691 1.976 C 2.427 1.063 3.406 0.5 4.444 0.5 L 4.444 0 Z" fill="currentColor" fill-rule="nonzero"></path></g><g transform="translate(9 5)"><path d="M -0.5 9 C -0.5 9.276 -0.276 9.5 0 9.5 C 0.276 9.5 0.5 9.276 0.5 9 L 0 9 L -0.5 9 Z M 1.767 6.423 C 2 6.276 2.07 5.967 1.923 5.733 C 1.776 5.5 1.467 5.43 1.233 5.577 L 1.5 6 L 1.767 6.423 Z M 4.5 4 C 4.5 4.276 4.724 4.5 5 4.5 C 5.276 4.5 5.5 4.276 5.5 4 L 5 4 L 4.5 4 Z M 8 0.5 C 8.276 0.5 8.5 0.276 8.5 0 C 8.5 -0.276 8.276 -0.5 8 -0.5 L 8 0 L 8 0.5 Z M 0 9 L 0.5 9 C 0.5 8.314 0.606 7.814 0.804 7.422 C 0.999 7.035 1.303 6.715 1.767 6.423 L 1.5 6 L 1.233 5.577 C 0.651 5.945 0.205 6.39 -0.089 6.971 C -0.379 7.546 -0.5 8.216 -0.5 9 L 0 9 Z M 5 4 L 5.5 4 C 5.5 3.488 5.694 2.573 6.135 1.797 C 6.575 1.024 7.189 0.5 8 0.5 L 8 0 L 8 -0.5 C 6.678 -0.5 5.792 0.376 5.265 1.303 C 4.74 2.227 4.5 3.312 4.5 4 L 5 4 Z" fill="currentColor" fill-rule="nonzero"></path></g></svg>