<svg xmlns="http://www.w3.org/2000/svg" width="27" height="25.240" viewBox="0 0 27 25.240" fill="none">
  <path d="M 5.094 15.807 C 4.918 15.984 4.633 15.984 4.457 15.808 L 4.457 15.809 C 2.29 13.643 0.981 11.354 0.57 9.005 C 0.176 6.757 0.77 4.46 2.198 2.705 C 3.562 1.027 5.486 0.068 7.614 0.004 C 9.883 -0.068 12.043 0.901 13.5 2.622 C 14.957 0.902 17.115 -0.068 19.387 0.004 C 21.515 0.068 23.438 1.027 24.802 2.705 C 26.23 4.461 26.824 6.758 26.43 9.005 C 26.019 11.354 24.711 13.643 22.543 15.809 C 22.455 15.896 22.341 15.94 22.225 15.94 C 22.11 15.94 21.995 15.896 21.906 15.807 C 21.731 15.631 21.731 15.346 21.907 15.17 C 23.941 13.138 25.165 11.011 25.544 8.849 C 25.892 6.859 25.368 4.827 24.104 3.274 C 22.908 1.802 21.222 0.96 19.359 0.904 C 17.189 0.836 15.136 1.85 13.865 3.616 C 13.78 3.733 13.645 3.803 13.5 3.803 C 13.355 3.803 13.22 3.733 13.135 3.616 C 11.864 1.849 9.81 0.836 7.642 0.904 C 5.778 0.961 4.092 1.802 2.896 3.274 C 1.633 4.827 1.108 6.859 1.456 8.849 C 1.836 11.011 3.059 13.138 5.093 15.17 C 5.268 15.346 5.269 15.631 5.094 15.807 Z M 8.713 18.609 L 9.724 16.077 C 10.144 15.027 9.681 13.808 8.67 13.302 C 8.25 13.091 7.748 13.235 7.502 13.636 L 4.857 17.94 C 4.709 17.783 4.564 17.594 4.453 17.374 C 4.341 17.152 4.07 17.062 3.848 17.174 C 3.627 17.286 3.537 17.557 3.649 17.779 C 3.823 18.124 4.065 18.443 4.372 18.73 L 4.118 19.143 C 3.987 19.355 4.053 19.632 4.265 19.763 C 4.476 19.894 4.754 19.828 4.884 19.616 L 8.268 14.108 C 8.863 14.406 9.136 15.124 8.888 15.743 L 7.877 18.275 C 7.727 18.65 7.68 19.054 7.741 19.442 C 7.869 20.267 8.035 22.293 6.799 23.303 C 6.482 23.562 6.301 23.943 6.301 24.348 L 6.301 24.788 C 6.301 25.037 6.502 25.238 6.751 25.238 C 7 25.238 7.201 25.037 7.201 24.788 L 7.201 24.348 C 7.201 24.215 7.262 24.088 7.369 24.001 C 8.965 22.696 8.783 20.281 8.631 19.303 C 8.595 19.074 8.623 18.833 8.713 18.608 L 8.713 18.609 Z M 22.548 17.374 C 22.66 17.151 22.93 17.062 23.152 17.174 L 23.153 17.176 C 23.375 17.288 23.464 17.559 23.352 17.781 C 23.179 18.126 22.936 18.444 22.63 18.731 L 22.884 19.144 C 23.014 19.356 22.948 19.634 22.736 19.764 C 22.525 19.895 22.248 19.829 22.117 19.617 L 18.733 14.11 C 18.139 14.408 17.866 15.126 18.113 15.744 L 19.124 18.276 C 19.274 18.651 19.321 19.055 19.261 19.444 C 19.132 20.268 18.967 22.294 20.202 23.304 C 20.519 23.563 20.7 23.944 20.7 24.349 L 20.7 24.789 C 20.7 25.038 20.499 25.24 20.25 25.24 C 20.002 25.24 19.8 25.038 19.8 24.789 L 19.8 24.349 C 19.8 24.216 19.739 24.089 19.633 24.002 C 18.037 22.696 18.218 20.281 18.371 19.304 C 18.406 19.075 18.378 18.835 18.288 18.609 L 17.277 16.078 C 16.857 15.027 17.32 13.808 18.33 13.302 C 18.75 13.092 19.253 13.235 19.499 13.636 L 22.144 17.94 C 22.292 17.783 22.437 17.594 22.548 17.374 Z M 25.441 14.78 L 26.548 16.623 C 26.878 17.167 27.032 17.796 26.995 18.441 L 26.594 24.816 C 26.579 25.055 26.381 25.238 26.145 25.238 L 26.132 25.238 L 26.131 25.238 C 26.126 25.238 26.121 25.238 26.116 25.238 C 25.868 25.222 25.68 25.008 25.695 24.759 L 26.096 18.387 C 26.122 17.927 26.012 17.477 25.778 17.089 L 24.67 15.245 C 24.542 15.031 24.611 14.754 24.824 14.626 C 25.037 14.498 25.313 14.567 25.441 14.78 Z M 1.559 14.78 C 1.687 14.567 1.964 14.498 2.176 14.626 C 2.389 14.755 2.458 15.032 2.33 15.245 L 1.223 17.088 C 0.988 17.477 0.877 17.927 0.904 18.389 L 1.305 24.759 C 1.32 25.008 1.132 25.222 0.884 25.238 C 0.874 25.238 0.864 25.238 0.855 25.238 C 0.619 25.238 0.421 25.055 0.406 24.816 L 0.005 18.443 C -0.032 17.796 0.122 17.167 0.452 16.622 L 1.559 14.78 Z M 16.759 19.081 C 15.364 19.905 14.226 20.446 13.671 20.695 C 13.559 20.745 13.442 20.745 13.329 20.695 C 12.774 20.446 11.635 19.905 10.247 19.082 C 10.033 18.955 9.757 19.026 9.63 19.24 C 9.504 19.455 9.574 19.731 9.788 19.858 C 11.215 20.703 12.389 21.26 12.96 21.517 C 13.134 21.595 13.317 21.635 13.501 21.635 C 13.684 21.635 13.866 21.595 14.04 21.517 C 14.612 21.261 15.783 20.704 17.216 19.858 C 17.43 19.732 17.502 19.455 17.375 19.24 C 17.249 19.026 16.973 18.954 16.759 19.081 L 16.759 19.081 Z" fill="currentColor" fill-rule="evenodd"></path>
  <path d="M 4.457 15.808 L 4.722 15.543 L 4.082 14.904 L 4.082 15.808 L 4.457 15.808 Z M 5.094 15.807 L 5.359 16.072 L 5.359 16.072 L 5.094 15.807 Z M 4.457 15.809 L 4.192 16.074 L 4.832 16.713 L 4.832 15.809 L 4.457 15.809 Z M 0.57 9.005 L 0.939 8.941 L 0.939 8.94 L 0.57 9.005 Z M 2.198 2.705 L 1.907 2.468 L 1.907 2.468 L 2.198 2.705 Z M 7.614 0.004 L 7.625 0.379 L 7.626 0.379 L 7.614 0.004 Z M 13.5 2.622 L 13.214 2.864 L 13.5 3.202 L 13.786 2.864 L 13.5 2.622 Z M 19.387 0.004 L 19.375 0.379 L 19.375 0.379 L 19.387 0.004 Z M 24.802 2.705 L 24.511 2.941 L 24.511 2.941 L 24.802 2.705 Z M 26.43 9.005 L 26.8 9.07 L 26.8 9.07 L 26.43 9.005 Z M 22.543 15.809 L 22.278 15.543 L 22.278 15.544 L 22.543 15.809 Z M 21.906 15.807 L 21.641 16.072 L 21.641 16.072 L 21.906 15.807 Z M 21.907 15.17 L 22.172 15.435 L 22.172 15.435 L 21.907 15.17 Z M 25.544 8.849 L 25.913 8.914 L 25.913 8.914 L 25.544 8.849 Z M 24.104 3.274 L 23.813 3.51 L 23.813 3.51 L 24.104 3.274 Z M 19.359 0.904 L 19.347 1.279 L 19.348 1.279 L 19.359 0.904 Z M 13.865 3.616 L 14.169 3.835 L 14.17 3.835 L 13.865 3.616 Z M 13.135 3.616 L 12.83 3.835 L 12.831 3.835 L 13.135 3.616 Z M 7.642 0.904 L 7.653 1.279 L 7.654 1.279 L 7.642 0.904 Z M 2.896 3.274 L 3.187 3.51 L 3.187 3.51 L 2.896 3.274 Z M 1.456 8.849 L 1.087 8.914 L 1.087 8.914 L 1.456 8.849 Z M 5.093 15.17 L 5.358 14.905 L 5.358 14.905 L 5.093 15.17 Z M 9.724 16.077 L 9.376 15.938 L 9.376 15.938 L 9.724 16.077 Z M 8.713 18.609 L 8.365 18.47 L 8.978 18.874 L 8.713 18.609 Z M 8.67 13.302 L 8.502 13.637 L 8.502 13.637 L 8.67 13.302 Z M 7.502 13.636 L 7.821 13.832 L 7.821 13.832 L 7.502 13.636 Z M 4.857 17.94 L 4.584 18.197 L 4.92 18.554 L 5.177 18.137 L 4.857 17.94 Z M 4.453 17.374 L 4.118 17.542 L 4.118 17.543 L 4.453 17.374 Z M 3.649 17.779 L 3.314 17.948 L 3.314 17.948 L 3.649 17.779 Z M 4.372 18.73 L 4.691 18.926 L 4.851 18.665 L 4.628 18.456 L 4.372 18.73 Z M 4.118 19.143 L 4.437 19.34 L 4.437 19.339 L 4.118 19.143 Z M 4.884 19.616 L 5.203 19.812 L 5.204 19.812 L 4.884 19.616 Z M 8.268 14.108 L 8.436 13.773 L 8.128 13.619 L 7.948 13.912 L 8.268 14.108 Z M 8.888 15.743 L 8.54 15.604 L 8.54 15.604 L 8.888 15.743 Z M 7.877 18.275 L 7.529 18.135 L 7.529 18.136 L 7.877 18.275 Z M 7.741 19.442 L 7.37 19.5 L 7.37 19.5 L 7.741 19.442 Z M 6.799 23.303 L 7.036 23.593 L 7.036 23.593 L 6.799 23.303 Z M 7.369 24.001 L 7.131 23.711 L 7.131 23.711 L 7.369 24.001 Z M 8.631 19.303 L 9.001 19.245 L 9.001 19.245 L 8.631 19.303 Z M 8.713 18.608 L 9.062 18.747 L 8.448 18.343 L 8.713 18.608 Z M 23.152 17.174 L 23.487 17.006 L 23.432 16.895 L 23.321 16.84 L 23.152 17.174 Z M 22.548 17.374 L 22.883 17.543 L 22.883 17.542 L 22.548 17.374 Z M 23.153 17.176 L 22.818 17.344 L 22.873 17.455 L 22.984 17.51 L 23.153 17.176 Z M 23.352 17.781 L 23.017 17.612 L 23.017 17.612 L 23.352 17.781 Z M 22.63 18.731 L 22.373 18.458 L 22.15 18.667 L 22.31 18.927 L 22.63 18.731 Z M 22.884 19.144 L 22.564 19.341 L 22.564 19.341 L 22.884 19.144 Z M 22.736 19.764 L 22.539 19.445 L 22.539 19.445 L 22.736 19.764 Z M 22.117 19.617 L 21.798 19.813 L 21.798 19.814 L 22.117 19.617 Z M 18.733 14.11 L 19.053 13.913 L 18.873 13.62 L 18.565 13.774 L 18.733 14.11 Z M 18.113 15.744 L 17.765 15.883 L 17.765 15.883 L 18.113 15.744 Z M 19.124 18.276 L 19.473 18.137 L 19.472 18.137 L 19.124 18.276 Z M 19.261 19.444 L 19.631 19.502 L 19.631 19.501 L 19.261 19.444 Z M 20.202 23.304 L 20.44 23.014 L 20.44 23.014 L 20.202 23.304 Z M 19.633 24.002 L 19.395 24.292 L 19.396 24.293 L 19.633 24.002 Z M 18.371 19.304 L 18.741 19.362 L 18.741 19.361 L 18.371 19.304 Z M 18.288 18.609 L 18.636 18.47 L 18.636 18.47 L 18.288 18.609 Z M 17.277 16.078 L 17.625 15.939 L 17.625 15.939 L 17.277 16.078 Z M 18.33 13.302 L 18.498 13.638 L 18.498 13.637 L 18.33 13.302 Z M 19.499 13.636 L 19.819 13.439 L 19.818 13.439 L 19.499 13.636 Z M 22.144 17.94 L 21.824 18.137 L 22.081 18.554 L 22.417 18.197 L 22.144 17.94 Z M 26.548 16.623 L 26.227 16.816 L 26.228 16.817 L 26.548 16.623 Z M 25.441 14.78 L 25.12 14.973 L 25.12 14.973 L 25.441 14.78 Z M 26.995 18.441 L 27.369 18.464 L 27.369 18.462 L 26.995 18.441 Z M 26.594 24.816 L 26.22 24.792 L 26.22 24.793 L 26.594 24.816 Z M 26.145 25.238 L 26.137 25.613 L 26.145 25.613 L 26.145 25.238 Z M 26.132 25.238 L 26.12 25.613 L 26.123 25.613 L 26.132 25.238 Z M 26.131 25.238 L 26.118 25.613 L 26.119 25.613 L 26.131 25.238 Z M 26.116 25.238 L 26.092 25.612 L 26.104 25.613 L 26.116 25.613 L 26.116 25.238 Z M 25.695 24.759 L 25.321 24.736 L 25.321 24.736 L 25.695 24.759 Z M 26.096 18.387 L 26.47 18.41 L 26.47 18.408 L 26.096 18.387 Z M 25.778 17.089 L 25.456 17.282 L 25.457 17.283 L 25.778 17.089 Z M 24.67 15.245 L 24.348 15.437 L 24.348 15.438 L 24.67 15.245 Z M 24.824 14.626 L 24.631 14.304 L 24.63 14.305 L 24.824 14.626 Z M 2.176 14.626 L 2.37 14.305 L 2.37 14.305 L 2.176 14.626 Z M 1.559 14.78 L 1.237 14.586 L 1.237 14.587 L 1.559 14.78 Z M 2.33 15.245 L 2.651 15.438 L 2.651 15.438 L 2.33 15.245 Z M 1.223 17.088 L 1.544 17.282 L 1.544 17.281 L 1.223 17.088 Z M 0.904 18.389 L 0.53 18.411 L 0.53 18.413 L 0.904 18.389 Z M 1.305 24.759 L 1.679 24.736 L 1.679 24.736 L 1.305 24.759 Z M 0.884 25.238 L 0.86 24.863 L 0.859 24.864 L 0.884 25.238 Z M 0.406 24.816 L 0.78 24.793 L 0.78 24.792 L 0.406 24.816 Z M 0.005 18.443 L -0.369 18.465 L -0.369 18.467 L 0.005 18.443 Z M 0.452 16.622 L 0.773 16.816 L 0.774 16.815 L 0.452 16.622 Z M 13.671 20.695 L 13.825 21.037 L 13.825 21.037 L 13.671 20.695 Z M 16.759 19.081 L 16.95 19.404 L 18.132 18.706 L 16.759 18.706 L 16.759 19.081 Z M 13.329 20.695 L 13.175 21.037 L 13.176 21.037 L 13.329 20.695 Z M 10.247 19.082 L 10.438 18.759 L 10.438 18.759 L 10.247 19.082 Z M 9.63 19.24 L 9.307 19.05 L 9.307 19.05 L 9.63 19.24 Z M 9.788 19.858 L 9.597 20.18 L 9.597 20.18 L 9.788 19.858 Z M 12.96 21.517 L 13.114 21.175 L 13.114 21.175 L 12.96 21.517 Z M 14.04 21.517 L 13.887 21.175 L 13.885 21.175 L 14.04 21.517 Z M 17.216 19.858 L 17.026 19.535 L 17.026 19.535 L 17.216 19.858 Z M 17.375 19.24 L 17.052 19.43 L 17.052 19.431 L 17.375 19.24 Z M 16.759 19.081 L 16.567 18.759 L 15.39 19.456 L 16.759 19.456 L 16.759 19.081 Z M 4.192 16.073 C 4.515 16.395 5.037 16.396 5.359 16.072 L 4.828 15.543 C 4.799 15.572 4.752 15.572 4.722 15.543 L 4.192 16.073 Z M 4.832 15.809 L 4.832 15.808 L 4.082 15.808 L 4.082 15.809 L 4.832 15.809 Z M 0.201 9.07 C 0.629 11.514 1.985 13.869 4.192 16.074 L 4.722 15.543 C 2.594 13.416 1.334 11.194 0.939 8.941 L 0.201 9.07 Z M 1.907 2.468 C 0.41 4.309 -0.212 6.716 0.201 9.07 L 0.939 8.94 C 0.564 6.798 1.13 4.612 2.489 2.941 L 1.907 2.468 Z M 7.603 -0.371 C 5.364 -0.303 3.338 0.708 1.907 2.468 L 2.489 2.941 C 3.785 1.347 5.608 0.44 7.625 0.379 L 7.603 -0.371 Z M 13.786 2.379 C 12.255 0.572 9.986 -0.446 7.602 -0.371 L 7.626 0.379 C 9.78 0.311 11.83 1.23 13.214 2.864 L 13.786 2.379 Z M 19.398 -0.371 C 17.011 -0.446 14.745 0.573 13.214 2.379 L 13.786 2.864 C 15.17 1.231 17.218 0.311 19.375 0.379 L 19.398 -0.371 Z M 25.093 2.468 C 23.662 0.707 21.637 -0.303 19.398 -0.371 L 19.375 0.379 C 21.393 0.44 23.215 1.346 24.511 2.941 L 25.093 2.468 Z M 26.8 9.07 C 27.211 6.716 26.59 4.309 25.093 2.468 L 24.511 2.941 C 25.87 4.612 26.436 6.799 26.061 8.941 L 26.8 9.07 Z M 22.808 16.074 C 25.015 13.869 26.371 11.514 26.8 9.07 L 26.061 8.941 C 25.666 11.194 24.406 13.416 22.278 15.543 L 22.808 16.074 Z M 22.225 16.315 C 22.436 16.315 22.647 16.235 22.808 16.074 L 22.278 15.544 C 22.263 15.558 22.246 15.565 22.225 15.565 L 22.225 16.315 Z M 21.641 16.072 C 21.802 16.233 22.013 16.315 22.225 16.315 L 22.225 15.565 C 22.206 15.565 22.187 15.558 22.172 15.542 L 21.641 16.072 Z M 21.642 14.905 C 21.319 15.227 21.32 15.749 21.641 16.072 L 22.172 15.543 C 22.142 15.513 22.143 15.464 22.172 15.435 L 21.642 14.905 Z M 25.174 8.785 C 24.813 10.85 23.638 12.91 21.642 14.905 L 22.172 15.435 C 24.244 13.366 25.518 11.173 25.913 8.914 L 25.174 8.785 Z M 23.813 3.51 C 25.007 4.978 25.504 6.901 25.174 8.785 L 25.913 8.914 C 26.28 6.818 25.728 4.675 24.395 3.037 L 23.813 3.51 Z M 19.348 1.279 C 21.1 1.332 22.684 2.121 23.813 3.51 L 24.395 3.037 C 23.132 1.483 21.345 0.589 19.37 0.53 L 19.348 1.279 Z M 14.17 3.835 C 15.368 2.17 17.302 1.215 19.347 1.279 L 19.371 0.53 C 17.075 0.457 14.904 1.53 13.561 3.397 L 14.17 3.835 Z M 13.5 4.178 C 13.766 4.178 14.014 4.05 14.169 3.835 L 13.561 3.396 C 13.546 3.417 13.524 3.428 13.5 3.428 L 13.5 4.178 Z M 12.831 3.835 C 12.986 4.05 13.234 4.178 13.5 4.178 L 13.5 3.428 C 13.476 3.428 13.454 3.417 13.439 3.396 L 12.831 3.835 Z M 7.654 1.279 C 9.697 1.215 11.632 2.169 12.83 3.835 L 13.439 3.397 C 12.096 1.529 9.923 0.457 7.63 0.53 L 7.654 1.279 Z M 3.187 3.51 C 4.316 2.121 5.9 1.333 7.653 1.279 L 7.63 0.53 C 5.655 0.59 3.868 1.482 2.605 3.037 L 3.187 3.51 Z M 1.826 8.785 C 1.496 6.901 1.993 4.979 3.187 3.51 L 2.605 3.037 C 1.272 4.676 0.72 6.818 1.087 8.914 L 1.826 8.785 Z M 5.358 14.905 C 3.362 12.911 2.188 10.85 1.826 8.785 L 1.087 8.914 C 1.483 11.173 2.756 13.366 4.828 15.435 L 5.358 14.905 Z M 5.359 16.072 C 5.681 15.749 5.68 15.227 5.358 14.905 L 4.828 15.435 C 4.857 15.465 4.857 15.513 4.828 15.543 L 5.359 16.072 Z M 9.376 15.938 L 8.365 18.47 L 9.061 18.748 L 10.072 16.216 L 9.376 15.938 Z M 8.502 13.637 C 9.339 14.056 9.723 15.069 9.376 15.938 L 10.072 16.216 C 10.564 14.985 10.023 13.56 8.838 12.966 L 8.502 13.637 Z M 7.821 13.832 C 7.966 13.596 8.256 13.514 8.502 13.637 L 8.838 12.966 C 8.244 12.668 7.53 12.873 7.182 13.44 L 7.821 13.832 Z M 5.177 18.137 L 7.821 13.832 L 7.182 13.439 L 4.538 17.744 L 5.177 18.137 Z M 4.118 17.543 C 4.249 17.803 4.418 18.021 4.584 18.197 L 5.13 17.683 C 5.001 17.546 4.879 17.385 4.787 17.205 L 4.118 17.543 Z M 4.017 17.509 C 4.054 17.491 4.099 17.505 4.118 17.542 L 4.788 17.205 C 4.583 16.798 4.087 16.634 3.679 16.84 L 4.017 17.509 Z M 3.984 17.611 C 3.965 17.573 3.98 17.528 4.017 17.509 L 3.679 16.84 C 3.273 17.045 3.109 17.541 3.314 17.948 L 3.984 17.611 Z M 4.628 18.456 C 4.351 18.196 4.136 17.912 3.984 17.611 L 3.314 17.948 C 3.509 18.335 3.779 18.689 4.115 19.003 L 4.628 18.456 Z M 4.437 19.339 L 4.691 18.926 L 4.052 18.533 L 3.798 18.947 L 4.437 19.339 Z M 4.462 19.444 C 4.426 19.422 4.415 19.375 4.437 19.34 L 3.798 18.946 C 3.559 19.335 3.681 19.843 4.068 20.082 L 4.462 19.444 Z M 4.565 19.419 C 4.542 19.455 4.496 19.465 4.462 19.444 L 4.068 20.082 C 4.457 20.322 4.965 20.2 5.203 19.812 L 4.565 19.419 Z M 7.948 13.912 L 4.565 19.419 L 5.204 19.812 L 8.587 14.305 L 7.948 13.912 Z M 9.236 15.882 C 9.556 15.083 9.206 14.158 8.436 13.773 L 8.1 14.444 C 8.521 14.654 8.715 15.166 8.54 15.604 L 9.236 15.882 Z M 8.225 18.414 L 9.237 15.882 L 8.54 15.604 L 7.529 18.135 L 8.225 18.414 Z M 8.111 19.385 C 8.062 19.064 8.1 18.728 8.225 18.414 L 7.529 18.136 C 7.355 18.572 7.299 19.043 7.37 19.5 L 8.111 19.385 Z M 7.036 23.593 C 7.759 23.003 8.05 22.134 8.153 21.352 C 8.257 20.566 8.178 19.814 8.111 19.385 L 7.37 19.5 C 7.432 19.895 7.5 20.568 7.41 21.254 C 7.319 21.944 7.075 22.593 6.562 23.013 L 7.036 23.593 Z M 6.676 24.348 C 6.676 24.056 6.806 23.782 7.036 23.593 L 6.562 23.013 C 6.158 23.342 5.926 23.829 5.926 24.348 L 6.676 24.348 Z M 6.676 24.788 L 6.676 24.348 L 5.926 24.348 L 5.926 24.788 L 6.676 24.788 Z M 6.751 24.863 C 6.71 24.863 6.676 24.83 6.676 24.788 L 5.926 24.788 C 5.926 25.243 6.294 25.613 6.751 25.613 L 6.751 24.863 Z M 6.826 24.788 C 6.826 24.83 6.792 24.863 6.751 24.863 L 6.751 25.613 C 7.207 25.613 7.576 25.243 7.576 24.788 L 6.826 24.788 Z M 6.826 24.348 L 6.826 24.788 L 7.576 24.788 L 7.576 24.348 L 6.826 24.348 Z M 7.131 23.711 C 6.941 23.867 6.826 24.098 6.826 24.348 L 7.576 24.348 C 7.576 24.332 7.583 24.31 7.606 24.291 L 7.131 23.711 Z M 8.26 19.36 C 8.333 19.83 8.412 20.636 8.285 21.473 C 8.157 22.31 7.831 23.138 7.131 23.711 L 7.606 24.291 C 8.502 23.559 8.883 22.527 9.026 21.585 C 9.169 20.644 9.08 19.753 9.001 19.245 L 8.26 19.36 Z M 8.365 18.469 C 8.252 18.753 8.213 19.062 8.26 19.361 L 9.001 19.245 C 8.976 19.085 8.995 18.913 9.062 18.747 L 8.365 18.469 Z M 8.978 18.874 L 8.979 18.873 L 8.448 18.343 L 8.448 18.344 L 8.978 18.874 Z M 23.321 16.84 C 22.915 16.634 22.418 16.797 22.213 17.206 L 22.883 17.542 C 22.902 17.505 22.946 17.49 22.983 17.509 L 23.321 16.84 Z M 23.488 17.007 L 23.487 17.006 L 22.817 17.342 L 22.818 17.344 L 23.488 17.007 Z M 23.687 17.949 C 23.892 17.543 23.73 17.046 23.322 16.841 L 22.984 17.51 C 23.021 17.529 23.036 17.574 23.017 17.612 L 23.687 17.949 Z M 22.886 19.005 C 23.221 18.69 23.492 18.338 23.687 17.949 L 23.017 17.612 C 22.865 17.914 22.65 18.197 22.373 18.458 L 22.886 19.005 Z M 23.203 18.948 L 22.949 18.535 L 22.31 18.927 L 22.564 19.341 L 23.203 18.948 Z M 22.933 20.083 C 23.32 19.844 23.442 19.336 23.203 18.948 L 22.564 19.341 C 22.586 19.376 22.575 19.423 22.539 19.445 L 22.933 20.083 Z M 21.798 19.814 C 22.037 20.201 22.545 20.324 22.933 20.083 L 22.539 19.445 C 22.505 19.467 22.459 19.457 22.437 19.42 L 21.798 19.814 Z M 18.414 14.306 L 21.798 19.813 L 22.437 19.421 L 19.053 13.913 L 18.414 14.306 Z M 18.461 15.605 C 18.287 15.167 18.481 14.655 18.901 14.445 L 18.565 13.774 C 17.796 14.16 17.446 15.084 17.765 15.883 L 18.461 15.605 Z M 19.472 18.137 L 18.461 15.605 L 17.765 15.883 L 18.776 18.415 L 19.472 18.137 Z M 19.631 19.501 C 19.702 19.044 19.647 18.573 19.473 18.137 L 18.776 18.415 C 18.901 18.729 18.94 19.065 18.89 19.386 L 19.631 19.501 Z M 20.44 23.014 C 19.927 22.594 19.683 21.945 19.592 21.255 C 19.501 20.569 19.569 19.896 19.631 19.502 L 18.89 19.386 C 18.823 19.815 18.744 20.568 18.848 21.353 C 18.951 22.135 19.242 23.004 19.965 23.595 L 20.44 23.014 Z M 21.075 24.349 C 21.075 23.83 20.842 23.343 20.44 23.014 L 19.965 23.594 C 20.195 23.783 20.325 24.058 20.325 24.349 L 21.075 24.349 Z M 21.075 24.789 L 21.075 24.349 L 20.325 24.349 L 20.325 24.789 L 21.075 24.789 Z M 20.25 25.615 C 20.707 25.615 21.075 25.245 21.075 24.789 L 20.325 24.789 C 20.325 24.832 20.292 24.865 20.25 24.865 L 20.25 25.615 Z M 19.425 24.789 C 19.425 25.245 19.794 25.615 20.25 25.615 L 20.25 24.865 C 20.209 24.865 20.175 24.832 20.175 24.789 L 19.425 24.789 Z M 19.425 24.349 L 19.425 24.789 L 20.175 24.789 L 20.175 24.349 L 19.425 24.349 Z M 19.396 24.293 C 19.418 24.311 19.425 24.332 19.425 24.349 L 20.175 24.349 C 20.175 24.1 20.061 23.867 19.87 23.711 L 19.396 24.293 Z M 18 19.246 C 17.921 19.754 17.832 20.645 17.975 21.586 C 18.118 22.528 18.499 23.56 19.395 24.292 L 19.87 23.712 C 19.17 23.139 18.844 22.311 18.717 21.474 C 18.59 20.637 18.668 19.831 18.741 19.362 L 18 19.246 Z M 17.94 18.748 C 18.006 18.914 18.025 19.086 18 19.247 L 18.741 19.361 C 18.787 19.063 18.75 18.755 18.636 18.47 L 17.94 18.748 Z M 16.928 16.217 L 17.94 18.748 L 18.636 18.47 L 17.625 15.939 L 16.928 16.217 Z M 18.162 12.967 C 16.977 13.56 16.436 14.985 16.928 16.217 L 17.625 15.939 C 17.277 15.069 17.662 14.056 18.498 13.638 L 18.162 12.967 Z M 19.818 13.439 C 19.471 12.873 18.756 12.669 18.162 12.967 L 18.498 13.637 C 18.744 13.514 19.035 13.597 19.18 13.832 L 19.818 13.439 Z M 22.463 17.744 L 19.819 13.439 L 19.179 13.832 L 21.824 18.137 L 22.463 17.744 Z M 22.213 17.205 C 22.122 17.386 22 17.546 21.871 17.683 L 22.417 18.197 C 22.583 18.021 22.752 17.803 22.883 17.543 L 22.213 17.205 Z M 26.87 16.43 L 25.763 14.587 L 25.12 14.973 L 26.227 16.816 L 26.87 16.43 Z M 27.369 18.462 C 27.41 17.743 27.238 17.038 26.869 16.429 L 26.228 16.817 C 26.517 17.295 26.653 17.848 26.62 18.419 L 27.369 18.462 Z M 26.968 24.839 L 27.369 18.464 L 26.62 18.417 L 26.22 24.792 L 26.968 24.839 Z M 26.145 25.613 C 26.578 25.613 26.941 25.277 26.968 24.839 L 26.22 24.793 C 26.217 24.833 26.184 24.863 26.145 24.863 L 26.145 25.613 Z M 26.123 25.613 L 26.137 25.613 L 26.153 24.863 L 26.14 24.863 L 26.123 25.613 Z M 26.119 25.613 L 26.12 25.613 L 26.144 24.863 L 26.143 24.863 L 26.119 25.613 Z M 26.116 25.613 C 26.115 25.613 26.114 25.613 26.114 25.613 C 26.115 25.613 26.116 25.613 26.118 25.613 L 26.143 24.863 C 26.14 24.863 26.128 24.863 26.116 24.863 L 26.116 25.613 Z M 25.321 24.736 C 25.293 25.191 25.638 25.582 26.092 25.612 L 26.141 24.863 C 26.099 24.861 26.067 24.825 26.07 24.783 L 25.321 24.736 Z M 25.722 18.363 L 25.321 24.736 L 26.07 24.783 L 26.47 18.41 L 25.722 18.363 Z M 25.457 17.283 C 25.651 17.605 25.744 17.98 25.721 18.365 L 26.47 18.408 C 26.501 17.874 26.373 17.35 26.099 16.895 L 25.457 17.283 Z M 24.348 15.438 L 25.456 17.282 L 26.099 16.896 L 24.991 15.052 L 24.348 15.438 Z M 24.63 14.305 C 24.24 14.54 24.115 15.047 24.348 15.437 L 24.992 15.052 C 24.97 15.015 24.982 14.968 25.017 14.947 L 24.63 14.305 Z M 25.763 14.587 C 25.528 14.196 25.021 14.07 24.631 14.304 L 25.017 14.947 C 25.053 14.926 25.099 14.938 25.12 14.973 L 25.763 14.587 Z M 2.37 14.305 C 1.979 14.069 1.473 14.196 1.237 14.586 L 1.88 14.974 C 1.902 14.937 1.948 14.926 1.983 14.947 L 2.37 14.305 Z M 2.651 15.438 C 2.886 15.047 2.76 14.541 2.37 14.305 L 1.982 14.947 C 2.018 14.969 2.03 15.016 2.008 15.052 L 2.651 15.438 Z M 1.544 17.281 L 2.651 15.438 L 2.008 15.052 L 0.902 16.895 L 1.544 17.281 Z M 1.279 18.367 C 1.256 17.98 1.348 17.606 1.544 17.282 L 0.902 16.894 C 0.627 17.349 0.498 17.874 0.53 18.411 L 1.279 18.367 Z M 1.679 24.736 L 1.278 18.366 L 0.53 18.413 L 0.93 24.783 L 1.679 24.736 Z M 0.907 25.612 C 1.363 25.584 1.707 25.19 1.679 24.736 L 0.93 24.783 C 0.933 24.826 0.9 24.861 0.86 24.863 L 0.907 25.612 Z M 0.855 25.613 C 0.862 25.613 0.884 25.613 0.909 25.612 L 0.859 24.864 C 0.862 24.863 0.864 24.863 0.863 24.863 C 0.862 24.863 0.86 24.863 0.855 24.863 L 0.855 25.613 Z M 0.032 24.839 C 0.059 25.277 0.422 25.613 0.855 25.613 L 0.855 24.863 C 0.816 24.863 0.783 24.833 0.78 24.793 L 0.032 24.839 Z M -0.369 18.467 L 0.032 24.84 L 0.78 24.792 L 0.38 18.42 L -0.369 18.467 Z M 0.131 16.428 C -0.238 17.038 -0.41 17.743 -0.369 18.465 L 0.38 18.422 C 0.347 17.848 0.483 17.295 0.773 16.816 L 0.131 16.428 Z M 1.237 14.587 L 0.131 16.429 L 0.774 16.815 L 1.88 14.973 L 1.237 14.587 Z M 13.825 21.037 C 14.389 20.783 15.54 20.237 16.95 19.404 L 16.569 18.758 C 15.188 19.574 14.063 20.108 13.517 20.353 L 13.825 21.037 Z M 13.176 21.037 C 13.386 21.131 13.615 21.131 13.825 21.037 L 13.517 20.353 C 13.507 20.357 13.502 20.357 13.5 20.357 C 13.499 20.357 13.493 20.357 13.482 20.352 L 13.176 21.037 Z M 10.055 19.405 C 11.459 20.236 12.611 20.783 13.175 21.037 L 13.483 20.353 C 12.938 20.108 11.811 19.573 10.438 18.759 L 10.055 19.405 Z M 9.953 19.431 C 9.974 19.395 10.02 19.384 10.055 19.405 L 10.438 18.759 C 10.045 18.527 9.539 18.657 9.307 19.05 L 9.953 19.431 Z M 9.979 19.535 C 9.944 19.514 9.931 19.468 9.953 19.431 L 9.307 19.05 C 9.076 19.442 9.205 19.948 9.597 20.18 L 9.979 19.535 Z M 13.114 21.175 C 12.552 20.922 11.392 20.372 9.979 19.535 L 9.597 20.18 C 11.039 21.035 12.225 21.598 12.806 21.859 L 13.114 21.175 Z M 13.501 21.26 C 13.372 21.26 13.241 21.232 13.114 21.175 L 12.806 21.859 C 13.028 21.959 13.263 22.01 13.501 22.01 L 13.501 21.26 Z M 13.885 21.175 C 13.76 21.232 13.63 21.26 13.501 21.26 L 13.501 22.01 C 13.738 22.01 13.973 21.959 14.195 21.859 L 13.885 21.175 Z M 17.026 19.535 C 15.607 20.373 14.448 20.923 13.887 21.175 L 14.193 21.859 C 14.775 21.599 15.96 21.036 17.407 20.181 L 17.026 19.535 Z M 17.052 19.431 C 17.074 19.467 17.061 19.514 17.026 19.535 L 17.407 20.181 C 17.8 19.949 17.93 19.442 17.698 19.05 L 17.052 19.431 Z M 16.95 19.404 C 16.985 19.383 17.031 19.395 17.052 19.43 L 17.698 19.05 C 17.467 18.657 16.96 18.526 16.567 18.759 L 16.95 19.404 Z M 16.759 18.706 L 16.759 18.706 L 16.759 19.456 L 16.759 19.456 L 16.759 18.706 Z" fill="currentColor" fill-rule="nonzero"></path>
</svg>