<svg xmlns="http://www.w3.org/2000/svg" width="48" height="48" viewBox="10.125 11.005 27.75 25.99" fill="none"><g transform="translate(10.5 11.38)"><path d="M 5.094 15.807 C 4.918 15.984 4.633 15.984 4.457 15.808 C 2.289 13.642 0.981 11.354 0.57 9.005 C 0.176 6.757 0.77 4.46 2.198 2.705 C 3.562 1.027 5.486 0.068 7.614 0.004 C 9.883 -0.068 12.043 0.901 13.5 2.621 C 14.957 0.902 17.115 -0.068 19.386 0.004 C 21.515 0.068 23.438 1.027 24.802 2.705 C 26.23 4.461 26.824 6.758 26.43 9.005 C 26.019 11.354 24.71 13.643 22.543 15.809 C 22.455 15.896 22.341 15.94 22.225 15.94 C 22.11 15.94 21.994 15.896 21.906 15.807 C 21.731 15.631 21.731 15.346 21.907 15.17 C 23.941 13.138 25.165 11.011 25.544 8.849 C 25.892 6.859 25.367 4.827 24.104 3.274 C 22.908 1.802 21.222 0.96 19.359 0.904 C 17.189 0.836 15.136 1.85 13.865 3.616 C 13.78 3.733 13.645 3.803 13.5 3.803 C 13.355 3.803 13.22 3.733 13.135 3.616 C 11.864 1.849 9.81 0.836 7.642 0.904 C 5.778 0.961 4.092 1.802 2.896 3.274 C 1.632 4.827 1.108 6.859 1.456 8.849 C 1.836 11.011 3.059 13.138 5.093 15.17 C 5.268 15.346 5.269 15.631 5.094 15.807 Z M 8.713 18.609 L 9.724 16.077 C 10.144 15.027 9.681 13.808 8.67 13.301 C 8.25 13.091 7.748 13.235 7.502 13.636 L 4.857 17.94 C 4.709 17.783 4.564 17.594 4.453 17.374 C 4.341 17.152 4.07 17.062 3.848 17.174 C 3.627 17.286 3.537 17.557 3.649 17.779 C 3.823 18.124 4.065 18.443 4.372 18.73 L 4.118 19.143 C 3.987 19.355 4.053 19.632 4.265 19.763 C 4.476 19.894 4.753 19.827 4.884 19.616 L 8.268 14.108 C 8.863 14.406 9.136 15.124 8.888 15.743 L 7.877 18.275 C 7.727 18.65 7.68 19.054 7.741 19.442 C 7.869 20.267 8.035 22.293 6.799 23.303 C 6.482 23.562 6.301 23.943 6.301 24.348 L 6.301 24.788 C 6.301 25.037 6.502 25.238 6.751 25.238 C 7 25.238 7.201 25.037 7.201 24.788 L 7.201 24.348 C 7.201 24.215 7.262 24.088 7.369 24.001 C 8.965 22.696 8.783 20.281 8.63 19.303 C 8.594 19.074 8.623 18.834 8.713 18.609 Z M 22.548 17.374 C 22.66 17.151 22.93 17.062 23.152 17.174 L 23.153 17.175 C 23.375 17.288 23.464 17.559 23.352 17.781 C 23.179 18.126 22.936 18.444 22.63 18.731 L 22.884 19.144 C 23.014 19.356 22.948 19.634 22.736 19.764 C 22.525 19.895 22.248 19.829 22.117 19.617 L 18.733 14.11 C 18.139 14.408 17.866 15.125 18.113 15.744 L 19.124 18.276 C 19.274 18.651 19.321 19.055 19.26 19.444 C 19.132 20.268 18.967 22.294 20.202 23.304 C 20.519 23.563 20.7 23.944 20.7 24.349 L 20.7 24.789 C 20.7 25.038 20.499 25.24 20.25 25.24 C 20.002 25.24 19.8 25.038 19.8 24.789 L 19.8 24.349 C 19.8 24.216 19.739 24.089 19.633 24.002 C 18.036 22.696 18.218 20.281 18.371 19.304 C 18.406 19.075 18.378 18.835 18.288 18.609 L 17.277 16.078 C 16.857 15.027 17.32 13.808 18.33 13.302 C 18.75 13.092 19.253 13.235 19.499 13.636 L 22.144 17.94 C 22.291 17.783 22.437 17.594 22.548 17.374 Z M 25.441 14.78 L 26.548 16.623 C 26.877 17.166 27.032 17.795 26.994 18.441 L 26.594 24.816 C 26.579 25.055 26.381 25.238 26.145 25.238 L 26.132 25.238 C 26.127 25.238 26.121 25.238 26.116 25.238 C 25.868 25.222 25.68 25.008 25.695 24.759 L 26.096 18.387 C 26.122 17.927 26.012 17.477 25.778 17.089 L 24.67 15.245 C 24.542 15.031 24.611 14.754 24.824 14.626 C 25.037 14.498 25.313 14.567 25.441 14.78 Z M 1.559 14.78 C 1.687 14.567 1.964 14.498 2.176 14.626 C 2.389 14.755 2.458 15.031 2.33 15.245 L 1.223 17.088 C 0.988 17.477 0.877 17.927 0.904 18.389 L 1.305 24.759 C 1.32 25.008 1.132 25.222 0.884 25.238 C 0.874 25.238 0.864 25.238 0.855 25.238 C 0.619 25.238 0.421 25.055 0.406 24.816 L 0.005 18.443 C -0.032 17.795 0.122 17.166 0.452 16.622 L 1.559 14.78 Z M 16.759 19.081 C 15.364 19.905 14.226 20.446 13.671 20.695 C 13.559 20.745 13.442 20.745 13.329 20.695 C 12.774 20.446 11.635 19.905 10.247 19.082 C 10.033 18.955 9.757 19.026 9.63 19.24 C 9.503 19.455 9.574 19.731 9.788 19.858 C 11.215 20.703 12.389 21.26 12.96 21.517 C 13.134 21.595 13.317 21.635 13.501 21.635 C 13.684 21.635 13.866 21.595 14.04 21.517 C 14.611 21.261 15.783 20.704 17.216 19.858 C 17.43 19.732 17.502 19.455 17.375 19.24 C 17.249 19.026 16.973 18.954 16.759 19.081 Z" fill="currentColor" fill-rule="nonzero"></path></g><g transform="translate(10.125 11.005)"><path d="M 4.832 16.183 L 5.097 15.918 L 4.457 15.279 L 4.457 16.183 L 4.832 16.183 Z M 4.832 16.183 L 4.567 16.449 L 5.207 17.088 L 5.207 16.184 L 4.832 16.183 Z M 13.875 2.996 L 13.589 3.239 L 13.875 3.577 L 14.161 3.239 L 13.875 2.996 Z M 9.088 18.984 L 8.739 18.845 L 9.353 19.249 L 9.088 18.984 Z M 5.232 18.315 L 4.959 18.572 L 5.295 18.929 L 5.551 18.512 L 5.232 18.315 Z M 4.747 19.105 L 5.066 19.301 L 5.226 19.04 L 5.003 18.831 L 4.747 19.105 Z M 8.643 14.483 L 8.811 14.148 L 8.503 13.994 L 8.323 14.287 L 8.643 14.483 Z M 9.088 18.984 L 9.437 19.122 L 8.823 18.718 L 9.088 18.984 Z M 23.527 17.549 L 23.862 17.381 L 23.807 17.27 L 23.696 17.214 L 23.527 17.549 Z M 23.528 17.55 L 23.193 17.719 L 23.248 17.83 L 23.359 17.885 L 23.528 17.55 Z M 23.005 19.106 L 22.748 18.833 L 22.525 19.042 L 22.685 19.302 L 23.005 19.106 Z M 19.108 14.485 L 19.428 14.288 L 19.248 13.995 L 18.94 14.149 L 19.108 14.485 Z M 22.519 18.315 L 22.199 18.512 L 22.456 18.929 L 22.792 18.572 L 22.519 18.315 Z M 26.923 16.998 L 26.602 17.191 L 26.603 17.192 L 26.923 16.998 Z M 27.369 18.816 L 27.744 18.839 L 27.744 18.837 L 27.369 18.816 Z M 26.52 25.613 L 26.512 25.988 L 26.52 25.988 L 26.52 25.613 Z M 26.507 25.613 L 26.494 25.988 L 26.498 25.988 L 26.507 25.613 Z M 26.507 25.613 L 26.493 25.988 L 26.494 25.988 L 26.507 25.613 Z M 26.491 25.613 L 26.467 25.987 L 26.479 25.988 L 26.491 25.988 L 26.491 25.613 Z M 26.471 18.762 L 26.845 18.785 L 26.845 18.783 L 26.471 18.762 Z M 26.153 17.464 L 25.831 17.657 L 25.832 17.658 L 26.153 17.464 Z M 1.279 18.764 L 0.905 18.786 L 0.905 18.788 L 1.279 18.764 Z M 1.259 25.613 L 1.235 25.238 L 1.234 25.238 L 1.259 25.613 Z M 0.38 18.818 L 0.006 18.84 L 0.006 18.842 L 0.38 18.818 Z M 0.827 16.997 L 1.148 17.191 L 1.149 17.19 L 0.827 16.997 Z M 17.134 19.456 L 17.325 19.779 L 18.507 19.081 L 17.134 19.081 L 17.134 19.456 Z M 14.415 21.892 L 14.262 21.55 L 14.26 21.55 L 14.415 21.892 Z M 17.134 19.456 L 16.942 19.134 L 15.765 19.831 L 17.134 19.831 L 17.134 19.456 Z M 4.567 16.449 C 4.889 16.77 5.412 16.771 5.734 16.447 L 5.203 15.918 C 5.174 15.947 5.127 15.947 5.097 15.918 L 4.567 16.449 Z M 0.575 9.445 C 1.004 11.889 2.36 14.244 4.567 16.449 L 5.097 15.918 C 2.968 13.791 1.709 11.569 1.314 9.315 L 0.575 9.445 Z M 2.282 2.843 C 0.785 4.684 0.163 7.09 0.575 9.445 L 1.314 9.315 C 0.939 7.173 1.505 4.987 2.863 3.316 L 2.282 2.843 Z M 7.978 0.004 C 5.739 0.072 3.713 1.083 2.282 2.843 L 2.863 3.316 C 4.16 1.722 5.983 0.814 8 0.753 L 7.978 0.004 Z M 14.161 2.754 C 12.63 0.947 10.361 -0.071 7.978 0.004 L 8 0.753 C 10.154 0.686 12.205 1.605 13.589 3.239 L 14.161 2.754 Z M 19.773 0.004 C 17.386 -0.071 15.12 0.948 13.589 2.754 L 14.161 3.239 C 15.545 1.606 17.593 0.686 19.75 0.753 L 19.773 0.004 Z M 25.468 2.843 C 24.037 1.082 22.012 0.072 19.773 0.004 L 19.75 0.753 C 21.767 0.814 23.59 1.721 24.886 3.316 L 25.468 2.843 Z M 27.174 9.445 C 27.586 7.091 26.965 4.685 25.468 2.843 L 24.886 3.316 C 26.245 4.987 26.811 7.174 26.436 9.315 L 27.174 9.445 Z M 23.183 16.449 C 25.39 14.244 26.746 11.889 27.174 9.445 L 26.436 9.315 C 26.041 11.569 24.781 13.791 22.653 15.918 L 23.183 16.449 Z M 22.6 16.69 C 22.811 16.69 23.022 16.61 23.183 16.449 L 22.653 15.918 C 22.639 15.932 22.621 15.94 22.6 15.94 L 22.6 16.69 Z M 22.016 16.447 C 22.176 16.608 22.388 16.69 22.6 16.69 L 22.6 15.94 C 22.581 15.94 22.562 15.933 22.547 15.917 L 22.016 16.447 Z M 22.017 15.279 C 21.694 15.602 21.695 16.124 22.016 16.447 L 22.547 15.917 C 22.517 15.887 22.518 15.839 22.547 15.81 L 22.017 15.279 Z M 25.549 9.16 C 25.187 11.225 24.013 13.285 22.017 15.279 L 22.547 15.81 C 24.619 13.741 25.892 11.548 26.288 9.289 L 25.549 9.16 Z M 24.188 3.885 C 25.382 5.353 25.879 7.275 25.549 9.16 L 26.288 9.289 C 26.655 7.193 26.103 5.05 24.77 3.412 L 24.188 3.885 Z M 19.722 1.654 C 21.475 1.707 23.059 2.496 24.188 3.885 L 24.77 3.412 C 23.506 1.857 21.72 0.964 19.745 0.905 L 19.722 1.654 Z M 14.544 4.21 C 15.743 2.545 17.677 1.59 19.722 1.654 L 19.745 0.905 C 17.45 0.832 15.279 1.904 13.936 3.772 L 14.544 4.21 Z M 13.875 4.553 C 14.141 4.553 14.389 4.425 14.544 4.21 L 13.936 3.772 C 13.921 3.792 13.899 3.803 13.875 3.803 L 13.875 4.553 Z M 13.205 4.21 C 13.361 4.425 13.609 4.553 13.875 4.553 L 13.875 3.803 C 13.851 3.803 13.829 3.792 13.814 3.771 L 13.205 4.21 Z M 8.028 1.654 C 10.071 1.59 12.007 2.544 13.205 4.21 L 13.814 3.771 C 12.471 1.904 10.298 0.832 8.005 0.905 L 8.028 1.654 Z M 3.562 3.885 C 4.691 2.496 6.275 1.707 8.028 1.654 L 8.005 0.905 C 6.03 0.965 4.243 1.857 2.98 3.412 L 3.562 3.885 Z M 2.201 9.16 C 1.871 7.275 2.368 5.354 3.562 3.885 L 2.98 3.412 C 1.647 5.051 1.095 7.193 1.462 9.289 L 2.201 9.16 Z M 5.733 15.28 C 3.737 13.286 2.563 11.225 2.201 9.16 L 1.462 9.289 C 1.858 11.547 3.131 13.74 5.203 15.81 L 5.733 15.28 Z M 5.734 16.447 C 6.056 16.124 6.054 15.602 5.733 15.28 L 5.203 15.81 C 5.233 15.84 5.232 15.888 5.203 15.918 L 5.734 16.447 Z M 9.751 16.313 L 8.739 18.845 L 9.437 19.122 L 10.447 16.591 L 9.751 16.313 Z M 8.877 14.012 C 9.713 14.43 10.098 15.444 9.751 16.313 L 10.447 16.591 C 10.939 15.36 10.398 13.935 9.213 13.341 L 8.877 14.012 Z M 8.196 14.207 C 8.341 13.971 8.631 13.889 8.877 14.012 L 9.213 13.341 C 8.619 13.043 7.905 13.248 7.557 13.814 L 8.196 14.207 Z M 5.551 18.512 L 8.196 14.207 L 7.557 13.814 L 4.912 18.119 L 5.551 18.512 Z M 4.493 17.917 C 4.624 18.177 4.793 18.396 4.959 18.572 L 5.505 18.058 C 5.376 17.921 5.254 17.76 5.162 17.58 L 4.493 17.917 Z M 4.392 17.884 C 4.429 17.866 4.474 17.88 4.493 17.917 L 5.162 17.58 C 4.958 17.173 4.462 17.009 4.054 17.214 L 4.392 17.884 Z M 4.359 17.986 C 4.34 17.948 4.355 17.903 4.392 17.884 L 4.054 17.214 C 3.648 17.42 3.484 17.916 3.689 18.323 L 4.359 17.986 Z M 5.003 18.831 C 4.726 18.571 4.511 18.287 4.359 17.986 L 3.689 18.323 C 3.884 18.71 4.154 19.064 4.49 19.378 L 5.003 18.831 Z M 4.812 19.715 L 5.066 19.301 L 4.427 18.908 L 4.173 19.322 L 4.812 19.715 Z M 4.837 19.819 C 4.801 19.797 4.79 19.75 4.812 19.715 L 4.173 19.322 C 3.934 19.71 4.056 20.218 4.443 20.457 L 4.837 19.819 Z M 4.94 19.794 C 4.917 19.83 4.871 19.84 4.837 19.819 L 4.443 20.457 C 4.832 20.697 5.34 20.575 5.578 20.187 L 4.94 19.794 Z M 8.323 14.287 L 4.94 19.794 L 5.578 20.187 L 8.962 14.68 L 8.323 14.287 Z M 9.611 16.257 C 9.931 15.458 9.581 14.533 8.811 14.148 L 8.475 14.819 C 8.896 15.029 9.09 15.541 8.915 15.979 L 9.611 16.257 Z M 8.6 18.789 L 9.611 16.257 L 8.915 15.979 L 7.904 18.51 L 8.6 18.789 Z M 8.486 19.76 C 8.436 19.439 8.475 19.103 8.6 18.789 L 7.904 18.51 C 7.73 18.947 7.674 19.418 7.745 19.875 L 8.486 19.76 Z M 7.411 23.968 C 8.134 23.378 8.425 22.509 8.528 21.727 C 8.632 20.941 8.553 20.189 8.486 19.76 L 7.745 19.875 C 7.807 20.27 7.875 20.943 7.785 21.629 C 7.694 22.319 7.45 22.968 6.937 23.388 L 7.411 23.968 Z M 7.051 24.723 C 7.051 24.431 7.181 24.157 7.411 23.968 L 6.937 23.388 C 6.533 23.717 6.301 24.204 6.301 24.723 L 7.051 24.723 Z M 7.051 25.163 L 7.051 24.723 L 6.301 24.723 L 6.301 25.163 L 7.051 25.163 Z M 7.126 25.238 C 7.085 25.238 7.051 25.205 7.051 25.163 L 6.301 25.163 C 6.301 25.618 6.669 25.988 7.126 25.988 L 7.126 25.238 Z M 7.201 25.163 C 7.201 25.205 7.167 25.238 7.126 25.238 L 7.126 25.988 C 7.582 25.988 7.951 25.618 7.951 25.163 L 7.201 25.163 Z M 7.201 24.723 L 7.201 25.163 L 7.951 25.163 L 7.951 24.723 L 7.201 24.723 Z M 7.506 24.085 C 7.316 24.241 7.201 24.473 7.201 24.723 L 7.951 24.723 C 7.951 24.707 7.958 24.685 7.981 24.666 L 7.506 24.085 Z M 8.635 19.735 C 8.708 20.205 8.786 21.011 8.659 21.848 C 8.532 22.685 8.206 23.513 7.506 24.085 L 7.981 24.666 C 8.877 23.933 9.258 22.902 9.401 21.96 C 9.544 21.019 9.455 20.128 9.376 19.62 L 8.635 19.735 Z M 8.739 18.845 C 8.626 19.129 8.588 19.436 8.635 19.735 L 9.376 19.62 C 9.351 19.461 9.37 19.288 9.437 19.122 L 8.739 18.845 Z M 23.696 17.214 C 23.29 17.009 22.793 17.172 22.588 17.581 L 23.258 17.918 C 23.276 17.881 23.321 17.865 23.358 17.884 L 23.696 17.214 Z M 23.863 17.382 L 23.862 17.381 L 23.192 17.717 L 23.193 17.719 L 23.863 17.382 Z M 24.062 18.324 C 24.267 17.918 24.105 17.421 23.697 17.216 L 23.359 17.885 C 23.396 17.904 23.411 17.949 23.392 17.987 L 24.062 18.324 Z M 23.261 19.379 C 23.596 19.065 23.867 18.713 24.062 18.324 L 23.392 17.987 C 23.24 18.289 23.025 18.572 22.748 18.833 L 23.261 19.379 Z M 23.578 19.323 L 23.324 18.91 L 22.685 19.302 L 22.939 19.716 L 23.578 19.323 Z M 23.308 20.458 C 23.695 20.219 23.817 19.712 23.578 19.323 L 22.939 19.716 C 22.961 19.751 22.95 19.798 22.914 19.82 L 23.308 20.458 Z M 22.173 20.188 C 22.411 20.576 22.92 20.699 23.308 20.458 L 22.914 19.82 C 22.88 19.841 22.834 19.832 22.812 19.795 L 22.173 20.188 Z M 18.789 14.681 L 22.173 20.188 L 22.812 19.795 L 19.428 14.288 L 18.789 14.681 Z M 18.836 15.98 C 18.661 15.542 18.856 15.03 19.276 14.82 L 18.94 14.149 C 18.171 14.535 17.821 15.459 18.14 16.258 L 18.836 15.98 Z M 19.847 18.512 L 18.836 15.98 L 18.14 16.258 L 19.151 18.79 L 19.847 18.512 Z M 20.006 19.877 C 20.077 19.42 20.021 18.948 19.847 18.512 L 19.151 18.79 C 19.277 19.105 19.315 19.44 19.265 19.761 L 20.006 19.877 Z M 20.815 23.389 C 20.302 22.97 20.058 22.32 19.967 21.63 C 19.876 20.944 19.944 20.271 20.006 19.877 L 19.265 19.761 C 19.198 20.19 19.119 20.942 19.223 21.728 C 19.326 22.51 19.617 23.379 20.34 23.97 L 20.815 23.389 Z M 21.45 24.724 C 21.45 24.205 21.217 23.718 20.815 23.389 L 20.34 23.97 C 20.57 24.158 20.7 24.433 20.7 24.724 L 21.45 24.724 Z M 21.45 25.164 L 21.45 24.724 L 20.7 24.724 L 20.7 25.164 L 21.45 25.164 Z M 20.625 25.99 C 21.082 25.99 21.45 25.62 21.45 25.164 L 20.7 25.164 C 20.7 25.206 20.667 25.24 20.625 25.24 L 20.625 25.99 Z M 19.8 25.164 C 19.8 25.62 20.169 25.99 20.625 25.99 L 20.625 25.24 C 20.584 25.24 20.55 25.206 20.55 25.164 L 19.8 25.164 Z M 19.8 24.724 L 19.8 25.164 L 20.55 25.164 L 20.55 24.724 L 19.8 24.724 Z M 19.77 24.667 C 19.792 24.685 19.8 24.707 19.8 24.724 L 20.55 24.724 C 20.55 24.475 20.436 24.242 20.244 24.086 L 19.77 24.667 Z M 18.375 19.621 C 18.296 20.129 18.207 21.019 18.35 21.961 C 18.493 22.903 18.874 23.935 19.77 24.667 L 20.244 24.086 C 19.544 23.514 19.219 22.686 19.092 21.849 C 18.965 21.012 19.043 20.206 19.116 19.737 L 18.375 19.621 Z M 18.315 19.123 C 18.381 19.289 18.4 19.461 18.375 19.621 L 19.116 19.737 C 19.162 19.439 19.125 19.13 19.011 18.845 L 18.315 19.123 Z M 17.303 16.592 L 18.315 19.123 L 19.011 18.845 L 18 16.314 L 17.303 16.592 Z M 18.537 13.342 C 17.352 13.935 16.811 15.36 17.303 16.592 L 18 16.314 C 17.652 15.444 18.037 14.431 18.873 14.012 L 18.537 13.342 Z M 20.193 13.814 C 19.846 13.249 19.131 13.044 18.537 13.342 L 18.873 14.012 C 19.119 13.889 19.41 13.972 19.555 14.207 L 20.193 13.814 Z M 22.838 18.119 L 20.193 13.814 L 19.555 14.207 L 22.199 18.512 L 22.838 18.119 Z M 22.588 17.581 C 22.497 17.761 22.375 17.921 22.246 18.058 L 22.792 18.572 C 22.958 18.396 23.127 18.178 23.258 17.918 L 22.588 17.581 Z M 27.245 16.805 L 26.138 14.962 L 25.495 15.348 L 26.602 17.191 L 27.245 16.805 Z M 27.744 18.837 C 27.785 18.118 27.613 17.413 27.244 16.804 L 26.603 17.192 C 26.892 17.67 27.028 18.223 26.995 18.794 L 27.744 18.837 Z M 27.343 25.214 L 27.744 18.839 L 26.995 18.792 L 26.595 25.167 L 27.343 25.214 Z M 26.52 25.988 C 26.953 25.988 27.316 25.652 27.343 25.214 L 26.595 25.167 C 26.592 25.207 26.559 25.238 26.52 25.238 L 26.52 25.988 Z M 26.498 25.988 L 26.512 25.988 L 26.528 25.238 L 26.515 25.238 L 26.498 25.988 Z M 26.491 25.988 C 26.49 25.988 26.489 25.988 26.489 25.988 C 26.49 25.988 26.491 25.988 26.493 25.988 L 26.519 25.238 C 26.515 25.238 26.503 25.238 26.491 25.238 L 26.491 25.988 Z M 25.696 25.111 C 25.668 25.566 26.013 25.957 26.467 25.987 L 26.516 25.238 C 26.474 25.236 26.442 25.2 26.445 25.157 L 25.696 25.111 Z M 26.097 18.738 L 25.696 25.111 L 26.445 25.157 L 26.845 18.785 L 26.097 18.738 Z M 25.832 17.658 C 26.026 17.98 26.118 18.354 26.096 18.74 L 26.845 18.783 C 26.876 18.249 26.748 17.724 26.473 17.27 L 25.832 17.658 Z M 24.723 15.812 L 25.831 17.657 L 26.474 17.271 L 25.366 15.427 L 24.723 15.812 Z M 25.006 14.679 C 24.615 14.915 24.49 15.422 24.723 15.812 L 25.366 15.427 C 25.344 15.389 25.357 15.343 25.392 15.322 L 25.006 14.679 Z M 26.138 14.962 C 25.903 14.571 25.396 14.445 25.006 14.679 L 25.392 15.322 C 25.428 15.3 25.474 15.313 25.495 15.348 L 26.138 14.962 Z M 2.745 14.68 C 2.355 14.445 1.847 14.571 1.612 14.961 L 2.255 15.348 C 2.277 15.312 2.323 15.301 2.358 15.322 L 2.745 14.68 Z M 3.026 15.813 C 3.261 15.422 3.135 14.916 2.745 14.68 L 2.358 15.322 C 2.394 15.344 2.405 15.391 2.383 15.427 L 3.026 15.813 Z M 1.919 17.657 L 3.026 15.813 L 2.383 15.427 L 1.276 17.27 L 1.919 17.657 Z M 1.653 18.742 C 1.631 18.355 1.723 17.981 1.919 17.657 L 1.276 17.27 C 1.001 17.725 0.873 18.249 0.905 18.786 L 1.653 18.742 Z M 2.054 25.111 L 1.653 18.741 L 0.905 18.788 L 1.305 25.158 L 2.054 25.111 Z M 1.282 25.987 C 1.738 25.959 2.082 25.565 2.054 25.111 L 1.305 25.158 C 1.308 25.201 1.275 25.236 1.235 25.238 L 1.282 25.987 Z M 1.23 25.988 C 1.237 25.988 1.259 25.988 1.284 25.987 L 1.234 25.238 C 1.237 25.238 1.239 25.238 1.238 25.238 C 1.237 25.238 1.235 25.238 1.23 25.238 L 1.23 25.988 Z M 0.407 25.214 C 0.434 25.652 0.797 25.988 1.23 25.988 L 1.23 25.238 C 1.191 25.238 1.158 25.208 1.155 25.168 L 0.407 25.214 Z M 0.006 18.842 L 0.407 25.214 L 1.155 25.168 L 0.755 18.795 L 0.006 18.842 Z M 0.506 16.803 C 0.137 17.413 -0.036 18.118 0.006 18.84 L 0.755 18.797 C 0.722 18.223 0.858 17.67 1.148 17.191 L 0.506 16.803 Z M 1.612 14.961 L 0.506 16.804 L 1.149 17.19 L 2.255 15.348 L 1.612 14.961 Z M 14.2 21.412 C 14.764 21.158 15.915 20.612 17.325 19.779 L 16.944 19.133 C 15.563 19.949 14.438 20.483 13.892 20.728 L 14.2 21.412 Z M 13.55 21.412 C 13.76 21.505 13.99 21.506 14.2 21.412 L 13.892 20.728 C 13.882 20.732 13.877 20.732 13.875 20.732 C 13.874 20.732 13.868 20.732 13.857 20.727 L 13.55 21.412 Z M 10.43 19.779 C 11.834 20.611 12.986 21.158 13.55 21.412 L 13.857 20.727 C 13.312 20.482 12.186 19.948 10.813 19.134 L 10.43 19.779 Z M 10.328 19.806 C 10.349 19.77 10.395 19.758 10.43 19.779 L 10.813 19.134 C 10.42 18.902 9.914 19.032 9.682 19.425 L 10.328 19.806 Z M 10.354 19.91 C 10.319 19.889 10.306 19.843 10.328 19.806 L 9.682 19.425 C 9.451 19.817 9.58 20.323 9.972 20.555 L 10.354 19.91 Z M 13.489 21.55 C 12.927 21.297 11.767 20.747 10.354 19.91 L 9.972 20.555 C 11.414 21.41 12.6 21.973 13.181 22.234 L 13.489 21.55 Z M 13.876 21.635 C 13.747 21.635 13.616 21.607 13.489 21.55 L 13.181 22.234 C 13.403 22.334 13.638 22.385 13.876 22.385 L 13.876 21.635 Z M 14.26 21.55 C 14.135 21.607 14.005 21.635 13.876 21.635 L 13.876 22.385 C 14.113 22.385 14.348 22.334 14.57 22.234 L 14.26 21.55 Z M 17.401 19.91 C 15.983 20.748 14.823 21.298 14.262 21.55 L 14.568 22.234 C 15.15 21.973 16.334 21.411 17.782 20.556 L 17.401 19.91 Z M 17.427 19.805 C 17.448 19.842 17.436 19.889 17.401 19.91 L 17.782 20.556 C 18.175 20.324 18.305 19.817 18.073 19.425 L 17.427 19.805 Z M 17.325 19.779 C 17.36 19.758 17.406 19.77 17.427 19.805 L 18.073 19.425 C 17.842 19.031 17.335 18.901 16.942 19.134 L 17.325 19.779 Z" fill="currentColor" fill-rule="nonzero"></path></g></svg>