<svg xmlns="http://www.w3.org/2000/svg" width="25.606" height="33.249" viewBox="0 0 25.606 33.249" fill="none">
  <path d="M 25.418 30.022 C 25.31 28.74 25.184 27.483 25.136 27.01 C 25.127 26.918 25.121 26.859 25.12 26.841 L 25.118 26.811 C 24.451 22.258 22.31 20.266 20.632 19.396 C 18.998 18.551 17.505 18.579 17.078 18.609 L 15.452 18.609 L 15.452 17 C 15.681 16.912 15.907 16.812 16.124 16.701 L 20.84 16.701 C 20.996 16.701 21.139 16.638 21.242 16.525 L 21.251 16.514 C 21.342 16.392 21.387 16.245 21.378 16.096 L 20.879 10.638 C 21.513 10.326 21.917 9.682 21.917 8.971 C 21.909 7.952 21.09 7.122 20.084 7.102 C 20.059 3.182 16.81 0 12.818 0 C 10.781 0 8.793 0.893 7.366 2.451 C 6.159 3.766 5.499 5.415 5.498 7.109 C 4.496 7.138 3.69 7.962 3.69 8.972 C 3.69 9.658 4.071 10.291 4.675 10.612 L 4.176 16.093 C 4.166 16.249 4.221 16.405 4.32 16.503 C 4.423 16.617 4.566 16.679 4.722 16.679 L 9.468 16.679 C 9.674 16.787 9.888 16.885 10.132 16.984 L 10.132 18.624 L 8.529 18.624 C 8.226 18.603 7.172 18.572 5.906 19.012 C 5.873 19.017 5.84 19.025 5.808 19.037 C 5.777 19.048 5.747 19.063 5.718 19.08 C 5.463 19.176 5.213 19.288 4.976 19.41 C 3.294 20.27 1.15 22.255 0.489 26.825 L 0.487 26.856 C 0.486 26.874 0.48 26.932 0.471 27.024 C 0.424 27.497 0.297 28.754 0.189 30.036 C 0.052 31.593 -0.007 32.565 0.001 33.098 L 0.003 33.249 L 1.093 33.218 L 1.093 33.073 C 1.093 32.144 1.333 29.302 1.571 26.981 C 2.05 23.712 3.353 21.499 5.443 20.403 C 5.521 20.362 5.599 20.323 5.682 20.284 L 10.035 32.235 L 11.192 32.235 L 6.711 19.913 C 7.616 19.674 8.317 19.707 8.455 19.716 L 10.333 19.716 L 12.235 23.637 C 12.325 23.815 12.509 23.934 12.721 23.944 L 12.729 23.944 C 12.936 23.944 13.121 23.829 13.213 23.646 L 15.248 19.702 L 17.171 19.702 L 17.178 19.698 C 17.294 19.689 17.983 19.651 18.886 19.889 L 14.393 32.227 L 15.549 32.227 L 19.918 20.263 C 19.99 20.296 20.059 20.331 20.127 20.366 C 22.237 21.457 23.549 23.678 24.028 26.96 C 24.265 29.287 24.506 32.132 24.506 33.066 L 24.656 33.066 L 24.656 33.208 L 25.606 33.208 L 25.606 33.059 C 25.606 32.498 25.545 31.505 25.418 30.023 L 25.418 30.022 Z M 12.811 1.085 C 16.219 1.085 18.991 3.8 18.991 7.138 L 18.991 7.167 C 17.926 7.105 16.627 5.901 16.199 5.421 C 16.093 5.304 15.949 5.238 15.804 5.238 C 15.643 5.238 15.5 5.298 15.405 5.403 C 13.604 7.255 9.268 7.189 6.58 7.127 C 6.579 5.703 7.137 4.308 8.163 3.184 C 9.387 1.85 11.081 1.085 12.811 1.085 Z M 13.859 13.147 C 13.81 13.222 13.555 13.394 13.125 13.394 C 12.695 13.394 12.42 13.207 12.386 13.138 C 12.417 13.069 12.67 12.885 13.125 12.885 C 13.58 12.885 13.811 13.054 13.858 13.129 L 13.858 13.132 C 13.858 13.137 13.858 13.142 13.858 13.147 L 13.859 13.147 Z M 6.615 8.197 C 9.261 8.258 13.516 8.321 15.773 6.516 C 16.467 7.182 17.712 8.183 18.977 8.236 L 18.977 10.236 C 18.977 11.073 18.809 11.891 18.479 12.671 C 17.624 12.785 16.453 12.709 15.592 12.653 L 15.479 12.646 C 15.249 12.627 15.021 12.613 14.812 12.604 C 14.536 12.108 13.887 11.792 13.124 11.792 C 12.096 11.792 11.291 12.384 11.291 13.139 C 11.291 13.894 12.096 14.485 13.124 14.485 C 13.871 14.485 14.515 14.179 14.801 13.69 C 14.883 13.695 14.97 13.701 15.061 13.707 C 15.167 13.715 15.28 13.723 15.398 13.729 L 15.618 13.743 C 16.301 13.788 17.1 13.839 17.838 13.81 C 17.303 14.56 16.61 15.184 15.822 15.628 C 15.805 15.633 15.789 15.639 15.774 15.646 C 15.724 15.662 15.688 15.686 15.658 15.71 C 15.645 15.719 15.633 15.728 15.621 15.738 C 15.393 15.859 15.148 15.966 14.895 16.057 C 14.848 16.059 14.812 16.068 14.781 16.076 L 14.757 16.086 L 14.727 16.086 L 14.699 16.098 C 14.669 16.111 14.64 16.127 14.61 16.147 C 13.438 16.511 12.182 16.515 10.984 16.147 C 10.954 16.126 10.925 16.111 10.895 16.098 L 10.884 16.094 C 10.876 16.091 10.869 16.089 10.862 16.086 C 10.85 16.082 10.838 16.076 10.824 16.072 L 10.801 16.064 L 10.785 16.064 C 10.761 16.06 10.738 16.058 10.717 16.058 C 10.457 15.963 10.211 15.856 9.986 15.738 C 9.968 15.72 9.951 15.705 9.933 15.691 L 9.925 15.685 C 9.894 15.665 9.86 15.648 9.826 15.631 L 9.807 15.623 C 9.786 15.616 9.762 15.608 9.736 15.601 C 7.811 14.498 6.616 12.444 6.616 10.235 L 6.616 8.196 L 6.615 8.197 Z M 17.697 15.609 C 18.801 14.606 19.568 13.29 19.899 11.854 L 20.242 15.609 L 17.697 15.609 Z M 20.084 9.734 L 20.084 8.194 C 20.492 8.214 20.817 8.552 20.817 8.964 C 20.817 9.376 20.492 9.715 20.084 9.734 Z M 5.523 9.734 C 5.498 9.733 5.471 9.73 5.441 9.727 C 5.398 9.712 5.354 9.702 5.313 9.698 C 4.995 9.598 4.774 9.298 4.774 8.963 C 4.774 8.546 5.108 8.205 5.522 8.193 L 5.522 9.733 L 5.523 9.734 Z M 7.909 15.586 L 5.313 15.586 L 5.675 11.629 C 5.974 13.144 6.757 14.538 7.909 15.586 Z M 14.367 17.326 L 14.367 19.029 L 12.747 22.172 L 11.211 19.003 L 11.21 19 L 11.21 17.316 C 11.742 17.434 12.28 17.494 12.811 17.494 C 13.341 17.494 13.849 17.438 14.367 17.326 Z" fill="currentColor" fill-rule="nonzero"></path>
  <path d="M 25.418 30.022 L 25.519 30.022 L 25.518 30.014 L 25.418 30.022 Z M 25.136 27.01 L 25.037 27.019 L 25.037 27.02 L 25.136 27.01 Z M 25.12 26.841 L 25.02 26.846 L 25.02 26.85 L 25.12 26.841 Z M 25.118 26.811 L 25.219 26.806 L 25.217 26.796 L 25.118 26.811 Z M 20.632 19.396 L 20.678 19.307 L 20.678 19.307 L 20.632 19.396 Z M 17.078 18.609 L 17.078 18.709 L 17.085 18.709 L 17.078 18.609 Z M 15.452 18.609 L 15.352 18.609 L 15.352 18.709 L 15.452 18.709 L 15.452 18.609 Z M 15.452 17 L 15.416 16.907 L 15.352 16.932 L 15.352 17 L 15.452 17 Z M 16.124 16.701 L 16.124 16.601 L 16.1 16.601 L 16.079 16.612 L 16.124 16.701 Z M 21.242 16.525 L 21.316 16.593 L 21.32 16.588 L 21.242 16.525 Z M 21.251 16.514 L 21.329 16.576 L 21.331 16.574 L 21.251 16.514 Z M 21.378 16.096 L 21.477 16.09 L 21.477 16.087 L 21.378 16.096 Z M 20.879 10.638 L 20.835 10.548 L 20.773 10.579 L 20.78 10.647 L 20.879 10.638 Z M 21.917 8.971 L 22.017 8.971 L 22.017 8.97 L 21.917 8.971 Z M 20.084 7.102 L 19.984 7.102 L 19.985 7.2 L 20.082 7.202 L 20.084 7.102 Z M 7.366 2.451 L 7.44 2.518 L 7.44 2.518 L 7.366 2.451 Z M 5.498 7.109 L 5.501 7.209 L 5.598 7.206 L 5.598 7.109 L 5.498 7.109 Z M 4.675 10.612 L 4.775 10.621 L 4.781 10.555 L 4.722 10.523 L 4.675 10.612 Z M 4.176 16.093 L 4.076 16.084 L 4.076 16.086 L 4.176 16.093 Z M 4.32 16.503 L 4.394 16.435 L 4.39 16.432 L 4.32 16.503 Z M 9.468 16.679 L 9.514 16.59 L 9.492 16.579 L 9.468 16.579 L 9.468 16.679 Z M 10.132 16.984 L 10.232 16.984 L 10.232 16.917 L 10.17 16.891 L 10.132 16.984 Z M 10.132 18.624 L 10.132 18.724 L 10.232 18.724 L 10.232 18.624 L 10.132 18.624 Z M 8.529 18.624 L 8.522 18.724 L 8.529 18.724 L 8.529 18.624 Z M 5.906 19.012 L 5.922 19.11 L 5.93 19.109 L 5.939 19.106 L 5.906 19.012 Z M 5.808 19.037 L 5.842 19.131 L 5.843 19.131 L 5.808 19.037 Z M 5.718 19.08 L 5.754 19.173 L 5.762 19.17 L 5.769 19.166 L 5.718 19.08 Z M 4.976 19.41 L 5.021 19.5 L 5.022 19.499 L 4.976 19.41 Z M 0.489 26.825 L 0.389 26.811 L 0.389 26.82 L 0.489 26.825 Z M 0.487 26.856 L 0.587 26.864 L 0.587 26.861 L 0.487 26.856 Z M 0.471 27.024 L 0.57 27.034 L 0.57 27.034 L 0.471 27.024 Z M 0.189 30.036 L 0.288 30.044 L 0.288 30.044 L 0.189 30.036 Z M 0.001 33.098 L 0.101 33.096 L 0.101 33.096 L 0.001 33.098 Z M 0.003 33.249 L -0.097 33.25 L -0.095 33.352 L 0.006 33.349 L 0.003 33.249 Z M 1.093 33.218 L 1.096 33.318 L 1.193 33.315 L 1.193 33.218 L 1.093 33.218 Z M 1.571 26.981 L 1.472 26.967 L 1.471 26.971 L 1.571 26.981 Z M 5.443 20.403 L 5.397 20.314 L 5.396 20.314 L 5.443 20.403 Z M 5.682 20.284 L 5.776 20.25 L 5.739 20.148 L 5.641 20.194 L 5.682 20.284 Z M 10.035 32.235 L 9.941 32.269 L 9.965 32.335 L 10.035 32.335 L 10.035 32.235 Z M 11.192 32.235 L 11.192 32.335 L 11.334 32.335 L 11.286 32.201 L 11.192 32.235 Z M 6.711 19.913 L 6.686 19.816 L 6.58 19.844 L 6.617 19.947 L 6.711 19.913 Z M 8.455 19.716 L 8.448 19.816 L 8.455 19.816 L 8.455 19.716 Z M 10.333 19.716 L 10.423 19.672 L 10.396 19.616 L 10.333 19.616 L 10.333 19.716 Z M 12.235 23.637 L 12.145 23.68 L 12.146 23.682 L 12.235 23.637 Z M 12.721 23.944 L 12.716 24.044 L 12.721 24.044 L 12.721 23.944 Z M 13.213 23.646 L 13.125 23.601 L 13.124 23.601 L 13.213 23.646 Z M 15.248 19.702 L 15.248 19.602 L 15.187 19.602 L 15.159 19.656 L 15.248 19.702 Z M 17.171 19.702 L 17.171 19.802 L 17.195 19.802 L 17.216 19.791 L 17.171 19.702 Z M 17.178 19.698 L 17.171 19.598 L 17.151 19.6 L 17.134 19.608 L 17.178 19.698 Z M 18.886 19.889 L 18.98 19.924 L 19.017 19.821 L 18.911 19.793 L 18.886 19.889 Z M 14.393 32.227 L 14.299 32.193 L 14.25 32.327 L 14.393 32.327 L 14.393 32.227 Z M 15.549 32.227 L 15.549 32.327 L 15.619 32.327 L 15.643 32.262 L 15.549 32.227 Z M 19.918 20.263 L 19.96 20.172 L 19.861 20.126 L 19.824 20.228 L 19.918 20.263 Z M 20.127 20.366 L 20.173 20.277 L 20.173 20.277 L 20.127 20.366 Z M 24.028 26.96 L 24.128 26.95 L 24.127 26.946 L 24.028 26.96 Z M 24.506 33.066 L 24.406 33.066 L 24.406 33.166 L 24.506 33.166 L 24.506 33.066 Z M 24.656 33.066 L 24.756 33.066 L 24.756 32.966 L 24.656 32.966 L 24.656 33.066 Z M 24.656 33.208 L 24.556 33.208 L 24.556 33.308 L 24.656 33.308 L 24.656 33.208 Z M 25.606 33.208 L 25.606 33.308 L 25.706 33.308 L 25.706 33.208 L 25.606 33.208 Z M 25.418 30.023 L 25.318 30.023 L 25.319 30.031 L 25.418 30.023 Z M 18.991 7.167 L 18.986 7.267 L 19.091 7.273 L 19.091 7.167 L 18.991 7.167 Z M 16.199 5.421 L 16.274 5.355 L 16.273 5.354 L 16.199 5.421 Z M 15.405 5.403 L 15.477 5.473 L 15.479 5.47 L 15.405 5.403 Z M 6.58 7.127 L 6.48 7.127 L 6.48 7.225 L 6.578 7.227 L 6.58 7.127 Z M 8.163 3.184 L 8.089 3.116 L 8.089 3.116 L 8.163 3.184 Z M 13.859 13.147 L 13.943 13.202 L 14.045 13.047 L 13.859 13.047 L 13.859 13.147 Z M 12.386 13.138 L 12.295 13.096 L 12.275 13.14 L 12.296 13.182 L 12.386 13.138 Z M 13.858 13.129 L 13.958 13.129 L 13.958 13.1 L 13.943 13.075 L 13.858 13.129 Z M 13.858 13.147 L 13.758 13.147 L 13.758 13.247 L 13.858 13.247 L 13.858 13.147 Z M 6.615 8.197 L 6.526 8.152 L 6.455 8.293 L 6.613 8.297 L 6.615 8.197 Z M 15.773 6.516 L 15.842 6.444 L 15.779 6.383 L 15.711 6.438 L 15.773 6.516 Z M 18.977 8.236 L 19.077 8.236 L 19.077 8.14 L 18.981 8.136 L 18.977 8.236 Z M 18.479 12.671 L 18.492 12.77 L 18.549 12.763 L 18.571 12.71 L 18.479 12.671 Z M 15.592 12.653 L 15.586 12.753 L 15.586 12.753 L 15.592 12.653 Z M 15.479 12.646 L 15.471 12.745 L 15.473 12.745 L 15.479 12.646 Z M 14.812 12.604 L 14.725 12.652 L 14.752 12.701 L 14.808 12.704 L 14.812 12.604 Z M 14.801 13.69 L 14.807 13.59 L 14.746 13.587 L 14.715 13.639 L 14.801 13.69 Z M 15.061 13.707 L 15.054 13.807 L 15.054 13.807 L 15.061 13.707 Z M 15.398 13.729 L 15.404 13.629 L 15.403 13.629 L 15.398 13.729 Z M 15.618 13.743 L 15.624 13.643 L 15.624 13.643 L 15.618 13.743 Z M 17.838 13.81 L 17.92 13.868 L 18.038 13.702 L 17.834 13.71 L 17.838 13.81 Z M 15.822 15.628 L 15.851 15.724 L 15.861 15.721 L 15.871 15.715 L 15.822 15.628 Z M 15.774 15.646 L 15.804 15.742 L 15.815 15.737 L 15.774 15.646 Z M 15.658 15.71 L 15.716 15.791 L 15.719 15.789 L 15.658 15.71 Z M 15.621 15.738 L 15.668 15.826 L 15.677 15.822 L 15.684 15.816 L 15.621 15.738 Z M 14.895 16.057 L 14.9 16.157 L 14.915 16.156 L 14.929 16.151 L 14.895 16.057 Z M 14.781 16.076 L 14.757 15.978 L 14.749 15.98 L 14.741 15.984 L 14.781 16.076 Z M 14.757 16.086 L 14.757 16.186 L 14.778 16.186 L 14.797 16.178 L 14.757 16.086 Z M 14.727 16.086 L 14.727 15.986 L 14.706 15.986 L 14.687 15.994 L 14.727 16.086 Z M 14.699 16.098 L 14.738 16.19 L 14.739 16.19 L 14.699 16.098 Z M 14.61 16.147 L 14.639 16.243 L 14.653 16.238 L 14.666 16.23 L 14.61 16.147 Z M 10.984 16.147 L 10.927 16.229 L 10.939 16.238 L 10.954 16.242 L 10.984 16.147 Z M 10.895 16.098 L 10.933 16.005 L 10.928 16.004 L 10.895 16.098 Z M 10.884 16.094 L 10.85 16.188 L 10.85 16.188 L 10.884 16.094 Z M 10.862 16.086 L 10.903 15.994 L 10.898 15.992 L 10.862 16.086 Z M 10.824 16.072 L 10.794 16.167 L 10.794 16.167 L 10.824 16.072 Z M 10.801 16.064 L 10.832 15.969 L 10.817 15.964 L 10.801 15.964 L 10.801 16.064 Z M 10.785 16.064 L 10.767 16.163 L 10.776 16.164 L 10.785 16.164 L 10.785 16.064 Z M 10.717 16.058 L 10.682 16.151 L 10.697 16.157 L 10.713 16.157 L 10.717 16.058 Z M 9.986 15.738 L 9.916 15.809 L 9.926 15.82 L 9.94 15.827 L 9.986 15.738 Z M 9.933 15.691 L 9.995 15.612 L 9.992 15.61 L 9.933 15.691 Z M 9.925 15.685 L 9.984 15.604 L 9.98 15.601 L 9.925 15.685 Z M 9.826 15.631 L 9.87 15.541 L 9.865 15.539 L 9.826 15.631 Z M 9.807 15.623 L 9.846 15.53 L 9.837 15.528 L 9.807 15.623 Z M 9.736 15.601 L 9.686 15.688 L 9.698 15.695 L 9.711 15.698 L 9.736 15.601 Z M 6.616 8.196 L 6.716 8.196 L 6.527 8.151 L 6.616 8.196 Z M 17.697 15.609 L 17.63 15.535 L 17.438 15.709 L 17.697 15.709 L 17.697 15.609 Z M 19.899 11.854 L 19.999 11.845 L 19.802 11.831 L 19.899 11.854 Z M 20.242 15.609 L 20.242 15.709 L 20.351 15.709 L 20.341 15.6 L 20.242 15.609 Z M 20.084 9.734 L 19.984 9.734 L 19.984 9.839 L 20.089 9.834 L 20.084 9.734 Z M 20.084 8.194 L 20.089 8.094 L 19.984 8.089 L 19.984 8.194 L 20.084 8.194 Z M 5.523 9.734 L 5.52 9.834 L 5.772 9.842 L 5.594 9.663 L 5.523 9.734 Z M 5.441 9.727 L 5.409 9.821 L 5.419 9.825 L 5.429 9.826 L 5.441 9.727 Z M 5.313 9.698 L 5.283 9.794 L 5.293 9.797 L 5.304 9.798 L 5.313 9.698 Z M 5.522 8.193 L 5.622 8.193 L 5.622 8.09 L 5.519 8.093 L 5.522 8.193 Z M 5.522 9.733 L 5.422 9.733 L 5.422 9.775 L 5.451 9.804 L 5.522 9.733 Z M 7.909 15.586 L 7.909 15.686 L 8.167 15.686 L 7.976 15.512 L 7.909 15.586 Z M 5.313 15.586 L 5.213 15.577 L 5.203 15.686 L 5.313 15.686 L 5.313 15.586 Z M 5.675 11.629 L 5.773 11.61 L 5.575 11.62 L 5.675 11.629 Z M 14.367 17.326 L 14.467 17.326 L 14.467 17.202 L 14.346 17.228 L 14.367 17.326 Z M 14.367 19.029 L 14.456 19.075 L 14.467 19.053 L 14.467 19.029 L 14.367 19.029 Z M 12.747 22.172 L 12.657 22.216 L 12.745 22.396 L 12.836 22.218 L 12.747 22.172 Z M 11.211 19.003 L 11.301 18.959 L 11.301 18.958 L 11.211 19.003 Z M 11.21 19 L 11.11 19 L 11.11 19.023 L 11.12 19.044 L 11.21 19 Z M 11.21 17.316 L 11.231 17.218 L 11.11 17.191 L 11.11 17.316 L 11.21 17.316 Z M 25.518 30.014 C 25.409 28.73 25.284 27.473 25.236 27 L 25.037 27.02 C 25.085 27.493 25.21 28.749 25.319 30.031 L 25.518 30.014 Z M 25.236 27 C 25.227 26.907 25.221 26.85 25.219 26.833 L 25.02 26.85 C 25.022 26.869 25.028 26.929 25.037 27.019 L 25.236 27 Z M 25.22 26.837 L 25.218 26.806 L 25.018 26.816 L 25.02 26.846 L 25.22 26.837 Z M 25.217 26.796 C 24.545 22.213 22.385 20.193 20.678 19.307 L 20.586 19.485 C 22.235 20.34 24.356 22.304 25.019 26.825 L 25.217 26.796 Z M 20.678 19.307 C 19.022 18.45 17.508 18.479 17.071 18.509 L 17.085 18.709 C 17.502 18.68 18.975 18.651 20.586 19.485 L 20.678 19.307 Z M 17.078 18.509 L 15.452 18.509 L 15.452 18.709 L 17.078 18.709 L 17.078 18.509 Z M 15.552 18.609 L 15.552 17 L 15.352 17 L 15.352 18.609 L 15.552 18.609 Z M 15.488 17.094 C 15.72 17.004 15.949 16.903 16.17 16.79 L 16.079 16.612 C 15.865 16.721 15.642 16.82 15.416 16.907 L 15.488 17.094 Z M 16.124 16.801 L 20.84 16.801 L 20.84 16.601 L 16.124 16.601 L 16.124 16.801 Z M 20.84 16.801 C 21.024 16.801 21.194 16.727 21.316 16.593 L 21.168 16.458 C 21.084 16.55 20.968 16.601 20.84 16.601 L 20.84 16.801 Z M 21.32 16.588 L 21.329 16.576 L 21.173 16.452 L 21.164 16.463 L 21.32 16.588 Z M 21.331 16.574 C 21.436 16.434 21.489 16.264 21.477 16.09 L 21.278 16.103 C 21.286 16.227 21.249 16.35 21.171 16.454 L 21.331 16.574 Z M 21.477 16.087 L 20.979 10.629 L 20.78 10.647 L 21.278 16.106 L 21.477 16.087 Z M 20.923 10.728 C 21.591 10.399 22.017 9.721 22.017 8.971 L 21.817 8.971 C 21.817 9.644 21.435 10.253 20.835 10.548 L 20.923 10.728 Z M 22.017 8.97 C 22.008 7.898 21.147 7.023 20.086 7.002 L 20.082 7.202 C 21.034 7.221 21.809 8.007 21.817 8.972 L 22.017 8.97 Z M 20.184 7.101 C 20.159 3.124 16.863 -0.1 12.818 -0.1 L 12.818 0.1 C 16.756 0.1 19.96 3.239 19.984 7.102 L 20.184 7.101 Z M 12.818 -0.1 C 10.752 -0.1 8.737 0.806 7.292 2.383 L 7.44 2.518 C 8.848 0.981 10.81 0.1 12.818 0.1 L 12.818 -0.1 Z M 7.292 2.383 C 6.069 3.716 5.399 5.389 5.398 7.109 L 5.598 7.109 C 5.599 5.442 6.249 3.816 7.44 2.518 L 7.292 2.383 Z M 5.495 7.009 C 4.44 7.04 3.59 7.908 3.59 8.972 L 3.79 8.972 C 3.79 8.016 4.553 7.237 5.501 7.209 L 5.495 7.009 Z M 3.59 8.972 C 3.59 9.696 3.992 10.362 4.628 10.7 L 4.722 10.523 C 4.151 10.22 3.79 9.621 3.79 8.972 L 3.59 8.972 Z M 4.576 10.603 L 4.076 16.084 L 4.276 16.102 L 4.775 10.621 L 4.576 10.603 Z M 4.076 16.086 C 4.064 16.268 4.128 16.453 4.249 16.574 L 4.39 16.432 C 4.314 16.356 4.267 16.23 4.276 16.099 L 4.076 16.086 Z M 4.246 16.57 C 4.368 16.705 4.538 16.779 4.722 16.779 L 4.722 16.579 C 4.593 16.579 4.477 16.528 4.394 16.436 L 4.246 16.57 Z M 4.722 16.779 L 9.468 16.779 L 9.468 16.579 L 4.722 16.579 L 4.722 16.779 Z M 9.421 16.767 C 9.631 16.877 9.848 16.977 10.095 17.077 L 10.17 16.891 C 9.928 16.793 9.717 16.697 9.514 16.59 L 9.421 16.767 Z M 10.032 16.984 L 10.032 18.624 L 10.232 18.624 L 10.232 16.984 L 10.032 16.984 Z M 10.132 18.524 L 8.529 18.524 L 8.529 18.724 L 10.132 18.724 L 10.132 18.524 Z M 8.536 18.524 C 8.225 18.503 7.156 18.471 5.873 18.917 L 5.939 19.106 C 7.188 18.672 8.228 18.703 8.522 18.724 L 8.536 18.524 Z M 5.89 18.913 C 5.852 18.919 5.812 18.929 5.773 18.943 L 5.843 19.131 C 5.868 19.121 5.895 19.115 5.922 19.11 L 5.89 18.913 Z M 5.774 18.943 C 5.737 18.957 5.702 18.973 5.667 18.994 L 5.769 19.166 C 5.793 19.152 5.818 19.14 5.842 19.131 L 5.774 18.943 Z M 5.683 18.986 C 5.424 19.084 5.171 19.197 4.93 19.322 L 5.022 19.499 C 5.256 19.378 5.502 19.268 5.754 19.173 L 5.683 18.986 Z M 4.93 19.321 C 3.219 20.196 1.056 22.209 0.39 26.811 L 0.588 26.839 C 1.245 22.3 3.369 20.344 5.021 19.5 L 4.93 19.321 Z M 0.389 26.82 L 0.387 26.851 L 0.587 26.861 L 0.588 26.83 L 0.389 26.82 Z M 0.387 26.847 C 0.386 26.864 0.38 26.921 0.371 27.014 L 0.57 27.034 C 0.579 26.943 0.585 26.883 0.587 26.864 L 0.387 26.847 Z M 0.371 27.014 C 0.324 27.487 0.197 28.745 0.089 30.027 L 0.288 30.044 C 0.397 28.763 0.523 27.507 0.57 27.034 L 0.371 27.014 Z M 0.089 30.027 C -0.048 31.583 -0.108 32.56 -0.099 33.099 L 0.101 33.096 C 0.093 32.569 0.151 31.602 0.288 30.044 L 0.089 30.027 Z M -0.099 33.099 L -0.097 33.25 L 0.103 33.247 L 0.101 33.096 L -0.099 33.099 Z M 0.006 33.349 L 1.096 33.318 L 1.09 33.118 L 0 33.149 L 0.006 33.349 Z M 1.193 33.218 L 1.193 33.073 L 0.993 33.073 L 0.993 33.218 L 1.193 33.218 Z M 1.193 33.073 C 1.193 32.15 1.433 29.313 1.67 26.992 L 1.471 26.971 C 1.234 29.29 0.993 32.137 0.993 33.073 L 1.193 33.073 Z M 1.67 26.996 C 2.147 23.745 3.438 21.567 5.489 20.491 L 5.396 20.314 C 3.268 21.431 1.954 23.68 1.472 26.967 L 1.67 26.996 Z M 5.489 20.491 C 5.566 20.451 5.643 20.413 5.724 20.375 L 5.641 20.194 C 5.555 20.233 5.475 20.273 5.397 20.314 L 5.489 20.491 Z M 5.588 20.319 L 9.941 32.269 L 10.129 32.201 L 5.776 20.25 L 5.588 20.319 Z M 10.035 32.335 L 11.192 32.335 L 11.192 32.135 L 10.035 32.135 L 10.035 32.335 Z M 11.286 32.201 L 6.805 19.878 L 6.617 19.947 L 11.098 32.269 L 11.286 32.201 Z M 6.737 20.009 C 7.627 19.774 8.317 19.807 8.448 19.816 L 8.461 19.616 C 8.317 19.607 7.604 19.574 6.686 19.816 L 6.737 20.009 Z M 8.455 19.816 L 10.333 19.816 L 10.333 19.616 L 8.455 19.616 L 8.455 19.816 Z M 10.243 19.759 L 12.146 23.68 L 12.325 23.593 L 10.423 19.672 L 10.243 19.759 Z M 12.146 23.682 C 12.253 23.894 12.469 24.032 12.716 24.044 L 12.726 23.844 C 12.548 23.836 12.398 23.737 12.325 23.592 L 12.146 23.682 Z M 12.721 24.044 L 12.729 24.044 L 12.729 23.844 L 12.721 23.844 L 12.721 24.044 Z M 12.729 24.044 C 12.974 24.044 13.194 23.908 13.303 23.691 L 13.124 23.601 C 13.049 23.75 12.898 23.844 12.729 23.844 L 12.729 24.044 Z M 13.302 23.692 L 15.337 19.747 L 15.159 19.656 L 13.125 23.601 L 13.302 23.692 Z M 15.248 19.802 L 17.171 19.802 L 17.171 19.602 L 15.248 19.602 L 15.248 19.802 Z M 17.216 19.791 L 17.223 19.787 L 17.134 19.608 L 17.126 19.612 L 17.216 19.791 Z M 17.186 19.798 C 17.294 19.789 17.971 19.752 18.86 19.986 L 18.911 19.793 C 17.994 19.551 17.293 19.589 17.171 19.598 L 17.186 19.798 Z M 18.792 19.855 L 14.299 32.193 L 14.487 32.262 L 18.98 19.924 L 18.792 19.855 Z M 14.393 32.327 L 15.549 32.327 L 15.549 32.127 L 14.393 32.127 L 14.393 32.327 Z M 15.643 32.262 L 20.012 20.297 L 19.824 20.228 L 15.456 32.193 L 15.643 32.262 Z M 19.875 20.353 C 19.946 20.386 20.014 20.42 20.081 20.455 L 20.173 20.277 C 20.104 20.241 20.033 20.206 19.96 20.172 L 19.875 20.353 Z M 20.081 20.455 C 22.152 21.526 23.453 23.71 23.929 26.975 L 24.127 26.946 C 23.645 23.645 22.322 21.388 20.173 20.277 L 20.081 20.455 Z M 23.928 26.971 C 24.166 29.299 24.406 32.138 24.406 33.066 L 24.606 33.066 C 24.606 32.125 24.364 29.276 24.127 26.95 L 23.928 26.971 Z M 24.506 33.166 L 24.656 33.166 L 24.656 32.966 L 24.506 32.966 L 24.506 33.166 Z M 24.556 33.066 L 24.556 33.208 L 24.756 33.208 L 24.756 33.066 L 24.556 33.066 Z M 24.656 33.308 L 25.606 33.308 L 25.606 33.108 L 24.656 33.108 L 24.656 33.308 Z M 25.706 33.208 L 25.706 33.059 L 25.506 33.059 L 25.506 33.208 L 25.706 33.208 Z M 25.706 33.059 C 25.706 32.493 25.644 31.496 25.518 30.014 L 25.319 30.031 C 25.445 31.514 25.506 32.503 25.506 33.059 L 25.706 33.059 Z M 25.518 30.023 L 25.518 30.022 L 25.318 30.022 L 25.318 30.023 L 25.518 30.023 Z M 12.811 1.185 C 16.166 1.185 18.891 3.858 18.891 7.138 L 19.091 7.138 C 19.091 3.743 16.272 0.985 12.811 0.985 L 12.811 1.185 Z M 18.891 7.138 L 18.891 7.167 L 19.091 7.167 L 19.091 7.138 L 18.891 7.138 Z M 18.997 7.067 C 18.494 7.038 17.923 6.736 17.415 6.37 C 16.91 6.006 16.483 5.59 16.274 5.355 L 16.124 5.488 C 16.343 5.733 16.78 6.159 17.298 6.532 C 17.812 6.903 18.423 7.234 18.986 7.267 L 18.997 7.067 Z M 16.273 5.354 C 16.15 5.218 15.98 5.138 15.804 5.138 L 15.804 5.338 C 15.918 5.338 16.036 5.391 16.125 5.488 L 16.273 5.354 Z M 15.804 5.138 C 15.618 5.138 15.447 5.207 15.331 5.336 L 15.479 5.47 C 15.553 5.388 15.668 5.338 15.804 5.338 L 15.804 5.138 Z M 15.333 5.333 C 14.458 6.233 12.954 6.677 11.313 6.884 C 9.676 7.09 7.927 7.058 6.582 7.027 L 6.578 7.227 C 7.921 7.258 9.684 7.29 11.338 7.082 C 12.986 6.874 14.551 6.425 15.477 5.473 L 15.333 5.333 Z M 6.68 7.127 C 6.679 5.73 7.226 4.358 8.237 3.251 L 8.089 3.116 C 7.047 4.257 6.479 5.677 6.48 7.127 L 6.68 7.127 Z M 8.236 3.251 C 9.443 1.937 11.11 1.185 12.811 1.185 L 12.811 0.985 C 11.051 0.985 9.331 1.763 8.089 3.116 L 8.236 3.251 Z M 13.776 13.092 C 13.773 13.096 13.759 13.112 13.726 13.135 C 13.695 13.158 13.652 13.183 13.596 13.206 C 13.485 13.253 13.327 13.294 13.125 13.294 L 13.125 13.494 C 13.354 13.494 13.538 13.448 13.674 13.39 C 13.742 13.362 13.798 13.33 13.842 13.299 C 13.884 13.269 13.921 13.235 13.943 13.202 L 13.776 13.092 Z M 13.125 13.294 C 12.924 13.294 12.762 13.25 12.647 13.2 C 12.59 13.175 12.545 13.149 12.514 13.126 C 12.48 13.101 12.473 13.088 12.476 13.094 L 12.296 13.182 C 12.316 13.222 12.357 13.259 12.396 13.288 C 12.44 13.32 12.498 13.353 12.567 13.384 C 12.706 13.444 12.896 13.494 13.125 13.494 L 13.125 13.294 Z M 12.477 13.179 C 12.474 13.185 12.48 13.173 12.511 13.149 C 12.54 13.127 12.581 13.102 12.637 13.077 C 12.748 13.028 12.911 12.985 13.125 12.985 L 13.125 12.785 C 12.884 12.785 12.693 12.834 12.556 12.894 C 12.488 12.924 12.432 12.958 12.39 12.99 C 12.351 13.019 12.313 13.056 12.295 13.096 L 12.477 13.179 Z M 13.125 12.985 C 13.34 12.985 13.498 13.025 13.605 13.071 C 13.716 13.118 13.765 13.169 13.774 13.183 L 13.943 13.075 C 13.904 13.014 13.814 12.943 13.684 12.887 C 13.55 12.83 13.365 12.785 13.125 12.785 L 13.125 12.985 Z M 13.758 13.129 L 13.758 13.132 L 13.958 13.132 L 13.958 13.129 L 13.758 13.129 Z M 13.758 13.132 C 13.758 13.132 13.758 13.132 13.758 13.132 C 13.758 13.132 13.758 13.132 13.758 13.132 C 13.758 13.132 13.758 13.132 13.758 13.132 C 13.758 13.132 13.758 13.132 13.758 13.132 C 13.758 13.132 13.758 13.132 13.758 13.132 C 13.758 13.132 13.758 13.132 13.758 13.132 C 13.758 13.132 13.758 13.132 13.758 13.132 C 13.758 13.132 13.758 13.132 13.758 13.132 C 13.758 13.132 13.758 13.132 13.758 13.132 C 13.758 13.132 13.758 13.132 13.758 13.132 C 13.758 13.132 13.758 13.132 13.758 13.132 C 13.758 13.132 13.758 13.132 13.758 13.132 C 13.758 13.132 13.758 13.132 13.758 13.132 C 13.758 13.132 13.758 13.132 13.758 13.132 C 13.758 13.132 13.758 13.132 13.758 13.132 C 13.758 13.132 13.758 13.132 13.758 13.132 C 13.758 13.132 13.758 13.132 13.758 13.132 C 13.758 13.132 13.758 13.132 13.758 13.132 C 13.758 13.132 13.758 13.132 13.758 13.132 C 13.758 13.132 13.758 13.132 13.758 13.132 C 13.758 13.133 13.758 13.133 13.758 13.133 C 13.758 13.133 13.758 13.133 13.758 13.133 C 13.758 13.133 13.758 13.133 13.758 13.133 C 13.758 13.133 13.758 13.133 13.758 13.133 C 13.758 13.133 13.758 13.133 13.758 13.133 C 13.758 13.133 13.758 13.133 13.758 13.133 C 13.758 13.133 13.758 13.133 13.758 13.133 C 13.758 13.133 13.758 13.133 13.758 13.133 C 13.758 13.133 13.758 13.133 13.758 13.133 C 13.758 13.133 13.758 13.133 13.758 13.133 C 13.758 13.133 13.758 13.133 13.758 13.133 C 13.758 13.133 13.758 13.133 13.758 13.133 C 13.758 13.133 13.758 13.133 13.758 13.133 C 13.758 13.133 13.758 13.133 13.758 13.133 C 13.758 13.133 13.758 13.133 13.758 13.133 C 13.758 13.133 13.758 13.133 13.758 13.133 C 13.758 13.133 13.758 13.133 13.758 13.133 C 13.758 13.133 13.758 13.133 13.758 13.133 C 13.758 13.133 13.758 13.133 13.758 13.133 C 13.758 13.133 13.758 13.133 13.758 13.133 C 13.758 13.133 13.758 13.133 13.758 13.133 C 13.758 13.133 13.758 13.133 13.758 13.133 C 13.758 13.133 13.758 13.133 13.758 13.133 C 13.758 13.133 13.758 13.133 13.758 13.133 C 13.758 13.133 13.758 13.133 13.758 13.133 C 13.758 13.133 13.758 13.133 13.758 13.133 C 13.758 13.133 13.758 13.133 13.758 13.133 C 13.758 13.133 13.758 13.133 13.758 13.133 C 13.758 13.133 13.758 13.133 13.758 13.133 C 13.758 13.133 13.758 13.133 13.758 13.133 C 13.758 13.133 13.758 13.133 13.758 13.133 C 13.758 13.133 13.758 13.133 13.758 13.133 C 13.758 13.133 13.758 13.133 13.758 13.133 C 13.758 13.133 13.758 13.134 13.758 13.134 C 13.758 13.134 13.758 13.134 13.758 13.134 C 13.758 13.134 13.758 13.134 13.758 13.134 C 13.758 13.134 13.758 13.134 13.758 13.134 C 13.758 13.134 13.758 13.134 13.758 13.134 C 13.758 13.134 13.758 13.134 13.758 13.134 C 13.758 13.134 13.758 13.134 13.758 13.134 C 13.758 13.134 13.758 13.134 13.758 13.134 C 13.758 13.134 13.758 13.134 13.758 13.134 C 13.758 13.134 13.758 13.134 13.758 13.134 C 13.758 13.134 13.758 13.134 13.758 13.134 C 13.758 13.134 13.758 13.134 13.758 13.134 C 13.758 13.134 13.758 13.134 13.758 13.134 C 13.758 13.134 13.758 13.134 13.758 13.134 C 13.758 13.134 13.758 13.134 13.758 13.134 C 13.758 13.134 13.758 13.134 13.758 13.134 C 13.758 13.134 13.758 13.134 13.758 13.134 C 13.758 13.134 13.758 13.134 13.758 13.134 C 13.758 13.134 13.758 13.134 13.758 13.134 C 13.758 13.134 13.758 13.134 13.758 13.134 C 13.758 13.134 13.758 13.134 13.758 13.134 C 13.758 13.134 13.758 13.134 13.758 13.134 C 13.758 13.134 13.758 13.134 13.758 13.134 C 13.758 13.134 13.758 13.134 13.758 13.134 C 13.758 13.134 13.758 13.134 13.758 13.134 C 13.758 13.134 13.758 13.134 13.758 13.134 C 13.758 13.134 13.758 13.134 13.758 13.134 C 13.758 13.134 13.758 13.134 13.758 13.134 C 13.758 13.134 13.758 13.134 13.758 13.134 C 13.758 13.134 13.758 13.134 13.758 13.134 C 13.758 13.134 13.758 13.134 13.758 13.134 C 13.758 13.134 13.758 13.134 13.758 13.134 C 13.758 13.134 13.758 13.134 13.758 13.134 C 13.758 13.134 13.758 13.134 13.758 13.134 C 13.758 13.135 13.758 13.135 13.758 13.135 C 13.758 13.135 13.758 13.135 13.758 13.135 C 13.758 13.135 13.758 13.135 13.758 13.135 C 13.758 13.135 13.758 13.135 13.758 13.135 C 13.758 13.135 13.758 13.135 13.758 13.135 C 13.758 13.135 13.758 13.135 13.758 13.135 C 13.758 13.135 13.758 13.135 13.758 13.135 C 13.758 13.135 13.758 13.135 13.758 13.135 C 13.758 13.135 13.758 13.135 13.758 13.135 C 13.758 13.135 13.758 13.135 13.758 13.135 C 13.758 13.135 13.758 13.135 13.758 13.135 C 13.758 13.135 13.758 13.135 13.758 13.135 C 13.758 13.135 13.758 13.135 13.758 13.135 C 13.758 13.135 13.758 13.135 13.758 13.135 C 13.758 13.135 13.758 13.135 13.758 13.135 C 13.758 13.135 13.758 13.135 13.758 13.135 C 13.758 13.135 13.758 13.135 13.758 13.135 C 13.758 13.135 13.758 13.135 13.758 13.135 C 13.758 13.135 13.758 13.135 13.758 13.135 C 13.758 13.135 13.758 13.135 13.758 13.135 C 13.758 13.135 13.758 13.135 13.758 13.135 C 13.758 13.135 13.758 13.135 13.758 13.135 C 13.758 13.135 13.758 13.135 13.758 13.135 C 13.758 13.135 13.758 13.135 13.758 13.135 C 13.758 13.135 13.758 13.135 13.758 13.135 C 13.758 13.135 13.758 13.135 13.758 13.135 C 13.758 13.135 13.758 13.135 13.758 13.135 C 13.758 13.135 13.758 13.135 13.758 13.135 C 13.758 13.135 13.758 13.135 13.758 13.135 C 13.758 13.135 13.758 13.135 13.758 13.135 C 13.758 13.135 13.758 13.135 13.758 13.135 C 13.758 13.135 13.758 13.135 13.758 13.135 C 13.758 13.135 13.758 13.135 13.758 13.135 C 13.758 13.135 13.758 13.135 13.758 13.135 C 13.758 13.135 13.758 13.136 13.758 13.136 C 13.758 13.136 13.758 13.136 13.758 13.136 C 13.758 13.136 13.758 13.136 13.758 13.136 C 13.758 13.136 13.758 13.136 13.758 13.136 C 13.758 13.136 13.758 13.136 13.758 13.136 C 13.758 13.136 13.758 13.136 13.758 13.136 C 13.758 13.136 13.758 13.136 13.758 13.136 C 13.758 13.136 13.758 13.136 13.758 13.136 C 13.758 13.136 13.758 13.136 13.758 13.136 C 13.758 13.136 13.758 13.136 13.758 13.136 C 13.758 13.136 13.758 13.136 13.758 13.136 C 13.758 13.136 13.758 13.136 13.758 13.136 C 13.758 13.136 13.758 13.136 13.758 13.136 C 13.758 13.136 13.758 13.136 13.758 13.136 C 13.758 13.136 13.758 13.136 13.758 13.136 C 13.758 13.136 13.758 13.136 13.758 13.136 C 13.758 13.136 13.758 13.136 13.758 13.136 C 13.758 13.136 13.758 13.136 13.758 13.136 C 13.758 13.136 13.758 13.136 13.758 13.136 C 13.758 13.136 13.758 13.136 13.758 13.136 C 13.758 13.136 13.758 13.136 13.758 13.136 C 13.758 13.136 13.758 13.136 13.758 13.136 C 13.758 13.136 13.758 13.136 13.758 13.136 C 13.758 13.136 13.758 13.136 13.758 13.136 C 13.758 13.136 13.758 13.136 13.758 13.136 C 13.758 13.136 13.758 13.136 13.758 13.136 C 13.758 13.136 13.758 13.136 13.758 13.136 C 13.758 13.136 13.758 13.136 13.758 13.136 C 13.758 13.136 13.758 13.136 13.758 13.136 C 13.758 13.136 13.758 13.136 13.758 13.136 C 13.758 13.136 13.758 13.136 13.758 13.136 C 13.758 13.136 13.758 13.136 13.758 13.136 C 13.758 13.136 13.758 13.136 13.758 13.136 C 13.758 13.136 13.758 13.136 13.758 13.136 C 13.758 13.136 13.758 13.136 13.758 13.137 C 13.758 13.137 13.758 13.137 13.758 13.137 C 13.758 13.137 13.758 13.137 13.758 13.137 C 13.758 13.137 13.758 13.137 13.758 13.137 C 13.758 13.137 13.758 13.137 13.758 13.137 C 13.758 13.137 13.758 13.137 13.758 13.137 C 13.758 13.137 13.758 13.137 13.758 13.137 C 13.758 13.137 13.758 13.137 13.758 13.137 C 13.758 13.137 13.758 13.137 13.758 13.137 C 13.758 13.137 13.758 13.137 13.758 13.137 C 13.758 13.137 13.758 13.137 13.758 13.137 C 13.758 13.137 13.758 13.137 13.758 13.137 C 13.758 13.137 13.758 13.137 13.758 13.137 C 13.758 13.137 13.758 13.137 13.758 13.137 C 13.758 13.137 13.758 13.137 13.758 13.137 C 13.758 13.137 13.758 13.137 13.758 13.137 C 13.758 13.137 13.758 13.137 13.758 13.137 C 13.758 13.137 13.758 13.137 13.758 13.137 C 13.758 13.137 13.758 13.137 13.758 13.137 C 13.758 13.137 13.758 13.137 13.758 13.137 C 13.758 13.137 13.758 13.137 13.758 13.137 C 13.758 13.137 13.758 13.137 13.758 13.137 C 13.758 13.137 13.758 13.137 13.758 13.137 C 13.758 13.137 13.758 13.137 13.758 13.137 C 13.758 13.137 13.758 13.137 13.758 13.137 C 13.758 13.137 13.758 13.137 13.758 13.137 C 13.758 13.137 13.758 13.137 13.758 13.137 C 13.758 13.137 13.758 13.137 13.758 13.137 C 13.758 13.137 13.758 13.137 13.758 13.137 C 13.758 13.137 13.758 13.137 13.758 13.137 C 13.758 13.137 13.758 13.137 13.758 13.137 C 13.758 13.137 13.758 13.137 13.758 13.137 C 13.758 13.137 13.758 13.137 13.758 13.137 C 13.758 13.137 13.758 13.137 13.758 13.137 C 13.758 13.137 13.758 13.137 13.758 13.137 C 13.758 13.137 13.758 13.137 13.758 13.138 C 13.758 13.138 13.758 13.138 13.758 13.138 C 13.758 13.138 13.758 13.138 13.758 13.138 C 13.758 13.138 13.758 13.138 13.758 13.138 C 13.758 13.138 13.758 13.138 13.758 13.138 C 13.758 13.138 13.758 13.138 13.758 13.138 C 13.758 13.138 13.758 13.138 13.758 13.138 C 13.758 13.138 13.758 13.138 13.758 13.138 C 13.758 13.138 13.758 13.138 13.758 13.138 C 13.758 13.138 13.758 13.138 13.758 13.138 C 13.758 13.138 13.758 13.138 13.758 13.138 C 13.758 13.138 13.758 13.138 13.758 13.138 C 13.758 13.138 13.758 13.138 13.758 13.138 C 13.758 13.138 13.758 13.138 13.758 13.138 C 13.758 13.138 13.758 13.138 13.758 13.138 C 13.758 13.138 13.758 13.138 13.758 13.138 C 13.758 13.138 13.758 13.138 13.758 13.138 C 13.758 13.138 13.758 13.138 13.758 13.138 C 13.758 13.138 13.758 13.138 13.758 13.138 C 13.758 13.138 13.758 13.138 13.758 13.138 C 13.758 13.138 13.758 13.138 13.758 13.138 C 13.758 13.138 13.758 13.138 13.758 13.138 C 13.758 13.138 13.758 13.138 13.758 13.138 C 13.758 13.138 13.758 13.138 13.758 13.138 C 13.758 13.138 13.758 13.138 13.758 13.138 C 13.758 13.138 13.758 13.138 13.758 13.138 C 13.758 13.138 13.758 13.138 13.758 13.138 C 13.758 13.138 13.758 13.138 13.758 13.138 C 13.758 13.138 13.758 13.138 13.758 13.138 C 13.758 13.138 13.758 13.138 13.758 13.138 C 13.758 13.138 13.758 13.138 13.758 13.138 C 13.758 13.138 13.758 13.138 13.758 13.138 C 13.758 13.138 13.758 13.138 13.758 13.138 C 13.758 13.138 13.758 13.138 13.758 13.138 C 13.758 13.138 13.758 13.138 13.758 13.138 C 13.758 13.138 13.758 13.138 13.758 13.139 C 13.758 13.139 13.758 13.139 13.758 13.139 C 13.758 13.139 13.758 13.139 13.758 13.139 C 13.758 13.139 13.758 13.139 13.758 13.139 C 13.758 13.139 13.758 13.139 13.758 13.139 C 13.758 13.139 13.758 13.139 13.758 13.139 C 13.758 13.139 13.758 13.139 13.758 13.139 C 13.758 13.139 13.758 13.139 13.758 13.139 C 13.758 13.139 13.758 13.139 13.758 13.139 C 13.758 13.139 13.758 13.139 13.758 13.139 C 13.758 13.139 13.758 13.139 13.758 13.139 C 13.758 13.139 13.758 13.139 13.758 13.139 C 13.758 13.139 13.758 13.139 13.758 13.139 C 13.758 13.139 13.758 13.139 13.758 13.139 C 13.758 13.139 13.758 13.139 13.758 13.139 C 13.758 13.139 13.758 13.139 13.758 13.139 C 13.758 13.139 13.758 13.139 13.758 13.139 C 13.758 13.139 13.758 13.139 13.758 13.139 C 13.758 13.139 13.758 13.139 13.758 13.139 C 13.758 13.139 13.758 13.139 13.758 13.139 C 13.758 13.139 13.758 13.139 13.758 13.139 C 13.758 13.139 13.758 13.139 13.758 13.139 C 13.758 13.139 13.758 13.139 13.758 13.139 C 13.758 13.139 13.758 13.139 13.758 13.139 C 13.758 13.139 13.758 13.139 13.758 13.139 C 13.758 13.139 13.758 13.139 13.758 13.139 C 13.758 13.139 13.758 13.139 13.758 13.139 C 13.758 13.139 13.758 13.139 13.758 13.139 C 13.758 13.139 13.758 13.139 13.758 13.139 C 13.758 13.139 13.758 13.139 13.758 13.139 C 13.758 13.139 13.758 13.139 13.758 13.139 C 13.758 13.139 13.758 13.139 13.758 13.139 C 13.758 13.139 13.758 13.139 13.758 13.139 C 13.758 13.139 13.758 13.139 13.758 13.139 C 13.758 13.139 13.758 13.139 13.758 13.139 C 13.758 13.139 13.758 13.139 13.758 13.14 C 13.758 13.14 13.758 13.14 13.758 13.14 C 13.758 13.14 13.758 13.14 13.758 13.14 C 13.758 13.14 13.758 13.14 13.758 13.14 C 13.758 13.14 13.758 13.14 13.758 13.14 C 13.758 13.14 13.758 13.14 13.758 13.14 C 13.758 13.14 13.758 13.14 13.758 13.14 C 13.758 13.14 13.758 13.14 13.758 13.14 C 13.758 13.14 13.758 13.14 13.758 13.14 C 13.758 13.14 13.758 13.14 13.758 13.14 C 13.758 13.14 13.758 13.14 13.758 13.14 C 13.758 13.14 13.758 13.14 13.758 13.14 C 13.758 13.14 13.758 13.14 13.758 13.14 C 13.758 13.14 13.758 13.14 13.758 13.14 C 13.758 13.14 13.758 13.14 13.758 13.14 C 13.758 13.14 13.758 13.14 13.758 13.14 C 13.758 13.14 13.758 13.14 13.758 13.14 C 13.758 13.14 13.758 13.14 13.758 13.14 C 13.758 13.14 13.758 13.14 13.758 13.14 C 13.758 13.14 13.758 13.14 13.758 13.14 C 13.758 13.14 13.758 13.14 13.758 13.14 C 13.758 13.14 13.758 13.14 13.758 13.14 C 13.758 13.14 13.758 13.14 13.758 13.14 C 13.758 13.14 13.758 13.14 13.758 13.14 C 13.758 13.14 13.758 13.14 13.758 13.14 C 13.758 13.14 13.758 13.14 13.758 13.14 C 13.758 13.14 13.758 13.14 13.758 13.14 C 13.758 13.14 13.758 13.14 13.758 13.14 C 13.758 13.14 13.758 13.14 13.758 13.14 C 13.758 13.14 13.758 13.14 13.758 13.14 C 13.758 13.14 13.758 13.14 13.758 13.14 C 13.758 13.14 13.758 13.14 13.758 13.14 C 13.758 13.14 13.758 13.14 13.758 13.14 C 13.758 13.14 13.758 13.14 13.758 13.14 C 13.758 13.14 13.758 13.14 13.758 13.14 C 13.758 13.14 13.758 13.14 13.758 13.141 C 13.758 13.141 13.758 13.141 13.758 13.141 C 13.758 13.141 13.758 13.141 13.758 13.141 C 13.758 13.141 13.758 13.141 13.758 13.141 C 13.758 13.141 13.758 13.141 13.758 13.141 C 13.758 13.141 13.758 13.141 13.758 13.141 C 13.758 13.141 13.758 13.141 13.758 13.141 C 13.758 13.141 13.758 13.141 13.758 13.141 C 13.758 13.141 13.758 13.141 13.758 13.141 C 13.758 13.141 13.758 13.141 13.758 13.141 C 13.758 13.141 13.758 13.141 13.758 13.141 C 13.758 13.141 13.758 13.141 13.758 13.141 C 13.758 13.141 13.758 13.141 13.758 13.141 C 13.758 13.141 13.758 13.141 13.758 13.141 C 13.758 13.141 13.758 13.141 13.758 13.141 C 13.758 13.141 13.758 13.141 13.758 13.141 C 13.758 13.141 13.758 13.141 13.758 13.141 C 13.758 13.141 13.758 13.141 13.758 13.141 C 13.758 13.141 13.758 13.141 13.758 13.141 C 13.758 13.141 13.758 13.141 13.758 13.141 C 13.758 13.141 13.758 13.141 13.758 13.141 C 13.758 13.141 13.758 13.141 13.758 13.141 C 13.758 13.141 13.758 13.141 13.758 13.141 C 13.758 13.141 13.758 13.141 13.758 13.141 C 13.758 13.141 13.758 13.141 13.758 13.141 C 13.758 13.141 13.758 13.141 13.758 13.141 C 13.758 13.141 13.758 13.141 13.758 13.141 C 13.758 13.141 13.758 13.141 13.758 13.141 C 13.758 13.141 13.758 13.141 13.758 13.141 C 13.758 13.141 13.758 13.141 13.758 13.141 C 13.758 13.141 13.758 13.141 13.758 13.141 C 13.758 13.141 13.758 13.141 13.758 13.141 C 13.758 13.141 13.758 13.141 13.758 13.141 C 13.758 13.141 13.758 13.141 13.758 13.141 C 13.758 13.141 13.758 13.141 13.758 13.141 C 13.758 13.141 13.758 13.141 13.758 13.142 C 13.758 13.142 13.758 13.142 13.758 13.142 C 13.758 13.142 13.758 13.142 13.758 13.142 C 13.758 13.142 13.758 13.142 13.758 13.142 C 13.758 13.142 13.758 13.142 13.758 13.142 C 13.758 13.142 13.758 13.142 13.758 13.142 C 13.758 13.142 13.758 13.142 13.758 13.142 C 13.758 13.142 13.758 13.142 13.758 13.142 C 13.758 13.142 13.758 13.142 13.758 13.142 C 13.758 13.142 13.758 13.142 13.758 13.142 C 13.758 13.142 13.758 13.142 13.758 13.142 C 13.758 13.142 13.758 13.142 13.758 13.142 C 13.758 13.142 13.758 13.142 13.758 13.142 C 13.758 13.142 13.758 13.142 13.758 13.142 C 13.758 13.142 13.758 13.142 13.758 13.142 C 13.758 13.142 13.758 13.142 13.758 13.142 C 13.758 13.142 13.758 13.142 13.758 13.142 C 13.758 13.142 13.758 13.142 13.758 13.142 C 13.758 13.142 13.758 13.142 13.758 13.142 C 13.758 13.142 13.758 13.142 13.758 13.142 C 13.758 13.142 13.758 13.142 13.758 13.142 C 13.758 13.142 13.758 13.142 13.758 13.142 C 13.758 13.142 13.758 13.142 13.758 13.142 C 13.758 13.142 13.758 13.142 13.758 13.142 C 13.758 13.142 13.758 13.142 13.758 13.142 C 13.758 13.142 13.758 13.142 13.758 13.142 C 13.758 13.142 13.758 13.142 13.758 13.142 C 13.758 13.142 13.758 13.142 13.758 13.142 C 13.758 13.142 13.758 13.142 13.758 13.142 C 13.758 13.142 13.758 13.142 13.758 13.142 C 13.758 13.142 13.758 13.142 13.758 13.142 C 13.758 13.142 13.758 13.142 13.758 13.142 C 13.758 13.142 13.758 13.142 13.758 13.142 C 13.758 13.142 13.758 13.142 13.758 13.142 C 13.758 13.142 13.758 13.142 13.758 13.142 C 13.758 13.142 13.758 13.143 13.758 13.143 C 13.758 13.143 13.758 13.143 13.758 13.143 C 13.758 13.143 13.758 13.143 13.758 13.143 C 13.758 13.143 13.758 13.143 13.758 13.143 C 13.758 13.143 13.758 13.143 13.758 13.143 C 13.758 13.143 13.758 13.143 13.758 13.143 C 13.758 13.143 13.758 13.143 13.758 13.143 C 13.758 13.143 13.758 13.143 13.758 13.143 C 13.758 13.143 13.758 13.143 13.758 13.143 C 13.758 13.143 13.758 13.143 13.758 13.143 C 13.758 13.143 13.758 13.143 13.758 13.143 C 13.758 13.143 13.758 13.143 13.758 13.143 C 13.758 13.143 13.758 13.143 13.758 13.143 C 13.758 13.143 13.758 13.143 13.758 13.143 C 13.758 13.143 13.758 13.143 13.758 13.143 C 13.758 13.143 13.758 13.143 13.758 13.143 C 13.758 13.143 13.758 13.143 13.758 13.143 C 13.758 13.143 13.758 13.143 13.758 13.143 C 13.758 13.143 13.758 13.143 13.758 13.143 C 13.758 13.143 13.758 13.143 13.758 13.143 C 13.758 13.143 13.758 13.143 13.758 13.143 C 13.758 13.143 13.758 13.143 13.758 13.143 C 13.758 13.143 13.758 13.143 13.758 13.143 C 13.758 13.143 13.758 13.143 13.758 13.143 C 13.758 13.143 13.758 13.143 13.758 13.143 C 13.758 13.143 13.758 13.143 13.758 13.143 C 13.758 13.143 13.758 13.143 13.758 13.143 C 13.758 13.143 13.758 13.143 13.758 13.143 C 13.758 13.143 13.758 13.143 13.758 13.143 C 13.758 13.143 13.758 13.143 13.758 13.143 C 13.758 13.143 13.758 13.143 13.758 13.143 C 13.758 13.143 13.758 13.143 13.758 13.143 C 13.758 13.143 13.758 13.143 13.758 13.143 C 13.758 13.143 13.758 13.143 13.758 13.143 C 13.758 13.143 13.758 13.143 13.758 13.143 C 13.758 13.144 13.758 13.144 13.758 13.144 C 13.758 13.144 13.758 13.144 13.758 13.144 C 13.758 13.144 13.758 13.144 13.758 13.144 C 13.758 13.144 13.758 13.144 13.758 13.144 C 13.758 13.144 13.758 13.144 13.758 13.144 C 13.758 13.144 13.758 13.144 13.758 13.144 C 13.758 13.144 13.758 13.144 13.758 13.144 C 13.758 13.144 13.758 13.144 13.758 13.144 C 13.758 13.144 13.758 13.144 13.758 13.144 C 13.758 13.144 13.758 13.144 13.758 13.144 C 13.758 13.144 13.758 13.144 13.758 13.144 C 13.758 13.144 13.758 13.144 13.758 13.144 C 13.758 13.144 13.758 13.144 13.758 13.144 C 13.758 13.144 13.758 13.144 13.758 13.144 C 13.758 13.144 13.758 13.144 13.758 13.144 C 13.758 13.144 13.758 13.144 13.758 13.144 C 13.758 13.144 13.758 13.144 13.758 13.144 C 13.758 13.144 13.758 13.144 13.758 13.144 C 13.758 13.144 13.758 13.144 13.758 13.144 C 13.758 13.144 13.758 13.144 13.758 13.144 C 13.758 13.144 13.758 13.144 13.758 13.144 C 13.758 13.144 13.758 13.144 13.758 13.144 C 13.758 13.144 13.758 13.144 13.758 13.144 C 13.758 13.144 13.758 13.144 13.758 13.144 C 13.758 13.144 13.758 13.144 13.758 13.144 C 13.758 13.144 13.758 13.144 13.758 13.144 C 13.758 13.144 13.758 13.144 13.758 13.144 C 13.758 13.144 13.758 13.144 13.758 13.144 C 13.758 13.144 13.758 13.144 13.758 13.144 C 13.758 13.144 13.758 13.144 13.758 13.144 C 13.758 13.144 13.758 13.144 13.758 13.144 C 13.758 13.144 13.758 13.144 13.758 13.144 C 13.758 13.144 13.758 13.144 13.758 13.144 C 13.758 13.144 13.758 13.144 13.758 13.144 C 13.758 13.145 13.758 13.145 13.758 13.145 C 13.758 13.145 13.758 13.145 13.758 13.145 C 13.758 13.145 13.758 13.145 13.758 13.145 C 13.758 13.145 13.758 13.145 13.758 13.145 C 13.758 13.145 13.758 13.145 13.758 13.145 C 13.758 13.145 13.758 13.145 13.758 13.145 C 13.758 13.145 13.758 13.145 13.758 13.145 C 13.758 13.145 13.758 13.145 13.758 13.145 C 13.758 13.145 13.758 13.145 13.758 13.145 C 13.758 13.145 13.758 13.145 13.758 13.145 C 13.758 13.145 13.758 13.145 13.758 13.145 C 13.758 13.145 13.758 13.145 13.758 13.145 C 13.758 13.145 13.758 13.145 13.758 13.145 C 13.758 13.145 13.758 13.145 13.758 13.145 C 13.758 13.145 13.758 13.145 13.758 13.145 C 13.758 13.145 13.758 13.145 13.758 13.145 C 13.758 13.145 13.758 13.145 13.758 13.145 C 13.758 13.145 13.758 13.145 13.758 13.145 C 13.758 13.145 13.758 13.145 13.758 13.145 C 13.758 13.145 13.758 13.145 13.758 13.145 C 13.758 13.145 13.758 13.145 13.758 13.145 C 13.758 13.145 13.758 13.145 13.758 13.145 C 13.758 13.145 13.758 13.145 13.758 13.145 C 13.758 13.145 13.758 13.145 13.758 13.145 C 13.758 13.145 13.758 13.145 13.758 13.145 C 13.758 13.145 13.758 13.145 13.758 13.145 C 13.758 13.145 13.758 13.145 13.758 13.145 C 13.758 13.145 13.758 13.145 13.758 13.145 C 13.758 13.145 13.758 13.145 13.758 13.145 C 13.758 13.145 13.758 13.145 13.758 13.145 C 13.758 13.145 13.758 13.145 13.758 13.145 C 13.758 13.145 13.758 13.145 13.758 13.145 C 13.758 13.145 13.758 13.145 13.758 13.145 C 13.758 13.145 13.758 13.146 13.758 13.146 C 13.758 13.146 13.758 13.146 13.758 13.146 C 13.758 13.146 13.758 13.146 13.758 13.146 C 13.758 13.146 13.758 13.146 13.758 13.146 C 13.758 13.146 13.758 13.146 13.758 13.146 C 13.758 13.146 13.758 13.146 13.758 13.146 C 13.758 13.146 13.758 13.146 13.758 13.146 C 13.758 13.146 13.758 13.146 13.758 13.146 C 13.758 13.146 13.758 13.146 13.758 13.146 C 13.758 13.146 13.758 13.146 13.758 13.146 C 13.758 13.146 13.758 13.146 13.758 13.146 C 13.758 13.146 13.758 13.146 13.758 13.146 C 13.758 13.146 13.758 13.146 13.758 13.146 C 13.758 13.146 13.758 13.146 13.758 13.146 C 13.758 13.146 13.758 13.146 13.758 13.146 C 13.758 13.146 13.758 13.146 13.758 13.146 C 13.758 13.146 13.758 13.146 13.758 13.146 C 13.758 13.146 13.758 13.146 13.758 13.146 C 13.758 13.146 13.758 13.146 13.758 13.146 C 13.758 13.146 13.758 13.146 13.758 13.146 C 13.758 13.146 13.758 13.146 13.758 13.146 C 13.758 13.146 13.758 13.146 13.758 13.146 C 13.758 13.146 13.758 13.146 13.758 13.146 C 13.758 13.146 13.758 13.146 13.758 13.146 C 13.758 13.146 13.758 13.146 13.758 13.146 C 13.758 13.146 13.758 13.146 13.758 13.146 C 13.758 13.146 13.758 13.146 13.758 13.146 C 13.758 13.146 13.758 13.146 13.758 13.146 C 13.758 13.146 13.758 13.146 13.758 13.146 C 13.758 13.146 13.758 13.146 13.758 13.146 C 13.758 13.146 13.758 13.146 13.758 13.146 C 13.758 13.146 13.758 13.146 13.758 13.146 C 13.758 13.146 13.758 13.146 13.758 13.146 C 13.758 13.146 13.758 13.146 13.758 13.147 C 13.758 13.147 13.758 13.147 13.758 13.147 C 13.758 13.147 13.758 13.147 13.758 13.147 C 13.758 13.147 13.758 13.147 13.758 13.147 C 13.758 13.147 13.758 13.147 13.758 13.147 C 13.758 13.147 13.758 13.147 13.758 13.147 C 13.758 13.147 13.758 13.147 13.758 13.147 C 13.758 13.147 13.758 13.147 13.758 13.147 C 13.758 13.147 13.758 13.147 13.758 13.147 C 13.758 13.147 13.758 13.147 13.758 13.147 C 13.758 13.147 13.758 13.147 13.758 13.147 C 13.758 13.147 13.758 13.147 13.758 13.147 L 13.958 13.147 C 13.958 13.147 13.958 13.147 13.958 13.147 C 13.958 13.147 13.958 13.147 13.958 13.147 C 13.958 13.147 13.958 13.147 13.958 13.147 C 13.958 13.147 13.958 13.147 13.958 13.147 C 13.958 13.147 13.958 13.147 13.958 13.147 C 13.958 13.147 13.958 13.147 13.958 13.147 C 13.958 13.147 13.958 13.147 13.958 13.147 C 13.958 13.147 13.958 13.147 13.958 13.147 C 13.958 13.147 13.958 13.147 13.958 13.147 C 13.958 13.147 13.958 13.147 13.958 13.147 C 13.958 13.147 13.958 13.147 13.958 13.147 C 13.958 13.146 13.958 13.146 13.958 13.146 C 13.958 13.146 13.958 13.146 13.958 13.146 C 13.958 13.146 13.958 13.146 13.958 13.146 C 13.958 13.146 13.958 13.146 13.958 13.146 C 13.958 13.146 13.958 13.146 13.958 13.146 C 13.958 13.146 13.958 13.146 13.958 13.146 C 13.958 13.146 13.958 13.146 13.958 13.146 C 13.958 13.146 13.958 13.146 13.958 13.146 C 13.958 13.146 13.958 13.146 13.958 13.146 C 13.958 13.146 13.958 13.146 13.958 13.146 C 13.958 13.146 13.958 13.146 13.958 13.146 C 13.958 13.146 13.958 13.146 13.958 13.146 C 13.958 13.146 13.958 13.146 13.958 13.146 C 13.958 13.146 13.958 13.146 13.958 13.146 C 13.958 13.146 13.958 13.146 13.958 13.146 C 13.958 13.146 13.958 13.146 13.958 13.146 C 13.958 13.146 13.958 13.146 13.958 13.146 C 13.958 13.146 13.958 13.146 13.958 13.146 C 13.958 13.146 13.958 13.146 13.958 13.146 C 13.958 13.146 13.958 13.146 13.958 13.146 C 13.958 13.146 13.958 13.146 13.958 13.146 C 13.958 13.146 13.958 13.146 13.958 13.146 C 13.958 13.146 13.958 13.146 13.958 13.146 C 13.958 13.146 13.958 13.146 13.958 13.146 C 13.958 13.146 13.958 13.146 13.958 13.146 C 13.958 13.146 13.958 13.146 13.958 13.146 C 13.958 13.146 13.958 13.146 13.958 13.146 C 13.958 13.146 13.958 13.146 13.958 13.146 C 13.958 13.146 13.958 13.146 13.958 13.146 C 13.958 13.146 13.958 13.146 13.958 13.146 C 13.958 13.146 13.958 13.146 13.958 13.146 C 13.958 13.146 13.958 13.146 13.958 13.146 C 13.958 13.146 13.958 13.146 13.958 13.146 C 13.958 13.146 13.958 13.145 13.958 13.145 C 13.958 13.145 13.958 13.145 13.958 13.145 C 13.958 13.145 13.958 13.145 13.958 13.145 C 13.958 13.145 13.958 13.145 13.958 13.145 C 13.958 13.145 13.958 13.145 13.958 13.145 C 13.958 13.145 13.958 13.145 13.958 13.145 C 13.958 13.145 13.958 13.145 13.958 13.145 C 13.958 13.145 13.958 13.145 13.958 13.145 C 13.958 13.145 13.958 13.145 13.958 13.145 C 13.958 13.145 13.958 13.145 13.958 13.145 C 13.958 13.145 13.958 13.145 13.958 13.145 C 13.958 13.145 13.958 13.145 13.958 13.145 C 13.958 13.145 13.958 13.145 13.958 13.145 C 13.958 13.145 13.958 13.145 13.958 13.145 C 13.958 13.145 13.958 13.145 13.958 13.145 C 13.958 13.145 13.958 13.145 13.958 13.145 C 13.958 13.145 13.958 13.145 13.958 13.145 C 13.958 13.145 13.958 13.145 13.958 13.145 C 13.958 13.145 13.958 13.145 13.958 13.145 C 13.958 13.145 13.958 13.145 13.958 13.145 C 13.958 13.145 13.958 13.145 13.958 13.145 C 13.958 13.145 13.958 13.145 13.958 13.145 C 13.958 13.145 13.958 13.145 13.958 13.145 C 13.958 13.145 13.958 13.145 13.958 13.145 C 13.958 13.145 13.958 13.145 13.958 13.145 C 13.958 13.145 13.958 13.145 13.958 13.145 C 13.958 13.145 13.958 13.145 13.958 13.145 C 13.958 13.145 13.958 13.145 13.958 13.145 C 13.958 13.145 13.958 13.145 13.958 13.145 C 13.958 13.145 13.958 13.145 13.958 13.145 C 13.958 13.145 13.958 13.145 13.958 13.145 C 13.958 13.145 13.958 13.145 13.958 13.145 C 13.958 13.145 13.958 13.145 13.958 13.145 C 13.958 13.145 13.958 13.145 13.958 13.144 C 13.958 13.144 13.958 13.144 13.958 13.144 C 13.958 13.144 13.958 13.144 13.958 13.144 C 13.958 13.144 13.958 13.144 13.958 13.144 C 13.958 13.144 13.958 13.144 13.958 13.144 C 13.958 13.144 13.958 13.144 13.958 13.144 C 13.958 13.144 13.958 13.144 13.958 13.144 C 13.958 13.144 13.958 13.144 13.958 13.144 C 13.958 13.144 13.958 13.144 13.958 13.144 C 13.958 13.144 13.958 13.144 13.958 13.144 C 13.958 13.144 13.958 13.144 13.958 13.144 C 13.958 13.144 13.958 13.144 13.958 13.144 C 13.958 13.144 13.958 13.144 13.958 13.144 C 13.958 13.144 13.958 13.144 13.958 13.144 C 13.958 13.144 13.958 13.144 13.958 13.144 C 13.958 13.144 13.958 13.144 13.958 13.144 C 13.958 13.144 13.958 13.144 13.958 13.144 C 13.958 13.144 13.958 13.144 13.958 13.144 C 13.958 13.144 13.958 13.144 13.958 13.144 C 13.958 13.144 13.958 13.144 13.958 13.144 C 13.958 13.144 13.958 13.144 13.958 13.144 C 13.958 13.144 13.958 13.144 13.958 13.144 C 13.958 13.144 13.958 13.144 13.958 13.144 C 13.958 13.144 13.958 13.144 13.958 13.144 C 13.958 13.144 13.958 13.144 13.958 13.144 C 13.958 13.144 13.958 13.144 13.958 13.144 C 13.958 13.144 13.958 13.144 13.958 13.144 C 13.958 13.144 13.958 13.144 13.958 13.144 C 13.958 13.144 13.958 13.144 13.958 13.144 C 13.958 13.144 13.958 13.144 13.958 13.144 C 13.958 13.144 13.958 13.144 13.958 13.144 C 13.958 13.144 13.958 13.144 13.958 13.144 C 13.958 13.144 13.958 13.144 13.958 13.144 C 13.958 13.144 13.958 13.144 13.958 13.144 C 13.958 13.144 13.958 13.144 13.958 13.143 C 13.958 13.143 13.958 13.143 13.958 13.143 C 13.958 13.143 13.958 13.143 13.958 13.143 C 13.958 13.143 13.958 13.143 13.958 13.143 C 13.958 13.143 13.958 13.143 13.958 13.143 C 13.958 13.143 13.958 13.143 13.958 13.143 C 13.958 13.143 13.958 13.143 13.958 13.143 C 13.958 13.143 13.958 13.143 13.958 13.143 C 13.958 13.143 13.958 13.143 13.958 13.143 C 13.958 13.143 13.958 13.143 13.958 13.143 C 13.958 13.143 13.958 13.143 13.958 13.143 C 13.958 13.143 13.958 13.143 13.958 13.143 C 13.958 13.143 13.958 13.143 13.958 13.143 C 13.958 13.143 13.958 13.143 13.958 13.143 C 13.958 13.143 13.958 13.143 13.958 13.143 C 13.958 13.143 13.958 13.143 13.958 13.143 C 13.958 13.143 13.958 13.143 13.958 13.143 C 13.958 13.143 13.958 13.143 13.958 13.143 C 13.958 13.143 13.958 13.143 13.958 13.143 C 13.958 13.143 13.958 13.143 13.958 13.143 C 13.958 13.143 13.958 13.143 13.958 13.143 C 13.958 13.143 13.958 13.143 13.958 13.143 C 13.958 13.143 13.958 13.143 13.958 13.143 C 13.958 13.143 13.958 13.143 13.958 13.143 C 13.958 13.143 13.958 13.143 13.958 13.143 C 13.958 13.143 13.958 13.143 13.958 13.143 C 13.958 13.143 13.958 13.143 13.958 13.143 C 13.958 13.143 13.958 13.143 13.958 13.143 C 13.958 13.143 13.958 13.143 13.958 13.143 C 13.958 13.143 13.958 13.143 13.958 13.143 C 13.958 13.143 13.958 13.143 13.958 13.143 C 13.958 13.143 13.958 13.143 13.958 13.143 C 13.958 13.143 13.958 13.143 13.958 13.143 C 13.958 13.143 13.958 13.143 13.958 13.143 C 13.958 13.143 13.958 13.143 13.958 13.143 C 13.958 13.143 13.958 13.142 13.958 13.142 C 13.958 13.142 13.958 13.142 13.958 13.142 C 13.958 13.142 13.958 13.142 13.958 13.142 C 13.958 13.142 13.958 13.142 13.958 13.142 C 13.958 13.142 13.958 13.142 13.958 13.142 C 13.958 13.142 13.958 13.142 13.958 13.142 C 13.958 13.142 13.958 13.142 13.958 13.142 C 13.958 13.142 13.958 13.142 13.958 13.142 C 13.958 13.142 13.958 13.142 13.958 13.142 C 13.958 13.142 13.958 13.142 13.958 13.142 C 13.958 13.142 13.958 13.142 13.958 13.142 C 13.958 13.142 13.958 13.142 13.958 13.142 C 13.958 13.142 13.958 13.142 13.958 13.142 C 13.958 13.142 13.958 13.142 13.958 13.142 C 13.958 13.142 13.958 13.142 13.958 13.142 C 13.958 13.142 13.958 13.142 13.958 13.142 C 13.958 13.142 13.958 13.142 13.958 13.142 C 13.958 13.142 13.958 13.142 13.958 13.142 C 13.958 13.142 13.958 13.142 13.958 13.142 C 13.958 13.142 13.958 13.142 13.958 13.142 C 13.958 13.142 13.958 13.142 13.958 13.142 C 13.958 13.142 13.958 13.142 13.958 13.142 C 13.958 13.142 13.958 13.142 13.958 13.142 C 13.958 13.142 13.958 13.142 13.958 13.142 C 13.958 13.142 13.958 13.142 13.958 13.142 C 13.958 13.142 13.958 13.142 13.958 13.142 C 13.958 13.142 13.958 13.142 13.958 13.142 C 13.958 13.142 13.958 13.142 13.958 13.142 C 13.958 13.142 13.958 13.142 13.958 13.142 C 13.958 13.142 13.958 13.142 13.958 13.142 C 13.958 13.142 13.958 13.142 13.958 13.142 C 13.958 13.142 13.958 13.142 13.958 13.142 C 13.958 13.142 13.958 13.142 13.958 13.142 C 13.958 13.142 13.958 13.142 13.958 13.142 C 13.958 13.142 13.958 13.142 13.958 13.142 C 13.958 13.141 13.958 13.141 13.958 13.141 C 13.958 13.141 13.958 13.141 13.958 13.141 C 13.958 13.141 13.958 13.141 13.958 13.141 C 13.958 13.141 13.958 13.141 13.958 13.141 C 13.958 13.141 13.958 13.141 13.958 13.141 C 13.958 13.141 13.958 13.141 13.958 13.141 C 13.958 13.141 13.958 13.141 13.958 13.141 C 13.958 13.141 13.958 13.141 13.958 13.141 C 13.958 13.141 13.958 13.141 13.958 13.141 C 13.958 13.141 13.958 13.141 13.958 13.141 C 13.958 13.141 13.958 13.141 13.958 13.141 C 13.958 13.141 13.958 13.141 13.958 13.141 C 13.958 13.141 13.958 13.141 13.958 13.141 C 13.958 13.141 13.958 13.141 13.958 13.141 C 13.958 13.141 13.958 13.141 13.958 13.141 C 13.958 13.141 13.958 13.141 13.958 13.141 C 13.958 13.141 13.958 13.141 13.958 13.141 C 13.958 13.141 13.958 13.141 13.958 13.141 C 13.958 13.141 13.958 13.141 13.958 13.141 C 13.958 13.141 13.958 13.141 13.958 13.141 C 13.958 13.141 13.958 13.141 13.958 13.141 C 13.958 13.141 13.958 13.141 13.958 13.141 C 13.958 13.141 13.958 13.141 13.958 13.141 C 13.958 13.141 13.958 13.141 13.958 13.141 C 13.958 13.141 13.958 13.141 13.958 13.141 C 13.958 13.141 13.958 13.141 13.958 13.141 C 13.958 13.141 13.958 13.141 13.958 13.141 C 13.958 13.141 13.958 13.141 13.958 13.141 C 13.958 13.141 13.958 13.141 13.958 13.141 C 13.958 13.141 13.958 13.141 13.958 13.141 C 13.958 13.141 13.958 13.141 13.958 13.141 C 13.958 13.141 13.958 13.141 13.958 13.141 C 13.958 13.141 13.958 13.141 13.958 13.141 C 13.958 13.141 13.958 13.141 13.958 13.141 C 13.958 13.141 13.958 13.141 13.958 13.141 C 13.958 13.14 13.958 13.14 13.958 13.14 C 13.958 13.14 13.958 13.14 13.958 13.14 C 13.958 13.14 13.958 13.14 13.958 13.14 C 13.958 13.14 13.958 13.14 13.958 13.14 C 13.958 13.14 13.958 13.14 13.958 13.14 C 13.958 13.14 13.958 13.14 13.958 13.14 C 13.958 13.14 13.958 13.14 13.958 13.14 C 13.958 13.14 13.958 13.14 13.958 13.14 C 13.958 13.14 13.958 13.14 13.958 13.14 C 13.958 13.14 13.958 13.14 13.958 13.14 C 13.958 13.14 13.958 13.14 13.958 13.14 C 13.958 13.14 13.958 13.14 13.958 13.14 C 13.958 13.14 13.958 13.14 13.958 13.14 C 13.958 13.14 13.958 13.14 13.958 13.14 C 13.958 13.14 13.958 13.14 13.958 13.14 C 13.958 13.14 13.958 13.14 13.958 13.14 C 13.958 13.14 13.958 13.14 13.958 13.14 C 13.958 13.14 13.958 13.14 13.958 13.14 C 13.958 13.14 13.958 13.14 13.958 13.14 C 13.958 13.14 13.958 13.14 13.958 13.14 C 13.958 13.14 13.958 13.14 13.958 13.14 C 13.958 13.14 13.958 13.14 13.958 13.14 C 13.958 13.14 13.958 13.14 13.958 13.14 C 13.958 13.14 13.958 13.14 13.958 13.14 C 13.958 13.14 13.958 13.14 13.958 13.14 C 13.958 13.14 13.958 13.14 13.958 13.14 C 13.958 13.14 13.958 13.14 13.958 13.14 C 13.958 13.14 13.958 13.14 13.958 13.14 C 13.958 13.14 13.958 13.14 13.958 13.14 C 13.958 13.14 13.958 13.14 13.958 13.14 C 13.958 13.14 13.958 13.14 13.958 13.14 C 13.958 13.14 13.958 13.14 13.958 13.14 C 13.958 13.14 13.958 13.14 13.958 13.14 C 13.958 13.14 13.958 13.14 13.958 13.14 C 13.958 13.14 13.958 13.14 13.958 13.14 C 13.958 13.139 13.958 13.139 13.958 13.139 C 13.958 13.139 13.958 13.139 13.958 13.139 C 13.958 13.139 13.958 13.139 13.958 13.139 C 13.958 13.139 13.958 13.139 13.958 13.139 C 13.958 13.139 13.958 13.139 13.958 13.139 C 13.958 13.139 13.958 13.139 13.958 13.139 C 13.958 13.139 13.958 13.139 13.958 13.139 C 13.958 13.139 13.958 13.139 13.958 13.139 C 13.958 13.139 13.958 13.139 13.958 13.139 C 13.958 13.139 13.958 13.139 13.958 13.139 C 13.958 13.139 13.958 13.139 13.958 13.139 C 13.958 13.139 13.958 13.139 13.958 13.139 C 13.958 13.139 13.958 13.139 13.958 13.139 C 13.958 13.139 13.958 13.139 13.958 13.139 C 13.958 13.139 13.958 13.139 13.958 13.139 C 13.958 13.139 13.958 13.139 13.958 13.139 C 13.958 13.139 13.958 13.139 13.958 13.139 C 13.958 13.139 13.958 13.139 13.958 13.139 C 13.958 13.139 13.958 13.139 13.958 13.139 C 13.958 13.139 13.958 13.139 13.958 13.139 C 13.958 13.139 13.958 13.139 13.958 13.139 C 13.958 13.139 13.958 13.139 13.958 13.139 C 13.958 13.139 13.958 13.139 13.958 13.139 C 13.958 13.139 13.958 13.139 13.958 13.139 C 13.958 13.139 13.958 13.139 13.958 13.139 C 13.958 13.139 13.958 13.139 13.958 13.139 C 13.958 13.139 13.958 13.139 13.958 13.139 C 13.958 13.139 13.958 13.139 13.958 13.139 C 13.958 13.139 13.958 13.139 13.958 13.139 C 13.958 13.139 13.958 13.139 13.958 13.139 C 13.958 13.139 13.958 13.139 13.958 13.139 C 13.958 13.139 13.958 13.139 13.958 13.139 C 13.958 13.139 13.958 13.139 13.958 13.139 C 13.958 13.139 13.958 13.139 13.958 13.139 C 13.958 13.139 13.958 13.139 13.958 13.139 C 13.958 13.138 13.958 13.138 13.958 13.138 C 13.958 13.138 13.958 13.138 13.958 13.138 C 13.958 13.138 13.958 13.138 13.958 13.138 C 13.958 13.138 13.958 13.138 13.958 13.138 C 13.958 13.138 13.958 13.138 13.958 13.138 C 13.958 13.138 13.958 13.138 13.958 13.138 C 13.958 13.138 13.958 13.138 13.958 13.138 C 13.958 13.138 13.958 13.138 13.958 13.138 C 13.958 13.138 13.958 13.138 13.958 13.138 C 13.958 13.138 13.958 13.138 13.958 13.138 C 13.958 13.138 13.958 13.138 13.958 13.138 C 13.958 13.138 13.958 13.138 13.958 13.138 C 13.958 13.138 13.958 13.138 13.958 13.138 C 13.958 13.138 13.958 13.138 13.958 13.138 C 13.958 13.138 13.958 13.138 13.958 13.138 C 13.958 13.138 13.958 13.138 13.958 13.138 C 13.958 13.138 13.958 13.138 13.958 13.138 C 13.958 13.138 13.958 13.138 13.958 13.138 C 13.958 13.138 13.958 13.138 13.958 13.138 C 13.958 13.138 13.958 13.138 13.958 13.138 C 13.958 13.138 13.958 13.138 13.958 13.138 C 13.958 13.138 13.958 13.138 13.958 13.138 C 13.958 13.138 13.958 13.138 13.958 13.138 C 13.958 13.138 13.958 13.138 13.958 13.138 C 13.958 13.138 13.958 13.138 13.958 13.138 C 13.958 13.138 13.958 13.138 13.958 13.138 C 13.958 13.138 13.958 13.138 13.958 13.138 C 13.958 13.138 13.958 13.138 13.958 13.138 C 13.958 13.138 13.958 13.138 13.958 13.138 C 13.958 13.138 13.958 13.138 13.958 13.138 C 13.958 13.138 13.958 13.138 13.958 13.138 C 13.958 13.138 13.958 13.138 13.958 13.138 C 13.958 13.138 13.958 13.138 13.958 13.138 C 13.958 13.138 13.958 13.138 13.958 13.138 C 13.958 13.138 13.958 13.138 13.958 13.138 C 13.958 13.137 13.958 13.137 13.958 13.137 C 13.958 13.137 13.958 13.137 13.958 13.137 C 13.958 13.137 13.958 13.137 13.958 13.137 C 13.958 13.137 13.958 13.137 13.958 13.137 C 13.958 13.137 13.958 13.137 13.958 13.137 C 13.958 13.137 13.958 13.137 13.958 13.137 C 13.958 13.137 13.958 13.137 13.958 13.137 C 13.958 13.137 13.958 13.137 13.958 13.137 C 13.958 13.137 13.958 13.137 13.958 13.137 C 13.958 13.137 13.958 13.137 13.958 13.137 C 13.958 13.137 13.958 13.137 13.958 13.137 C 13.958 13.137 13.958 13.137 13.958 13.137 C 13.958 13.137 13.958 13.137 13.958 13.137 C 13.958 13.137 13.958 13.137 13.958 13.137 C 13.958 13.137 13.958 13.137 13.958 13.137 C 13.958 13.137 13.958 13.137 13.958 13.137 C 13.958 13.137 13.958 13.137 13.958 13.137 C 13.958 13.137 13.958 13.137 13.958 13.137 C 13.958 13.137 13.958 13.137 13.958 13.137 C 13.958 13.137 13.958 13.137 13.958 13.137 C 13.958 13.137 13.958 13.137 13.958 13.137 C 13.958 13.137 13.958 13.137 13.958 13.137 C 13.958 13.137 13.958 13.137 13.958 13.137 C 13.958 13.137 13.958 13.137 13.958 13.137 C 13.958 13.137 13.958 13.137 13.958 13.137 C 13.958 13.137 13.958 13.137 13.958 13.137 C 13.958 13.137 13.958 13.137 13.958 13.137 C 13.958 13.137 13.958 13.137 13.958 13.137 C 13.958 13.137 13.958 13.137 13.958 13.137 C 13.958 13.137 13.958 13.137 13.958 13.137 C 13.958 13.137 13.958 13.137 13.958 13.137 C 13.958 13.137 13.958 13.137 13.958 13.137 C 13.958 13.137 13.958 13.137 13.958 13.137 C 13.958 13.137 13.958 13.137 13.958 13.137 C 13.958 13.137 13.958 13.137 13.958 13.137 C 13.958 13.136 13.958 13.136 13.958 13.136 C 13.958 13.136 13.958 13.136 13.958 13.136 C 13.958 13.136 13.958 13.136 13.958 13.136 C 13.958 13.136 13.958 13.136 13.958 13.136 C 13.958 13.136 13.958 13.136 13.958 13.136 C 13.958 13.136 13.958 13.136 13.958 13.136 C 13.958 13.136 13.958 13.136 13.958 13.136 C 13.958 13.136 13.958 13.136 13.958 13.136 C 13.958 13.136 13.958 13.136 13.958 13.136 C 13.958 13.136 13.958 13.136 13.958 13.136 C 13.958 13.136 13.958 13.136 13.958 13.136 C 13.958 13.136 13.958 13.136 13.958 13.136 C 13.958 13.136 13.958 13.136 13.958 13.136 C 13.958 13.136 13.958 13.136 13.958 13.136 C 13.958 13.136 13.958 13.136 13.958 13.136 C 13.958 13.136 13.958 13.136 13.958 13.136 C 13.958 13.136 13.958 13.136 13.958 13.136 C 13.958 13.136 13.958 13.136 13.958 13.136 C 13.958 13.136 13.958 13.136 13.958 13.136 C 13.958 13.136 13.958 13.136 13.958 13.136 C 13.958 13.136 13.958 13.136 13.958 13.136 C 13.958 13.136 13.958 13.136 13.958 13.136 C 13.958 13.136 13.958 13.136 13.958 13.136 C 13.958 13.136 13.958 13.136 13.958 13.136 C 13.958 13.136 13.958 13.136 13.958 13.136 C 13.958 13.136 13.958 13.136 13.958 13.136 C 13.958 13.136 13.958 13.136 13.958 13.136 C 13.958 13.136 13.958 13.136 13.958 13.136 C 13.958 13.136 13.958 13.136 13.958 13.136 C 13.958 13.136 13.958 13.136 13.958 13.136 C 13.958 13.136 13.958 13.136 13.958 13.136 C 13.958 13.136 13.958 13.136 13.958 13.136 C 13.958 13.136 13.958 13.136 13.958 13.136 C 13.958 13.136 13.958 13.136 13.958 13.136 C 13.958 13.136 13.958 13.135 13.958 13.135 C 13.958 13.135 13.958 13.135 13.958 13.135 C 13.958 13.135 13.958 13.135 13.958 13.135 C 13.958 13.135 13.958 13.135 13.958 13.135 C 13.958 13.135 13.958 13.135 13.958 13.135 C 13.958 13.135 13.958 13.135 13.958 13.135 C 13.958 13.135 13.958 13.135 13.958 13.135 C 13.958 13.135 13.958 13.135 13.958 13.135 C 13.958 13.135 13.958 13.135 13.958 13.135 C 13.958 13.135 13.958 13.135 13.958 13.135 C 13.958 13.135 13.958 13.135 13.958 13.135 C 13.958 13.135 13.958 13.135 13.958 13.135 C 13.958 13.135 13.958 13.135 13.958 13.135 C 13.958 13.135 13.958 13.135 13.958 13.135 C 13.958 13.135 13.958 13.135 13.958 13.135 C 13.958 13.135 13.958 13.135 13.958 13.135 C 13.958 13.135 13.958 13.135 13.958 13.135 C 13.958 13.135 13.958 13.135 13.958 13.135 C 13.958 13.135 13.958 13.135 13.958 13.135 C 13.958 13.135 13.958 13.135 13.958 13.135 C 13.958 13.135 13.958 13.135 13.958 13.135 C 13.958 13.135 13.958 13.135 13.958 13.135 C 13.958 13.135 13.958 13.135 13.958 13.135 C 13.958 13.135 13.958 13.135 13.958 13.135 C 13.958 13.135 13.958 13.135 13.958 13.135 C 13.958 13.135 13.958 13.135 13.958 13.135 C 13.958 13.135 13.958 13.135 13.958 13.135 C 13.958 13.135 13.958 13.135 13.958 13.135 C 13.958 13.135 13.958 13.135 13.958 13.135 C 13.958 13.135 13.958 13.135 13.958 13.135 C 13.958 13.135 13.958 13.135 13.958 13.135 C 13.958 13.135 13.958 13.135 13.958 13.135 C 13.958 13.135 13.958 13.135 13.958 13.135 C 13.958 13.135 13.958 13.135 13.958 13.135 C 13.958 13.135 13.958 13.135 13.958 13.134 C 13.958 13.134 13.958 13.134 13.958 13.134 C 13.958 13.134 13.958 13.134 13.958 13.134 C 13.958 13.134 13.958 13.134 13.958 13.134 C 13.958 13.134 13.958 13.134 13.958 13.134 C 13.958 13.134 13.958 13.134 13.958 13.134 C 13.958 13.134 13.958 13.134 13.958 13.134 C 13.958 13.134 13.958 13.134 13.958 13.134 C 13.958 13.134 13.958 13.134 13.958 13.134 C 13.958 13.134 13.958 13.134 13.958 13.134 C 13.958 13.134 13.958 13.134 13.958 13.134 C 13.958 13.134 13.958 13.134 13.958 13.134 C 13.958 13.134 13.958 13.134 13.958 13.134 C 13.958 13.134 13.958 13.134 13.958 13.134 C 13.958 13.134 13.958 13.134 13.958 13.134 C 13.958 13.134 13.958 13.134 13.958 13.134 C 13.958 13.134 13.958 13.134 13.958 13.134 C 13.958 13.134 13.958 13.134 13.958 13.134 C 13.958 13.134 13.958 13.134 13.958 13.134 C 13.958 13.134 13.958 13.134 13.958 13.134 C 13.958 13.134 13.958 13.134 13.958 13.134 C 13.958 13.134 13.958 13.134 13.958 13.134 C 13.958 13.134 13.958 13.134 13.958 13.134 C 13.958 13.134 13.958 13.134 13.958 13.134 C 13.958 13.134 13.958 13.134 13.958 13.134 C 13.958 13.134 13.958 13.134 13.958 13.134 C 13.958 13.134 13.958 13.134 13.958 13.134 C 13.958 13.134 13.958 13.134 13.958 13.134 C 13.958 13.134 13.958 13.134 13.958 13.134 C 13.958 13.134 13.958 13.134 13.958 13.134 C 13.958 13.134 13.958 13.134 13.958 13.134 C 13.958 13.134 13.958 13.134 13.958 13.134 C 13.958 13.134 13.958 13.134 13.958 13.134 C 13.958 13.134 13.958 13.134 13.958 13.134 C 13.958 13.134 13.958 13.133 13.958 13.133 C 13.958 13.133 13.958 13.133 13.958 13.133 C 13.958 13.133 13.958 13.133 13.958 13.133 C 13.958 13.133 13.958 13.133 13.958 13.133 C 13.958 13.133 13.958 13.133 13.958 13.133 C 13.958 13.133 13.958 13.133 13.958 13.133 C 13.958 13.133 13.958 13.133 13.958 13.133 C 13.958 13.133 13.958 13.133 13.958 13.133 C 13.958 13.133 13.958 13.133 13.958 13.133 C 13.958 13.133 13.958 13.133 13.958 13.133 C 13.958 13.133 13.958 13.133 13.958 13.133 C 13.958 13.133 13.958 13.133 13.958 13.133 C 13.958 13.133 13.958 13.133 13.958 13.133 C 13.958 13.133 13.958 13.133 13.958 13.133 C 13.958 13.133 13.958 13.133 13.958 13.133 C 13.958 13.133 13.958 13.133 13.958 13.133 C 13.958 13.133 13.958 13.133 13.958 13.133 C 13.958 13.133 13.958 13.133 13.958 13.133 C 13.958 13.133 13.958 13.133 13.958 13.133 C 13.958 13.133 13.958 13.133 13.958 13.133 C 13.958 13.133 13.958 13.133 13.958 13.133 C 13.958 13.133 13.958 13.133 13.958 13.133 C 13.958 13.133 13.958 13.133 13.958 13.133 C 13.958 13.133 13.958 13.133 13.958 13.133 C 13.958 13.133 13.958 13.133 13.958 13.133 C 13.958 13.133 13.958 13.133 13.958 13.133 C 13.958 13.133 13.958 13.133 13.958 13.133 C 13.958 13.133 13.958 13.133 13.958 13.133 C 13.958 13.133 13.958 13.133 13.958 13.133 C 13.958 13.133 13.958 13.133 13.958 13.133 C 13.958 13.133 13.958 13.133 13.958 13.133 C 13.958 13.133 13.958 13.133 13.958 13.133 C 13.958 13.133 13.958 13.133 13.958 13.133 C 13.958 13.133 13.958 13.133 13.958 13.132 C 13.958 13.132 13.958 13.132 13.958 13.132 C 13.958 13.132 13.958 13.132 13.958 13.132 C 13.958 13.132 13.958 13.132 13.958 13.132 C 13.958 13.132 13.958 13.132 13.958 13.132 C 13.958 13.132 13.958 13.132 13.958 13.132 C 13.958 13.132 13.958 13.132 13.958 13.132 C 13.958 13.132 13.958 13.132 13.958 13.132 C 13.958 13.132 13.958 13.132 13.958 13.132 C 13.958 13.132 13.958 13.132 13.958 13.132 C 13.958 13.132 13.958 13.132 13.958 13.132 C 13.958 13.132 13.958 13.132 13.958 13.132 C 13.958 13.132 13.958 13.132 13.958 13.132 C 13.958 13.132 13.958 13.132 13.958 13.132 C 13.958 13.132 13.958 13.132 13.958 13.132 C 13.958 13.132 13.958 13.132 13.958 13.132 C 13.958 13.132 13.958 13.132 13.958 13.132 C 13.958 13.132 13.958 13.132 13.958 13.132 C 13.958 13.132 13.958 13.132 13.958 13.132 C 13.958 13.132 13.958 13.132 13.958 13.132 C 13.958 13.132 13.958 13.132 13.958 13.132 L 13.758 13.132 Z M 13.858 13.247 L 13.859 13.247 L 13.859 13.047 L 13.858 13.047 L 13.858 13.247 Z M 6.613 8.297 C 7.936 8.327 9.667 8.359 11.352 8.156 C 13.034 7.953 14.685 7.514 15.836 6.594 L 15.711 6.438 C 14.604 7.323 12.999 7.755 11.328 7.957 C 9.659 8.158 7.941 8.127 6.618 8.097 L 6.613 8.297 Z M 15.704 6.588 C 16.054 6.924 16.544 7.346 17.109 7.691 C 17.672 8.036 18.316 8.308 18.972 8.336 L 18.981 8.136 C 18.372 8.111 17.762 7.856 17.213 7.52 C 16.665 7.185 16.186 6.774 15.842 6.444 L 15.704 6.588 Z M 18.877 8.236 L 18.877 10.236 L 19.077 10.236 L 19.077 8.236 L 18.877 8.236 Z M 18.877 10.236 C 18.877 11.059 18.712 11.864 18.387 12.632 L 18.571 12.71 C 18.906 11.918 19.077 11.086 19.077 10.236 L 18.877 10.236 Z M 18.466 12.572 C 17.622 12.684 16.462 12.61 15.599 12.553 L 15.586 12.753 C 16.443 12.809 17.625 12.885 18.492 12.77 L 18.466 12.572 Z M 15.599 12.553 L 15.486 12.546 L 15.473 12.745 L 15.586 12.753 L 15.599 12.553 Z M 15.487 12.546 C 15.256 12.527 15.027 12.513 14.817 12.504 L 14.808 12.704 C 15.016 12.712 15.243 12.727 15.471 12.745 L 15.487 12.546 Z M 14.9 12.555 C 14.6 12.017 13.91 11.692 13.124 11.692 L 13.124 11.892 C 13.864 11.892 14.472 12.198 14.725 12.652 L 14.9 12.555 Z M 13.124 11.692 C 12.592 11.692 12.112 11.845 11.763 12.101 C 11.413 12.358 11.191 12.723 11.191 13.139 L 11.391 13.139 C 11.391 12.8 11.571 12.49 11.881 12.263 C 12.192 12.035 12.629 11.892 13.124 11.892 L 13.124 11.692 Z M 11.191 13.139 C 11.191 13.555 11.413 13.919 11.763 14.176 C 12.112 14.432 12.592 14.585 13.124 14.585 L 13.124 14.385 C 12.629 14.385 12.192 14.243 11.881 14.015 C 11.571 13.787 11.391 13.478 11.391 13.139 L 11.191 13.139 Z M 13.124 14.585 C 13.894 14.585 14.577 14.269 14.887 13.741 L 14.715 13.639 C 14.452 14.088 13.848 14.385 13.124 14.385 L 13.124 14.585 Z M 14.796 13.79 C 14.876 13.794 14.962 13.8 15.054 13.807 L 15.068 13.608 C 14.977 13.601 14.889 13.595 14.807 13.59 L 14.796 13.79 Z M 15.054 13.807 C 15.16 13.814 15.274 13.823 15.393 13.829 L 15.403 13.629 C 15.286 13.623 15.175 13.615 15.068 13.608 L 15.054 13.807 Z M 15.391 13.829 L 15.611 13.843 L 15.624 13.643 L 15.404 13.629 L 15.391 13.829 Z M 15.611 13.843 C 16.293 13.888 17.098 13.939 17.842 13.91 L 17.834 13.71 C 17.102 13.739 16.308 13.688 15.624 13.643 L 15.611 13.843 Z M 17.757 13.752 C 17.23 14.49 16.548 15.105 15.773 15.541 L 15.871 15.715 C 16.672 15.264 17.376 14.629 17.92 13.868 L 17.757 13.752 Z M 15.793 15.532 C 15.771 15.539 15.752 15.546 15.733 15.555 L 15.815 15.737 C 15.826 15.732 15.838 15.728 15.851 15.724 L 15.793 15.532 Z M 15.744 15.551 C 15.678 15.571 15.631 15.604 15.597 15.631 L 15.719 15.789 C 15.745 15.769 15.77 15.752 15.804 15.741 L 15.744 15.551 Z M 15.6 15.628 C 15.584 15.639 15.57 15.651 15.558 15.66 L 15.684 15.816 C 15.697 15.806 15.706 15.798 15.716 15.791 L 15.6 15.628 Z M 15.575 15.65 C 15.351 15.768 15.11 15.873 14.861 15.963 L 14.929 16.151 C 15.186 16.058 15.435 15.949 15.668 15.826 L 15.575 15.65 Z M 14.89 15.957 C 14.833 15.96 14.788 15.971 14.757 15.978 L 14.805 16.173 C 14.835 16.165 14.864 16.158 14.9 16.157 L 14.89 15.957 Z M 14.741 15.984 L 14.717 15.994 L 14.797 16.178 L 14.821 16.167 L 14.741 15.984 Z M 14.757 15.986 L 14.727 15.986 L 14.727 16.186 L 14.757 16.186 L 14.757 15.986 Z M 14.687 15.994 L 14.66 16.006 L 14.739 16.19 L 14.767 16.178 L 14.687 15.994 Z M 14.661 16.006 C 14.623 16.021 14.588 16.041 14.554 16.064 L 14.666 16.23 C 14.691 16.213 14.715 16.2 14.738 16.19 L 14.661 16.006 Z M 14.58 16.052 C 13.428 16.41 12.193 16.414 11.013 16.051 L 10.954 16.242 C 12.172 16.617 13.448 16.612 14.639 16.243 L 14.58 16.052 Z M 11.041 16.064 C 11.005 16.04 10.97 16.021 10.933 16.006 L 10.856 16.19 C 10.881 16.2 10.903 16.213 10.927 16.229 L 11.041 16.064 Z M 10.928 16.004 L 10.918 16 L 10.85 16.188 L 10.861 16.192 L 10.928 16.004 Z M 10.918 16 C 10.907 15.996 10.906 15.996 10.903 15.995 L 10.822 16.177 C 10.833 16.182 10.845 16.186 10.85 16.188 L 10.918 16 Z M 10.898 15.992 C 10.892 15.99 10.872 15.982 10.854 15.976 L 10.794 16.167 C 10.805 16.171 10.809 16.173 10.827 16.18 L 10.898 15.992 Z M 10.855 15.977 L 10.832 15.969 L 10.77 16.159 L 10.794 16.167 L 10.855 15.977 Z M 10.801 15.964 L 10.785 15.964 L 10.785 16.164 L 10.801 16.164 L 10.801 15.964 Z M 10.803 15.966 C 10.772 15.96 10.744 15.958 10.72 15.958 L 10.713 16.157 C 10.732 16.158 10.75 16.159 10.767 16.163 L 10.803 15.966 Z M 10.751 15.964 C 10.495 15.87 10.253 15.765 10.032 15.649 L 9.94 15.827 C 10.169 15.946 10.419 16.055 10.682 16.151 L 10.751 15.964 Z M 10.057 15.667 C 10.036 15.646 10.016 15.629 9.995 15.613 L 9.871 15.769 C 9.886 15.781 9.901 15.794 9.916 15.809 L 10.057 15.667 Z M 9.992 15.61 L 9.984 15.604 L 9.866 15.766 L 9.874 15.772 L 9.992 15.61 Z M 9.98 15.601 C 9.943 15.577 9.903 15.558 9.87 15.541 L 9.782 15.721 C 9.816 15.738 9.845 15.752 9.87 15.768 L 9.98 15.601 Z M 9.865 15.539 L 9.846 15.531 L 9.768 15.715 L 9.787 15.723 L 9.865 15.539 Z M 9.837 15.528 C 9.819 15.522 9.79 15.512 9.76 15.504 L 9.711 15.698 C 9.733 15.704 9.753 15.711 9.776 15.718 L 9.837 15.528 Z M 9.785 15.514 C 7.892 14.429 6.716 12.408 6.716 10.235 L 6.516 10.235 C 6.516 12.48 7.73 14.567 9.686 15.688 L 9.785 15.514 Z M 6.716 10.235 L 6.716 8.196 L 6.516 8.196 L 6.516 10.235 L 6.716 10.235 Z M 6.527 8.151 L 6.526 8.152 L 6.705 8.242 L 6.706 8.24 L 6.527 8.151 Z M 17.764 15.683 C 18.883 14.666 19.66 13.332 19.997 11.876 L 19.802 11.831 C 19.475 13.247 18.718 14.546 17.63 15.535 L 17.764 15.683 Z M 19.8 11.863 L 20.142 15.618 L 20.341 15.6 L 19.999 11.845 L 19.8 11.863 Z M 20.242 15.509 L 17.697 15.509 L 17.697 15.709 L 20.242 15.709 L 20.242 15.509 Z M 20.184 9.734 L 20.184 8.194 L 19.984 8.194 L 19.984 9.734 L 20.184 9.734 Z M 20.079 8.294 C 20.434 8.311 20.717 8.605 20.717 8.964 L 20.917 8.964 C 20.917 8.498 20.55 8.116 20.089 8.094 L 20.079 8.294 Z M 20.717 8.964 C 20.717 9.323 20.434 9.617 20.079 9.634 L 20.089 9.834 C 20.55 9.812 20.917 9.43 20.917 8.964 L 20.717 8.964 Z M 5.526 9.634 C 5.506 9.634 5.484 9.631 5.454 9.627 L 5.429 9.826 C 5.459 9.83 5.49 9.833 5.52 9.834 L 5.526 9.634 Z M 5.474 9.632 C 5.424 9.615 5.372 9.603 5.322 9.599 L 5.304 9.798 C 5.336 9.801 5.372 9.809 5.409 9.821 L 5.474 9.632 Z M 5.343 9.603 C 5.066 9.516 4.874 9.254 4.874 8.963 L 4.674 8.963 C 4.674 9.342 4.923 9.68 5.283 9.794 L 5.343 9.603 Z M 4.874 8.963 C 4.874 8.6 5.164 8.303 5.525 8.293 L 5.519 8.093 C 5.051 8.106 4.674 8.492 4.674 8.963 L 4.874 8.963 Z M 5.422 8.193 L 5.422 9.733 L 5.622 9.733 L 5.622 8.193 L 5.422 8.193 Z M 5.451 9.804 L 5.452 9.805 L 5.594 9.663 L 5.593 9.663 L 5.451 9.804 Z M 7.909 15.486 L 5.313 15.486 L 5.313 15.686 L 7.909 15.686 L 7.909 15.486 Z M 5.412 15.595 L 5.774 11.638 L 5.575 11.62 L 5.213 15.577 L 5.412 15.595 Z M 5.577 11.649 C 5.88 13.184 6.674 14.597 7.842 15.66 L 7.976 15.512 C 6.841 14.478 6.068 13.103 5.773 11.61 L 5.577 11.649 Z M 14.267 17.326 L 14.267 19.029 L 14.467 19.029 L 14.467 17.326 L 14.267 17.326 Z M 14.278 18.983 L 12.658 22.126 L 12.836 22.218 L 14.456 19.075 L 14.278 18.983 Z M 12.837 22.129 L 11.301 18.959 L 11.121 19.046 L 12.657 22.216 L 12.837 22.129 Z M 11.301 18.958 L 11.299 18.955 L 11.12 19.044 L 11.122 19.047 L 11.301 18.958 Z M 11.31 19 L 11.31 17.316 L 11.11 17.316 L 11.11 19 L 11.31 19 Z M 11.188 17.414 C 11.728 17.534 12.273 17.594 12.811 17.594 L 12.811 17.394 C 12.288 17.394 11.757 17.335 11.231 17.218 L 11.188 17.414 Z M 12.811 17.594 C 13.349 17.594 13.863 17.537 14.388 17.424 L 14.346 17.228 C 13.834 17.339 13.334 17.394 12.811 17.394 L 12.811 17.594 Z" fill="currentColor" fill-rule="nonzero"></path>
</svg>