<svg xmlns="http://www.w3.org/2000/svg" width="48" height="48" viewBox="0 0 48 48" fill="none"><rect width="48" height="48" rx="24" fill="#E8ECFD"></rect><mask id="path-2-outside-1_3878_2408" maskUnits="userSpaceOnUse" x="13.5651" y="2.84094" width="21" height="21" fill="black"><rect fill="white" x="13.5651" y="2.84094" width="21" height="21"></rect><path d="M15.3209 17.6416C15.1381 17.8634 15.2061 18.1189 15.2288 18.384L15.3622 19.9065C15.4276 20.6529 15.3529 21.7184 15.8332 22.3404C16.4429 23.1301 17.3515 22.9448 18.204 22.8677C19.0566 22.7907 19.8277 22.7217 20.6402 22.6487C20.8777 22.6271 21.0805 22.4621 21.0805 22.2025C20.9724 22.3458 20.8644 22.4891 20.7576 22.6325C21.5781 22.4634 21.9677 21.4331 21.5942 20.6948C21.2753 20.0633 20.7376 19.7713 20.8644 18.9505C20.9658 18.292 21.4861 17.762 22.1278 17.6403C22.7696 17.5186 23.3593 17.7701 23.7208 18.2907C23.9116 18.5665 24.0157 18.9018 24.005 19.2399C23.9903 19.7104 23.7422 19.9592 23.5634 20.3635C23.1818 21.2249 23.7995 22.243 24.7081 22.2836L24.2678 21.8374C24.2798 22.0619 24.4613 22.3066 24.7081 22.2836C25.4072 22.2201 26.1077 22.1579 26.8068 22.0943C27.5566 22.0267 28.3624 22.0321 28.8347 21.3209C29.2523 20.6921 29.0762 19.9268 29.0148 19.2223C28.9534 18.5178 28.8894 17.7944 28.8267 17.0805L28.5038 17.5105C28.6973 17.4523 28.8187 17.2806 28.8267 17.0805C28.8507 16.5355 29.5098 16.8006 29.7259 16.902C29.9861 17.025 30.2262 17.1521 30.5131 17.2089C31.0414 17.3144 31.5978 17.2454 32.0807 17.002C33.0467 16.5139 33.5803 15.42 33.4002 14.3464C33.2201 13.2728 32.4049 12.4858 31.3803 12.3154C30.868 12.2302 30.3303 12.3127 29.8687 12.5561C29.5431 12.7278 28.6132 13.6568 28.4505 12.8428C28.4051 12.6156 28.1236 12.4588 27.9088 12.5318C28.0942 12.6751 28.2797 12.8184 28.4665 12.9618C28.4038 12.2478 28.3411 11.5339 28.2783 10.8199C28.2116 10.06 28.261 9.17839 27.6433 8.62941C27.0256 8.08043 26.2317 8.25215 25.4846 8.31976C24.7375 8.38737 24.0344 8.45092 23.3086 8.51583C22.7535 8.56586 22.7322 9.40826 23.3086 9.40826C23.8769 9.40826 23.8729 8.54152 23.3086 8.51583C22.5441 8.48067 23.2645 7.39217 23.3553 7.11768C23.51 6.65389 23.5274 6.13331 23.398 5.66005C23.1698 4.82982 22.5014 4.14967 21.6782 3.92521C19.8317 3.42491 18.092 5.23817 18.6923 7.09199C18.8324 7.52604 19.1393 7.76402 19.3487 8.13452C19.4555 8.32517 19.4968 8.67809 19.302 8.84981C19.2607 8.88632 19.0739 8.92013 19.0205 8.94176C18.7244 9.05534 19.3541 9.031 19.2247 8.88226C19.1153 8.75651 17.8852 9.00261 17.7171 9.01883C16.6164 9.11754 15.0047 8.97962 14.6298 10.3426C14.4804 10.8848 14.6298 11.5433 14.6791 12.0923C14.7298 12.6737 14.7819 13.2552 14.8326 13.8366C14.8633 14.1801 15.3169 14.4775 15.5837 14.1517C15.3329 14.0462 15.0821 13.9407 14.8326 13.8366C14.9527 15.2104 15.0741 16.5842 15.1941 17.958C15.2435 18.5259 16.1254 18.5313 16.0747 17.958C15.9546 16.5842 15.8332 15.2104 15.7131 13.8366C15.6824 13.4932 15.2288 13.1957 14.962 13.5216C15.2128 13.627 15.4636 13.7325 15.7131 13.8366C15.6304 12.8887 15.4877 11.9273 15.4623 10.9768C15.4463 10.3629 15.7758 10.087 16.3349 10.037L18.0453 9.88287C18.4348 9.84771 18.8604 9.85853 19.242 9.7747C19.3274 9.75577 19.5889 9.66517 19.5302 9.68681C19.4114 9.73007 19.6503 9.66517 19.6796 9.653C19.7503 9.62461 19.805 9.57998 19.8637 9.53266C20.1386 9.31631 20.248 9.01883 20.296 8.67944C20.344 8.34004 20.3334 8.02769 20.1572 7.73698C19.8757 7.27454 19.5062 7.04332 19.4581 6.44836C19.3674 5.32877 20.4748 4.45797 21.5274 4.81359C22.0504 4.99072 22.4547 5.43829 22.5694 5.98727C22.7295 6.74854 22.1985 7.10552 22.0731 7.77213C21.921 8.58884 22.5014 9.37175 23.3086 9.40826C23.8836 9.35688 24.4573 9.30414 25.0323 9.25276C25.538 9.20679 26.5386 8.92959 26.9962 9.25276C27.4818 9.59486 27.3791 10.6266 27.4258 11.1485C27.4792 11.7529 27.5325 12.3573 27.5846 12.9618C27.6086 13.2322 27.8487 13.4905 28.1423 13.3917C27.9621 13.2876 27.7807 13.1835 27.6006 13.0794C27.7674 13.911 28.784 14.3058 29.5125 13.9272C30.1355 13.604 30.4237 13.0591 31.2335 13.1876C31.8833 13.2903 32.4063 13.8177 32.5263 14.4681C32.6464 15.1185 32.3983 15.7161 31.8846 16.0826C31.6124 16.2759 31.2816 16.3814 30.948 16.3706C30.4837 16.3557 30.2382 16.1042 29.8393 15.923C28.9895 15.5363 27.9848 16.1623 27.9448 17.0832L28.2677 16.6532C28.0956 16.7046 27.9275 16.8885 27.9448 17.0832C27.9942 17.643 28.0435 18.2028 28.0929 18.7639C28.1396 19.2953 28.3077 19.9484 28.2317 20.4825C28.1169 21.2871 27.0856 21.1789 26.4946 21.2316C25.9035 21.2844 25.3031 21.3384 24.7081 21.3925L25.1484 21.8387C25.135 21.5899 24.9563 21.4033 24.7081 21.3925C24.1704 21.3682 24.4319 20.7002 24.532 20.4812C24.6534 20.2175 24.7788 19.9741 24.8349 19.6834C24.9389 19.1479 24.8709 18.5841 24.6307 18.0946C24.1491 17.1156 23.0697 16.5748 22.0104 16.7573C20.9511 16.9398 20.1746 17.766 20.0065 18.8045C19.9224 19.3237 20.0038 19.8686 20.244 20.3365C20.4134 20.6664 21.33 21.6089 20.5268 21.7738C20.3387 21.8117 20.2039 22.0186 20.2039 22.2038C20.3507 22.0551 20.4975 21.9064 20.6442 21.7576C20.0025 21.8158 19.3621 21.8739 18.7203 21.9307C18.2054 21.9767 17.1567 22.2674 16.6884 21.9375C16.1841 21.5818 16.2948 20.4474 16.2468 19.9065L16.1347 18.6341C16.1214 18.4773 16.1267 18.3001 16.092 18.1473C16.032 17.885 16.2161 17.9445 15.9466 18.2731C16.3068 17.835 15.6878 17.2008 15.3236 17.6416H15.3209Z"></path></mask><path d="M15.3209 17.6416C15.1381 17.8634 15.2061 18.1189 15.2288 18.384L15.3622 19.9065C15.4276 20.6529 15.3529 21.7184 15.8332 22.3404C16.4429 23.1301 17.3515 22.9448 18.204 22.8677C19.0566 22.7907 19.8277 22.7217 20.6402 22.6487C20.8777 22.6271 21.0805 22.4621 21.0805 22.2025C20.9724 22.3458 20.8644 22.4891 20.7576 22.6325C21.5781 22.4634 21.9677 21.4331 21.5942 20.6948C21.2753 20.0633 20.7376 19.7713 20.8644 18.9505C20.9658 18.292 21.4861 17.762 22.1278 17.6403C22.7696 17.5186 23.3593 17.7701 23.7208 18.2907C23.9116 18.5665 24.0157 18.9018 24.005 19.2399C23.9903 19.7104 23.7422 19.9592 23.5634 20.3635C23.1818 21.2249 23.7995 22.243 24.7081 22.2836L24.2678 21.8374C24.2798 22.0619 24.4613 22.3066 24.7081 22.2836C25.4072 22.2201 26.1077 22.1579 26.8068 22.0943C27.5566 22.0267 28.3624 22.0321 28.8347 21.3209C29.2523 20.6921 29.0762 19.9268 29.0148 19.2223C28.9534 18.5178 28.8894 17.7944 28.8267 17.0805L28.5038 17.5105C28.6973 17.4523 28.8187 17.2806 28.8267 17.0805C28.8507 16.5355 29.5098 16.8006 29.7259 16.902C29.9861 17.025 30.2262 17.1521 30.5131 17.2089C31.0414 17.3144 31.5978 17.2454 32.0807 17.002C33.0467 16.5139 33.5803 15.42 33.4002 14.3464C33.2201 13.2728 32.4049 12.4858 31.3803 12.3154C30.868 12.2302 30.3303 12.3127 29.8687 12.5561C29.5431 12.7278 28.6132 13.6568 28.4505 12.8428C28.4051 12.6156 28.1236 12.4588 27.9088 12.5318C28.0942 12.6751 28.2797 12.8184 28.4665 12.9618C28.4038 12.2478 28.3411 11.5339 28.2783 10.8199C28.2116 10.06 28.261 9.17839 27.6433 8.62941C27.0256 8.08043 26.2317 8.25215 25.4846 8.31976C24.7375 8.38737 24.0344 8.45092 23.3086 8.51583C22.7535 8.56586 22.7322 9.40826 23.3086 9.40826C23.8769 9.40826 23.8729 8.54152 23.3086 8.51583C22.5441 8.48067 23.2645 7.39217 23.3553 7.11768C23.51 6.65389 23.5274 6.13331 23.398 5.66005C23.1698 4.82982 22.5014 4.14967 21.6782 3.92521C19.8317 3.42491 18.092 5.23817 18.6923 7.09199C18.8324 7.52604 19.1393 7.76402 19.3487 8.13452C19.4555 8.32517 19.4968 8.67809 19.302 8.84981C19.2607 8.88632 19.0739 8.92013 19.0205 8.94176C18.7244 9.05534 19.3541 9.031 19.2247 8.88226C19.1153 8.75651 17.8852 9.00261 17.7171 9.01883C16.6164 9.11754 15.0047 8.97962 14.6298 10.3426C14.4804 10.8848 14.6298 11.5433 14.6791 12.0923C14.7298 12.6737 14.7819 13.2552 14.8326 13.8366C14.8633 14.1801 15.3169 14.4775 15.5837 14.1517C15.3329 14.0462 15.0821 13.9407 14.8326 13.8366C14.9527 15.2104 15.0741 16.5842 15.1941 17.958C15.2435 18.5259 16.1254 18.5313 16.0747 17.958C15.9546 16.5842 15.8332 15.2104 15.7131 13.8366C15.6824 13.4932 15.2288 13.1957 14.962 13.5216C15.2128 13.627 15.4636 13.7325 15.7131 13.8366C15.6304 12.8887 15.4877 11.9273 15.4623 10.9768C15.4463 10.3629 15.7758 10.087 16.3349 10.037L18.0453 9.88287C18.4348 9.84771 18.8604 9.85853 19.242 9.7747C19.3274 9.75577 19.5889 9.66517 19.5302 9.68681C19.4114 9.73007 19.6503 9.66517 19.6796 9.653C19.7503 9.62461 19.805 9.57998 19.8637 9.53266C20.1386 9.31631 20.248 9.01883 20.296 8.67944C20.344 8.34004 20.3334 8.02769 20.1572 7.73698C19.8757 7.27454 19.5062 7.04332 19.4581 6.44836C19.3674 5.32877 20.4748 4.45797 21.5274 4.81359C22.0504 4.99072 22.4547 5.43829 22.5694 5.98727C22.7295 6.74854 22.1985 7.10552 22.0731 7.77213C21.921 8.58884 22.5014 9.37175 23.3086 9.40826C23.8836 9.35688 24.4573 9.30414 25.0323 9.25276C25.538 9.20679 26.5386 8.92959 26.9962 9.25276C27.4818 9.59486 27.3791 10.6266 27.4258 11.1485C27.4792 11.7529 27.5325 12.3573 27.5846 12.9618C27.6086 13.2322 27.8487 13.4905 28.1423 13.3917C27.9621 13.2876 27.7807 13.1835 27.6006 13.0794C27.7674 13.911 28.784 14.3058 29.5125 13.9272C30.1355 13.604 30.4237 13.0591 31.2335 13.1876C31.8833 13.2903 32.4063 13.8177 32.5263 14.4681C32.6464 15.1185 32.3983 15.7161 31.8846 16.0826C31.6124 16.2759 31.2816 16.3814 30.948 16.3706C30.4837 16.3557 30.2382 16.1042 29.8393 15.923C28.9895 15.5363 27.9848 16.1623 27.9448 17.0832L28.2677 16.6532C28.0956 16.7046 27.9275 16.8885 27.9448 17.0832C27.9942 17.643 28.0435 18.2028 28.0929 18.7639C28.1396 19.2953 28.3077 19.9484 28.2317 20.4825C28.1169 21.2871 27.0856 21.1789 26.4946 21.2316C25.9035 21.2844 25.3031 21.3384 24.7081 21.3925L25.1484 21.8387C25.135 21.5899 24.9563 21.4033 24.7081 21.3925C24.1704 21.3682 24.4319 20.7002 24.532 20.4812C24.6534 20.2175 24.7788 19.9741 24.8349 19.6834C24.9389 19.1479 24.8709 18.5841 24.6307 18.0946C24.1491 17.1156 23.0697 16.5748 22.0104 16.7573C20.9511 16.9398 20.1746 17.766 20.0065 18.8045C19.9224 19.3237 20.0038 19.8686 20.244 20.3365C20.4134 20.6664 21.33 21.6089 20.5268 21.7738C20.3387 21.8117 20.2039 22.0186 20.2039 22.2038C20.3507 22.0551 20.4975 21.9064 20.6442 21.7576C20.0025 21.8158 19.3621 21.8739 18.7203 21.9307C18.2054 21.9767 17.1567 22.2674 16.6884 21.9375C16.1841 21.5818 16.2948 20.4474 16.2468 19.9065L16.1347 18.6341C16.1214 18.4773 16.1267 18.3001 16.092 18.1473C16.032 17.885 16.2161 17.9445 15.9466 18.2731C16.3068 17.835 15.6878 17.2008 15.3236 17.6416H15.3209Z" fill="#4A4F68"></path><path d="M23.3086 9.40826H23.4586V8.51583H23.3086H23.1586V9.40826H23.3086ZM15.3209 17.6416V17.3416C15.2313 17.3416 15.1464 17.3817 15.0894 17.4508L15.3209 17.6416ZM15.2288 18.384L14.9299 18.4095L14.93 18.4101L15.2288 18.384ZM15.3622 19.9065L15.6611 19.8803L15.6611 19.8803L15.3622 19.9065ZM15.8332 22.3404L16.0707 22.1571L16.0707 22.157L15.8332 22.3404ZM20.6402 22.6487L20.6671 22.9475L20.6674 22.9475L20.6402 22.6487ZM21.0805 22.2025H21.3805C21.3805 22.0735 21.298 21.9589 21.1757 21.918C21.0534 21.877 20.9186 21.9189 20.841 22.0219L21.0805 22.2025ZM20.7576 22.6325L20.517 22.4533C20.4427 22.5531 20.4377 22.6886 20.5046 22.7936C20.5714 22.8986 20.6962 22.9514 20.8182 22.9263L20.7576 22.6325ZM21.5942 20.6948L21.3264 20.83L21.3265 20.8303L21.5942 20.6948ZM20.8644 18.9505L21.1608 18.9963L21.1609 18.9962L20.8644 18.9505ZM23.7208 18.2907L23.9676 18.12L23.9672 18.1195L23.7208 18.2907ZM24.005 19.2399L23.7051 19.2304L23.7051 19.2305L24.005 19.2399ZM23.5634 20.3635L23.8377 20.485L23.8378 20.4849L23.5634 20.3635ZM24.2678 21.8374L24.4814 21.6267C24.3938 21.538 24.2606 21.5126 24.1466 21.563C24.0326 21.6134 23.9616 21.729 23.9683 21.8534L24.2678 21.8374ZM26.8068 22.0943L26.7798 21.7955L26.7796 21.7955L26.8068 22.0943ZM28.8347 21.3209L28.5848 21.1549L28.5848 21.1549L28.8347 21.3209ZM28.5038 17.5105L28.2639 17.3303C28.1861 17.434 28.1836 17.5759 28.2578 17.6822C28.332 17.7884 28.466 17.8351 28.5902 17.7978L28.5038 17.5105ZM29.7259 16.902L29.8542 16.6308L29.8534 16.6304L29.7259 16.902ZM30.5131 17.2089L30.5718 16.9147L30.5713 16.9146L30.5131 17.2089ZM32.0807 17.002L32.2157 17.2699L32.216 17.2698L32.0807 17.002ZM29.8687 12.5561L29.7288 12.2907L29.7287 12.2908L29.8687 12.5561ZM28.4505 12.8428L28.1563 12.9015L28.1563 12.9016L28.4505 12.8428ZM27.9088 12.5318L27.8122 12.2477C27.7076 12.2833 27.631 12.3735 27.6129 12.4824C27.5947 12.5914 27.6379 12.7016 27.7253 12.7691L27.9088 12.5318ZM28.4665 12.9618L28.2838 13.1998C28.3782 13.2722 28.5065 13.282 28.6108 13.2248C28.7151 13.1675 28.7757 13.054 28.7653 12.9355L28.4665 12.9618ZM28.2783 10.8199L27.9795 10.8462L27.9795 10.8462L28.2783 10.8199ZM23.3553 7.11768L23.0707 7.02272L23.0704 7.02354L23.3553 7.11768ZM23.398 5.66005L23.6873 5.58092L23.6872 5.58056L23.398 5.66005ZM21.6782 3.92521L21.7571 3.63578L21.7567 3.63565L21.6782 3.92521ZM18.6923 7.09199L18.9778 6.99985L18.9777 6.99956L18.6923 7.09199ZM19.3487 8.13452L19.6105 7.98797L19.6099 7.98687L19.3487 8.13452ZM19.302 8.84981L19.1037 8.62478L19.1035 8.6249L19.302 8.84981ZM19.0205 8.94176L19.128 9.22192L19.1332 9.21978L19.0205 8.94176ZM19.2247 8.88226L18.9983 9.07917L18.9983 9.07918L19.2247 8.88226ZM17.7171 9.01883L17.7438 9.31764L17.7459 9.31745L17.7171 9.01883ZM14.6298 10.3426L14.919 10.4223L14.919 10.4222L14.6298 10.3426ZM14.6791 12.0923L14.978 12.0663L14.9779 12.0654L14.6791 12.0923ZM14.8326 13.8366L14.5337 13.8627L14.5337 13.8627L14.8326 13.8366ZM15.5837 14.1517L15.8158 14.3417C15.8758 14.2685 15.8977 14.1713 15.8749 14.0794C15.8521 13.9875 15.7873 13.9118 15.7 13.8751L15.5837 14.1517ZM15.1941 17.958L15.493 17.932L15.493 17.9319L15.1941 17.958ZM16.0747 17.958L15.7758 17.9841L15.7759 17.9844L16.0747 17.958ZM14.962 13.5216L14.7299 13.3315C14.6699 13.4047 14.648 13.502 14.6708 13.5938C14.6936 13.6857 14.7585 13.7614 14.8457 13.7981L14.962 13.5216ZM15.4623 10.9768L15.1624 10.9846L15.1624 10.9848L15.4623 10.9768ZM16.3349 10.037L16.3616 10.3358L16.3618 10.3358L16.3349 10.037ZM18.0453 9.88287L18.0722 10.1817L18.0722 10.1817L18.0453 9.88287ZM19.242 9.7747L19.3064 10.0677L19.3069 10.0676L19.242 9.7747ZM19.5302 9.68681L19.6329 9.96868L19.6339 9.9683L19.5302 9.68681ZM19.6796 9.653L19.5678 9.37459L19.5647 9.37588L19.6796 9.653ZM19.8637 9.53266L19.6782 9.29691L19.6754 9.2991L19.8637 9.53266ZM20.1572 7.73698L20.4138 7.58154L20.4135 7.58098L20.1572 7.73698ZM19.4581 6.44836L19.7572 6.42422L19.7572 6.42413L19.4581 6.44836ZM21.5274 4.81359L21.6237 4.52944L21.6235 4.52937L21.5274 4.81359ZM22.5694 5.98727L22.2758 6.04865L22.2759 6.04901L22.5694 5.98727ZM22.0731 7.77213L21.7783 7.71667L21.7782 7.71721L22.0731 7.77213ZM25.0323 9.25276L25.059 9.55157L25.0595 9.55153L25.0323 9.25276ZM26.9962 9.25276L26.8232 9.49781L26.8234 9.49802L26.9962 9.25276ZM27.4258 11.1485L27.7247 11.1221L27.7246 11.1218L27.4258 11.1485ZM27.5846 12.9618L27.2857 12.9875L27.2858 12.9883L27.5846 12.9618ZM28.1423 13.3917L28.2379 13.6761C28.3496 13.6385 28.429 13.539 28.4408 13.4217C28.4525 13.3043 28.3945 13.191 28.2924 13.132L28.1423 13.3917ZM27.6006 13.0794L27.7507 12.8197C27.6487 12.7607 27.5215 12.7669 27.4257 12.8356C27.3299 12.9044 27.2833 13.0228 27.3064 13.1384L27.6006 13.0794ZM29.5125 13.9272L29.3743 13.6609L29.3741 13.661L29.5125 13.9272ZM31.2335 13.1876L31.1865 13.4839L31.1867 13.4839L31.2335 13.1876ZM31.8846 16.0826L32.0584 16.3271L32.0588 16.3268L31.8846 16.0826ZM30.948 16.3706L30.9577 16.0707L30.9576 16.0707L30.948 16.3706ZM29.8393 15.923L29.7151 16.1961L29.7153 16.1962L29.8393 15.923ZM28.2677 16.6532L28.5076 16.8333C28.5853 16.7297 28.5879 16.588 28.5138 16.4817C28.4398 16.3754 28.306 16.3287 28.1819 16.3657L28.2677 16.6532ZM28.0929 18.7639L28.3917 18.7377L28.3917 18.7376L28.0929 18.7639ZM28.2317 20.4825L28.5286 20.5249L28.5287 20.5248L28.2317 20.4825ZM25.1484 21.8387L24.9348 22.0495C25.0224 22.1382 25.1557 22.1635 25.2697 22.1131C25.3837 22.0628 25.4546 21.9471 25.448 21.8227L25.1484 21.8387ZM24.532 20.4812L24.2595 20.3557L24.2591 20.3565L24.532 20.4812ZM24.8349 19.6834L24.5404 19.6262L24.5403 19.6266L24.8349 19.6834ZM24.6307 18.0946L24.9001 17.9625L24.8999 17.9622L24.6307 18.0946ZM20.244 20.3365L19.9771 20.4735L19.9771 20.4735L20.244 20.3365ZM20.5268 21.7738L20.586 22.0679L20.5872 22.0677L20.5268 21.7738ZM20.2039 22.2038H19.9039C19.9039 22.3255 19.9775 22.4352 20.0901 22.4814C20.2027 22.5276 20.332 22.5012 20.4175 22.4145L20.2039 22.2038ZM20.6442 21.7576L20.8578 21.9683C20.9462 21.8787 20.9693 21.7434 20.9155 21.6295C20.8617 21.5156 20.7426 21.4475 20.6172 21.4588L20.6442 21.7576ZM18.7203 21.9307L18.6939 21.6319L18.6937 21.6319L18.7203 21.9307ZM16.6884 21.9375L16.5155 22.1826L16.5156 22.1827L16.6884 21.9375ZM16.2468 19.9065L15.948 19.9328L15.948 19.933L16.2468 19.9065ZM16.1347 18.6341L15.8358 18.6595L15.8359 18.6604L16.1347 18.6341ZM16.092 18.1473L16.3846 18.0809L16.3845 18.0804L16.092 18.1473ZM15.9466 18.2731L15.7147 18.0828C15.6096 18.2109 15.6282 18.3998 15.7562 18.5049C15.8842 18.61 16.0731 18.5915 16.1783 18.4636L15.9466 18.2731ZM15.3236 17.6416V17.9416C15.413 17.9416 15.4978 17.9017 15.5548 17.8327L15.3236 17.6416ZM15.3209 17.6416L15.0894 17.4508C14.9435 17.6278 14.902 17.8187 14.8979 17.9893C14.8944 18.1348 14.9218 18.3144 14.9299 18.4095L15.2288 18.384L15.5277 18.3584C15.5132 18.1885 15.4952 18.1078 15.4977 18.0038C15.4996 17.9249 15.5155 17.8772 15.5524 17.8324L15.3209 17.6416ZM15.2288 18.384L14.93 18.4101L15.0634 19.9327L15.3622 19.9065L15.6611 19.8803L15.5277 18.3578L15.2288 18.384ZM15.3622 19.9065L15.0634 19.9327C15.079 20.1111 15.0863 20.3088 15.0962 20.5278C15.1059 20.7429 15.118 20.9743 15.144 21.2039C15.1951 21.6553 15.3038 22.1457 15.5958 22.5238L15.8332 22.3404L16.0707 22.157C15.8823 21.9131 15.7882 21.5598 15.7402 21.1363C15.7167 20.9285 15.7052 20.7147 15.6956 20.5007C15.6861 20.2905 15.6782 20.0751 15.6611 19.8803L15.3622 19.9065ZM15.8332 22.3404L15.5957 22.5237C15.9617 22.9977 16.4246 23.1783 16.8964 23.2275C17.3445 23.2742 17.8311 23.2027 18.231 23.1665L18.204 22.8677L18.177 22.569C17.7244 22.6099 17.3304 22.6695 16.9587 22.6307C16.6106 22.5944 16.3144 22.4727 16.0707 22.1571L15.8332 22.3404ZM18.204 22.8677L18.231 23.1665C19.0835 23.0895 19.8544 23.0205 20.6671 22.9475L20.6402 22.6487L20.6134 22.3499C19.801 22.4229 19.0297 22.4919 18.177 22.569L18.204 22.8677ZM20.6402 22.6487L20.6674 22.9475C21.0198 22.9154 21.3805 22.6541 21.3805 22.2025H21.0805H20.7805C20.7805 22.2482 20.7649 22.2763 20.7427 22.2974C20.7169 22.3219 20.6726 22.3445 20.613 22.3499L20.6402 22.6487ZM21.0805 22.2025L20.841 22.0219C20.733 22.1651 20.6244 22.3091 20.517 22.4533L20.7576 22.6325L20.9982 22.8116C21.1044 22.6692 21.2119 22.5265 21.32 22.3831L21.0805 22.2025ZM20.7576 22.6325L20.8182 22.9263C21.3444 22.8179 21.7175 22.4358 21.9009 21.9917C22.0837 21.5493 22.0925 21.0151 21.8618 20.5594L21.5942 20.6948L21.3265 20.8303C21.4694 21.1128 21.4702 21.4629 21.3464 21.7626C21.2234 22.0604 20.9914 22.278 20.6971 22.3386L20.7576 22.6325ZM21.5942 20.6948L21.8619 20.5596C21.7714 20.3803 21.6669 20.2283 21.5709 20.0955C21.4707 19.957 21.3888 19.8507 21.3168 19.7351C21.187 19.5264 21.1109 19.32 21.1608 18.9963L20.8644 18.9505L20.5679 18.9047C20.4911 19.4018 20.6205 19.7518 20.8075 20.0522C20.894 20.1912 20.9983 20.3276 21.0847 20.4471C21.1752 20.5722 21.2575 20.6936 21.3264 20.83L21.5942 20.6948ZM20.8644 18.9505L21.1609 18.9962C21.2428 18.4641 21.666 18.0332 22.1837 17.935L22.1278 17.6403L22.0719 17.3455C21.3061 17.4907 20.6887 18.1199 20.5679 18.9049L20.8644 18.9505ZM22.1278 17.6403L22.1837 17.935C22.7074 17.8357 23.1794 18.037 23.4744 18.4618L23.7208 18.2907L23.9672 18.1195C23.5391 17.5031 22.8317 17.2014 22.0719 17.3455L22.1278 17.6403ZM23.7208 18.2907L23.4741 18.4613C23.63 18.6867 23.7137 18.9594 23.7051 19.2304L24.005 19.2399L24.3049 19.2493C24.3176 18.8443 24.1932 18.4463 23.9676 18.12L23.7208 18.2907ZM24.005 19.2399L23.7051 19.2305C23.6996 19.4083 23.6517 19.5446 23.5777 19.6918C23.5383 19.7703 23.4952 19.8447 23.4435 19.9379C23.3936 20.0276 23.3393 20.1284 23.289 20.2422L23.5634 20.3635L23.8378 20.4849C23.8768 20.3965 23.9206 20.3146 23.968 20.2293C24.0135 20.1473 24.067 20.0544 24.1138 19.9613C24.2122 19.7654 24.2957 19.542 24.3049 19.2492L24.005 19.2399ZM23.5634 20.3635L23.2891 20.242C22.8261 21.2871 23.5651 22.5329 24.6947 22.5833L24.7081 22.2836L24.7215 21.9839C24.034 21.9532 23.5375 21.1626 23.8377 20.485L23.5634 20.3635ZM24.7081 22.2836L24.9217 22.0729L24.4814 21.6267L24.2678 21.8374L24.0543 22.0481L24.4946 22.4943L24.7081 22.2836ZM24.2678 21.8374L23.9683 21.8534C23.978 22.0348 24.0538 22.2171 24.1769 22.354C24.303 22.4941 24.4977 22.6045 24.7359 22.5823L24.7081 22.2836L24.6803 21.9849C24.6716 21.9857 24.6523 21.9853 24.6229 21.9526C24.5906 21.9167 24.5697 21.8644 24.5674 21.8214L24.2678 21.8374ZM24.7081 22.2836L24.7353 22.5824C25.0846 22.5506 25.4344 22.5192 25.7843 22.4878C26.1341 22.4563 26.4842 22.4249 26.8339 22.3931L26.8068 22.0943L26.7796 21.7955C26.4302 21.8273 26.0805 21.8587 25.7306 21.8902C25.3807 21.9216 25.0307 21.953 24.6809 21.9848L24.7081 22.2836ZM26.8068 22.0943L26.8337 22.3931C27.1862 22.3613 27.6158 22.3435 28.0033 22.2385C28.408 22.1288 28.7982 21.9182 29.0846 21.4868L28.8347 21.3209L28.5848 21.1549C28.3989 21.4348 28.15 21.5771 27.8463 21.6594C27.5253 21.7464 27.1771 21.7597 26.7798 21.7955L26.8068 22.0943ZM28.8347 21.3209L29.0846 21.4868C29.338 21.1054 29.4038 20.6911 29.4044 20.3004C29.4049 19.9259 29.3416 19.5172 29.3137 19.1963L29.0148 19.2223L28.7159 19.2483C28.7494 19.6319 28.8048 19.9581 28.8044 20.2996C28.8039 20.6249 28.749 20.9076 28.5848 21.1549L28.8347 21.3209ZM29.0148 19.2223L29.3137 19.1963C29.2523 18.4917 29.1882 17.7679 29.1255 17.0542L28.8267 17.0805L28.5278 17.1067C28.5906 17.821 28.6546 18.544 28.7159 19.2483L29.0148 19.2223ZM28.8267 17.0805L28.5868 16.9003L28.2639 17.3303L28.5038 17.5105L28.7437 17.6906L29.0666 17.2606L28.8267 17.0805ZM28.5038 17.5105L28.5902 17.7978C28.917 17.6995 29.1138 17.4088 29.1265 17.0925L28.8267 17.0805L28.5269 17.0685C28.5236 17.1524 28.4775 17.2051 28.4175 17.2231L28.5038 17.5105ZM28.8267 17.0805L29.1264 17.0937C29.1296 17.0216 29.1482 17.0329 29.1242 17.0505C29.1129 17.0588 29.1228 17.0448 29.1876 17.0484C29.3202 17.0557 29.4937 17.1244 29.5985 17.1736L29.7259 16.902L29.8534 16.6304C29.742 16.5781 29.4779 16.4636 29.2209 16.4493C29.0909 16.4421 28.9181 16.4577 28.7697 16.5664C28.6086 16.6844 28.5358 16.8669 28.527 17.0673L28.8267 17.0805ZM29.7259 16.902L29.5977 17.1732C29.8409 17.2882 30.1222 17.4374 30.4548 17.5032L30.5131 17.2089L30.5713 16.9146C30.3302 16.8669 30.1313 16.7618 29.8542 16.6308L29.7259 16.902ZM30.5131 17.2089L30.4544 17.5031C31.046 17.6212 31.6708 17.5446 32.2157 17.2699L32.0807 17.002L31.9457 16.7341C31.5247 16.9463 31.0368 17.0076 30.5718 16.9147L30.5131 17.2089ZM32.0807 17.002L32.216 17.2698C33.3033 16.7203 33.8972 15.4953 33.6961 14.2967L33.4002 14.3464L33.1044 14.396C33.2635 15.3447 32.79 16.3075 31.9454 16.7343L32.0807 17.002ZM33.4002 14.3464L33.6961 14.2967C33.4946 13.0957 32.5794 12.2107 31.4295 12.0195L31.3803 12.3154L31.3311 12.6114C32.2305 12.7609 32.9456 13.4499 33.1044 14.396L33.4002 14.3464ZM31.3803 12.3154L31.4295 12.0195C30.8541 11.9238 30.2498 12.016 29.7288 12.2907L29.8687 12.5561L30.0086 12.8215C30.4108 12.6094 30.8819 12.5367 31.3311 12.6114L31.3803 12.3154ZM29.8687 12.5561L29.7287 12.2908C29.6224 12.3469 29.4766 12.4577 29.3562 12.5452C29.2205 12.6439 29.085 12.7383 28.9606 12.8027C28.8991 12.8345 28.8487 12.8545 28.8095 12.8647C28.7694 12.8751 28.7551 12.8716 28.7579 12.8722C28.8047 12.8822 28.7725 12.9232 28.7446 12.7839L28.4505 12.8428L28.1563 12.9016C28.2098 13.1694 28.3549 13.3994 28.632 13.4589C28.8569 13.5071 29.0811 13.4159 29.2365 13.3355C29.4056 13.248 29.5738 13.1288 29.7091 13.0305C29.8597 12.9209 29.9522 12.8512 30.0087 12.8215L29.8687 12.5561ZM28.4505 12.8428L28.7446 12.784C28.7012 12.5665 28.5517 12.405 28.3914 12.3139C28.2315 12.223 28.0181 12.1777 27.8122 12.2477L27.9088 12.5318L28.0053 12.8158C28.0142 12.8128 28.049 12.8094 28.0949 12.8355C28.1404 12.8614 28.1543 12.8919 28.1563 12.9015L28.4505 12.8428ZM27.9088 12.5318L27.7253 12.7691C27.9107 12.9124 28.0966 13.0561 28.2838 13.1998L28.4665 12.9618L28.6491 12.7238C28.4628 12.5808 28.2778 12.4378 28.0922 12.2944L27.9088 12.5318ZM28.4665 12.9618L28.7653 12.9355C28.734 12.5785 28.7026 12.2216 28.6713 11.8646C28.6399 11.5076 28.6086 11.1506 28.5772 10.7937L28.2783 10.8199L27.9795 10.8462C28.0109 11.2031 28.0422 11.5601 28.0736 11.9171C28.1049 12.2741 28.1363 12.631 28.1676 12.988L28.4665 12.9618ZM28.2783 10.8199L28.5772 10.7937C28.5467 10.4466 28.539 9.99235 28.4621 9.58938C28.3821 9.16978 28.2194 8.74006 27.8426 8.40517L27.6433 8.62941L27.444 8.85365C27.6849 9.06774 27.8063 9.35332 27.8728 9.70175C27.9424 10.0668 27.9433 10.4333 27.9795 10.8462L28.2783 10.8199ZM27.6433 8.62941L27.8426 8.40517C27.467 8.07139 27.0402 7.96302 26.6265 7.94369C26.23 7.92517 25.8042 7.98962 25.4576 8.02098L25.4846 8.31976L25.5116 8.61854C25.9122 8.5823 26.2568 8.52708 26.5985 8.54304C26.9228 8.55819 27.2018 8.63845 27.444 8.85365L27.6433 8.62941ZM25.4846 8.31976L25.4576 8.02098C24.7104 8.08859 24.0075 8.15213 23.2818 8.21702L23.3086 8.51583L23.3353 8.81463C24.0612 8.74972 24.7645 8.68615 25.5116 8.61854L25.4846 8.31976ZM23.3086 8.51583L23.2816 8.21704C22.8217 8.2585 22.5885 8.63765 22.5843 8.97711C22.5822 9.14809 22.6355 9.33056 22.7624 9.47434C22.8942 9.62373 23.0854 9.70826 23.3086 9.70826V9.40826V9.10826C23.2435 9.10826 23.2212 9.08749 23.2123 9.07736C23.1984 9.06163 23.1837 9.03037 23.1843 8.9845C23.1848 8.93885 23.2007 8.89643 23.2247 8.86743C23.2451 8.84264 23.2772 8.81987 23.3355 8.81462L23.3086 8.51583ZM23.3086 9.40826V9.70826C23.5339 9.70826 23.7243 9.61908 23.8545 9.46885C23.9793 9.32469 24.0337 9.14232 24.0333 8.97099C24.0326 8.62995 23.8006 8.23791 23.3222 8.21614L23.3086 8.51583L23.2949 8.81552C23.3528 8.81815 23.3799 8.83876 23.3963 8.85838C23.4171 8.88332 23.4332 8.92398 23.4333 8.97236C23.4334 9.02093 23.4175 9.05685 23.4009 9.07601C23.3896 9.08909 23.3674 9.10826 23.3086 9.10826V9.40826ZM23.3086 8.51583L23.3223 8.21614C23.2613 8.21334 23.2441 8.2011 23.2476 8.20329C23.2498 8.20467 23.2542 8.20813 23.2585 8.21371C23.2627 8.21907 23.2641 8.22298 23.2641 8.22295C23.2589 8.20801 23.253 8.14044 23.2979 7.99495C23.3386 7.86286 23.4046 7.71741 23.4722 7.57772C23.5304 7.45748 23.6092 7.30544 23.6401 7.21183L23.3553 7.11768L23.0704 7.02354C23.056 7.06717 23.0107 7.15413 22.9322 7.31628C22.8631 7.45898 22.7797 7.63932 22.7245 7.81807C22.6735 7.98341 22.6252 8.21171 22.6971 8.41933C22.737 8.53437 22.8121 8.63787 22.9271 8.71054C23.0372 8.78006 23.1647 8.80953 23.2948 8.81551L23.3086 8.51583ZM23.3553 7.11768L23.6398 7.21264C23.813 6.69367 23.8327 6.11251 23.6873 5.58092L23.398 5.66005L23.1086 5.73918C23.222 6.1541 23.207 6.61411 23.0707 7.02272L23.3553 7.11768ZM23.398 5.66005L23.6872 5.58056C23.4318 4.65102 22.6855 3.88892 21.7571 3.63578L21.6782 3.92521L21.5993 4.21465C22.3173 4.41042 22.9078 5.00861 23.1087 5.73954L23.398 5.66005ZM21.6782 3.92521L21.7567 3.63565C19.6787 3.07263 17.7336 5.10549 18.4069 7.18442L18.6923 7.09199L18.9777 6.99956C18.4503 5.37085 19.9847 3.77719 21.5998 4.21477L21.6782 3.92521ZM18.6923 7.09199L18.4068 7.18414C18.4922 7.4486 18.6275 7.64823 18.7548 7.81743C18.8884 7.99507 18.9957 8.11957 19.0876 8.28216L19.3487 8.13452L19.6099 7.98687C19.4924 7.77896 19.3414 7.59923 19.2343 7.45674C19.1207 7.30582 19.0326 7.16944 18.9778 6.99985L18.6923 7.09199ZM19.3487 8.13452L19.087 8.28106C19.1141 8.32948 19.1389 8.41409 19.1385 8.49777C19.138 8.58312 19.1133 8.61628 19.1037 8.62478L19.302 8.84981L19.5004 9.07485C19.6856 8.91162 19.7376 8.68246 19.7385 8.50076C19.7394 8.31738 19.6901 8.1302 19.6105 7.98797L19.3487 8.13452ZM19.302 8.84981L19.1035 8.6249C19.1277 8.60354 19.1478 8.59416 19.149 8.59358C19.1531 8.59162 19.1532 8.59189 19.1471 8.59406C19.1347 8.59848 19.1154 8.60428 19.088 8.61163C19.0558 8.62028 19.0395 8.62412 19.0046 8.63336C18.9906 8.63704 18.9753 8.6412 18.9606 8.64558C18.9472 8.64957 18.9278 8.65566 18.9078 8.66374L19.0205 8.94176L19.1332 9.21978C19.1259 9.22277 19.1288 9.22114 19.1579 9.21344C19.1743 9.20911 19.2173 9.19816 19.2436 9.1911C19.2748 9.18273 19.3132 9.17188 19.3491 9.15902C19.3672 9.15254 19.3891 9.14402 19.4115 9.13313C19.431 9.12363 19.466 9.10521 19.5006 9.07472L19.302 8.84981ZM19.0205 8.94176L18.9131 8.66165C18.8727 8.67714 18.8067 8.70448 18.7525 8.75172C18.7294 8.7719 18.6581 8.838 18.643 8.95203C18.6237 9.099 18.7083 9.19885 18.7673 9.24247C18.8181 9.28012 18.869 9.2942 18.8918 9.29974C18.9199 9.3066 18.9461 9.3097 18.9668 9.31123C19.0084 9.31434 19.0512 9.31279 19.0901 9.30888C19.1581 9.30204 19.2667 9.28279 19.3585 9.22848C19.4017 9.20292 19.4933 9.13907 19.529 9.01571C19.5713 8.86979 19.5076 8.75037 19.451 8.68534L19.2247 8.88226L18.9983 9.07918C18.9869 9.06603 18.9667 9.03892 18.9538 8.99719C18.9399 8.95213 18.9378 8.90011 18.9528 8.84865C18.9669 8.80002 18.9918 8.76642 19.0105 8.74667C19.0287 8.72735 19.0452 8.71669 19.053 8.71209C19.0673 8.70358 19.0728 8.70355 19.0623 8.70632C19.0541 8.70848 19.0425 8.71063 19.0301 8.71189C19.0168 8.71322 19.0101 8.7128 19.0114 8.7129C19.0119 8.71294 19.0202 8.71349 19.0336 8.71676C19.0406 8.71845 19.0519 8.72158 19.0657 8.72718C19.0788 8.73253 19.1003 8.74251 19.1241 8.76013C19.1478 8.77766 19.1815 8.8085 19.2071 8.85728C19.2346 8.90977 19.2458 8.97024 19.2379 9.03036C19.2305 9.08643 19.2085 9.12799 19.1915 9.15322C19.1744 9.17841 19.157 9.19506 19.1466 9.20411C19.1357 9.21365 19.1267 9.21976 19.1219 9.22283C19.1168 9.22608 19.1135 9.22779 19.1129 9.22811C19.112 9.22858 19.1162 9.22638 19.128 9.22187L19.0205 8.94176ZM19.2247 8.88226L19.451 8.68536C19.3939 8.61978 19.3251 8.59139 19.2878 8.57875C19.2458 8.56452 19.2044 8.55746 19.1707 8.55345C19.1029 8.54541 19.0269 8.54545 18.9539 8.54854C18.8057 8.55481 18.6248 8.57594 18.4513 8.6002C18.2761 8.6247 18.0998 8.65361 17.9589 8.67703C17.8087 8.70201 17.7168 8.71747 17.6882 8.72022L17.7171 9.01883L17.7459 9.31745C17.8014 9.31209 17.9263 9.2907 18.0574 9.2689C18.1978 9.24554 18.3675 9.21775 18.5344 9.19442C18.7031 9.17084 18.8608 9.15301 18.9793 9.148C19.0396 9.14545 19.0789 9.14677 19.1 9.14927C19.1107 9.15054 19.1072 9.15107 19.0953 9.14704C19.0881 9.14461 19.0417 9.12903 18.9983 9.07917L19.2247 8.88226ZM17.7171 9.01883L17.6903 8.72003C17.4133 8.74487 17.1351 8.75261 16.8017 8.77641C16.4845 8.79905 16.1473 8.83511 15.8278 8.91574C15.1795 9.07936 14.5669 9.44016 14.3405 10.263L14.6298 10.3426L14.919 10.4222C15.0676 9.88207 15.4483 9.63033 15.9747 9.4975C16.2426 9.42989 16.5381 9.39674 16.8444 9.37489C17.1345 9.35418 17.4705 9.34215 17.7438 9.31764L17.7171 9.01883ZM14.6298 10.3426L14.3406 10.2629C14.2518 10.585 14.2551 10.927 14.2809 11.2396C14.294 11.3974 14.3134 11.5541 14.332 11.7012C14.3508 11.8505 14.3686 11.9885 14.3804 12.1192L14.6791 12.0923L14.9779 12.0654C14.965 11.9216 14.9456 11.7714 14.9272 11.626C14.9086 11.4783 14.8907 11.3335 14.8789 11.1902C14.855 10.9008 14.8583 10.6424 14.919 10.4223L14.6298 10.3426ZM14.6791 12.0923L14.3803 12.1184C14.4056 12.4093 14.4313 12.7002 14.457 12.9909C14.4827 13.2816 14.5084 13.5722 14.5337 13.8627L14.8326 13.8366L15.1314 13.8106C15.1061 13.5196 15.0804 13.2288 15.0547 12.9381C15.029 12.6473 15.0033 12.3568 14.978 12.0663L14.6791 12.0923ZM14.8326 13.8366L14.5338 13.8633C14.5594 14.1502 14.7524 14.395 14.9836 14.5126C15.1041 14.5738 15.2503 14.6087 15.4044 14.5846C15.563 14.5599 15.7058 14.4761 15.8158 14.3417L15.5837 14.1517L15.3516 13.9616C15.3282 13.9902 15.3142 13.9914 15.3118 13.9918C15.3048 13.9929 15.2857 13.993 15.2556 13.9777C15.2252 13.9623 15.1936 13.9358 15.1691 13.9017C15.1447 13.8677 15.1336 13.8349 15.1314 13.8099L14.8326 13.8366ZM15.5837 14.1517L15.7 13.8751C15.4492 13.7697 15.198 13.6641 14.9481 13.5598L14.8326 13.8366L14.717 14.1135C14.9661 14.2174 15.2165 14.3227 15.4674 14.4282L15.5837 14.1517ZM14.8326 13.8366L14.5337 13.8627C14.5938 14.5497 14.6541 15.2367 14.7145 15.9236C14.7749 16.6105 14.8352 17.2973 14.8953 17.9841L15.1941 17.958L15.493 17.9319C15.433 17.2449 15.3726 16.5579 15.3122 15.8711C15.2518 15.1841 15.1915 14.4973 15.1314 13.8105L14.8326 13.8366ZM15.1941 17.958L14.8953 17.984C14.9364 18.4572 15.3327 18.6849 15.671 18.686C15.8421 18.6865 16.0277 18.632 16.1701 18.4991C16.3201 18.359 16.3936 18.1582 16.3735 17.9316L16.0747 17.958L15.7759 17.9844C15.7812 18.0445 15.7634 18.058 15.7607 18.0605C15.7505 18.07 15.7221 18.0861 15.6729 18.086C15.6246 18.0858 15.5788 18.0695 15.5476 18.0444C15.5213 18.0233 15.4981 17.9909 15.493 17.932L15.1941 17.958ZM16.0747 17.958L16.3735 17.9319C16.3135 17.2449 16.2531 16.5579 16.1928 15.8711C16.1324 15.1841 16.072 14.4973 16.012 13.8105L15.7131 13.8366L15.4143 13.8627C15.4743 14.5497 15.5347 15.2367 15.5951 15.9236C15.6554 16.6105 15.7158 17.2973 15.7758 17.9841L16.0747 17.958ZM15.7131 13.8366L16.0119 13.8099C15.9863 13.523 15.7933 13.2782 15.5621 13.1607C15.4416 13.0994 15.2954 13.0646 15.1413 13.0886C14.9827 13.1134 14.8399 13.1971 14.7299 13.3315L14.962 13.5216L15.1941 13.7116C15.2175 13.683 15.2315 13.6818 15.2339 13.6814C15.2409 13.6803 15.26 13.6802 15.2902 13.6955C15.3205 13.7109 15.3521 13.7375 15.3766 13.7716C15.401 13.8056 15.4121 13.8383 15.4143 13.8633L15.7131 13.8366ZM14.962 13.5216L14.8457 13.7981C15.0965 13.9035 15.3477 14.0092 15.5976 14.1135L15.7131 13.8366L15.8287 13.5598C15.5796 13.4558 15.3292 13.3505 15.0783 13.245L14.962 13.5216ZM15.7131 13.8366L16.012 13.8105C15.927 12.8366 15.7873 11.9089 15.7622 10.9688L15.4623 10.9768L15.1624 10.9848C15.188 11.9458 15.3338 12.9409 15.4143 13.8627L15.7131 13.8366ZM15.4623 10.9768L15.7622 10.969C15.7556 10.7171 15.8198 10.5837 15.8963 10.5064C15.9779 10.4238 16.1206 10.3574 16.3616 10.3358L16.3349 10.037L16.3081 9.73821C15.9901 9.76667 15.6885 9.86317 15.4696 10.0845C15.2456 10.3111 15.153 10.6226 15.1624 10.9846L15.4623 10.9768ZM16.3349 10.037L16.3618 10.3358L18.0722 10.1817L18.0453 9.88287L18.0183 9.58408L16.3079 9.73823L16.3349 10.037ZM18.0453 9.88287L18.0722 10.1817C18.2619 10.1645 18.4486 10.1595 18.6646 10.1465C18.8714 10.1341 19.0921 10.1148 19.3064 10.0677L19.242 9.7747L19.1776 9.48169C19.0103 9.51844 18.8274 9.53565 18.6287 9.54758C18.439 9.55896 18.2182 9.56604 18.0183 9.58408L18.0453 9.88287ZM19.242 9.7747L19.3069 10.0676C19.3669 10.0543 19.4693 10.0215 19.5328 10.0009C19.5668 9.98982 19.5997 9.97894 19.6151 9.97392C19.63 9.96904 19.6236 9.97135 19.614 9.97386C19.6121 9.97435 19.6087 9.97523 19.6043 9.97621C19.6014 9.97686 19.5912 9.97914 19.578 9.9809C19.5721 9.98168 19.5572 9.98353 19.5381 9.98349C19.5283 9.98331 19.5044 9.98153 19.4904 9.97958C19.4691 9.97531 19.4151 9.95685 19.3837 9.94037C19.3377 9.90623 19.2619 9.79918 19.2419 9.72722C19.2393 9.66375 19.264 9.56301 19.2827 9.52708C19.3159 9.47275 19.3587 9.44349 19.3619 9.44113C19.383 9.42575 19.4017 9.41663 19.4033 9.4158C19.4092 9.41284 19.4139 9.41071 19.4161 9.40974C19.4207 9.40768 19.4242 9.40625 19.4252 9.40584C19.4288 9.40439 19.4306 9.40379 19.4264 9.40531L19.5302 9.68681L19.6339 9.9683C19.6371 9.96712 19.6437 9.96469 19.6499 9.9622C19.6515 9.96153 19.6556 9.95989 19.6606 9.95767C19.6629 9.95661 19.6678 9.95442 19.6738 9.9514C19.6755 9.95051 19.6943 9.94134 19.7154 9.92593C19.7187 9.92355 19.7615 9.89428 19.7947 9.83994C19.8134 9.80399 19.838 9.70326 19.8355 9.63978C19.8155 9.56781 19.7397 9.46076 19.6937 9.42662C19.6623 9.41014 19.6083 9.39167 19.587 9.3874C19.5729 9.38545 19.549 9.38367 19.5393 9.38349C19.5201 9.38345 19.5052 9.3853 19.4992 9.38609C19.4859 9.38785 19.4756 9.39016 19.4726 9.39084C19.4681 9.39186 19.4644 9.39279 19.4624 9.39333C19.4494 9.39673 19.4314 9.40271 19.4288 9.40357C19.409 9.41005 19.3821 9.41895 19.3475 9.4302C19.2736 9.4542 19.2025 9.47617 19.1771 9.48181L19.242 9.7747ZM19.5302 9.68681L19.4275 9.40494C19.4135 9.41003 19.3902 9.41864 19.3692 9.42892C19.3635 9.43175 19.351 9.43803 19.3364 9.44738C19.3292 9.45202 19.3164 9.4606 19.302 9.47305C19.2911 9.48243 19.2598 9.5102 19.2344 9.55639C19.2067 9.60692 19.168 9.71882 19.2315 9.84025C19.2847 9.94186 19.3738 9.97597 19.3998 9.98494C19.4567 10.0046 19.5062 10.0014 19.5086 10.0013C19.5447 10.0002 19.5798 9.99182 19.5816 9.99141C19.595 9.98849 19.6096 9.98493 19.6233 9.98144C19.6511 9.97437 19.6831 9.96561 19.7104 9.95773C19.7292 9.9523 19.7682 9.94105 19.7945 9.93013L19.6796 9.653L19.5647 9.37588C19.5764 9.37104 19.5745 9.37246 19.544 9.38127C19.5219 9.38763 19.4962 9.39467 19.4754 9.39994C19.4649 9.40263 19.4575 9.40437 19.4535 9.40525C19.4379 9.40866 19.4601 9.40256 19.49 9.40163C19.4909 9.40161 19.5393 9.39835 19.5955 9.41777C19.6212 9.42663 19.71 9.46059 19.7631 9.56201C19.8266 9.68326 19.7879 9.79493 19.7603 9.8452C19.7351 9.89113 19.7041 9.9186 19.6936 9.92764C19.6795 9.93975 19.6673 9.94796 19.6607 9.95218C19.6475 9.96069 19.6368 9.96597 19.6334 9.96763C19.622 9.97322 19.6172 9.9744 19.6329 9.96867L19.5302 9.68681ZM19.6796 9.653L19.7914 9.93139C19.9106 9.88352 19.9994 9.80865 20.052 9.76621L19.8637 9.53266L19.6754 9.2991C19.6107 9.35131 19.59 9.36569 19.5678 9.37461L19.6796 9.653ZM19.8637 9.53266L20.0493 9.76839C20.4098 9.48458 20.5397 9.09871 20.593 8.72148L20.296 8.67944L19.999 8.6374C19.9563 8.93896 19.8673 9.14805 19.6782 9.29693L19.8637 9.53266ZM20.296 8.67944L20.593 8.72148C20.6452 8.35275 20.642 7.9582 20.4138 7.58154L20.1572 7.73698L19.9007 7.89242C20.0247 8.09719 20.0428 8.32735 19.999 8.6374L20.296 8.67944ZM20.1572 7.73698L20.4135 7.58098C20.334 7.45032 20.2496 7.3383 20.1724 7.23954C20.0922 7.13679 20.0266 7.0566 19.9655 6.96981C19.8526 6.80918 19.7757 6.65312 19.7572 6.42422L19.4581 6.44836L19.1591 6.4725C19.1887 6.83856 19.3205 7.09558 19.4747 7.31492C19.5473 7.41811 19.6299 7.51961 19.6996 7.60887C19.7724 7.70212 19.8398 7.79241 19.901 7.89297L20.1572 7.73698ZM19.4581 6.44836L19.7572 6.42413C19.6836 5.51587 20.5864 4.81233 21.4314 5.09781L21.5274 4.81359L21.6235 4.52937C20.3632 4.1036 19.0513 5.14167 19.1591 6.47259L19.4581 6.44836ZM21.5274 4.81359L21.4312 5.09773C21.855 5.24128 22.1831 5.60511 22.2758 6.04865L22.5694 5.98727L22.8631 5.9259C22.7263 5.27148 22.2458 4.74017 21.6237 4.52944L21.5274 4.81359ZM22.5694 5.98727L22.2759 6.04901C22.3368 6.33867 22.2721 6.54729 22.1578 6.78546C22.0486 7.0133 21.8507 7.33188 21.7783 7.71667L22.0731 7.77213L22.3679 7.8276C22.421 7.54577 22.5513 7.35256 22.6988 7.04494C22.8414 6.74764 22.9622 6.39715 22.863 5.92553L22.5694 5.98727ZM22.0731 7.77213L21.7782 7.71721C21.5958 8.69678 22.2897 9.66248 23.295 9.70795L23.3086 9.40826L23.3221 9.10856C22.7131 9.08102 22.2463 8.4809 22.368 7.82706L22.0731 7.77213ZM23.3086 9.40826L23.3353 9.70707C23.623 9.68136 23.9104 9.65531 24.1975 9.62928C24.4847 9.60325 24.7717 9.57724 25.059 9.55157L25.0323 9.25276L25.0056 8.95395C24.7179 8.97966 24.4305 9.00571 24.1434 9.03173C23.8561 9.05777 23.5692 9.08378 23.2819 9.10945L23.3086 9.40826ZM25.0323 9.25276L25.0595 9.55153C25.1986 9.53888 25.3686 9.51074 25.5353 9.48419C25.7075 9.45676 25.8857 9.42935 26.0602 9.41303C26.2356 9.39663 26.3965 9.39258 26.5338 9.40807C26.673 9.42378 26.7657 9.45724 26.8232 9.49781L26.9962 9.25276L27.1693 9.0077C26.9979 8.88669 26.7939 8.83362 26.601 8.81185C26.4061 8.78986 26.1995 8.79738 26.0043 8.81563C25.8083 8.83396 25.6129 8.86427 25.441 8.89165C25.2635 8.91991 25.1189 8.94365 25.0051 8.95399L25.0323 9.25276ZM26.9962 9.25276L26.8234 9.49802C26.9482 9.58592 27.0368 9.80182 27.0775 10.1665C27.0964 10.3357 27.1029 10.5132 27.1074 10.6879C27.1117 10.8562 27.1142 11.0324 27.127 11.1752L27.4258 11.1485L27.7246 11.1218C27.714 11.0036 27.7119 10.8551 27.7072 10.6725C27.7026 10.4963 27.6957 10.2966 27.6738 10.0999C27.6328 9.7327 27.5298 9.26169 27.169 9.0075L26.9962 9.25276ZM27.4258 11.1485L27.127 11.1749C27.1803 11.7794 27.2337 12.3835 27.2857 12.9875L27.5846 12.9618L27.8835 12.936C27.8314 12.3312 27.778 11.7265 27.7247 11.1221L27.4258 11.1485ZM27.5846 12.9618L27.2858 12.9883C27.3043 13.1975 27.4049 13.403 27.5664 13.5423C27.7359 13.6885 27.9782 13.7634 28.2379 13.6761L28.1423 13.3917L28.0466 13.1074C28.0244 13.1149 28.0104 13.1138 28.001 13.1117C27.9903 13.1092 27.9755 13.1029 27.9583 13.088C27.9204 13.0553 27.8888 12.9964 27.8834 12.9352L27.5846 12.9618ZM28.1423 13.3917L28.2924 13.132C28.2021 13.0798 28.1115 13.0276 28.0211 12.9756C27.9307 12.9235 27.8405 12.8716 27.7507 12.8197L27.6006 13.0794L27.4504 13.3391C27.5407 13.3913 27.6313 13.4435 27.7217 13.4955C27.8121 13.5476 27.9023 13.5996 27.9921 13.6515L28.1423 13.3917ZM27.6006 13.0794L27.3064 13.1384C27.4125 13.6674 27.7875 14.0461 28.2287 14.2333C28.6676 14.4195 29.1984 14.4285 29.6508 14.1934L29.5125 13.9272L29.3741 13.661C29.0981 13.8045 28.7563 13.8054 28.4631 13.681C28.1721 13.5575 27.9554 13.323 27.8947 13.0204L27.6006 13.0794ZM29.5125 13.9272L29.6506 14.1935C29.828 14.1015 29.9782 13.9954 30.1092 13.8981C30.2461 13.7965 30.3507 13.7136 30.4645 13.6408C30.6697 13.5096 30.8708 13.4338 31.1865 13.4839L31.2335 13.1876L31.2805 12.8913C30.7864 12.8129 30.4385 12.9453 30.1414 13.1353C30.004 13.2231 29.8692 13.329 29.7515 13.4164C29.628 13.5081 29.5085 13.5913 29.3743 13.6609L29.5125 13.9272ZM31.2335 13.1876L31.1867 13.4839C31.7057 13.566 32.1334 13.992 32.2313 14.5225L32.5263 14.4681L32.8214 14.4136C32.6792 13.6433 32.0609 13.0147 31.2804 12.8913L31.2335 13.1876ZM32.5263 14.4681L32.2313 14.5225C32.3304 15.0592 32.1285 15.5401 31.7104 15.8383L31.8846 16.0826L32.0588 16.3268C32.668 15.8922 32.9624 15.1777 32.8214 14.4136L32.5263 14.4681ZM31.8846 16.0826L31.7109 15.838C31.4892 15.9954 31.2222 16.0793 30.9577 16.0707L30.948 16.3706L30.9383 16.6704C31.3409 16.6835 31.7356 16.5564 32.0584 16.3271L31.8846 16.0826ZM30.948 16.3706L30.9576 16.0707C30.7845 16.0652 30.6516 16.0174 30.5068 15.9426C30.4296 15.9027 30.3563 15.8592 30.2643 15.8067C30.1757 15.7562 30.076 15.701 29.9634 15.6499L29.8393 15.923L29.7153 16.1962C29.8021 16.2356 29.8827 16.2798 29.9669 16.3278C30.0476 16.3739 30.1395 16.4282 30.2315 16.4757C30.4253 16.5757 30.6472 16.6611 30.9384 16.6704L30.948 16.3706ZM29.8393 15.923L29.9636 15.6499C28.9189 15.1746 27.6943 15.9383 27.6451 17.0701L27.9448 17.0832L28.2445 17.0962C28.2754 16.3864 29.0601 15.898 29.7151 16.1961L29.8393 15.923ZM27.9448 17.0832L28.1847 17.2633L28.5076 16.8333L28.2677 16.6532L28.0278 16.473L27.7049 16.903L27.9448 17.0832ZM28.2677 16.6532L28.1819 16.3657C28.0322 16.4104 27.897 16.5069 27.8009 16.627C27.7043 16.7478 27.6288 16.9168 27.646 17.1098L27.9448 17.0832L28.2436 17.0566C28.2435 17.0548 28.2433 17.0345 28.2695 17.0018C28.2962 16.9685 28.331 16.9473 28.3535 16.9406L28.2677 16.6532ZM27.9448 17.0832L27.646 17.1095C27.6953 17.6693 27.7447 18.2291 27.7941 18.7902L28.0929 18.7639L28.3917 18.7376C28.3424 18.1764 28.293 17.6166 28.2436 17.0568L27.9448 17.0832ZM28.0929 18.7639L27.7941 18.7902C27.8179 19.0613 27.8756 19.3884 27.9108 19.6607C27.9485 19.9521 27.9667 20.2153 27.9346 20.4402L28.2317 20.4825L28.5287 20.5248C28.5727 20.2156 28.5448 19.8852 28.5058 19.5837C28.4643 19.2631 28.4146 18.9979 28.3917 18.7377L28.0929 18.7639ZM28.2317 20.4825L27.9347 20.4402C27.916 20.5712 27.865 20.6482 27.8006 20.7031C27.7288 20.7641 27.622 20.8125 27.4741 20.8467C27.327 20.8808 27.1601 20.8963 26.9829 20.9059C26.8186 20.9148 26.6212 20.9191 26.4679 20.9328L26.4946 21.2316L26.5212 21.5304C26.6635 21.5177 26.8166 21.5158 27.0154 21.505C27.2015 21.4949 27.4104 21.4773 27.6094 21.4313C27.8075 21.3854 28.0169 21.3067 28.1893 21.1601C28.369 21.0073 28.49 20.7961 28.5286 20.5249L28.2317 20.4825ZM26.4946 21.2316L26.4679 20.9328C25.8767 20.9856 25.2761 21.0397 24.6809 21.0938L24.7081 21.3925L24.7353 21.6913C25.3301 21.6372 25.9304 21.5832 26.5212 21.5304L26.4946 21.2316ZM24.7081 21.3925L24.4946 21.6032L24.9348 22.0495L25.1484 21.8387L25.3619 21.628L24.9217 21.1818L24.7081 21.3925ZM25.1484 21.8387L25.448 21.8227C25.4268 21.4284 25.1322 21.1107 24.7212 21.0928L24.7081 21.3925L24.695 21.6922C24.7804 21.696 24.8433 21.7515 24.8488 21.8548L25.1484 21.8387ZM24.7081 21.3925L24.7217 21.0928C24.6542 21.0898 24.6669 21.0726 24.684 21.0965C24.6909 21.1063 24.6768 21.0935 24.6805 21.0261C24.6879 20.8893 24.7564 20.7119 24.8049 20.6058L24.532 20.4812L24.2591 20.3565C24.2075 20.4695 24.0953 20.7356 24.0813 20.9937C24.0743 21.1236 24.0894 21.2961 24.1954 21.4448C24.3115 21.6077 24.4931 21.6831 24.6945 21.6922L24.7081 21.3925ZM24.532 20.4812L24.8045 20.6066C24.9183 20.3595 25.0648 20.0757 25.1294 19.7402L24.8349 19.6834L24.5403 19.6266C24.4929 19.8725 24.3885 20.0755 24.2595 20.3557L24.532 20.4812ZM24.8349 19.6834L25.1293 19.7406C25.2454 19.1436 25.1702 18.513 24.9001 17.9625L24.6307 18.0946L24.3614 18.2267C24.5716 18.6552 24.6325 19.1522 24.5404 19.6262L24.8349 19.6834ZM24.6307 18.0946L24.8999 17.9622C24.3592 16.8631 23.149 16.2567 21.9595 16.4617L22.0104 16.7573L22.0614 17.0529C22.9904 16.8928 23.939 17.3682 24.3615 18.227L24.6307 18.0946ZM22.0104 16.7573L21.9595 16.4617C20.7684 16.6669 19.898 17.5972 19.7103 18.7565L20.0065 18.8045L20.3026 18.8524C20.4512 17.9348 21.1337 17.2128 22.0614 17.0529L22.0104 16.7573ZM20.0065 18.8045L19.7103 18.7565C19.6164 19.3371 19.7068 19.947 19.9771 20.4735L20.244 20.3365L20.5109 20.1995C20.3008 19.7903 20.2285 19.3104 20.3026 18.8524L20.0065 18.8045ZM20.244 20.3365L19.9771 20.4735C20.0322 20.5808 20.1412 20.7281 20.2277 20.8504C20.3251 20.9879 20.4184 21.1255 20.4822 21.252C20.5138 21.3146 20.5338 21.3663 20.5441 21.4071C20.5546 21.4487 20.5515 21.4652 20.5516 21.4647C20.5519 21.4635 20.5531 21.4591 20.5563 21.4537C20.5596 21.4482 20.5625 21.4458 20.562 21.4463C20.5596 21.4482 20.5362 21.4657 20.4665 21.48L20.5268 21.7738L20.5872 22.0677C20.7182 22.0408 20.8419 21.9927 20.9424 21.9102C21.0481 21.8236 21.1131 21.7112 21.139 21.5874C21.1856 21.3638 21.0975 21.1397 21.018 20.982C20.9319 20.8111 20.8145 20.6409 20.7175 20.5037C20.6096 20.3513 20.5405 20.2571 20.5108 20.1994L20.244 20.3365ZM20.5268 21.7738L20.4676 21.4797C20.2826 21.517 20.1416 21.6327 20.0512 21.7585C19.961 21.884 19.9039 22.0424 19.9039 22.2038H20.2039H20.5039C20.5039 22.18 20.5142 22.1423 20.5385 22.1086C20.5625 22.0752 20.583 22.0686 20.586 22.0679L20.5268 21.7738ZM20.2039 22.2038L20.4175 22.4145C20.4909 22.3402 20.5643 22.2658 20.6376 22.1914C20.711 22.1171 20.7844 22.0427 20.8578 21.9683L20.6442 21.7576L20.4307 21.5469C20.3573 21.6213 20.2839 21.6956 20.2105 21.77C20.1372 21.8444 20.0638 21.9188 19.9904 21.9931L20.2039 22.2038ZM20.6442 21.7576L20.6172 21.4588C19.9753 21.517 19.3353 21.5751 18.6939 21.6319L18.7203 21.9307L18.7468 22.2295C19.3889 22.1727 20.0297 22.1145 20.6713 22.0564L20.6442 21.7576ZM18.7203 21.9307L18.6937 21.6319C18.5518 21.6446 18.3766 21.6736 18.2039 21.7013C18.0256 21.7299 17.8401 21.7588 17.658 21.7764C17.4751 21.7941 17.3066 21.7991 17.163 21.7838C17.0169 21.7681 16.9202 21.7338 16.8612 21.6922L16.6884 21.9375L16.5156 22.1827C16.6908 22.3061 16.9008 22.3591 17.0991 22.3804C17.2999 22.4018 17.5136 22.3932 17.7157 22.3736C17.9187 22.354 18.1212 22.3223 18.299 22.2938C18.4824 22.2643 18.6314 22.2398 18.747 22.2295L18.7203 21.9307ZM16.6884 21.9375L16.8613 21.6923C16.8019 21.6504 16.7436 21.5733 16.6946 21.4416C16.6458 21.3102 16.6143 21.1462 16.5949 20.9603C16.5756 20.7756 16.5693 20.5826 16.5651 20.3952C16.561 20.2145 16.5588 20.0279 16.5456 19.88L16.2468 19.9065L15.948 19.933C15.9588 20.0555 15.9608 20.2136 15.9652 20.4088C15.9695 20.5974 15.9761 20.8116 15.9981 21.0226C16.02 21.2324 16.0585 21.4524 16.1322 21.6507C16.2058 21.8486 16.3228 22.0467 16.5155 22.1826L16.6884 21.9375ZM16.2468 19.9065L16.5456 19.8802L16.4336 18.6078L16.1347 18.6341L15.8359 18.6604L15.948 19.9328L16.2468 19.9065ZM16.1347 18.6341L16.4336 18.6087C16.4274 18.5347 16.4264 18.4699 16.4209 18.3723C16.416 18.2853 16.4076 18.1825 16.3846 18.0809L16.092 18.1473L15.7995 18.2137C15.8111 18.265 15.8174 18.3271 15.8219 18.406C15.8257 18.4744 15.8288 18.5767 15.8358 18.6595L16.1347 18.6341ZM16.092 18.1473L16.3845 18.0804C16.3756 18.0416 16.3816 18.0381 16.3773 18.0621C16.3762 18.0688 16.3735 18.0814 16.3675 18.0977C16.3633 18.1091 16.3494 18.1453 16.316 18.1833C16.2965 18.2055 16.1608 18.3435 15.9701 18.2562C15.8936 18.2211 15.8532 18.1644 15.8348 18.1315C15.8158 18.0974 15.8078 18.0672 15.8042 18.0499C15.797 18.0154 15.7983 17.9888 15.7991 17.9786C15.8001 17.9657 15.8019 17.9567 15.8028 17.9526C15.8047 17.9443 15.8056 17.9447 15.8013 17.9543C15.7927 17.9731 15.7692 18.0163 15.7147 18.0828L15.9466 18.2731L16.1786 18.4633C16.2588 18.3656 16.3133 18.2781 16.3479 18.2016C16.3651 18.1635 16.3789 18.125 16.3876 18.0869C16.394 18.0589 16.4062 17.9974 16.3915 17.9273C16.3873 17.9072 16.3786 17.8746 16.3585 17.8388C16.3392 17.8042 16.2977 17.7463 16.2199 17.7106C16.1332 17.6709 16.045 17.6787 15.9787 17.706C15.9204 17.73 15.8837 17.7662 15.8654 17.7871C15.8289 17.8287 15.8117 17.8708 15.8044 17.8904C15.7954 17.915 15.7899 17.9383 15.7864 17.9581C15.773 18.0345 15.7785 18.1219 15.7996 18.2143L16.092 18.1473ZM15.9466 18.2731L16.1783 18.4636C16.4788 18.0982 16.3561 17.6573 16.1209 17.4176C16.0014 17.2959 15.8325 17.2011 15.6377 17.193C15.4317 17.1844 15.2374 17.2749 15.0923 17.4505L15.3236 17.6416L15.5548 17.8327C15.5918 17.7879 15.6115 17.7924 15.6128 17.7924C15.6252 17.793 15.6569 17.8014 15.6926 17.8379C15.7276 17.8735 15.7496 17.9196 15.7544 17.9617C15.7585 17.9979 15.7515 18.038 15.7149 18.0825L15.9466 18.2731ZM15.3236 17.6416V17.3416H15.3209V17.6416V17.9416H15.3236V17.6416Z" fill="#4A4F68" mask="url(#path-2-outside-1_3878_2408)"></path><path d="M23.2172 33.326C24.6154 32.8974 26.035 32.869 27.4852 32.8933C28.6419 32.9136 29.8374 32.9069 30.9434 32.5161C31.8119 32.2091 32.7192 31.6372 33.0887 30.7434C33.4236 29.9361 33.0901 29.0478 32.3576 28.6016C31.3183 27.9687 29.8347 28.1553 28.6766 28.1188C27.2878 28.0756 25.8935 27.9687 24.518 27.7619C23.2399 27.5699 22.1352 27.0885 20.9198 26.6896C19.8844 26.3502 18.7771 26.1906 17.7845 26.7261C15.4964 27.9606 14.5571 30.5365 12.4611 31.963C11.9928 32.2822 12.4331 33.0556 12.9054 32.7338C13.7032 32.1902 14.373 31.5385 14.9654 30.7718C15.5057 30.0727 15.9927 29.329 16.6357 28.7178C17.3468 28.0418 18.2274 27.2318 19.2547 27.2616C20.3834 27.294 21.368 27.87 22.4194 28.204C24.486 28.8612 26.7901 28.9545 28.9381 29.0167C29.5505 29.0343 30.1656 29.0424 30.7766 29.087C31.3023 29.1248 31.992 29.2033 32.2655 29.7414C32.7632 30.7191 31.1795 31.5087 30.4951 31.7224C29.277 32.101 27.9909 31.9928 26.7367 31.9901C25.4826 31.9874 24.2058 32.0902 22.981 32.4647C22.4394 32.6297 22.6702 33.4924 23.2145 33.3247L23.2172 33.326Z" fill="#4A4F68" stroke="#4A4F68" stroke-width="0.75"></path><path d="M17.9939 38.7496C19.1826 37.8112 20.4728 37.3934 21.9724 37.4894C23.472 37.5854 24.8916 37.9167 26.3765 37.9275C29.2916 37.9478 31.952 36.7011 34.2241 34.9216C36.6189 33.0448 38.6602 30.6691 40.3826 28.1567C41.007 27.2454 41.4073 25.9622 40.3132 25.2171C39.2192 24.4721 38.0518 25.4078 37.2153 26.1055C36.6162 26.6058 36.0492 27.1413 35.5462 27.7416C35.2741 28.0661 35.0139 28.4042 34.7724 28.753C34.5309 29.1019 34.3602 29.4724 34.0173 29.7023C33.4409 30.089 32.7832 30.3851 32.1761 30.7204C31.6785 30.9963 32.1228 31.767 32.6204 31.4912C33.1181 31.2153 33.637 30.9287 34.1454 30.6474C35.0593 30.1431 35.4435 29.252 36.0933 28.4623C36.8644 27.5266 37.8944 26.4395 39.0124 25.9405C39.342 25.7931 39.7182 25.7904 39.9717 26.0879C40.2785 26.4489 40.1144 26.8722 39.9197 27.2332C39.5981 27.8309 39.1445 28.3758 38.7429 28.9194C37.0845 31.1653 35.0833 33.3126 32.7792 34.8865C30.355 36.5429 27.764 37.2406 24.8529 36.9472C23.54 36.8147 22.2152 36.4901 20.889 36.601C19.5509 36.7133 18.4168 37.2933 17.3695 38.1209C16.9226 38.4738 17.5496 39.1012 17.9926 38.7523L17.9939 38.7496Z" fill="#4A4F68" stroke="#4A4F68" stroke-width="0.75"></path><path d="M18.1714 41.0929C17.4082 41.7365 16.6704 42.4708 15.8566 43.0454C14.9894 43.658 14.4464 42.7087 13.9594 42.1151C12.3624 40.1694 10.764 38.2249 9.16704 36.2792C8.79748 35.8289 8.05034 35.211 7.90225 34.6119C7.73948 33.9534 8.42524 33.5464 8.84951 33.1881L10.3024 31.9631C10.7587 31.5777 11.2657 31.3735 11.7527 31.9063C11.9154 32.0834 12.0595 32.2808 12.213 32.4661C12.9281 33.3382 13.6445 34.209 14.3596 35.0812L17.2081 38.5495C17.7324 39.189 19.0306 40.2559 18.174 41.0929C17.7658 41.4918 18.3888 42.1232 18.7971 41.7244C19.4909 41.0469 19.5522 40.0585 18.9585 39.2905C18.8078 39.0944 18.6437 38.9078 18.4876 38.7158C17.631 37.6733 16.7745 36.6294 15.9179 35.5869C14.9867 34.4524 14.0541 33.3179 13.1229 32.1835C12.4945 31.4181 11.8821 30.4581 10.7294 30.7096C10.153 30.8353 9.70872 31.31 9.26844 31.6818C8.74278 32.1253 8.20777 32.5607 7.69012 33.0137C7.09641 33.5329 6.81623 34.3104 7.1351 35.0757C7.26318 35.3813 7.49399 35.6301 7.70212 35.883C9.46323 38.0275 11.223 40.1707 12.9841 42.3153C13.6499 43.1266 14.3436 44.3395 15.5617 44.1366C16.2301 44.0257 16.7518 43.4497 17.2535 43.0265C17.7551 42.6033 18.2834 42.1584 18.7984 41.7244C19.2347 41.3566 18.609 40.7278 18.1754 41.0929H18.1714Z" fill="#4A4F68" stroke="#4A4F68" stroke-width="0.75"></path></svg>