<svg xmlns="http://www.w3.org/2000/svg" width="48" height="48" viewBox="0 0 48 48" fill="none"><rect width="48" height="48" rx="24" fill="#FFECD4"></rect><g clip-path="url(#clip0_3328_1981)"><path d="M29.4972 24.2772C29.3778 24.1578 29.2115 24.0895 29.0453 24.0895C29.024 24.0895 29.0026 24.0895 28.9771 24.0895L27.9454 24.1322L30.1281 21.9492C32.0081 22.4097 33.9861 21.8682 35.3716 20.4825C36.9446 18.9134 37.4263 16.5641 36.6036 14.4877C36.5226 14.2873 36.3478 14.1424 36.1389 14.0955C35.93 14.0528 35.7083 14.1168 35.5591 14.2703L32.963 16.8669C32.7029 16.8669 32.4898 16.8669 32.2297 16.8669L31.1256 15.7626V15.0292L33.7175 12.4369C33.871 12.2834 33.9349 12.0659 33.8923 11.857C33.8497 11.6481 33.7005 11.4733 33.5044 11.3923C31.4326 10.5651 29.0794 11.0469 27.5106 12.6202C26.1294 14.0017 25.5837 15.98 26.0441 17.8646L23.1666 20.7425L17.4073 14.9823L17.4798 13.6392C17.4926 13.4047 17.3775 13.183 17.1771 13.0594L13.9969 11.1066C13.7454 10.9531 13.4171 10.9915 13.2083 11.2004L11.1919 13.2214C10.983 13.4303 10.9446 13.7586 11.0981 14.0102L13.0591 17.1952C13.1742 17.3828 13.383 17.4979 13.6047 17.4979C13.6175 17.4979 13.626 17.4979 13.6388 17.4979L14.9817 17.4254L20.741 23.1856L17.8762 26.0508C15.9877 25.5904 14.0097 26.1361 12.6285 27.5176C11.0554 29.0951 10.5737 31.4444 11.4008 33.5123C11.4817 33.7127 11.6565 33.8577 11.8654 33.9003C12.0743 33.9429 12.296 33.879 12.4452 33.7255L15.0371 31.1332C15.2971 31.1332 15.5103 31.1332 15.7703 31.1332L16.8744 32.2375V32.4293C16.8744 32.6084 16.8744 32.7747 16.8744 32.9666L14.2783 35.5631C14.1248 35.7166 14.0609 35.9341 14.1035 36.143C14.1461 36.3519 14.2953 36.5267 14.4914 36.6077C15.1607 36.8764 15.8598 37.0043 16.5547 37.0043C17.9999 37.0043 19.4194 36.4415 20.4852 35.3798C21.8664 33.9984 22.4121 32.02 21.9517 30.1355L24.1215 27.9652L24.0746 29.0312C24.0661 29.2102 24.1343 29.3851 24.2622 29.513L31.1512 36.4031C31.5519 36.8039 32.0763 37.0043 32.6006 37.0043C33.125 37.0043 33.6493 36.8039 34.05 36.4031L36.3819 34.0709C36.7698 33.6829 36.983 33.1669 36.983 32.6212C36.983 32.0754 36.7698 31.5595 36.3819 31.1715L29.4929 24.2814L29.4972 24.2772ZM27.2165 18.5126C27.387 18.3421 27.4467 18.0948 27.3742 17.8646C26.8839 16.3254 27.2847 14.6668 28.4186 13.5326C29.3778 12.5691 30.7249 12.1384 32.0379 12.3218L30.0386 14.3214C29.9192 14.4408 29.851 14.6028 29.851 14.7734V16.0354C29.851 16.206 29.9192 16.368 30.0386 16.4874L31.5178 17.9669C31.6372 18.0863 31.8205 18.146 31.974 18.1545C32.4599 18.1545 32.737 18.1545 33.2188 18.1545C33.3978 18.1417 33.5555 18.0905 33.6749 17.9669L35.6742 15.9672C35.8575 17.2804 35.4227 18.6235 34.4635 19.5828C33.3253 20.7212 31.667 21.122 30.1323 20.6274C29.9064 20.5549 29.6549 20.6146 29.4844 20.7852L27.7365 22.5333C27.7365 22.5333 27.711 22.4992 27.6982 22.4821L26.7219 21.5057C26.4832 21.267 26.0569 21.267 25.8182 21.5057L24.8675 22.4566L24.0704 21.6592L27.2122 18.5169L27.2165 18.5126ZM12.4494 13.7671L13.7539 12.4625L16.1838 13.959L16.1156 15.2083C16.1156 15.2083 16.1156 15.2253 16.1156 15.2339C16.1156 15.2424 16.1156 15.2509 16.1156 15.2594C16.1156 15.3362 16.1327 15.4087 16.1583 15.4769C16.1583 15.4854 16.1668 15.4897 16.1668 15.4982C16.1966 15.5707 16.2392 15.6346 16.2947 15.6901C16.2947 15.6901 16.2947 15.6943 16.2989 15.6986L23.9595 23.3605L23.3371 23.983L22.0881 22.7337L15.6765 16.3211C15.6765 16.3211 15.668 16.3211 15.6637 16.3126C15.6083 16.2571 15.5444 16.2145 15.4719 16.1847C15.4676 16.1847 15.4591 16.1804 15.4549 16.1761C15.3866 16.1506 15.3142 16.1335 15.2374 16.1335C15.2289 16.1335 15.2204 16.1335 15.2119 16.1335C15.2033 16.1335 15.1948 16.1335 15.1863 16.1335L13.9372 16.2017L12.4409 13.7714L12.4494 13.7671ZM20.6301 30.1355C21.1204 31.6747 20.7197 33.3332 19.5857 34.4674C18.618 35.431 17.2709 35.8616 15.9622 35.6783L17.9658 33.6743C18.0894 33.5549 18.1533 33.3887 18.1533 33.2181C18.1533 32.9026 18.1533 32.6809 18.1533 32.4293V31.9689C18.1533 31.7983 18.0851 31.6363 17.9658 31.5169L16.4822 30.0331C16.3629 29.9138 16.2094 29.8455 16.0261 29.8455C15.5401 29.8455 15.2673 29.8455 14.7813 29.8455C14.598 29.8583 14.4445 29.9138 14.3252 30.0331L12.3258 32.0328C12.1425 30.7239 12.5731 29.3808 13.5365 28.4172C14.6705 27.2831 16.333 26.8823 17.872 27.3726C18.0979 27.4451 18.3494 27.3854 18.5199 27.2148L21.649 24.0853L22.4462 24.8826L21.4998 25.8291C21.2483 26.0807 21.2483 26.4857 21.4998 26.733L22.476 27.7094C22.476 27.7094 22.5101 27.7393 22.5272 27.7521L20.7921 29.4874C20.6216 29.6579 20.5619 29.9052 20.6344 30.1355H20.6301ZM35.4824 33.1627L33.1505 35.4949C32.8479 35.7976 32.3576 35.7976 32.0592 35.4949L25.3706 28.8052L25.4388 27.2106C25.4473 27.0315 25.3791 26.8567 25.2512 26.733C25.1233 26.6051 24.9528 26.5369 24.7738 26.5454L23.1794 26.6137L22.8554 26.2896L26.2786 22.8659L26.6026 23.1899L26.5344 24.7888C26.5259 24.9679 26.5941 25.1427 26.7219 25.2663C26.8456 25.3942 27.0246 25.4625 27.1994 25.4539L28.798 25.3857L35.4867 32.0754C35.6316 32.2204 35.7126 32.4165 35.7126 32.6212C35.7126 32.8259 35.6316 33.022 35.4867 33.167L35.4824 33.1627Z" fill="#EEA027"></path><path d="M27.9454 27.0571C27.6939 26.8055 27.2889 26.8055 27.0417 27.0571C26.7944 27.3086 26.7901 27.7137 27.0417 27.961L32.2212 33.1414C32.3448 33.265 32.5111 33.329 32.6731 33.329C32.8351 33.329 33.0013 33.265 33.1249 33.1414C33.3765 32.8898 33.3765 32.4848 33.1249 32.2375L27.9454 27.0571Z" fill="#EEA027"></path></g><defs><clipPath id="clip0_3328_1981"><rect width="26" height="26" fill="white" transform="translate(11 11)"></rect></clipPath></defs></svg>