<svg xmlns="http://www.w3.org/2000/svg" width="48" height="48" viewBox="0 0 48 48" fill="none"><rect width="48" height="48" rx="24" fill="#E1EFFE"></rect><path d="M26.2675 19.5342C27.0192 19.321 27.8309 19.5319 28.3837 20.085C28.9358 20.6379 29.1457 21.4479 28.9316 22.1993L24.8925 36.4112C24.6454 37.2804 23.9026 37.8933 23.0019 37.9707C22.0999 38.0475 21.264 37.5703 20.872 36.7549L19.3124 33.5088L14.413 38.4082C14.0136 38.808 13.4878 39.0078 12.9628 39.0078C12.4382 39.0078 11.9127 38.8076 11.5126 38.4082L10.0556 36.9512C9.66827 36.5647 9.45411 36.0491 9.45404 35.501C9.45404 34.9528 9.66766 34.4369 10.0556 34.0498L14.954 29.1524L11.7089 27.5928C10.8938 27.2022 10.4162 26.366 10.4931 25.4649C10.5702 24.5637 11.1826 23.8213 12.0527 23.5743L26.2675 19.5342ZM26.8251 21.4981L12.6113 25.5381C12.5957 25.5425 12.5774 25.5483 12.5615 25.5616C12.5484 25.5724 12.5313 25.5928 12.5273 25.6397C12.5233 25.6862 12.5358 25.7098 12.5468 25.7227C12.5602 25.7383 12.578 25.7469 12.5927 25.7539L17.1367 27.9366C17.4347 28.0798 17.6455 28.3586 17.7011 28.6846C17.7566 29.0107 17.6508 29.3443 17.4169 29.5782L11.499 35.4952C11.4973 35.4969 11.4963 35.4976 11.496 35.4981C11.4958 35.4984 11.4951 35.4998 11.4951 35.502C11.4951 35.5035 11.4959 35.5045 11.496 35.5049C11.4962 35.5054 11.4967 35.5066 11.498 35.5078L12.955 36.9649C12.9594 36.969 12.9666 36.969 12.9697 36.9659L18.8876 31.0489C19.1216 30.815 19.4548 30.709 19.7812 30.7647C20.1073 30.8203 20.386 31.0303 20.5292 31.3282L22.7128 35.8721L22.7441 35.9161C22.7577 35.9274 22.7817 35.9396 22.8271 35.9366C22.8735 35.9325 22.8943 35.9164 22.9052 35.9034C22.9183 35.8876 22.924 35.8694 22.9286 35.8536L26.9687 21.6416L26.9745 21.6016C26.9743 21.5906 26.9723 21.5811 26.9697 21.5733C26.9638 21.5563 26.953 21.541 26.9404 21.5284C26.9279 21.5158 26.9121 21.5042 26.8945 21.4981C26.8863 21.4953 26.8764 21.4936 26.8652 21.4932L26.8251 21.4981ZM34.0126 25.9424C34.2084 25.4141 34.7951 25.1432 35.3242 25.3389L37.8798 26.2852C38.408 26.481 38.6777 27.0675 38.4824 27.5957C38.3298 28.0074 37.9391 28.2627 37.5244 28.2627C37.4069 28.2627 37.2873 28.2414 37.1708 28.1983L34.6152 27.253C34.0867 27.0574 33.8173 26.4709 34.0126 25.9424ZM36.707 16.0586C37.2188 15.8235 37.8248 16.0478 38.0605 16.5596C38.2957 17.0716 38.0715 17.6776 37.5595 17.9131L35.0781 19.0537C34.9401 19.1171 34.795 19.1475 34.6523 19.1475C34.2664 19.1474 33.8968 18.9273 33.7245 18.5537V18.5528C33.4895 18.0408 33.7135 17.4347 34.2255 17.1993L36.707 16.0586ZM18.9189 9.47953C19.4309 9.24469 20.0369 9.46832 20.2724 9.98051L21.2353 12.0752C21.4704 12.587 21.2463 13.1935 20.7343 13.4287C20.5964 13.492 20.4512 13.5215 20.3085 13.5215C19.9226 13.5215 19.5531 13.3015 19.3808 12.9278L18.4179 10.833C18.1825 10.3212 18.4067 9.71486 18.9189 9.47953ZM28.6445 9.65824C28.8404 9.13014 29.4273 8.86025 29.956 9.0557C30.4845 9.25151 30.7541 9.83872 30.5585 10.3672L29.7158 12.6446C29.5632 13.056 29.1733 13.3104 28.7587 13.3106C28.641 13.3106 28.5207 13.29 28.4042 13.2471C27.8758 13.0513 27.6062 12.4641 27.8017 11.9356L28.6445 9.65824Z" fill="#0088FF"></path></svg>